M48
INCH,TZ
T1C0.0118
T2C0.0276
T3C0.0315
T4C0.0354
T5C0.0394
T6C0.1260
%
G90
G05
T1
X1500Y6200
X1800Y18700
X1800Y16300
X2171Y18700
X2171Y16300
X2500Y31600
X2500Y31100
X2543Y18700
X2543Y16300
X2900Y31900
X2900Y25500
X2914Y18700
X2914Y16300
X3271Y31907
X3271Y25507
X3286Y18700
X3286Y16300
X3400Y21500
X3600Y23000
X3643Y31900
X3643Y25500
X3657Y18700
X3657Y16300
X4014Y31900
X4014Y25500
X4029Y18700
X4029Y16300
X4354Y18300
X4354Y17985
X4354Y17670
X4354Y17355
X4354Y17040
X4354Y16725
X4386Y31900
X4386Y25500
X4494Y10906
X4600Y21900
X4757Y31900
X4757Y25500
X4800Y17100
X5100Y31100
X5129Y31900
X5129Y25500
X5500Y31900
X5500Y25500
X6100Y31300
X6688Y1556
X6699Y927
X6700Y31577
X6700Y2500
X6700Y2185
X6700Y1870
X6700Y600
X6702Y1241
X7000Y30300
X7500Y24900
X7500Y21300
X7800Y1000
X7900Y29900
X8000Y8900
X8100Y21800
X8300Y23300
X8600Y32500
X8600Y31600
X9632Y32505
X9700Y31400
X9900Y32000
X10000Y32300
X10500Y31700
X10600Y13100
X10600Y12700
X10681Y32252
X10785Y22500
X10900Y31400
X11174Y31826
X11198Y34000
X11200Y36200
X11200Y35457
X11200Y35086
X11200Y34714
X11200Y34343
X11200Y32900
X11200Y32200
X11207Y35829
X11218Y33666
X11277Y21400
X11277Y20800
X11600Y23800
X11649Y32149
X11800Y25324
X11823Y23577
X11897Y24351
X11900Y24700
X12046Y25532
X12100Y11300
X12145Y24898
X12200Y15300
X12600Y25100
X12694Y27828
X12700Y27400
X12800Y15300
X12800Y11300
X12900Y25000
X13100Y24700
X13100Y24200
X13300Y13300
X13400Y10300
X13500Y15700
X13814Y31873
X14000Y16000
X14000Y13400
X14000Y9200
X14351Y12551
X14400Y26700
X14700Y31900
X14900Y19000
X15000Y31300
X15000Y13900
X15000Y12806
X15500Y26700
X15800Y18000
X16000Y19400
X16077Y5500
X16100Y4500
X16100Y3100
X16200Y21800
X16200Y21000
X16200Y12900
X16200Y11900
X16300Y24100
X16300Y18900
X16500Y11600
X16512Y18212
X16700Y18900
X16800Y15000
X16800Y11300
X17100Y18900
X17100Y18300
X17100Y13400
X17100Y5700
X17100Y4200
X17200Y21200
X17200Y7300
X17300Y14100
X17400Y20500
X17500Y18900
X17600Y2500
X17700Y14500
X17800Y18600
X17900Y15700
X17900Y5100
X18000Y24400
X18400Y32100
X18700Y24500
X18800Y19400
X18800Y11300
X19000Y14600
X19000Y13700
X19000Y3900
X19000Y2100
X19077Y23377
X19100Y32300
X19300Y11500
X19300Y8100
X19300Y3300
X19300Y691
X19400Y26700
X19400Y17000
X19400Y9500
X19500Y24200
X19500Y23800
X19500Y23100
X19527Y3727
X19600Y12100
X19700Y8300
X19700Y1100
X19746Y5800
X19754Y7007
X19800Y5200
X19800Y4800
X19800Y4400
X19800Y570
X19900Y11600
X20000Y20200
X20000Y18400
X20000Y12100
X20000Y10600
X20000Y2700
X20000Y1300
X20100Y19300
X20100Y1800
X20150Y570
X20200Y19600
X20300Y19900
X20300Y11000
X20300Y4800
X20500Y22600
X20500Y21500
X20600Y14800
X20784Y12946
X20795Y13305
X20800Y12615
X20800Y12300
X20800Y11900
X21000Y24600
X21077Y14500
X21100Y1200
X21200Y5400
X21200Y4400
X21300Y22600
X21300Y14800
X21300Y3000
X21500Y15100
X21700Y15400
X22000Y4200
X22000Y3300
X22000Y2300
X22077Y10377
X22100Y12300
X22100Y6100
X22277Y11323
X22300Y14200
X22300Y10600
X22400Y9100
X22400Y8300
X22500Y7300
X22600Y31200
X22600Y1400
X22700Y11000
X22700Y9600
X22701Y11400
X22800Y14500
X22800Y6500
X22900Y13900
X22957Y8943
X23000Y20700
X23100Y12000
X23200Y24600
X23200Y14500
X23400Y13925
X23600Y11900
X23600Y11400
X23700Y18100
X23800Y13925
X23900Y15200
X23947Y23600
X24100Y10600
X24200Y29900
X24200Y29585
X24200Y29270
X24200Y28955
X24200Y28640
X24200Y28325
X24200Y28010
X24200Y27695
X24200Y20700
X24200Y10300
X24200Y8400
X24226Y13925
X24300Y7300
X24400Y14500
X24450Y6050
X24485Y24300
X24600Y13925
X24600Y10700
X24700Y28600
X24800Y24300
X24800Y23500
X24800Y23185
X24800Y11100
X24900Y14500
X24900Y13400
X24900Y12100
X24900Y11700
X25000Y6800
X25077Y12800
X25100Y13700
X25176Y13154
X25400Y11700
X25400Y11300
X25600Y11000
X25700Y13700
X25752Y12952
X25800Y12500
X26200Y9700
X26400Y16800
X26400Y13800
X26400Y5500
X26418Y19954
X26450Y4300
X26500Y12100
X26500Y10060
X26500Y8200
X26600Y6300
X26700Y24000
X26800Y20900
X26800Y2200
X26900Y9400
X26900Y7500
X26950Y3150
X27000Y8400
X27300Y14100
X27600Y15000
X27700Y14500
X27900Y5200
X28146Y8400
X28150Y6300
X28200Y7000
X28300Y13800
X29300Y7400
X29500Y6200
X29500Y2400
X29700Y6454
X29800Y5200
X29900Y5900
X30175Y16100
X30200Y16800
X30200Y6000
X30300Y17900
X30300Y15500
X30300Y15100
X30300Y11946
X30500Y15854
X30600Y32300
X30600Y13400
X30700Y28400
X30700Y27400
X30700Y26400
X30700Y25400
X30700Y24400
X30700Y23400
X30700Y22000
X30700Y21400
X30700Y17300
X30700Y16300
X30700Y11946
X30700Y7000
X30700Y4500
X30800Y10300
X30900Y2200
X30959Y12518
X31000Y14200
X31000Y6300
X31049Y15751
X31100Y16700
X31100Y12800
X31115Y6995
X31200Y8300
X31300Y3800
X31400Y16900
X31400Y16500
X31400Y12000
X31484Y7000
X31600Y20500
X31600Y17800
X31650Y23050
X31654Y13100
X31700Y4100
X31800Y23700
X31800Y11200
X31900Y12854
X32000Y20500
X32000Y19600
X32000Y17800
X32000Y15100
X32000Y4200
X32200Y23100
X32285Y12500
X32285Y11946
X32300Y4600
X32400Y29400
X32400Y28700
X32400Y28000
X32500Y20600
X32500Y13400
X32600Y19500
X32650Y26947
X32700Y22300
X32800Y26400
X33100Y10800
X33800Y10500
X33900Y12152
X34089Y22967
X34100Y14900
X34100Y13700
X34200Y15600
X34300Y23800
X34300Y21500
X34300Y21000
X34400Y26800
X34400Y14300
X34600Y22800
X34800Y11200
T2
X3500Y22500
X3500Y19500
X5100Y22500
X5100Y19500
X8300Y22500
X8300Y19500
X13300Y14400
X16300Y14400
T3
X4800Y15734
X4800Y14750
X5100Y17600
X5284Y30400
X5284Y29400
X5284Y28400
X5284Y27400
X5500Y9306
X5500Y8306
X5500Y7306
X5500Y6306
X5500Y5306
X5500Y4306
X6500Y10306
X6500Y9306
X6500Y8306
X6500Y7306
X6500Y6306
X6500Y5306
X6500Y4306
X6500Y3306
X6700Y22500
X6700Y21516
X7500Y10306
X7500Y9306
X7500Y4306
X7500Y3306
X7800Y15734
X7800Y14750
X8008Y12700
X8100Y17600
X8284Y30400
X8284Y29400
X8284Y28400
X8284Y27400
X8500Y10306
X8500Y9306
X8500Y4306
X8500Y3306
X8992Y12700
X9500Y10306
X9500Y9306
X9500Y4306
X9500Y3306
X9900Y19500
X9900Y18516
X10500Y10306
X10500Y9306
X10500Y4306
X10500Y3306
X11300Y30400
X11300Y29416
X11500Y10306
X11500Y9306
X11500Y8306
X11500Y7306
X11500Y6306
X11500Y5306
X11500Y4306
X11500Y3306
X12300Y22500
X12300Y21500
X12300Y20500
X12300Y19500
X12300Y18500
X12300Y17500
X12500Y9306
X12500Y8306
X12500Y7306
X12500Y6306
X12500Y5306
X12500Y4306
X13300Y23500
X13300Y22500
X13300Y21500
X13300Y20500
X13300Y19500
X13300Y18500
X13300Y17500
X13300Y16500
X13500Y30400
X13500Y27400
X13750Y33900
X14300Y23500
X14300Y22500
X14300Y17500
X14300Y16500
X14500Y30400
X14500Y27400
X14750Y33900
X15300Y23500
X15300Y22500
X15300Y17500
X15300Y16500
X15418Y10306
X15418Y9306
X15418Y8306
X15418Y7306
X15418Y6306
X15418Y5306
X15418Y4306
X15418Y3306
X15418Y2306
X15418Y1306
X15500Y30400
X15500Y27400
X15750Y33900
X16300Y23500
X16300Y22500
X16300Y17500
X16300Y16500
X16500Y30400
X16500Y27400
X16750Y33900
X17300Y23500
X17300Y22500
X17300Y17500
X17300Y16500
X17434Y12600
X17500Y30400
X17500Y27400
X17750Y33900
X18300Y23500
X18300Y22500
X18300Y21500
X18300Y20500
X18300Y19500
X18300Y18500
X18300Y17500
X18300Y16500
X18418Y12600
X18418Y10306
X18418Y9306
X18418Y8306
X18418Y7306
X18418Y6306
X18418Y5306
X18418Y4306
X18418Y3306
X18418Y2306
X18418Y1306
X18500Y30400
X18500Y27400
X18750Y33900
X19300Y22500
X19300Y21500
X19300Y20500
X19300Y19500
X19300Y18500
X19300Y17500
X19500Y30400
X19500Y27400
X19750Y33900
X20500Y30400
X20500Y27400
X20577Y10306
X20577Y9306
X20577Y8306
X20577Y7306
X20577Y6306
X20577Y5306
X20577Y4306
X20577Y3306
X20577Y2306
X20577Y1306
X20750Y33900
X21500Y30400
X21500Y27400
X21600Y17084
X21600Y16100
X21750Y33900
X22500Y30400
X22500Y27400
X22593Y12600
X23100Y19100
X23100Y16100
X23577Y12600
X23577Y10306
X23577Y9306
X23577Y8306
X23577Y7306
X23577Y6306
X23577Y5306
X23577Y4306
X23577Y3306
X23577Y2306
X23577Y1306
X23700Y33900
X24100Y19100
X24100Y16100
X24700Y33900
X25100Y19100
X25100Y16100
X25700Y33900
X25736Y30400
X25736Y29400
X25736Y28400
X25736Y27400
X25736Y26400
X25736Y25400
X25736Y24400
X25736Y23400
X25736Y22400
X25736Y21400
X25736Y10306
X25736Y9306
X25736Y8306
X25736Y7306
X25736Y6306
X25736Y5306
X25736Y4306
X25736Y3306
X25736Y2306
X25736Y1306
X26100Y19100
X26100Y16100
X26700Y33900
X27100Y19100
X27100Y16100
X27700Y33900
X27752Y32300
X27752Y12600
X28100Y19100
X28100Y16100
X28700Y33900
X28736Y32300
X28736Y30400
X28736Y29400
X28736Y28400
X28736Y27400
X28736Y26400
X28736Y25400
X28736Y24400
X28736Y23400
X28736Y22400
X28736Y21400
X28736Y12600
X28736Y10306
X28736Y9306
X28736Y8306
X28736Y7306
X28736Y6306
X28736Y5306
X28736Y4306
X28736Y3306
X28736Y2306
X28736Y1306
X29100Y19100
X29100Y16100
X29700Y33900
X30700Y33900
X31500Y30750
X31500Y29750
X31500Y28750
X31500Y27750
X31500Y26750
X31700Y33900
X33400Y30750
X33400Y29750
X33400Y28750
X33400Y27750
X33400Y26750
X33400Y25750
X33400Y24750
X33400Y23750
X33400Y22750
X33400Y20750
X33400Y19750
X33400Y18750
X33400Y17750
X33400Y16750
X33400Y15750
X33400Y14750
X33400Y13750
X33400Y12750
T4
X1400Y20400
X1400Y19400
T5
X1050Y15750
X1050Y14750
X1050Y13750
X1050Y12750
X1050Y11750
X1050Y10750
X1050Y9750
X1050Y8750
X1050Y7750
X1050Y6750
X1750Y32806
X1750Y31806
X1750Y30806
X1750Y28100
X1750Y27100
X1750Y24300
X1750Y23300
X1750Y22300
X2050Y15750
X2050Y14750
X2050Y13750
X2050Y12750
X2050Y11750
X2050Y10750
X2050Y9750
X2050Y8750
X2050Y7750
X2050Y6750
X6200Y36500
X6200Y35500
X7200Y36500
X7200Y35500
X8200Y36500
X8200Y35500
X9200Y36500
X9200Y35500
X14750Y36500
X14750Y35500
X15750Y36500
X15750Y35500
X16750Y36500
X16750Y35500
X17750Y36500
X17750Y35500
X18750Y36500
X18750Y35500
X19750Y36500
X19750Y35500
X20750Y36500
X20750Y35500
X21750Y36500
X21750Y35500
X22750Y36500
X22750Y35500
X23750Y36500
X23750Y35500
X24750Y36500
X24750Y35500
X25750Y36500
X25750Y35500
X26750Y36500
X26750Y35500
X27750Y36500
X27750Y35500
X28750Y36500
X28750Y35500
X29750Y36500
X29750Y35500
X30750Y36500
X30750Y35500
X35500Y30750
X35500Y29750
X35500Y28750
X35500Y27750
X35500Y26750
X35500Y25750
X35500Y24750
X35500Y23750
X35500Y22750
X35500Y21750
X35500Y20750
X35500Y19750
X35500Y18750
X35500Y17750
X35500Y16750
X35500Y15750
X35500Y14750
X35500Y13750
X35500Y12750
X35500Y11750
X36500Y30750
X36500Y29750
X36500Y28750
X36500Y27750
X36500Y26750
X36500Y25750
X36500Y24750
X36500Y23750
X36500Y22750
X36500Y21750
X36500Y20750
X36500Y19750
X36500Y18750
X36500Y17750
X36500Y16750
X36500Y15750
X36500Y14750
X36500Y13750
X36500Y12750
X36500Y11750
T6
X1388Y36112
X1388Y1388
X36112Y36112
X36112Y1388
M30
