%TF.GenerationSoftware,KiCad,Pcbnew,8.0.3*%
%TF.CreationDate,2024-06-07T18:19:59+02:00*%
%TF.ProjectId,cpu_board_ext_bus_v2,6370755f-626f-4617-9264-5f6578745f62,2.3*%
%TF.SameCoordinates,PX18392c0PY730f910*%
%TF.FileFunction,Drillmap*%
%TF.FilePolarity,Positive*%
%FSLAX45Y45*%
G04 Gerber Fmt 4.5, Leading zero omitted, Abs format (unit mm)*
G04 Created by KiCad (PCBNEW 8.0.3) date 2024-06-07 18:19:59*
%MOMM*%
%LPD*%
G01*
G04 APERTURE LIST*
%ADD10C,0.100000*%
%ADD11C,0.200000*%
%ADD12C,0.320000*%
G04 APERTURE END LIST*
D10*
X0Y9325000D02*
X0Y200000D01*
X9525000Y9325000D02*
X9525000Y200000D01*
X9525000Y200000D02*
G75*
G02*
X9325000Y0I-200000J0D01*
G01*
X200000Y0D02*
G75*
G02*
X0Y200000I0J200000D01*
G01*
X0Y9325000D02*
G75*
G02*
X200000Y9525000I200000J0D01*
G01*
X9325000Y9525000D02*
G75*
G02*
X9525000Y9325000I0J-200000D01*
G01*
X200000Y0D02*
X9325000Y0D01*
X200000Y9525000D02*
X9325000Y9525000D01*
D11*
D10*
X366000Y1589800D02*
X396000Y1559800D01*
X396000Y1589800D02*
X366000Y1559800D01*
X442200Y4764800D02*
X472200Y4734800D01*
X472200Y4764800D02*
X442200Y4734800D01*
X442200Y4155200D02*
X472200Y4125200D01*
X472200Y4155200D02*
X442200Y4125200D01*
X536543Y4764800D02*
X566543Y4734800D01*
X566543Y4764800D02*
X536543Y4734800D01*
X536543Y4155200D02*
X566543Y4125200D01*
X566543Y4155200D02*
X536543Y4125200D01*
X620000Y8041400D02*
X650000Y8011400D01*
X650000Y8041400D02*
X620000Y8011400D01*
X620000Y7914400D02*
X650000Y7884400D01*
X650000Y7914400D02*
X620000Y7884400D01*
X630885Y4764800D02*
X660885Y4734800D01*
X660885Y4764800D02*
X630885Y4734800D01*
X630885Y4155200D02*
X660885Y4125200D01*
X660885Y4155200D02*
X630885Y4125200D01*
X721601Y8117600D02*
X751601Y8087600D01*
X751601Y8117600D02*
X721601Y8087600D01*
X721601Y6492000D02*
X751601Y6462000D01*
X751601Y6492000D02*
X721601Y6462000D01*
X725228Y4764800D02*
X755228Y4734800D01*
X755228Y4764800D02*
X725228Y4734800D01*
X725228Y4155200D02*
X755228Y4125200D01*
X755228Y4155200D02*
X725228Y4125200D01*
X815943Y8119475D02*
X845943Y8089475D01*
X845943Y8119475D02*
X815943Y8089475D01*
X815943Y6493875D02*
X845943Y6463875D01*
X845943Y6493875D02*
X815943Y6463875D01*
X819571Y4764800D02*
X849571Y4734800D01*
X849571Y4764800D02*
X819571Y4734800D01*
X819571Y4155200D02*
X849571Y4125200D01*
X849571Y4155200D02*
X819571Y4125200D01*
X848600Y5476000D02*
X878600Y5446000D01*
X878600Y5476000D02*
X848600Y5446000D01*
X899400Y5857000D02*
X929400Y5827000D01*
X929400Y5857000D02*
X899400Y5827000D01*
X910286Y8117600D02*
X940286Y8087600D01*
X940286Y8117600D02*
X910286Y8087600D01*
X910286Y6492000D02*
X940286Y6462000D01*
X940286Y6492000D02*
X910286Y6462000D01*
X913913Y4764800D02*
X943913Y4734800D01*
X943913Y4764800D02*
X913913Y4734800D01*
X913913Y4155200D02*
X943913Y4125200D01*
X943913Y4155200D02*
X913913Y4125200D01*
X1004629Y8117600D02*
X1034629Y8087600D01*
X1034629Y8117600D02*
X1004629Y8087600D01*
X1004629Y6492000D02*
X1034629Y6462000D01*
X1034629Y6492000D02*
X1004629Y6462000D01*
X1008256Y4764800D02*
X1038256Y4734800D01*
X1038256Y4764800D02*
X1008256Y4734800D01*
X1008256Y4155200D02*
X1038256Y4125200D01*
X1038256Y4155200D02*
X1008256Y4125200D01*
X1090950Y4663200D02*
X1120950Y4633200D01*
X1120950Y4663200D02*
X1090950Y4633200D01*
X1090950Y4583200D02*
X1120950Y4553200D01*
X1120950Y4583200D02*
X1090950Y4553200D01*
X1090950Y4503200D02*
X1120950Y4473200D01*
X1120950Y4503200D02*
X1090950Y4473200D01*
X1090950Y4423200D02*
X1120950Y4393200D01*
X1120950Y4423200D02*
X1090950Y4393200D01*
X1090950Y4343200D02*
X1120950Y4313200D01*
X1120950Y4343200D02*
X1090950Y4313200D01*
X1090950Y4263200D02*
X1120950Y4233200D01*
X1120950Y4263200D02*
X1090950Y4233200D01*
X1098972Y8117600D02*
X1128972Y8087600D01*
X1128972Y8117600D02*
X1098972Y8087600D01*
X1098972Y6492000D02*
X1128972Y6462000D01*
X1128972Y6492000D02*
X1098972Y6462000D01*
X1126491Y2785109D02*
X1156491Y2755109D01*
X1156491Y2785109D02*
X1126491Y2755109D01*
X1153400Y5577600D02*
X1183400Y5547600D01*
X1183400Y5577600D02*
X1153400Y5547600D01*
X1193314Y8117600D02*
X1223314Y8087600D01*
X1223314Y8117600D02*
X1193314Y8087600D01*
X1193314Y6492000D02*
X1223314Y6462000D01*
X1223314Y6492000D02*
X1193314Y6462000D01*
X1204200Y4358400D02*
X1234200Y4328400D01*
X1234200Y4358400D02*
X1204200Y4328400D01*
X1280400Y7914400D02*
X1310400Y7884400D01*
X1310400Y7914400D02*
X1280400Y7884400D01*
X1287657Y8117600D02*
X1317657Y8087600D01*
X1317657Y8117600D02*
X1287657Y8087600D01*
X1287657Y6492000D02*
X1317657Y6462000D01*
X1317657Y6492000D02*
X1287657Y6462000D01*
X1382000Y8117600D02*
X1412000Y8087600D01*
X1412000Y8117600D02*
X1382000Y8087600D01*
X1382000Y6492000D02*
X1412000Y6462000D01*
X1412000Y6492000D02*
X1382000Y6462000D01*
X1534400Y7965200D02*
X1564400Y7935200D01*
X1564400Y7965200D02*
X1534400Y7935200D01*
X1683831Y410204D02*
X1713831Y380204D01*
X1713831Y410204D02*
X1683831Y380204D01*
X1686652Y250381D02*
X1716652Y220381D01*
X1716652Y250381D02*
X1686652Y220381D01*
X1686800Y8035600D02*
X1716800Y8005600D01*
X1716800Y8035600D02*
X1686800Y8005600D01*
X1686800Y650000D02*
X1716800Y620000D01*
X1716800Y650000D02*
X1686800Y620000D01*
X1686800Y570050D02*
X1716800Y540050D01*
X1716800Y570050D02*
X1686800Y540050D01*
X1686800Y490099D02*
X1716800Y460099D01*
X1716800Y490099D02*
X1686800Y460099D01*
X1686800Y167400D02*
X1716800Y137400D01*
X1716800Y167400D02*
X1686800Y137400D01*
X1687286Y330329D02*
X1717286Y300329D01*
X1717286Y330329D02*
X1687286Y300329D01*
X1763000Y7711200D02*
X1793000Y7681200D01*
X1793000Y7711200D02*
X1763000Y7681200D01*
X1890000Y6339600D02*
X1920000Y6309600D01*
X1920000Y6339600D02*
X1890000Y6309600D01*
X1890000Y5425200D02*
X1920000Y5395200D01*
X1920000Y5425200D02*
X1890000Y5395200D01*
X1966200Y269000D02*
X1996200Y239000D01*
X1996200Y269000D02*
X1966200Y239000D01*
X1991600Y7609600D02*
X2021600Y7579600D01*
X2021600Y7609600D02*
X1991600Y7579600D01*
X2017000Y2275600D02*
X2047000Y2245600D01*
X2047000Y2275600D02*
X2017000Y2245600D01*
X2042400Y5552200D02*
X2072400Y5522200D01*
X2072400Y5552200D02*
X2042400Y5522200D01*
X2093200Y5933200D02*
X2123200Y5903200D01*
X2123200Y5933200D02*
X2093200Y5903200D01*
X2169400Y8270000D02*
X2199400Y8240000D01*
X2199400Y8270000D02*
X2169400Y8240000D01*
X2169400Y8041400D02*
X2199400Y8011400D01*
X2199400Y8041400D02*
X2169400Y8011400D01*
X2431541Y8271200D02*
X2461541Y8241200D01*
X2461541Y8271200D02*
X2431541Y8241200D01*
X2448800Y7990600D02*
X2478800Y7960600D01*
X2478800Y7990600D02*
X2448800Y7960600D01*
X2499600Y8143000D02*
X2529600Y8113000D01*
X2529600Y8143000D02*
X2499600Y8113000D01*
X2525000Y8219200D02*
X2555000Y8189200D01*
X2555000Y8219200D02*
X2525000Y8189200D01*
X2652000Y8066800D02*
X2682000Y8036800D01*
X2682000Y8066800D02*
X2652000Y8036800D01*
X2677400Y3342400D02*
X2707400Y3312400D01*
X2707400Y3342400D02*
X2677400Y3312400D01*
X2677400Y3240800D02*
X2707400Y3210800D01*
X2707400Y3240800D02*
X2677400Y3210800D01*
X2698048Y8206943D02*
X2728048Y8176943D01*
X2728048Y8206943D02*
X2698048Y8176943D01*
X2724400Y5730000D02*
X2754400Y5700000D01*
X2754400Y5730000D02*
X2724400Y5700000D01*
X2753600Y7990600D02*
X2783600Y7960600D01*
X2783600Y7990600D02*
X2753600Y7960600D01*
X2823159Y8098841D02*
X2853159Y8068841D01*
X2853159Y8098841D02*
X2823159Y8068841D01*
X2829380Y8651061D02*
X2859380Y8621061D01*
X2859380Y8651061D02*
X2829380Y8621061D01*
X2829800Y9209800D02*
X2859800Y9179800D01*
X2859800Y9209800D02*
X2829800Y9179800D01*
X2829800Y9021115D02*
X2859800Y8991115D01*
X2859800Y9021115D02*
X2829800Y8991115D01*
X2829800Y8926772D02*
X2859800Y8896772D01*
X2859800Y8926772D02*
X2829800Y8896772D01*
X2829800Y8832429D02*
X2859800Y8802429D01*
X2859800Y8832429D02*
X2829800Y8802429D01*
X2829800Y8738087D02*
X2859800Y8708087D01*
X2859800Y8738087D02*
X2829800Y8708087D01*
X2829800Y8371600D02*
X2859800Y8341600D01*
X2859800Y8371600D02*
X2829800Y8341600D01*
X2829800Y8193800D02*
X2859800Y8163800D01*
X2859800Y8193800D02*
X2829800Y8163800D01*
X2831675Y9115457D02*
X2861675Y9085457D01*
X2861675Y9115457D02*
X2831675Y9085457D01*
X2834249Y8566200D02*
X2864249Y8536200D01*
X2864249Y8566200D02*
X2834249Y8536200D01*
X2849350Y5450600D02*
X2879350Y5420600D01*
X2879350Y5450600D02*
X2849350Y5420600D01*
X2849350Y5298200D02*
X2879350Y5268200D01*
X2879350Y5298200D02*
X2849350Y5268200D01*
X2931400Y6060200D02*
X2961400Y6030200D01*
X2961400Y6060200D02*
X2931400Y6030200D01*
X2943914Y8180914D02*
X2973914Y8150914D01*
X2973914Y8180914D02*
X2943914Y8150914D01*
X2982200Y6447259D02*
X3012200Y6417259D01*
X3012200Y6447259D02*
X2982200Y6417259D01*
X2987933Y6003667D02*
X3017933Y5973667D01*
X3017933Y6003667D02*
X2987933Y5973667D01*
X3006784Y6200134D02*
X3036784Y6170134D01*
X3036784Y6200134D02*
X3006784Y6170134D01*
X3007600Y6288800D02*
X3037600Y6258800D01*
X3037600Y6288800D02*
X3007600Y6258800D01*
X3044650Y6500101D02*
X3074650Y6470101D01*
X3074650Y6500101D02*
X3044650Y6470101D01*
X3058400Y2885200D02*
X3088400Y2855200D01*
X3088400Y2885200D02*
X3058400Y2855200D01*
X3069896Y6338978D02*
X3099896Y6308978D01*
X3099896Y6338978D02*
X3069896Y6308978D01*
X3083800Y3901200D02*
X3113800Y3871200D01*
X3113800Y3901200D02*
X3083800Y3871200D01*
X3185400Y6390400D02*
X3215400Y6360400D01*
X3215400Y6390400D02*
X3185400Y6360400D01*
X3209373Y7083291D02*
X3239373Y7053291D01*
X3239373Y7083291D02*
X3209373Y7053291D01*
X3210800Y6974600D02*
X3240800Y6944600D01*
X3240800Y6974600D02*
X3210800Y6944600D01*
X3236200Y3901200D02*
X3266200Y3871200D01*
X3266200Y3901200D02*
X3236200Y3871200D01*
X3236200Y2885200D02*
X3266200Y2855200D01*
X3266200Y2885200D02*
X3236200Y2855200D01*
X3261600Y6365000D02*
X3291600Y6335000D01*
X3291600Y6365000D02*
X3261600Y6335000D01*
X3312400Y6288800D02*
X3342400Y6258800D01*
X3342400Y6288800D02*
X3312400Y6258800D01*
X3312400Y6161800D02*
X3342400Y6131800D01*
X3342400Y6161800D02*
X3312400Y6131800D01*
X3363200Y3393200D02*
X3393200Y3363200D01*
X3393200Y3393200D02*
X3363200Y3363200D01*
X3388600Y2631200D02*
X3418600Y2601200D01*
X3418600Y2631200D02*
X3388600Y2601200D01*
X3414000Y4002800D02*
X3444000Y3972800D01*
X3444000Y4002800D02*
X3414000Y3972800D01*
X3493736Y8110800D02*
X3523736Y8080800D01*
X3523736Y8110800D02*
X3493736Y8080800D01*
X3541000Y4079000D02*
X3571000Y4049000D01*
X3571000Y4079000D02*
X3541000Y4049000D01*
X3541000Y3418600D02*
X3571000Y3388600D01*
X3571000Y3418600D02*
X3541000Y3388600D01*
X3541000Y2351800D02*
X3571000Y2321800D01*
X3571000Y2351800D02*
X3541000Y2321800D01*
X3630259Y3203059D02*
X3660259Y3173059D01*
X3660259Y3203059D02*
X3630259Y3173059D01*
X3642600Y6796800D02*
X3672600Y6766800D01*
X3672600Y6796800D02*
X3642600Y6766800D01*
X3718800Y8117600D02*
X3748800Y8087600D01*
X3748800Y8117600D02*
X3718800Y8087600D01*
X3769600Y4841000D02*
X3799600Y4811000D01*
X3799600Y4841000D02*
X3769600Y4811000D01*
X3795000Y7965200D02*
X3825000Y7935200D01*
X3825000Y7965200D02*
X3795000Y7935200D01*
X3795000Y3545600D02*
X3825000Y3515600D01*
X3825000Y3545600D02*
X3795000Y3515600D01*
X3795000Y3267800D02*
X3825000Y3237800D01*
X3825000Y3267800D02*
X3795000Y3237800D01*
X3922000Y6796800D02*
X3952000Y6766800D01*
X3952000Y6796800D02*
X3922000Y6766800D01*
X3998200Y4587000D02*
X4028200Y4557000D01*
X4028200Y4587000D02*
X3998200Y4557000D01*
X4049000Y4942600D02*
X4079000Y4912600D01*
X4079000Y4942600D02*
X4049000Y4912600D01*
X4068550Y1412000D02*
X4098550Y1382000D01*
X4098550Y1412000D02*
X4068550Y1382000D01*
X4074400Y1158000D02*
X4104400Y1128000D01*
X4104400Y1158000D02*
X4074400Y1128000D01*
X4074400Y802400D02*
X4104400Y772400D01*
X4104400Y802400D02*
X4074400Y772400D01*
X4099800Y5552200D02*
X4129800Y5522200D01*
X4129800Y5552200D02*
X4099800Y5522200D01*
X4099800Y5349000D02*
X4129800Y5319000D01*
X4129800Y5349000D02*
X4099800Y5319000D01*
X4099800Y3291600D02*
X4129800Y3261600D01*
X4129800Y3291600D02*
X4099800Y3261600D01*
X4099800Y3037600D02*
X4129800Y3007600D01*
X4129800Y3037600D02*
X4099800Y3007600D01*
X4125200Y6136400D02*
X4155200Y6106400D01*
X4155200Y6136400D02*
X4125200Y6106400D01*
X4125200Y4815600D02*
X4155200Y4785600D01*
X4155200Y4815600D02*
X4125200Y4785600D01*
X4176000Y2961400D02*
X4206000Y2931400D01*
X4206000Y2961400D02*
X4176000Y2931400D01*
X4179129Y4640929D02*
X4209129Y4610929D01*
X4209129Y4640929D02*
X4179129Y4610929D01*
X4226800Y4815600D02*
X4256800Y4785600D01*
X4256800Y4815600D02*
X4226800Y4785600D01*
X4252200Y3825000D02*
X4282200Y3795000D01*
X4282200Y3825000D02*
X4252200Y3795000D01*
X4252200Y2885200D02*
X4282200Y2855200D01*
X4282200Y2885200D02*
X4252200Y2855200D01*
X4328400Y4815600D02*
X4358400Y4785600D01*
X4358400Y4815600D02*
X4328400Y4785600D01*
X4328400Y4663200D02*
X4358400Y4633200D01*
X4358400Y4663200D02*
X4328400Y4633200D01*
X4328400Y3418600D02*
X4358400Y3388600D01*
X4358400Y3418600D02*
X4328400Y3388600D01*
X4328400Y1462800D02*
X4358400Y1432800D01*
X4358400Y1462800D02*
X4328400Y1432800D01*
X4328400Y1081800D02*
X4358400Y1051800D01*
X4358400Y1081800D02*
X4328400Y1051800D01*
X4353800Y5399800D02*
X4383800Y5369800D01*
X4383800Y5399800D02*
X4353800Y5369800D01*
X4353800Y1869200D02*
X4383800Y1839200D01*
X4383800Y1869200D02*
X4353800Y1839200D01*
X4379200Y3596400D02*
X4409200Y3566400D01*
X4409200Y3596400D02*
X4379200Y3566400D01*
X4404600Y5222000D02*
X4434600Y5192000D01*
X4434600Y5222000D02*
X4404600Y5192000D01*
X4430000Y4815600D02*
X4460000Y4785600D01*
X4460000Y4815600D02*
X4430000Y4785600D01*
X4455400Y650000D02*
X4485400Y620000D01*
X4485400Y650000D02*
X4455400Y620000D01*
X4480800Y3698000D02*
X4510800Y3668000D01*
X4510800Y3698000D02*
X4480800Y3668000D01*
X4506200Y4739400D02*
X4536200Y4709400D01*
X4536200Y4739400D02*
X4506200Y4709400D01*
X4531600Y4002800D02*
X4561600Y3972800D01*
X4561600Y4002800D02*
X4531600Y3972800D01*
X4531600Y1310400D02*
X4561600Y1280400D01*
X4561600Y1310400D02*
X4531600Y1280400D01*
X4557000Y6212600D02*
X4587000Y6182600D01*
X4587000Y6212600D02*
X4557000Y6182600D01*
X4658600Y8168400D02*
X4688600Y8138400D01*
X4688600Y8168400D02*
X4658600Y8138400D01*
X4734800Y6238000D02*
X4764800Y6208000D01*
X4764800Y6238000D02*
X4734800Y6208000D01*
X4760200Y4942600D02*
X4790200Y4912600D01*
X4790200Y4942600D02*
X4760200Y4912600D01*
X4760200Y2885200D02*
X4790200Y2855200D01*
X4790200Y2885200D02*
X4760200Y2855200D01*
X4811000Y3723400D02*
X4841000Y3693400D01*
X4841000Y3723400D02*
X4811000Y3693400D01*
X4811000Y3494800D02*
X4841000Y3464800D01*
X4841000Y3494800D02*
X4811000Y3464800D01*
X4811000Y1005600D02*
X4841000Y975600D01*
X4841000Y1005600D02*
X4811000Y975600D01*
X4811000Y548400D02*
X4841000Y518400D01*
X4841000Y548400D02*
X4811000Y518400D01*
X4830600Y5952800D02*
X4860600Y5922800D01*
X4860600Y5952800D02*
X4830600Y5922800D01*
X4836400Y8219200D02*
X4866400Y8189200D01*
X4866400Y8219200D02*
X4836400Y8189200D01*
X4887200Y2936000D02*
X4917200Y2906000D01*
X4917200Y2936000D02*
X4887200Y2906000D01*
X4887200Y2072400D02*
X4917200Y2042400D01*
X4917200Y2072400D02*
X4887200Y2042400D01*
X4887200Y853200D02*
X4917200Y823200D01*
X4917200Y853200D02*
X4887200Y823200D01*
X4887200Y190580D02*
X4917200Y160580D01*
X4917200Y190580D02*
X4887200Y160580D01*
X4912600Y6796800D02*
X4942600Y6766800D01*
X4942600Y6796800D02*
X4912600Y6766800D01*
X4912600Y4333000D02*
X4942600Y4303000D01*
X4942600Y4333000D02*
X4912600Y4303000D01*
X4912600Y2428000D02*
X4942600Y2398000D01*
X4942600Y2428000D02*
X4912600Y2398000D01*
X4938000Y6161800D02*
X4968000Y6131800D01*
X4968000Y6161800D02*
X4938000Y6131800D01*
X4938000Y6060200D02*
X4968000Y6030200D01*
X4968000Y6060200D02*
X4938000Y6030200D01*
X4938000Y5882400D02*
X4968000Y5852400D01*
X4968000Y5882400D02*
X4938000Y5852400D01*
X4944827Y961627D02*
X4974827Y931627D01*
X4974827Y961627D02*
X4944827Y931627D01*
X4963400Y3088400D02*
X4993400Y3058400D01*
X4993400Y3088400D02*
X4963400Y3058400D01*
X4988800Y2123200D02*
X5018800Y2093200D01*
X5018800Y2123200D02*
X4988800Y2093200D01*
X4988800Y294400D02*
X5018800Y264400D01*
X5018800Y294400D02*
X4988800Y264400D01*
X5000450Y1488200D02*
X5030450Y1458200D01*
X5030450Y1488200D02*
X5000450Y1458200D01*
X5002550Y1794684D02*
X5032550Y1764684D01*
X5032550Y1794684D02*
X5002550Y1764684D01*
X5014200Y1335800D02*
X5044200Y1305800D01*
X5044200Y1335800D02*
X5014200Y1305800D01*
X5014200Y1234200D02*
X5044200Y1204200D01*
X5044200Y1234200D02*
X5014200Y1204200D01*
X5014200Y1132600D02*
X5044200Y1102600D01*
X5044200Y1132600D02*
X5014200Y1102600D01*
X5014200Y159760D02*
X5044200Y129760D01*
X5044200Y159760D02*
X5014200Y129760D01*
X5039600Y2961400D02*
X5069600Y2931400D01*
X5069600Y2961400D02*
X5039600Y2931400D01*
X5065000Y5145800D02*
X5095000Y5115800D01*
X5095000Y5145800D02*
X5065000Y5115800D01*
X5065000Y4688600D02*
X5095000Y4658600D01*
X5095000Y4688600D02*
X5065000Y4658600D01*
X5065000Y3088400D02*
X5095000Y3058400D01*
X5095000Y3088400D02*
X5065000Y3058400D01*
X5065000Y2707400D02*
X5095000Y2677400D01*
X5095000Y2707400D02*
X5065000Y2677400D01*
X5065000Y700800D02*
X5095000Y670800D01*
X5095000Y700800D02*
X5065000Y670800D01*
X5065000Y345200D02*
X5095000Y315200D01*
X5095000Y345200D02*
X5065000Y315200D01*
X5090400Y4917200D02*
X5120400Y4887200D01*
X5120400Y4917200D02*
X5090400Y4887200D01*
X5090400Y472200D02*
X5120400Y442200D01*
X5120400Y472200D02*
X5090400Y442200D01*
X5103100Y159760D02*
X5133100Y129760D01*
X5133100Y159760D02*
X5103100Y129760D01*
X5115800Y4993400D02*
X5145800Y4963400D01*
X5145800Y4993400D02*
X5115800Y4963400D01*
X5141200Y5069600D02*
X5171200Y5039600D01*
X5171200Y5069600D02*
X5141200Y5039600D01*
X5141200Y2809000D02*
X5171200Y2779000D01*
X5171200Y2809000D02*
X5141200Y2779000D01*
X5141200Y1234200D02*
X5171200Y1204200D01*
X5171200Y1234200D02*
X5141200Y1204200D01*
X5192000Y5755400D02*
X5222000Y5725400D01*
X5222000Y5755400D02*
X5192000Y5725400D01*
X5192000Y5476000D02*
X5222000Y5446000D01*
X5222000Y5476000D02*
X5192000Y5446000D01*
X5217400Y3774200D02*
X5247400Y3744200D01*
X5247400Y3774200D02*
X5217400Y3744200D01*
X5264016Y3303284D02*
X5294016Y3273284D01*
X5294016Y3303284D02*
X5264016Y3273284D01*
X5266907Y3394493D02*
X5296907Y3364493D01*
X5296907Y3394493D02*
X5266907Y3364493D01*
X5268200Y3219150D02*
X5298200Y3189150D01*
X5298200Y3219150D02*
X5268200Y3189150D01*
X5268200Y3139200D02*
X5298200Y3109200D01*
X5298200Y3139200D02*
X5268200Y3109200D01*
X5268200Y3037600D02*
X5298200Y3007600D01*
X5298200Y3037600D02*
X5268200Y3007600D01*
X5319000Y6263400D02*
X5349000Y6233400D01*
X5349000Y6263400D02*
X5319000Y6233400D01*
X5338667Y3698000D02*
X5368667Y3668000D01*
X5368667Y3698000D02*
X5338667Y3668000D01*
X5344400Y319800D02*
X5374400Y289800D01*
X5374400Y319800D02*
X5344400Y289800D01*
X5369800Y1386600D02*
X5399800Y1356600D01*
X5399800Y1386600D02*
X5369800Y1356600D01*
X5369800Y1132600D02*
X5399800Y1102600D01*
X5399800Y1132600D02*
X5369800Y1102600D01*
X5395200Y5755400D02*
X5425200Y5725400D01*
X5425200Y5755400D02*
X5395200Y5725400D01*
X5395200Y3774200D02*
X5425200Y3744200D01*
X5425200Y3774200D02*
X5395200Y3744200D01*
X5395200Y777000D02*
X5425200Y747000D01*
X5425200Y777000D02*
X5395200Y747000D01*
X5446000Y3850400D02*
X5476000Y3820400D01*
X5476000Y3850400D02*
X5446000Y3820400D01*
X5496800Y3926600D02*
X5526800Y3896600D01*
X5526800Y3926600D02*
X5496800Y3896600D01*
X5573000Y1081800D02*
X5603000Y1051800D01*
X5603000Y1081800D02*
X5573000Y1051800D01*
X5573000Y853200D02*
X5603000Y823200D01*
X5603000Y853200D02*
X5573000Y823200D01*
X5573000Y599200D02*
X5603000Y569200D01*
X5603000Y599200D02*
X5573000Y569200D01*
X5592667Y2650867D02*
X5622667Y2620867D01*
X5622667Y2650867D02*
X5592667Y2620867D01*
X5598400Y3139200D02*
X5628400Y3109200D01*
X5628400Y3139200D02*
X5598400Y3109200D01*
X5598400Y1564400D02*
X5628400Y1534400D01*
X5628400Y1564400D02*
X5598400Y1534400D01*
X5643277Y2891123D02*
X5673277Y2861123D01*
X5673277Y2891123D02*
X5643277Y2861123D01*
X5649200Y3621800D02*
X5679200Y3591800D01*
X5679200Y3621800D02*
X5649200Y3591800D01*
X5649200Y2707400D02*
X5679200Y2677400D01*
X5679200Y2707400D02*
X5649200Y2677400D01*
X5674600Y2326400D02*
X5704600Y2296400D01*
X5704600Y2326400D02*
X5674600Y2296400D01*
X5674600Y2123200D02*
X5704600Y2093200D01*
X5704600Y2123200D02*
X5674600Y2093200D01*
X5700000Y1869200D02*
X5730000Y1839200D01*
X5730000Y1869200D02*
X5700000Y1839200D01*
X5725400Y7939800D02*
X5755400Y7909800D01*
X5755400Y7939800D02*
X5725400Y7909800D01*
X5725400Y370600D02*
X5755400Y340600D01*
X5755400Y370600D02*
X5725400Y340600D01*
X5750800Y2809000D02*
X5780800Y2779000D01*
X5780800Y2809000D02*
X5750800Y2779000D01*
X5750800Y2453400D02*
X5780800Y2423400D01*
X5780800Y2453400D02*
X5750800Y2423400D01*
X5751021Y2910550D02*
X5781021Y2880550D01*
X5781021Y2910550D02*
X5751021Y2880550D01*
X5776200Y3698000D02*
X5806200Y3668000D01*
X5806200Y3698000D02*
X5776200Y3668000D01*
X5776200Y1666000D02*
X5806200Y1636000D01*
X5806200Y1666000D02*
X5776200Y1636000D01*
X5801600Y3545600D02*
X5831600Y3515600D01*
X5831600Y3545600D02*
X5801600Y3515600D01*
X5816100Y2286500D02*
X5846100Y2256500D01*
X5846100Y2286500D02*
X5816100Y2256500D01*
X5827000Y5272800D02*
X5857000Y5242800D01*
X5857000Y5272800D02*
X5827000Y5242800D01*
X5852400Y3063000D02*
X5882400Y3033000D01*
X5882400Y3063000D02*
X5852400Y3033000D01*
X5877800Y6263400D02*
X5907800Y6233400D01*
X5907800Y6263400D02*
X5877800Y6233400D01*
X5877800Y3698000D02*
X5907800Y3668000D01*
X5907800Y3698000D02*
X5877800Y3668000D01*
X5928600Y3551850D02*
X5958600Y3521850D01*
X5958600Y3551850D02*
X5928600Y3521850D01*
X5979400Y3037600D02*
X6009400Y3007600D01*
X6009400Y3037600D02*
X5979400Y3007600D01*
X5979400Y2910600D02*
X6009400Y2880600D01*
X6009400Y2910600D02*
X5979400Y2880600D01*
X6004800Y4612400D02*
X6034800Y4582400D01*
X6034800Y4612400D02*
X6004800Y4582400D01*
X6030200Y3551850D02*
X6060200Y3521850D01*
X6060200Y3551850D02*
X6030200Y3521850D01*
X6055600Y3875800D02*
X6085600Y3845800D01*
X6085600Y3875800D02*
X6055600Y3845800D01*
X6067621Y6009303D02*
X6097621Y5979303D01*
X6097621Y6009303D02*
X6067621Y5979303D01*
X6106400Y2707400D02*
X6136400Y2677400D01*
X6136400Y2707400D02*
X6106400Y2677400D01*
X6131800Y7609600D02*
X6161800Y7579600D01*
X6161800Y7609600D02*
X6131800Y7579600D01*
X6131800Y7529600D02*
X6161800Y7499600D01*
X6161800Y7529600D02*
X6131800Y7499600D01*
X6131800Y7449600D02*
X6161800Y7419600D01*
X6161800Y7449600D02*
X6131800Y7419600D01*
X6131800Y7369600D02*
X6161800Y7339600D01*
X6161800Y7369600D02*
X6131800Y7339600D01*
X6131800Y7289600D02*
X6161800Y7259600D01*
X6161800Y7289600D02*
X6131800Y7259600D01*
X6131800Y7209600D02*
X6161800Y7179600D01*
X6161800Y7209600D02*
X6131800Y7179600D01*
X6131800Y7129600D02*
X6161800Y7099600D01*
X6161800Y7129600D02*
X6131800Y7099600D01*
X6131800Y7049600D02*
X6161800Y7019600D01*
X6161800Y7049600D02*
X6131800Y7019600D01*
X6131800Y5272800D02*
X6161800Y5242800D01*
X6161800Y5272800D02*
X6131800Y5242800D01*
X6131800Y2631200D02*
X6161800Y2601200D01*
X6161800Y2631200D02*
X6131800Y2601200D01*
X6131800Y2148600D02*
X6161800Y2118600D01*
X6161800Y2148600D02*
X6131800Y2118600D01*
X6138441Y3551850D02*
X6168441Y3521850D01*
X6168441Y3551850D02*
X6138441Y3521850D01*
X6157200Y1869200D02*
X6187200Y1839200D01*
X6187200Y1869200D02*
X6157200Y1839200D01*
X6182600Y3698000D02*
X6212600Y3668000D01*
X6212600Y3698000D02*
X6182600Y3668000D01*
X6195300Y1551700D02*
X6225300Y1521700D01*
X6225300Y1551700D02*
X6195300Y1521700D01*
X6204200Y6187200D02*
X6234200Y6157200D01*
X6234200Y6187200D02*
X6204200Y6157200D01*
X6233400Y3551850D02*
X6263400Y3521850D01*
X6263400Y3551850D02*
X6233400Y3521850D01*
X6233400Y2732800D02*
X6263400Y2702800D01*
X6263400Y2732800D02*
X6233400Y2702800D01*
X6258800Y7279400D02*
X6288800Y7249400D01*
X6288800Y7279400D02*
X6258800Y7249400D01*
X6284200Y6187200D02*
X6314200Y6157200D01*
X6314200Y6187200D02*
X6284200Y6157200D01*
X6284200Y5984000D02*
X6314200Y5954000D01*
X6314200Y5984000D02*
X6284200Y5954000D01*
X6284200Y5904000D02*
X6314200Y5874000D01*
X6314200Y5904000D02*
X6284200Y5874000D01*
X6284200Y2834400D02*
X6314200Y2804400D01*
X6314200Y2834400D02*
X6284200Y2804400D01*
X6309600Y3698000D02*
X6339600Y3668000D01*
X6339600Y3698000D02*
X6309600Y3668000D01*
X6309600Y3418600D02*
X6339600Y3388600D01*
X6339600Y3418600D02*
X6309600Y3388600D01*
X6309600Y3088400D02*
X6339600Y3058400D01*
X6339600Y3088400D02*
X6309600Y3058400D01*
X6309600Y2986800D02*
X6339600Y2956800D01*
X6339600Y2986800D02*
X6309600Y2956800D01*
X6335000Y1742200D02*
X6365000Y1712200D01*
X6365000Y1742200D02*
X6335000Y1712200D01*
X6354550Y3266200D02*
X6384550Y3236200D01*
X6384550Y3266200D02*
X6354550Y3236200D01*
X6360400Y3494800D02*
X6390400Y3464800D01*
X6390400Y3494800D02*
X6360400Y3464800D01*
X6379741Y3356150D02*
X6409741Y3326150D01*
X6409741Y3356150D02*
X6379741Y3326150D01*
X6436600Y2986800D02*
X6466600Y2956800D01*
X6466600Y2986800D02*
X6436600Y2956800D01*
X6436600Y2885200D02*
X6466600Y2855200D01*
X6466600Y2885200D02*
X6436600Y2855200D01*
X6487400Y2809000D02*
X6517400Y2779000D01*
X6517400Y2809000D02*
X6487400Y2779000D01*
X6512800Y3494800D02*
X6542800Y3464800D01*
X6542800Y3494800D02*
X6512800Y3464800D01*
X6526047Y3304847D02*
X6556047Y3274847D01*
X6556047Y3304847D02*
X6526047Y3274847D01*
X6538200Y3190000D02*
X6568200Y3160000D01*
X6568200Y3190000D02*
X6538200Y3160000D01*
X6639800Y2478800D02*
X6669800Y2448800D01*
X6669800Y2478800D02*
X6639800Y2448800D01*
X6690600Y4282200D02*
X6720600Y4252200D01*
X6720600Y4282200D02*
X6690600Y4252200D01*
X6690600Y3520200D02*
X6720600Y3490200D01*
X6720600Y3520200D02*
X6690600Y3490200D01*
X6690600Y1412000D02*
X6720600Y1382000D01*
X6720600Y1412000D02*
X6690600Y1382000D01*
X6695200Y5083350D02*
X6725200Y5053350D01*
X6725200Y5083350D02*
X6695200Y5053350D01*
X6703300Y1107200D02*
X6733300Y1077200D01*
X6733300Y1107200D02*
X6703300Y1077200D01*
X6716000Y3088400D02*
X6746000Y3058400D01*
X6746000Y3088400D02*
X6716000Y3058400D01*
X6716000Y2570350D02*
X6746000Y2540350D01*
X6746000Y2570350D02*
X6716000Y2540350D01*
X6716000Y2097800D02*
X6746000Y2067800D01*
X6746000Y2097800D02*
X6716000Y2067800D01*
X6741400Y1615200D02*
X6771400Y1585200D01*
X6771400Y1615200D02*
X6741400Y1585200D01*
X6766800Y6111000D02*
X6796800Y6081000D01*
X6796800Y6111000D02*
X6766800Y6081000D01*
X6792200Y5323600D02*
X6822200Y5293600D01*
X6822200Y5323600D02*
X6792200Y5293600D01*
X6792200Y573800D02*
X6822200Y543800D01*
X6822200Y573800D02*
X6792200Y543800D01*
X6817600Y2402600D02*
X6847600Y2372600D01*
X6847600Y2402600D02*
X6817600Y2372600D01*
X6817600Y1920000D02*
X6847600Y1890000D01*
X6847600Y1920000D02*
X6817600Y1890000D01*
X6830300Y815100D02*
X6860300Y785100D01*
X6860300Y815100D02*
X6830300Y785100D01*
X6843000Y2148600D02*
X6873000Y2118600D01*
X6873000Y2148600D02*
X6843000Y2118600D01*
X6919200Y3596400D02*
X6949200Y3566400D01*
X6949200Y3596400D02*
X6919200Y3566400D01*
X6995400Y3825000D02*
X7025400Y3795000D01*
X7025400Y3825000D02*
X6995400Y3795000D01*
X7020800Y3698000D02*
X7050800Y3668000D01*
X7050800Y3698000D02*
X7020800Y3668000D01*
X7071600Y1335800D02*
X7101600Y1305800D01*
X7101600Y1335800D02*
X7071600Y1305800D01*
X7134050Y2148600D02*
X7164050Y2118600D01*
X7164050Y2148600D02*
X7134050Y2118600D01*
X7135100Y1615200D02*
X7165100Y1585200D01*
X7165100Y1615200D02*
X7135100Y1585200D01*
X7147800Y1793000D02*
X7177800Y1763000D01*
X7177800Y1793000D02*
X7147800Y1763000D01*
X7173200Y3520200D02*
X7203200Y3490200D01*
X7203200Y3520200D02*
X7173200Y3490200D01*
X7427200Y1894600D02*
X7457200Y1864600D01*
X7457200Y1894600D02*
X7427200Y1864600D01*
X7478000Y1589800D02*
X7508000Y1559800D01*
X7508000Y1589800D02*
X7478000Y1559800D01*
X7478000Y624600D02*
X7508000Y594600D01*
X7508000Y624600D02*
X7478000Y594600D01*
X7528800Y1654350D02*
X7558800Y1624350D01*
X7558800Y1654350D02*
X7528800Y1624350D01*
X7554200Y1335800D02*
X7584200Y1305800D01*
X7584200Y1335800D02*
X7554200Y1305800D01*
X7579600Y1513600D02*
X7609600Y1483600D01*
X7609600Y1513600D02*
X7579600Y1483600D01*
X7649550Y4104400D02*
X7679550Y4074400D01*
X7679550Y4104400D02*
X7649550Y4074400D01*
X7655800Y4282200D02*
X7685800Y4252200D01*
X7685800Y4282200D02*
X7655800Y4252200D01*
X7655800Y1539000D02*
X7685800Y1509000D01*
X7685800Y1539000D02*
X7655800Y1509000D01*
X7681200Y4561600D02*
X7711200Y4531600D01*
X7711200Y4561600D02*
X7681200Y4531600D01*
X7681200Y3952000D02*
X7711200Y3922000D01*
X7711200Y3952000D02*
X7681200Y3922000D01*
X7681200Y3850400D02*
X7711200Y3820400D01*
X7711200Y3850400D02*
X7681200Y3820400D01*
X7681200Y3049250D02*
X7711200Y3019250D01*
X7711200Y3049250D02*
X7681200Y3019250D01*
X7732000Y4041950D02*
X7762000Y4011950D01*
X7762000Y4041950D02*
X7732000Y4011950D01*
X7757400Y8219200D02*
X7787400Y8189200D01*
X7787400Y8219200D02*
X7757400Y8189200D01*
X7757400Y3418600D02*
X7787400Y3388600D01*
X7787400Y3418600D02*
X7757400Y3388600D01*
X7782800Y7228600D02*
X7812800Y7198600D01*
X7812800Y7228600D02*
X7782800Y7198600D01*
X7782800Y6974600D02*
X7812800Y6944600D01*
X7812800Y6974600D02*
X7782800Y6944600D01*
X7782800Y6720600D02*
X7812800Y6690600D01*
X7812800Y6720600D02*
X7782800Y6690600D01*
X7782800Y6466600D02*
X7812800Y6436600D01*
X7812800Y6466600D02*
X7782800Y6436600D01*
X7782800Y6212600D02*
X7812800Y6182600D01*
X7812800Y6212600D02*
X7782800Y6182600D01*
X7782800Y5958600D02*
X7812800Y5928600D01*
X7812800Y5958600D02*
X7782800Y5928600D01*
X7782800Y5603000D02*
X7812800Y5573000D01*
X7812800Y5603000D02*
X7782800Y5573000D01*
X7782800Y5450600D02*
X7812800Y5420600D01*
X7812800Y5450600D02*
X7782800Y5420600D01*
X7782800Y4409200D02*
X7812800Y4379200D01*
X7812800Y4409200D02*
X7782800Y4379200D01*
X7782800Y4155200D02*
X7812800Y4125200D01*
X7812800Y4155200D02*
X7782800Y4125200D01*
X7782800Y3049250D02*
X7812800Y3019250D01*
X7812800Y3049250D02*
X7782800Y3019250D01*
X7782800Y1793000D02*
X7812800Y1763000D01*
X7812800Y1793000D02*
X7782800Y1763000D01*
X7782800Y1158000D02*
X7812800Y1128000D01*
X7812800Y1158000D02*
X7782800Y1128000D01*
X7808200Y2631200D02*
X7838200Y2601200D01*
X7838200Y2631200D02*
X7808200Y2601200D01*
X7833600Y573800D02*
X7863600Y543800D01*
X7863600Y573800D02*
X7833600Y543800D01*
X7848645Y3194690D02*
X7878645Y3164690D01*
X7878645Y3194690D02*
X7848645Y3164690D01*
X7859000Y3621800D02*
X7889000Y3591800D01*
X7889000Y3621800D02*
X7859000Y3591800D01*
X7859000Y1615200D02*
X7889000Y1585200D01*
X7889000Y1615200D02*
X7859000Y1585200D01*
X7871433Y4015767D02*
X7901433Y3985767D01*
X7901433Y4015767D02*
X7871433Y3985767D01*
X7884400Y4256800D02*
X7914400Y4226800D01*
X7914400Y4256800D02*
X7884400Y4226800D01*
X7884400Y3266200D02*
X7914400Y3236200D01*
X7914400Y3266200D02*
X7884400Y3236200D01*
X7888140Y1791748D02*
X7918140Y1761748D01*
X7918140Y1791748D02*
X7888140Y1761748D01*
X7909800Y2123200D02*
X7939800Y2093200D01*
X7939800Y2123200D02*
X7909800Y2093200D01*
X7935200Y980200D02*
X7965200Y950200D01*
X7965200Y980200D02*
X7935200Y950200D01*
X7960600Y4307600D02*
X7990600Y4277600D01*
X7990600Y4307600D02*
X7960600Y4277600D01*
X7960600Y4206000D02*
X7990600Y4176000D01*
X7990600Y4206000D02*
X7960600Y4176000D01*
X7960600Y3063000D02*
X7990600Y3033000D01*
X7990600Y3063000D02*
X7960600Y3033000D01*
X7981855Y1793050D02*
X8011855Y1763050D01*
X8011855Y1793050D02*
X7981855Y1763050D01*
X8011400Y5222000D02*
X8041400Y5192000D01*
X8041400Y5222000D02*
X8011400Y5192000D01*
X8011400Y4536200D02*
X8041400Y4506200D01*
X8041400Y4536200D02*
X8011400Y4506200D01*
X8024100Y5869700D02*
X8054100Y5839700D01*
X8054100Y5869700D02*
X8024100Y5839700D01*
X8025150Y3342400D02*
X8055150Y3312400D01*
X8055150Y3342400D02*
X8025150Y3312400D01*
X8036800Y1056400D02*
X8066800Y1026400D01*
X8066800Y1056400D02*
X8036800Y1026400D01*
X8062200Y6034800D02*
X8092200Y6004800D01*
X8092200Y6034800D02*
X8062200Y6004800D01*
X8062200Y2859800D02*
X8092200Y2829800D01*
X8092200Y2859800D02*
X8062200Y2829800D01*
X8087600Y3279950D02*
X8117600Y3249950D01*
X8117600Y3279950D02*
X8087600Y3249950D01*
X8113000Y5222000D02*
X8143000Y5192000D01*
X8143000Y5222000D02*
X8113000Y5192000D01*
X8113000Y4993400D02*
X8143000Y4963400D01*
X8143000Y4993400D02*
X8113000Y4963400D01*
X8113000Y4536200D02*
X8143000Y4506200D01*
X8143000Y4536200D02*
X8113000Y4506200D01*
X8113000Y3850400D02*
X8143000Y3820400D01*
X8143000Y3850400D02*
X8113000Y3820400D01*
X8113000Y1081800D02*
X8143000Y1051800D01*
X8143000Y1081800D02*
X8113000Y1051800D01*
X8163800Y5882400D02*
X8193800Y5852400D01*
X8193800Y5882400D02*
X8163800Y5852400D01*
X8185450Y3190000D02*
X8215450Y3160000D01*
X8215450Y3190000D02*
X8185450Y3160000D01*
X8185450Y3049250D02*
X8215450Y3019250D01*
X8215450Y3049250D02*
X8185450Y3019250D01*
X8189200Y1183400D02*
X8219200Y1153400D01*
X8219200Y1183400D02*
X8189200Y1153400D01*
X8214600Y7482600D02*
X8244600Y7452600D01*
X8244600Y7482600D02*
X8214600Y7452600D01*
X8214600Y7304800D02*
X8244600Y7274800D01*
X8244600Y7304800D02*
X8214600Y7274800D01*
X8214600Y7127000D02*
X8244600Y7097000D01*
X8244600Y7127000D02*
X8214600Y7097000D01*
X8240000Y5247400D02*
X8270000Y5217400D01*
X8270000Y5247400D02*
X8240000Y5217400D01*
X8240000Y3418600D02*
X8270000Y3388600D01*
X8270000Y3418600D02*
X8240000Y3388600D01*
X8265400Y4968000D02*
X8295400Y4938000D01*
X8295400Y4968000D02*
X8265400Y4938000D01*
X8278217Y6859550D02*
X8308217Y6829550D01*
X8308217Y6859550D02*
X8278217Y6829550D01*
X8290800Y5679200D02*
X8320800Y5649200D01*
X8320800Y5679200D02*
X8290800Y5649200D01*
X8316200Y6720600D02*
X8346200Y6690600D01*
X8346200Y6720600D02*
X8316200Y6690600D01*
X8392400Y2758200D02*
X8422400Y2728200D01*
X8422400Y2758200D02*
X8392400Y2728200D01*
X8570200Y2682000D02*
X8600200Y2652000D01*
X8600200Y2682000D02*
X8570200Y2652000D01*
X8595600Y3101682D02*
X8625600Y3071682D01*
X8625600Y3101682D02*
X8595600Y3071682D01*
X8643550Y5848550D02*
X8673550Y5818550D01*
X8673550Y5848550D02*
X8643550Y5818550D01*
X8646400Y3799600D02*
X8676400Y3769600D01*
X8676400Y3799600D02*
X8646400Y3769600D01*
X8646400Y3494800D02*
X8676400Y3464800D01*
X8676400Y3494800D02*
X8646400Y3464800D01*
X8671800Y3977400D02*
X8701800Y3947400D01*
X8701800Y3977400D02*
X8671800Y3947400D01*
X8697200Y6060200D02*
X8727200Y6030200D01*
X8727200Y6060200D02*
X8697200Y6030200D01*
X8697200Y5476000D02*
X8727200Y5446000D01*
X8727200Y5476000D02*
X8697200Y5446000D01*
X8697200Y5349000D02*
X8727200Y5319000D01*
X8727200Y5349000D02*
X8697200Y5319000D01*
X8722600Y6822200D02*
X8752600Y6792200D01*
X8752600Y6822200D02*
X8722600Y6792200D01*
X8722600Y3647200D02*
X8752600Y3617200D01*
X8752600Y3647200D02*
X8722600Y3617200D01*
X8773400Y5806200D02*
X8803400Y5776200D01*
X8803400Y5806200D02*
X8773400Y5776200D01*
X8824200Y2859800D02*
X8854200Y2829800D01*
X8854200Y2859800D02*
X8824200Y2829800D01*
X924000Y5715000D02*
G75*
G02*
X854000Y5715000I-35000J0D01*
G01*
X854000Y5715000D02*
G75*
G02*
X924000Y5715000I35000J0D01*
G01*
X924000Y4953000D02*
G75*
G02*
X854000Y4953000I-35000J0D01*
G01*
X854000Y4953000D02*
G75*
G02*
X924000Y4953000I35000J0D01*
G01*
X1330400Y5715000D02*
G75*
G02*
X1260400Y5715000I-35000J0D01*
G01*
X1260400Y5715000D02*
G75*
G02*
X1330400Y5715000I35000J0D01*
G01*
X1330400Y4953000D02*
G75*
G02*
X1260400Y4953000I-35000J0D01*
G01*
X1260400Y4953000D02*
G75*
G02*
X1330400Y4953000I35000J0D01*
G01*
X2143200Y5715000D02*
G75*
G02*
X2073200Y5715000I-35000J0D01*
G01*
X2073200Y5715000D02*
G75*
G02*
X2143200Y5715000I35000J0D01*
G01*
X2143200Y4953000D02*
G75*
G02*
X2073200Y4953000I-35000J0D01*
G01*
X2073200Y4953000D02*
G75*
G02*
X2143200Y4953000I35000J0D01*
G01*
X3413200Y3657600D02*
G75*
G02*
X3343200Y3657600I-35000J0D01*
G01*
X3343200Y3657600D02*
G75*
G02*
X3413200Y3657600I35000J0D01*
G01*
X4175200Y3657600D02*
G75*
G02*
X4105200Y3657600I-35000J0D01*
G01*
X4105200Y3657600D02*
G75*
G02*
X4175200Y3657600I35000J0D01*
G01*
X1219200Y4036500D02*
X1219200Y3956500D01*
X1179200Y3996500D02*
X1259200Y3996500D01*
X1219200Y3786500D02*
X1219200Y3706500D01*
X1179200Y3746500D02*
X1259200Y3746500D01*
X1295400Y4510400D02*
X1295400Y4430400D01*
X1255400Y4470400D02*
X1335400Y4470400D01*
X1342200Y7761600D02*
X1342200Y7681600D01*
X1302200Y7721600D02*
X1382200Y7721600D01*
X1342200Y7507600D02*
X1342200Y7427600D01*
X1302200Y7467600D02*
X1382200Y7467600D01*
X1342200Y7253600D02*
X1342200Y7173600D01*
X1302200Y7213600D02*
X1382200Y7213600D01*
X1342200Y6999600D02*
X1342200Y6919600D01*
X1302200Y6959600D02*
X1382200Y6959600D01*
X1397000Y2403800D02*
X1397000Y2323800D01*
X1357000Y2363800D02*
X1437000Y2363800D01*
X1397000Y2149800D02*
X1397000Y2069800D01*
X1357000Y2109800D02*
X1437000Y2109800D01*
X1397000Y1895800D02*
X1397000Y1815800D01*
X1357000Y1855800D02*
X1437000Y1855800D01*
X1397000Y1641800D02*
X1397000Y1561800D01*
X1357000Y1601800D02*
X1437000Y1601800D01*
X1397000Y1387800D02*
X1397000Y1307800D01*
X1357000Y1347800D02*
X1437000Y1347800D01*
X1397000Y1133800D02*
X1397000Y1053800D01*
X1357000Y1093800D02*
X1437000Y1093800D01*
X1651000Y2657800D02*
X1651000Y2577800D01*
X1611000Y2617800D02*
X1691000Y2617800D01*
X1651000Y2403800D02*
X1651000Y2323800D01*
X1611000Y2363800D02*
X1691000Y2363800D01*
X1651000Y2149800D02*
X1651000Y2069800D01*
X1611000Y2109800D02*
X1691000Y2109800D01*
X1651000Y1895800D02*
X1651000Y1815800D01*
X1611000Y1855800D02*
X1691000Y1855800D01*
X1651000Y1641800D02*
X1651000Y1561800D01*
X1611000Y1601800D02*
X1691000Y1601800D01*
X1651000Y1387800D02*
X1651000Y1307800D01*
X1611000Y1347800D02*
X1691000Y1347800D01*
X1651000Y1133800D02*
X1651000Y1053800D01*
X1611000Y1093800D02*
X1691000Y1093800D01*
X1651000Y879800D02*
X1651000Y799800D01*
X1611000Y839800D02*
X1691000Y839800D01*
X1701800Y5755000D02*
X1701800Y5675000D01*
X1661800Y5715000D02*
X1741800Y5715000D01*
X1701800Y5505000D02*
X1701800Y5425000D01*
X1661800Y5465000D02*
X1741800Y5465000D01*
X1905000Y2657800D02*
X1905000Y2577800D01*
X1865000Y2617800D02*
X1945000Y2617800D01*
X1905000Y2403800D02*
X1905000Y2323800D01*
X1865000Y2363800D02*
X1945000Y2363800D01*
X1905000Y1133800D02*
X1905000Y1053800D01*
X1865000Y1093800D02*
X1945000Y1093800D01*
X1905000Y879800D02*
X1905000Y799800D01*
X1865000Y839800D02*
X1945000Y839800D01*
X1981200Y4036500D02*
X1981200Y3956500D01*
X1941200Y3996500D02*
X2021200Y3996500D01*
X1981200Y3786500D02*
X1981200Y3706500D01*
X1941200Y3746500D02*
X2021200Y3746500D01*
X2034000Y3265800D02*
X2034000Y3185800D01*
X1994000Y3225800D02*
X2074000Y3225800D01*
X2057400Y4510400D02*
X2057400Y4430400D01*
X2017400Y4470400D02*
X2097400Y4470400D01*
X2104200Y7761600D02*
X2104200Y7681600D01*
X2064200Y7721600D02*
X2144200Y7721600D01*
X2104200Y7507600D02*
X2104200Y7427600D01*
X2064200Y7467600D02*
X2144200Y7467600D01*
X2104200Y7253600D02*
X2104200Y7173600D01*
X2064200Y7213600D02*
X2144200Y7213600D01*
X2104200Y6999600D02*
X2104200Y6919600D01*
X2064200Y6959600D02*
X2144200Y6959600D01*
X2159000Y2657800D02*
X2159000Y2577800D01*
X2119000Y2617800D02*
X2199000Y2617800D01*
X2159000Y2403800D02*
X2159000Y2323800D01*
X2119000Y2363800D02*
X2199000Y2363800D01*
X2159000Y1133800D02*
X2159000Y1053800D01*
X2119000Y1093800D02*
X2199000Y1093800D01*
X2159000Y879800D02*
X2159000Y799800D01*
X2119000Y839800D02*
X2199000Y839800D01*
X2284000Y3265800D02*
X2284000Y3185800D01*
X2244000Y3225800D02*
X2324000Y3225800D01*
X2413000Y2657800D02*
X2413000Y2577800D01*
X2373000Y2617800D02*
X2453000Y2617800D01*
X2413000Y2403800D02*
X2413000Y2323800D01*
X2373000Y2363800D02*
X2453000Y2363800D01*
X2413000Y1133800D02*
X2413000Y1053800D01*
X2373000Y1093800D02*
X2453000Y1093800D01*
X2413000Y879800D02*
X2413000Y799800D01*
X2373000Y839800D02*
X2453000Y839800D01*
X2514600Y4993000D02*
X2514600Y4913000D01*
X2474600Y4953000D02*
X2554600Y4953000D01*
X2514600Y4743000D02*
X2514600Y4663000D01*
X2474600Y4703000D02*
X2554600Y4703000D01*
X2667000Y2657800D02*
X2667000Y2577800D01*
X2627000Y2617800D02*
X2707000Y2617800D01*
X2667000Y2403800D02*
X2667000Y2323800D01*
X2627000Y2363800D02*
X2707000Y2363800D01*
X2667000Y1133800D02*
X2667000Y1053800D01*
X2627000Y1093800D02*
X2707000Y1093800D01*
X2667000Y879800D02*
X2667000Y799800D01*
X2627000Y839800D02*
X2707000Y839800D01*
X2870200Y7761600D02*
X2870200Y7681600D01*
X2830200Y7721600D02*
X2910200Y7721600D01*
X2870200Y7511600D02*
X2870200Y7431600D01*
X2830200Y7471600D02*
X2910200Y7471600D01*
X2921000Y2657800D02*
X2921000Y2577800D01*
X2881000Y2617800D02*
X2961000Y2617800D01*
X2921000Y2403800D02*
X2921000Y2323800D01*
X2881000Y2363800D02*
X2961000Y2363800D01*
X2921000Y2149800D02*
X2921000Y2069800D01*
X2881000Y2109800D02*
X2961000Y2109800D01*
X2921000Y1895800D02*
X2921000Y1815800D01*
X2881000Y1855800D02*
X2961000Y1855800D01*
X2921000Y1641800D02*
X2921000Y1561800D01*
X2881000Y1601800D02*
X2961000Y1601800D01*
X2921000Y1387800D02*
X2921000Y1307800D01*
X2881000Y1347800D02*
X2961000Y1347800D01*
X2921000Y1133800D02*
X2921000Y1053800D01*
X2881000Y1093800D02*
X2961000Y1093800D01*
X2921000Y879800D02*
X2921000Y799800D01*
X2881000Y839800D02*
X2961000Y839800D01*
X3124200Y5755000D02*
X3124200Y5675000D01*
X3084200Y5715000D02*
X3164200Y5715000D01*
X3124200Y5501000D02*
X3124200Y5421000D01*
X3084200Y5461000D02*
X3164200Y5461000D01*
X3124200Y5247000D02*
X3124200Y5167000D01*
X3084200Y5207000D02*
X3164200Y5207000D01*
X3124200Y4993000D02*
X3124200Y4913000D01*
X3084200Y4953000D02*
X3164200Y4953000D01*
X3124200Y4739000D02*
X3124200Y4659000D01*
X3084200Y4699000D02*
X3164200Y4699000D01*
X3124200Y4485000D02*
X3124200Y4405000D01*
X3084200Y4445000D02*
X3164200Y4445000D01*
X3175000Y2403800D02*
X3175000Y2323800D01*
X3135000Y2363800D02*
X3215000Y2363800D01*
X3175000Y2149800D02*
X3175000Y2069800D01*
X3135000Y2109800D02*
X3215000Y2109800D01*
X3175000Y1895800D02*
X3175000Y1815800D01*
X3135000Y1855800D02*
X3215000Y1855800D01*
X3175000Y1641800D02*
X3175000Y1561800D01*
X3135000Y1601800D02*
X3215000Y1601800D01*
X3175000Y1387800D02*
X3175000Y1307800D01*
X3135000Y1347800D02*
X3215000Y1347800D01*
X3175000Y1133800D02*
X3175000Y1053800D01*
X3135000Y1093800D02*
X3215000Y1093800D01*
X3378200Y6009000D02*
X3378200Y5929000D01*
X3338200Y5969000D02*
X3418200Y5969000D01*
X3378200Y5755000D02*
X3378200Y5675000D01*
X3338200Y5715000D02*
X3418200Y5715000D01*
X3378200Y5501000D02*
X3378200Y5421000D01*
X3338200Y5461000D02*
X3418200Y5461000D01*
X3378200Y5247000D02*
X3378200Y5167000D01*
X3338200Y5207000D02*
X3418200Y5207000D01*
X3378200Y4993000D02*
X3378200Y4913000D01*
X3338200Y4953000D02*
X3418200Y4953000D01*
X3378200Y4739000D02*
X3378200Y4659000D01*
X3338200Y4699000D02*
X3418200Y4699000D01*
X3378200Y4485000D02*
X3378200Y4405000D01*
X3338200Y4445000D02*
X3418200Y4445000D01*
X3378200Y4231000D02*
X3378200Y4151000D01*
X3338200Y4191000D02*
X3418200Y4191000D01*
X3429000Y7761600D02*
X3429000Y7681600D01*
X3389000Y7721600D02*
X3469000Y7721600D01*
X3429000Y6999600D02*
X3429000Y6919600D01*
X3389000Y6959600D02*
X3469000Y6959600D01*
X3492500Y8650600D02*
X3492500Y8570600D01*
X3452500Y8610600D02*
X3532500Y8610600D01*
X3632200Y6009000D02*
X3632200Y5929000D01*
X3592200Y5969000D02*
X3672200Y5969000D01*
X3632200Y5755000D02*
X3632200Y5675000D01*
X3592200Y5715000D02*
X3672200Y5715000D01*
X3632200Y4485000D02*
X3632200Y4405000D01*
X3592200Y4445000D02*
X3672200Y4445000D01*
X3632200Y4231000D02*
X3632200Y4151000D01*
X3592200Y4191000D02*
X3672200Y4191000D01*
X3683000Y7761600D02*
X3683000Y7681600D01*
X3643000Y7721600D02*
X3723000Y7721600D01*
X3683000Y6999600D02*
X3683000Y6919600D01*
X3643000Y6959600D02*
X3723000Y6959600D01*
X3746500Y8650600D02*
X3746500Y8570600D01*
X3706500Y8610600D02*
X3786500Y8610600D01*
X3886200Y6009000D02*
X3886200Y5929000D01*
X3846200Y5969000D02*
X3926200Y5969000D01*
X3886200Y5755000D02*
X3886200Y5675000D01*
X3846200Y5715000D02*
X3926200Y5715000D01*
X3886200Y4485000D02*
X3886200Y4405000D01*
X3846200Y4445000D02*
X3926200Y4445000D01*
X3886200Y4231000D02*
X3886200Y4151000D01*
X3846200Y4191000D02*
X3926200Y4191000D01*
X3916200Y2657800D02*
X3916200Y2577800D01*
X3876200Y2617800D02*
X3956200Y2617800D01*
X3916200Y2403800D02*
X3916200Y2323800D01*
X3876200Y2363800D02*
X3956200Y2363800D01*
X3916200Y2149800D02*
X3916200Y2069800D01*
X3876200Y2109800D02*
X3956200Y2109800D01*
X3916200Y1895800D02*
X3916200Y1815800D01*
X3876200Y1855800D02*
X3956200Y1855800D01*
X3916200Y1641800D02*
X3916200Y1561800D01*
X3876200Y1601800D02*
X3956200Y1601800D01*
X3916200Y1387800D02*
X3916200Y1307800D01*
X3876200Y1347800D02*
X3956200Y1347800D01*
X3916200Y1133800D02*
X3916200Y1053800D01*
X3876200Y1093800D02*
X3956200Y1093800D01*
X3916200Y879800D02*
X3916200Y799800D01*
X3876200Y839800D02*
X3956200Y839800D01*
X3916200Y625800D02*
X3916200Y545800D01*
X3876200Y585800D02*
X3956200Y585800D01*
X3916200Y371800D02*
X3916200Y291800D01*
X3876200Y331800D02*
X3956200Y331800D01*
X3937000Y7761600D02*
X3937000Y7681600D01*
X3897000Y7721600D02*
X3977000Y7721600D01*
X3937000Y6999600D02*
X3937000Y6919600D01*
X3897000Y6959600D02*
X3977000Y6959600D01*
X4000500Y8650600D02*
X4000500Y8570600D01*
X3960500Y8610600D02*
X4040500Y8610600D01*
X4140200Y6009000D02*
X4140200Y5929000D01*
X4100200Y5969000D02*
X4180200Y5969000D01*
X4140200Y5755000D02*
X4140200Y5675000D01*
X4100200Y5715000D02*
X4180200Y5715000D01*
X4140200Y4485000D02*
X4140200Y4405000D01*
X4100200Y4445000D02*
X4180200Y4445000D01*
X4140200Y4231000D02*
X4140200Y4151000D01*
X4100200Y4191000D02*
X4180200Y4191000D01*
X4191000Y7761600D02*
X4191000Y7681600D01*
X4151000Y7721600D02*
X4231000Y7721600D01*
X4191000Y6999600D02*
X4191000Y6919600D01*
X4151000Y6959600D02*
X4231000Y6959600D01*
X4254500Y8650600D02*
X4254500Y8570600D01*
X4214500Y8610600D02*
X4294500Y8610600D01*
X4394200Y6009000D02*
X4394200Y5929000D01*
X4354200Y5969000D02*
X4434200Y5969000D01*
X4394200Y5755000D02*
X4394200Y5675000D01*
X4354200Y5715000D02*
X4434200Y5715000D01*
X4394200Y4485000D02*
X4394200Y4405000D01*
X4354200Y4445000D02*
X4434200Y4445000D01*
X4394200Y4231000D02*
X4394200Y4151000D01*
X4354200Y4191000D02*
X4434200Y4191000D01*
X4428200Y3240400D02*
X4428200Y3160400D01*
X4388200Y3200400D02*
X4468200Y3200400D01*
X4445000Y7761600D02*
X4445000Y7681600D01*
X4405000Y7721600D02*
X4485000Y7721600D01*
X4445000Y6999600D02*
X4445000Y6919600D01*
X4405000Y6959600D02*
X4485000Y6959600D01*
X4508500Y8650600D02*
X4508500Y8570600D01*
X4468500Y8610600D02*
X4548500Y8610600D01*
X4648200Y6009000D02*
X4648200Y5929000D01*
X4608200Y5969000D02*
X4688200Y5969000D01*
X4648200Y5755000D02*
X4648200Y5675000D01*
X4608200Y5715000D02*
X4688200Y5715000D01*
X4648200Y5501000D02*
X4648200Y5421000D01*
X4608200Y5461000D02*
X4688200Y5461000D01*
X4648200Y5247000D02*
X4648200Y5167000D01*
X4608200Y5207000D02*
X4688200Y5207000D01*
X4648200Y4993000D02*
X4648200Y4913000D01*
X4608200Y4953000D02*
X4688200Y4953000D01*
X4648200Y4739000D02*
X4648200Y4659000D01*
X4608200Y4699000D02*
X4688200Y4699000D01*
X4648200Y4485000D02*
X4648200Y4405000D01*
X4608200Y4445000D02*
X4688200Y4445000D01*
X4648200Y4231000D02*
X4648200Y4151000D01*
X4608200Y4191000D02*
X4688200Y4191000D01*
X4678200Y3240400D02*
X4678200Y3160400D01*
X4638200Y3200400D02*
X4718200Y3200400D01*
X4678200Y2657800D02*
X4678200Y2577800D01*
X4638200Y2617800D02*
X4718200Y2617800D01*
X4678200Y2403800D02*
X4678200Y2323800D01*
X4638200Y2363800D02*
X4718200Y2363800D01*
X4678200Y2149800D02*
X4678200Y2069800D01*
X4638200Y2109800D02*
X4718200Y2109800D01*
X4678200Y1895800D02*
X4678200Y1815800D01*
X4638200Y1855800D02*
X4718200Y1855800D01*
X4678200Y1641800D02*
X4678200Y1561800D01*
X4638200Y1601800D02*
X4718200Y1601800D01*
X4678200Y1387800D02*
X4678200Y1307800D01*
X4638200Y1347800D02*
X4718200Y1347800D01*
X4678200Y1133800D02*
X4678200Y1053800D01*
X4638200Y1093800D02*
X4718200Y1093800D01*
X4678200Y879800D02*
X4678200Y799800D01*
X4638200Y839800D02*
X4718200Y839800D01*
X4678200Y625800D02*
X4678200Y545800D01*
X4638200Y585800D02*
X4718200Y585800D01*
X4678200Y371800D02*
X4678200Y291800D01*
X4638200Y331800D02*
X4718200Y331800D01*
X4699000Y7761600D02*
X4699000Y7681600D01*
X4659000Y7721600D02*
X4739000Y7721600D01*
X4699000Y6999600D02*
X4699000Y6919600D01*
X4659000Y6959600D02*
X4739000Y6959600D01*
X4762500Y8650600D02*
X4762500Y8570600D01*
X4722500Y8610600D02*
X4802500Y8610600D01*
X4902200Y5755000D02*
X4902200Y5675000D01*
X4862200Y5715000D02*
X4942200Y5715000D01*
X4902200Y5501000D02*
X4902200Y5421000D01*
X4862200Y5461000D02*
X4942200Y5461000D01*
X4902200Y5247000D02*
X4902200Y5167000D01*
X4862200Y5207000D02*
X4942200Y5207000D01*
X4902200Y4993000D02*
X4902200Y4913000D01*
X4862200Y4953000D02*
X4942200Y4953000D01*
X4902200Y4739000D02*
X4902200Y4659000D01*
X4862200Y4699000D02*
X4942200Y4699000D01*
X4902200Y4485000D02*
X4902200Y4405000D01*
X4862200Y4445000D02*
X4942200Y4445000D01*
X4953000Y7761600D02*
X4953000Y7681600D01*
X4913000Y7721600D02*
X4993000Y7721600D01*
X4953000Y6999600D02*
X4953000Y6919600D01*
X4913000Y6959600D02*
X4993000Y6959600D01*
X5016500Y8650600D02*
X5016500Y8570600D01*
X4976500Y8610600D02*
X5056500Y8610600D01*
X5207000Y7761600D02*
X5207000Y7681600D01*
X5167000Y7721600D02*
X5247000Y7721600D01*
X5207000Y6999600D02*
X5207000Y6919600D01*
X5167000Y6959600D02*
X5247000Y6959600D01*
X5226600Y2657800D02*
X5226600Y2577800D01*
X5186600Y2617800D02*
X5266600Y2617800D01*
X5226600Y2403800D02*
X5226600Y2323800D01*
X5186600Y2363800D02*
X5266600Y2363800D01*
X5226600Y2149800D02*
X5226600Y2069800D01*
X5186600Y2109800D02*
X5266600Y2109800D01*
X5226600Y1895800D02*
X5226600Y1815800D01*
X5186600Y1855800D02*
X5266600Y1855800D01*
X5226600Y1641800D02*
X5226600Y1561800D01*
X5186600Y1601800D02*
X5266600Y1601800D01*
X5226600Y1387800D02*
X5226600Y1307800D01*
X5186600Y1347800D02*
X5266600Y1347800D01*
X5226600Y1133800D02*
X5226600Y1053800D01*
X5186600Y1093800D02*
X5266600Y1093800D01*
X5226600Y879800D02*
X5226600Y799800D01*
X5186600Y839800D02*
X5266600Y839800D01*
X5226600Y625800D02*
X5226600Y545800D01*
X5186600Y585800D02*
X5266600Y585800D01*
X5226600Y371800D02*
X5226600Y291800D01*
X5186600Y331800D02*
X5266600Y331800D01*
X5270500Y8650600D02*
X5270500Y8570600D01*
X5230500Y8610600D02*
X5310500Y8610600D01*
X5461000Y7761600D02*
X5461000Y7681600D01*
X5421000Y7721600D02*
X5501000Y7721600D01*
X5461000Y6999600D02*
X5461000Y6919600D01*
X5421000Y6959600D02*
X5501000Y6959600D01*
X5486400Y4379400D02*
X5486400Y4299400D01*
X5446400Y4339400D02*
X5526400Y4339400D01*
X5486400Y4129400D02*
X5486400Y4049400D01*
X5446400Y4089400D02*
X5526400Y4089400D01*
X5524500Y8650600D02*
X5524500Y8570600D01*
X5484500Y8610600D02*
X5564500Y8610600D01*
X5715000Y7761600D02*
X5715000Y7681600D01*
X5675000Y7721600D02*
X5755000Y7721600D01*
X5715000Y6999600D02*
X5715000Y6919600D01*
X5675000Y6959600D02*
X5755000Y6959600D01*
X5738600Y3240400D02*
X5738600Y3160400D01*
X5698600Y3200400D02*
X5778600Y3200400D01*
X5867400Y4891400D02*
X5867400Y4811400D01*
X5827400Y4851400D02*
X5907400Y4851400D01*
X5867400Y4129400D02*
X5867400Y4049400D01*
X5827400Y4089400D02*
X5907400Y4089400D01*
X5988600Y3240400D02*
X5988600Y3160400D01*
X5948600Y3200400D02*
X6028600Y3200400D01*
X5988600Y2657800D02*
X5988600Y2577800D01*
X5948600Y2617800D02*
X6028600Y2617800D01*
X5988600Y2403800D02*
X5988600Y2323800D01*
X5948600Y2363800D02*
X6028600Y2363800D01*
X5988600Y2149800D02*
X5988600Y2069800D01*
X5948600Y2109800D02*
X6028600Y2109800D01*
X5988600Y1895800D02*
X5988600Y1815800D01*
X5948600Y1855800D02*
X6028600Y1855800D01*
X5988600Y1641800D02*
X5988600Y1561800D01*
X5948600Y1601800D02*
X6028600Y1601800D01*
X5988600Y1387800D02*
X5988600Y1307800D01*
X5948600Y1347800D02*
X6028600Y1347800D01*
X5988600Y1133800D02*
X5988600Y1053800D01*
X5948600Y1093800D02*
X6028600Y1093800D01*
X5988600Y879800D02*
X5988600Y799800D01*
X5948600Y839800D02*
X6028600Y839800D01*
X5988600Y625800D02*
X5988600Y545800D01*
X5948600Y585800D02*
X6028600Y585800D01*
X5988600Y371800D02*
X5988600Y291800D01*
X5948600Y331800D02*
X6028600Y331800D01*
X6019800Y8650600D02*
X6019800Y8570600D01*
X5979800Y8610600D02*
X6059800Y8610600D01*
X6121400Y4891400D02*
X6121400Y4811400D01*
X6081400Y4851400D02*
X6161400Y4851400D01*
X6121400Y4129400D02*
X6121400Y4049400D01*
X6081400Y4089400D02*
X6161400Y4089400D01*
X6273800Y8650600D02*
X6273800Y8570600D01*
X6233800Y8610600D02*
X6313800Y8610600D01*
X6375400Y4891400D02*
X6375400Y4811400D01*
X6335400Y4851400D02*
X6415400Y4851400D01*
X6375400Y4129400D02*
X6375400Y4049400D01*
X6335400Y4089400D02*
X6415400Y4089400D01*
X6527800Y8650600D02*
X6527800Y8570600D01*
X6487800Y8610600D02*
X6567800Y8610600D01*
X6537000Y7761600D02*
X6537000Y7681600D01*
X6497000Y7721600D02*
X6577000Y7721600D01*
X6537000Y7507600D02*
X6537000Y7427600D01*
X6497000Y7467600D02*
X6577000Y7467600D01*
X6537000Y7253600D02*
X6537000Y7173600D01*
X6497000Y7213600D02*
X6577000Y7213600D01*
X6537000Y6999600D02*
X6537000Y6919600D01*
X6497000Y6959600D02*
X6577000Y6959600D01*
X6537000Y6745600D02*
X6537000Y6665600D01*
X6497000Y6705600D02*
X6577000Y6705600D01*
X6537000Y6491600D02*
X6537000Y6411600D01*
X6497000Y6451600D02*
X6577000Y6451600D01*
X6537000Y6237600D02*
X6537000Y6157600D01*
X6497000Y6197600D02*
X6577000Y6197600D01*
X6537000Y5983600D02*
X6537000Y5903600D01*
X6497000Y5943600D02*
X6577000Y5943600D01*
X6537000Y5729600D02*
X6537000Y5649600D01*
X6497000Y5689600D02*
X6577000Y5689600D01*
X6537000Y5475600D02*
X6537000Y5395600D01*
X6497000Y5435600D02*
X6577000Y5435600D01*
X6537000Y2657800D02*
X6537000Y2577800D01*
X6497000Y2617800D02*
X6577000Y2617800D01*
X6537000Y2403800D02*
X6537000Y2323800D01*
X6497000Y2363800D02*
X6577000Y2363800D01*
X6537000Y2149800D02*
X6537000Y2069800D01*
X6497000Y2109800D02*
X6577000Y2109800D01*
X6537000Y1895800D02*
X6537000Y1815800D01*
X6497000Y1855800D02*
X6577000Y1855800D01*
X6537000Y1641800D02*
X6537000Y1561800D01*
X6497000Y1601800D02*
X6577000Y1601800D01*
X6537000Y1387800D02*
X6537000Y1307800D01*
X6497000Y1347800D02*
X6577000Y1347800D01*
X6537000Y1133800D02*
X6537000Y1053800D01*
X6497000Y1093800D02*
X6577000Y1093800D01*
X6537000Y879800D02*
X6537000Y799800D01*
X6497000Y839800D02*
X6577000Y839800D01*
X6537000Y625800D02*
X6537000Y545800D01*
X6497000Y585800D02*
X6577000Y585800D01*
X6537000Y371800D02*
X6537000Y291800D01*
X6497000Y331800D02*
X6577000Y331800D01*
X6629400Y4891400D02*
X6629400Y4811400D01*
X6589400Y4851400D02*
X6669400Y4851400D01*
X6629400Y4129400D02*
X6629400Y4049400D01*
X6589400Y4089400D02*
X6669400Y4089400D01*
X6781800Y8650600D02*
X6781800Y8570600D01*
X6741800Y8610600D02*
X6821800Y8610600D01*
X6883400Y4891400D02*
X6883400Y4811400D01*
X6843400Y4851400D02*
X6923400Y4851400D01*
X6883400Y4129400D02*
X6883400Y4049400D01*
X6843400Y4089400D02*
X6923400Y4089400D01*
X7035800Y8650600D02*
X7035800Y8570600D01*
X6995800Y8610600D02*
X7075800Y8610600D01*
X7049000Y8244200D02*
X7049000Y8164200D01*
X7009000Y8204200D02*
X7089000Y8204200D01*
X7049000Y3240400D02*
X7049000Y3160400D01*
X7009000Y3200400D02*
X7089000Y3200400D01*
X7137400Y4891400D02*
X7137400Y4811400D01*
X7097400Y4851400D02*
X7177400Y4851400D01*
X7137400Y4129400D02*
X7137400Y4049400D01*
X7097400Y4089400D02*
X7177400Y4089400D01*
X7289800Y8650600D02*
X7289800Y8570600D01*
X7249800Y8610600D02*
X7329800Y8610600D01*
X7299000Y8244200D02*
X7299000Y8164200D01*
X7259000Y8204200D02*
X7339000Y8204200D01*
X7299000Y7761600D02*
X7299000Y7681600D01*
X7259000Y7721600D02*
X7339000Y7721600D01*
X7299000Y7507600D02*
X7299000Y7427600D01*
X7259000Y7467600D02*
X7339000Y7467600D01*
X7299000Y7253600D02*
X7299000Y7173600D01*
X7259000Y7213600D02*
X7339000Y7213600D01*
X7299000Y6999600D02*
X7299000Y6919600D01*
X7259000Y6959600D02*
X7339000Y6959600D01*
X7299000Y6745600D02*
X7299000Y6665600D01*
X7259000Y6705600D02*
X7339000Y6705600D01*
X7299000Y6491600D02*
X7299000Y6411600D01*
X7259000Y6451600D02*
X7339000Y6451600D01*
X7299000Y6237600D02*
X7299000Y6157600D01*
X7259000Y6197600D02*
X7339000Y6197600D01*
X7299000Y5983600D02*
X7299000Y5903600D01*
X7259000Y5943600D02*
X7339000Y5943600D01*
X7299000Y5729600D02*
X7299000Y5649600D01*
X7259000Y5689600D02*
X7339000Y5689600D01*
X7299000Y5475600D02*
X7299000Y5395600D01*
X7259000Y5435600D02*
X7339000Y5435600D01*
X7299000Y3240400D02*
X7299000Y3160400D01*
X7259000Y3200400D02*
X7339000Y3200400D01*
X7299000Y2657800D02*
X7299000Y2577800D01*
X7259000Y2617800D02*
X7339000Y2617800D01*
X7299000Y2403800D02*
X7299000Y2323800D01*
X7259000Y2363800D02*
X7339000Y2363800D01*
X7299000Y2149800D02*
X7299000Y2069800D01*
X7259000Y2109800D02*
X7339000Y2109800D01*
X7299000Y1895800D02*
X7299000Y1815800D01*
X7259000Y1855800D02*
X7339000Y1855800D01*
X7299000Y1641800D02*
X7299000Y1561800D01*
X7259000Y1601800D02*
X7339000Y1601800D01*
X7299000Y1387800D02*
X7299000Y1307800D01*
X7259000Y1347800D02*
X7339000Y1347800D01*
X7299000Y1133800D02*
X7299000Y1053800D01*
X7259000Y1093800D02*
X7339000Y1093800D01*
X7299000Y879800D02*
X7299000Y799800D01*
X7259000Y839800D02*
X7339000Y839800D01*
X7299000Y625800D02*
X7299000Y545800D01*
X7259000Y585800D02*
X7339000Y585800D01*
X7299000Y371800D02*
X7299000Y291800D01*
X7259000Y331800D02*
X7339000Y331800D01*
X7391400Y4891400D02*
X7391400Y4811400D01*
X7351400Y4851400D02*
X7431400Y4851400D01*
X7391400Y4129400D02*
X7391400Y4049400D01*
X7351400Y4089400D02*
X7431400Y4089400D01*
X7543800Y8650600D02*
X7543800Y8570600D01*
X7503800Y8610600D02*
X7583800Y8610600D01*
X7797800Y8650600D02*
X7797800Y8570600D01*
X7757800Y8610600D02*
X7837800Y8610600D01*
X8001000Y7850500D02*
X8001000Y7770500D01*
X7961000Y7810500D02*
X8041000Y7810500D01*
X8001000Y7596500D02*
X8001000Y7516500D01*
X7961000Y7556500D02*
X8041000Y7556500D01*
X8001000Y7342500D02*
X8001000Y7262500D01*
X7961000Y7302500D02*
X8041000Y7302500D01*
X8001000Y7088500D02*
X8001000Y7008500D01*
X7961000Y7048500D02*
X8041000Y7048500D01*
X8001000Y6834500D02*
X8001000Y6754500D01*
X7961000Y6794500D02*
X8041000Y6794500D01*
X8051800Y8650600D02*
X8051800Y8570600D01*
X8011800Y8610600D02*
X8091800Y8610600D01*
X8483600Y7850500D02*
X8483600Y7770500D01*
X8443600Y7810500D02*
X8523600Y7810500D01*
X8483600Y7596500D02*
X8483600Y7516500D01*
X8443600Y7556500D02*
X8523600Y7556500D01*
X8483600Y7342500D02*
X8483600Y7262500D01*
X8443600Y7302500D02*
X8523600Y7302500D01*
X8483600Y7088500D02*
X8483600Y7008500D01*
X8443600Y7048500D02*
X8523600Y7048500D01*
X8483600Y6834500D02*
X8483600Y6754500D01*
X8443600Y6794500D02*
X8523600Y6794500D01*
X8483600Y6580500D02*
X8483600Y6500500D01*
X8443600Y6540500D02*
X8523600Y6540500D01*
X8483600Y6326500D02*
X8483600Y6246500D01*
X8443600Y6286500D02*
X8523600Y6286500D01*
X8483600Y6072500D02*
X8483600Y5992500D01*
X8443600Y6032500D02*
X8523600Y6032500D01*
X8483600Y5818500D02*
X8483600Y5738500D01*
X8443600Y5778500D02*
X8523600Y5778500D01*
X8483600Y5310500D02*
X8483600Y5230500D01*
X8443600Y5270500D02*
X8523600Y5270500D01*
X8483600Y5056500D02*
X8483600Y4976500D01*
X8443600Y5016500D02*
X8523600Y5016500D01*
X8483600Y4802500D02*
X8483600Y4722500D01*
X8443600Y4762500D02*
X8523600Y4762500D01*
X8483600Y4548500D02*
X8483600Y4468500D01*
X8443600Y4508500D02*
X8523600Y4508500D01*
X8483600Y4294500D02*
X8483600Y4214500D01*
X8443600Y4254500D02*
X8523600Y4254500D01*
X8483600Y4040500D02*
X8483600Y3960500D01*
X8443600Y4000500D02*
X8523600Y4000500D01*
X8483600Y3786500D02*
X8483600Y3706500D01*
X8443600Y3746500D02*
X8523600Y3746500D01*
X8483600Y3532500D02*
X8483600Y3452500D01*
X8443600Y3492500D02*
X8523600Y3492500D01*
X8483600Y3278500D02*
X8483600Y3198500D01*
X8443600Y3238500D02*
X8523600Y3238500D01*
X387420Y5149780D02*
X387420Y5213420D01*
X323780Y5213420D01*
X323780Y5149780D01*
X387420Y5149780D01*
X387420Y4895780D02*
X387420Y4959420D01*
X323780Y4959420D01*
X323780Y4895780D01*
X387420Y4895780D01*
X266700Y3950500D02*
X316700Y4000500D01*
X266700Y4050500D01*
X216700Y4000500D01*
X266700Y3950500D01*
X266700Y3696500D02*
X316700Y3746500D01*
X266700Y3796500D01*
X216700Y3746500D01*
X266700Y3696500D01*
X266700Y3442500D02*
X316700Y3492500D01*
X266700Y3542500D01*
X216700Y3492500D01*
X266700Y3442500D01*
X266700Y3188500D02*
X316700Y3238500D01*
X266700Y3288500D01*
X216700Y3238500D01*
X266700Y3188500D01*
X266700Y2934500D02*
X316700Y2984500D01*
X266700Y3034500D01*
X216700Y2984500D01*
X266700Y2934500D01*
X266700Y2680500D02*
X316700Y2730500D01*
X266700Y2780500D01*
X216700Y2730500D01*
X266700Y2680500D01*
X266700Y2426500D02*
X316700Y2476500D01*
X266700Y2526500D01*
X216700Y2476500D01*
X266700Y2426500D01*
X266700Y2172500D02*
X316700Y2222500D01*
X266700Y2272500D01*
X216700Y2222500D01*
X266700Y2172500D01*
X266700Y1918500D02*
X316700Y1968500D01*
X266700Y2018500D01*
X216700Y1968500D01*
X266700Y1918500D01*
X266700Y1664500D02*
X316700Y1714500D01*
X266700Y1764500D01*
X216700Y1714500D01*
X266700Y1664500D01*
X444500Y8282700D02*
X494500Y8332700D01*
X444500Y8382700D01*
X394500Y8332700D01*
X444500Y8282700D01*
X444500Y8028700D02*
X494500Y8078700D01*
X444500Y8128700D01*
X394500Y8078700D01*
X444500Y8028700D01*
X444500Y7774700D02*
X494500Y7824700D01*
X444500Y7874700D01*
X394500Y7824700D01*
X444500Y7774700D01*
X444500Y7087400D02*
X494500Y7137400D01*
X444500Y7187400D01*
X394500Y7137400D01*
X444500Y7087400D01*
X444500Y6833400D02*
X494500Y6883400D01*
X444500Y6933400D01*
X394500Y6883400D01*
X444500Y6833400D01*
X444500Y6122200D02*
X494500Y6172200D01*
X444500Y6222200D01*
X394500Y6172200D01*
X444500Y6122200D01*
X444500Y5868200D02*
X494500Y5918200D01*
X444500Y5968200D01*
X394500Y5918200D01*
X444500Y5868200D01*
X444500Y5614200D02*
X494500Y5664200D01*
X444500Y5714200D01*
X394500Y5664200D01*
X444500Y5614200D01*
X520700Y3950500D02*
X570700Y4000500D01*
X520700Y4050500D01*
X470700Y4000500D01*
X520700Y3950500D01*
X520700Y3696500D02*
X570700Y3746500D01*
X520700Y3796500D01*
X470700Y3746500D01*
X520700Y3696500D01*
X520700Y3442500D02*
X570700Y3492500D01*
X520700Y3542500D01*
X470700Y3492500D01*
X520700Y3442500D01*
X520700Y3188500D02*
X570700Y3238500D01*
X520700Y3288500D01*
X470700Y3238500D01*
X520700Y3188500D01*
X520700Y2934500D02*
X570700Y2984500D01*
X520700Y3034500D01*
X470700Y2984500D01*
X520700Y2934500D01*
X520700Y2680500D02*
X570700Y2730500D01*
X520700Y2780500D01*
X470700Y2730500D01*
X520700Y2680500D01*
X520700Y2426500D02*
X570700Y2476500D01*
X520700Y2526500D01*
X470700Y2476500D01*
X520700Y2426500D01*
X520700Y2172500D02*
X570700Y2222500D01*
X520700Y2272500D01*
X470700Y2222500D01*
X520700Y2172500D01*
X520700Y1918500D02*
X570700Y1968500D01*
X520700Y2018500D01*
X470700Y1968500D01*
X520700Y1918500D01*
X520700Y1664500D02*
X570700Y1714500D01*
X520700Y1764500D01*
X470700Y1714500D01*
X520700Y1664500D01*
X1574800Y9221000D02*
X1624800Y9271000D01*
X1574800Y9321000D01*
X1524800Y9271000D01*
X1574800Y9221000D01*
X1574800Y8967000D02*
X1624800Y9017000D01*
X1574800Y9067000D01*
X1524800Y9017000D01*
X1574800Y8967000D01*
X1828800Y9221000D02*
X1878800Y9271000D01*
X1828800Y9321000D01*
X1778800Y9271000D01*
X1828800Y9221000D01*
X1828800Y8967000D02*
X1878800Y9017000D01*
X1828800Y9067000D01*
X1778800Y9017000D01*
X1828800Y8967000D01*
X2082800Y9221000D02*
X2132800Y9271000D01*
X2082800Y9321000D01*
X2032800Y9271000D01*
X2082800Y9221000D01*
X2082800Y8967000D02*
X2132800Y9017000D01*
X2082800Y9067000D01*
X2032800Y9017000D01*
X2082800Y8967000D01*
X2336800Y9221000D02*
X2386800Y9271000D01*
X2336800Y9321000D01*
X2286800Y9271000D01*
X2336800Y9221000D01*
X2336800Y8967000D02*
X2386800Y9017000D01*
X2336800Y9067000D01*
X2286800Y9017000D01*
X2336800Y8967000D01*
X3746500Y9221000D02*
X3796500Y9271000D01*
X3746500Y9321000D01*
X3696500Y9271000D01*
X3746500Y9221000D01*
X3746500Y8967000D02*
X3796500Y9017000D01*
X3746500Y9067000D01*
X3696500Y9017000D01*
X3746500Y8967000D01*
X4000500Y9221000D02*
X4050500Y9271000D01*
X4000500Y9321000D01*
X3950500Y9271000D01*
X4000500Y9221000D01*
X4000500Y8967000D02*
X4050500Y9017000D01*
X4000500Y9067000D01*
X3950500Y9017000D01*
X4000500Y8967000D01*
X4254500Y9221000D02*
X4304500Y9271000D01*
X4254500Y9321000D01*
X4204500Y9271000D01*
X4254500Y9221000D01*
X4254500Y8967000D02*
X4304500Y9017000D01*
X4254500Y9067000D01*
X4204500Y9017000D01*
X4254500Y8967000D01*
X4508500Y9221000D02*
X4558500Y9271000D01*
X4508500Y9321000D01*
X4458500Y9271000D01*
X4508500Y9221000D01*
X4508500Y8967000D02*
X4558500Y9017000D01*
X4508500Y9067000D01*
X4458500Y9017000D01*
X4508500Y8967000D01*
X4762500Y9221000D02*
X4812500Y9271000D01*
X4762500Y9321000D01*
X4712500Y9271000D01*
X4762500Y9221000D01*
X4762500Y8967000D02*
X4812500Y9017000D01*
X4762500Y9067000D01*
X4712500Y9017000D01*
X4762500Y8967000D01*
X5016500Y9221000D02*
X5066500Y9271000D01*
X5016500Y9321000D01*
X4966500Y9271000D01*
X5016500Y9221000D01*
X5016500Y8967000D02*
X5066500Y9017000D01*
X5016500Y9067000D01*
X4966500Y9017000D01*
X5016500Y8967000D01*
X5270500Y9221000D02*
X5320500Y9271000D01*
X5270500Y9321000D01*
X5220500Y9271000D01*
X5270500Y9221000D01*
X5270500Y8967000D02*
X5320500Y9017000D01*
X5270500Y9067000D01*
X5220500Y9017000D01*
X5270500Y8967000D01*
X5524500Y9221000D02*
X5574500Y9271000D01*
X5524500Y9321000D01*
X5474500Y9271000D01*
X5524500Y9221000D01*
X5524500Y8967000D02*
X5574500Y9017000D01*
X5524500Y9067000D01*
X5474500Y9017000D01*
X5524500Y8967000D01*
X5778500Y9221000D02*
X5828500Y9271000D01*
X5778500Y9321000D01*
X5728500Y9271000D01*
X5778500Y9221000D01*
X5778500Y8967000D02*
X5828500Y9017000D01*
X5778500Y9067000D01*
X5728500Y9017000D01*
X5778500Y8967000D01*
X6032500Y9221000D02*
X6082500Y9271000D01*
X6032500Y9321000D01*
X5982500Y9271000D01*
X6032500Y9221000D01*
X6032500Y8967000D02*
X6082500Y9017000D01*
X6032500Y9067000D01*
X5982500Y9017000D01*
X6032500Y8967000D01*
X6286500Y9221000D02*
X6336500Y9271000D01*
X6286500Y9321000D01*
X6236500Y9271000D01*
X6286500Y9221000D01*
X6286500Y8967000D02*
X6336500Y9017000D01*
X6286500Y9067000D01*
X6236500Y9017000D01*
X6286500Y8967000D01*
X6540500Y9221000D02*
X6590500Y9271000D01*
X6540500Y9321000D01*
X6490500Y9271000D01*
X6540500Y9221000D01*
X6540500Y8967000D02*
X6590500Y9017000D01*
X6540500Y9067000D01*
X6490500Y9017000D01*
X6540500Y8967000D01*
X6794500Y9221000D02*
X6844500Y9271000D01*
X6794500Y9321000D01*
X6744500Y9271000D01*
X6794500Y9221000D01*
X6794500Y8967000D02*
X6844500Y9017000D01*
X6794500Y9067000D01*
X6744500Y9017000D01*
X6794500Y8967000D01*
X7048500Y9221000D02*
X7098500Y9271000D01*
X7048500Y9321000D01*
X6998500Y9271000D01*
X7048500Y9221000D01*
X7048500Y8967000D02*
X7098500Y9017000D01*
X7048500Y9067000D01*
X6998500Y9017000D01*
X7048500Y8967000D01*
X7302500Y9221000D02*
X7352500Y9271000D01*
X7302500Y9321000D01*
X7252500Y9271000D01*
X7302500Y9221000D01*
X7302500Y8967000D02*
X7352500Y9017000D01*
X7302500Y9067000D01*
X7252500Y9017000D01*
X7302500Y8967000D01*
X7556500Y9221000D02*
X7606500Y9271000D01*
X7556500Y9321000D01*
X7506500Y9271000D01*
X7556500Y9221000D01*
X7556500Y8967000D02*
X7606500Y9017000D01*
X7556500Y9067000D01*
X7506500Y9017000D01*
X7556500Y8967000D01*
X7810500Y9221000D02*
X7860500Y9271000D01*
X7810500Y9321000D01*
X7760500Y9271000D01*
X7810500Y9221000D01*
X7810500Y8967000D02*
X7860500Y9017000D01*
X7810500Y9067000D01*
X7760500Y9017000D01*
X7810500Y8967000D01*
X9017000Y7760500D02*
X9067000Y7810500D01*
X9017000Y7860500D01*
X8967000Y7810500D01*
X9017000Y7760500D01*
X9017000Y7506500D02*
X9067000Y7556500D01*
X9017000Y7606500D01*
X8967000Y7556500D01*
X9017000Y7506500D01*
X9017000Y7252500D02*
X9067000Y7302500D01*
X9017000Y7352500D01*
X8967000Y7302500D01*
X9017000Y7252500D01*
X9017000Y6998500D02*
X9067000Y7048500D01*
X9017000Y7098500D01*
X8967000Y7048500D01*
X9017000Y6998500D01*
X9017000Y6744500D02*
X9067000Y6794500D01*
X9017000Y6844500D01*
X8967000Y6794500D01*
X9017000Y6744500D01*
X9017000Y6490500D02*
X9067000Y6540500D01*
X9017000Y6590500D01*
X8967000Y6540500D01*
X9017000Y6490500D01*
X9017000Y6236500D02*
X9067000Y6286500D01*
X9017000Y6336500D01*
X8967000Y6286500D01*
X9017000Y6236500D01*
X9017000Y5982500D02*
X9067000Y6032500D01*
X9017000Y6082500D01*
X8967000Y6032500D01*
X9017000Y5982500D01*
X9017000Y5728500D02*
X9067000Y5778500D01*
X9017000Y5828500D01*
X8967000Y5778500D01*
X9017000Y5728500D01*
X9017000Y5474500D02*
X9067000Y5524500D01*
X9017000Y5574500D01*
X8967000Y5524500D01*
X9017000Y5474500D01*
X9017000Y5220500D02*
X9067000Y5270500D01*
X9017000Y5320500D01*
X8967000Y5270500D01*
X9017000Y5220500D01*
X9017000Y4966500D02*
X9067000Y5016500D01*
X9017000Y5066500D01*
X8967000Y5016500D01*
X9017000Y4966500D01*
X9017000Y4712500D02*
X9067000Y4762500D01*
X9017000Y4812500D01*
X8967000Y4762500D01*
X9017000Y4712500D01*
X9017000Y4458500D02*
X9067000Y4508500D01*
X9017000Y4558500D01*
X8967000Y4508500D01*
X9017000Y4458500D01*
X9017000Y4204500D02*
X9067000Y4254500D01*
X9017000Y4304500D01*
X8967000Y4254500D01*
X9017000Y4204500D01*
X9017000Y3950500D02*
X9067000Y4000500D01*
X9017000Y4050500D01*
X8967000Y4000500D01*
X9017000Y3950500D01*
X9017000Y3696500D02*
X9067000Y3746500D01*
X9017000Y3796500D01*
X8967000Y3746500D01*
X9017000Y3696500D01*
X9017000Y3442500D02*
X9067000Y3492500D01*
X9017000Y3542500D01*
X8967000Y3492500D01*
X9017000Y3442500D01*
X9017000Y3188500D02*
X9067000Y3238500D01*
X9017000Y3288500D01*
X8967000Y3238500D01*
X9017000Y3188500D01*
X9017000Y2934500D02*
X9067000Y2984500D01*
X9017000Y3034500D01*
X8967000Y2984500D01*
X9017000Y2934500D01*
X9271000Y7760500D02*
X9321000Y7810500D01*
X9271000Y7860500D01*
X9221000Y7810500D01*
X9271000Y7760500D01*
X9271000Y7506500D02*
X9321000Y7556500D01*
X9271000Y7606500D01*
X9221000Y7556500D01*
X9271000Y7506500D01*
X9271000Y7252500D02*
X9321000Y7302500D01*
X9271000Y7352500D01*
X9221000Y7302500D01*
X9271000Y7252500D01*
X9271000Y6998500D02*
X9321000Y7048500D01*
X9271000Y7098500D01*
X9221000Y7048500D01*
X9271000Y6998500D01*
X9271000Y6744500D02*
X9321000Y6794500D01*
X9271000Y6844500D01*
X9221000Y6794500D01*
X9271000Y6744500D01*
X9271000Y6490500D02*
X9321000Y6540500D01*
X9271000Y6590500D01*
X9221000Y6540500D01*
X9271000Y6490500D01*
X9271000Y6236500D02*
X9321000Y6286500D01*
X9271000Y6336500D01*
X9221000Y6286500D01*
X9271000Y6236500D01*
X9271000Y5982500D02*
X9321000Y6032500D01*
X9271000Y6082500D01*
X9221000Y6032500D01*
X9271000Y5982500D01*
X9271000Y5728500D02*
X9321000Y5778500D01*
X9271000Y5828500D01*
X9221000Y5778500D01*
X9271000Y5728500D01*
X9271000Y5474500D02*
X9321000Y5524500D01*
X9271000Y5574500D01*
X9221000Y5524500D01*
X9271000Y5474500D01*
X9271000Y5220500D02*
X9321000Y5270500D01*
X9271000Y5320500D01*
X9221000Y5270500D01*
X9271000Y5220500D01*
X9271000Y4966500D02*
X9321000Y5016500D01*
X9271000Y5066500D01*
X9221000Y5016500D01*
X9271000Y4966500D01*
X9271000Y4712500D02*
X9321000Y4762500D01*
X9271000Y4812500D01*
X9221000Y4762500D01*
X9271000Y4712500D01*
X9271000Y4458500D02*
X9321000Y4508500D01*
X9271000Y4558500D01*
X9221000Y4508500D01*
X9271000Y4458500D01*
X9271000Y4204500D02*
X9321000Y4254500D01*
X9271000Y4304500D01*
X9221000Y4254500D01*
X9271000Y4204500D01*
X9271000Y3950500D02*
X9321000Y4000500D01*
X9271000Y4050500D01*
X9221000Y4000500D01*
X9271000Y3950500D01*
X9271000Y3696500D02*
X9321000Y3746500D01*
X9271000Y3796500D01*
X9221000Y3746500D01*
X9271000Y3696500D01*
X9271000Y3442500D02*
X9321000Y3492500D01*
X9271000Y3542500D01*
X9221000Y3492500D01*
X9271000Y3442500D01*
X9271000Y3188500D02*
X9321000Y3238500D01*
X9271000Y3288500D01*
X9221000Y3238500D01*
X9271000Y3188500D01*
X9271000Y2934500D02*
X9321000Y2984500D01*
X9271000Y3034500D01*
X9221000Y2984500D01*
X9271000Y2934500D01*
D12*
X192500Y9332500D02*
X512500Y9012500D01*
X512500Y9332500D02*
X192500Y9012500D01*
X512500Y9172500D02*
G75*
G02*
X192500Y9172500I-160000J0D01*
G01*
X192500Y9172500D02*
G75*
G02*
X512500Y9172500I160000J0D01*
G01*
X192500Y512500D02*
X512500Y192500D01*
X512500Y512500D02*
X192500Y192500D01*
X512500Y352500D02*
G75*
G02*
X192500Y352500I-160000J0D01*
G01*
X192500Y352500D02*
G75*
G02*
X512500Y352500I160000J0D01*
G01*
X9012500Y9332500D02*
X9332500Y9012500D01*
X9332500Y9332500D02*
X9012500Y9012500D01*
X9332500Y9172500D02*
G75*
G02*
X9012500Y9172500I-160000J0D01*
G01*
X9012500Y9172500D02*
G75*
G02*
X9332500Y9172500I160000J0D01*
G01*
X9012500Y512500D02*
X9332500Y192500D01*
X9332500Y512500D02*
X9012500Y192500D01*
X9332500Y352500D02*
G75*
G02*
X9012500Y352500I-160000J0D01*
G01*
X9012500Y352500D02*
G75*
G02*
X9332500Y352500I160000J0D01*
G01*
D11*
X255777Y-316484D02*
X255777Y-116484D01*
X255777Y-116484D02*
X303396Y-116484D01*
X303396Y-116484D02*
X331967Y-126008D01*
X331967Y-126008D02*
X351015Y-145055D01*
X351015Y-145055D02*
X360539Y-164103D01*
X360539Y-164103D02*
X370062Y-202198D01*
X370062Y-202198D02*
X370062Y-230769D01*
X370062Y-230769D02*
X360539Y-268865D01*
X360539Y-268865D02*
X351015Y-287912D01*
X351015Y-287912D02*
X331967Y-306960D01*
X331967Y-306960D02*
X303396Y-316484D01*
X303396Y-316484D02*
X255777Y-316484D01*
X455777Y-316484D02*
X455777Y-183150D01*
X455777Y-221246D02*
X465301Y-202198D01*
X465301Y-202198D02*
X474824Y-192674D01*
X474824Y-192674D02*
X493872Y-183150D01*
X493872Y-183150D02*
X512920Y-183150D01*
X579586Y-316484D02*
X579586Y-183150D01*
X579586Y-116484D02*
X570063Y-126008D01*
X570063Y-126008D02*
X579586Y-135531D01*
X579586Y-135531D02*
X589110Y-126008D01*
X589110Y-126008D02*
X579586Y-116484D01*
X579586Y-116484D02*
X579586Y-135531D01*
X703396Y-316484D02*
X684348Y-306960D01*
X684348Y-306960D02*
X674824Y-287912D01*
X674824Y-287912D02*
X674824Y-116484D01*
X808158Y-316484D02*
X789110Y-306960D01*
X789110Y-306960D02*
X779586Y-287912D01*
X779586Y-287912D02*
X779586Y-116484D01*
X1036729Y-316484D02*
X1036729Y-116484D01*
X1036729Y-116484D02*
X1103396Y-259341D01*
X1103396Y-259341D02*
X1170063Y-116484D01*
X1170063Y-116484D02*
X1170063Y-316484D01*
X1351015Y-316484D02*
X1351015Y-211722D01*
X1351015Y-211722D02*
X1341491Y-192674D01*
X1341491Y-192674D02*
X1322444Y-183150D01*
X1322444Y-183150D02*
X1284348Y-183150D01*
X1284348Y-183150D02*
X1265301Y-192674D01*
X1351015Y-306960D02*
X1331967Y-316484D01*
X1331967Y-316484D02*
X1284348Y-316484D01*
X1284348Y-316484D02*
X1265301Y-306960D01*
X1265301Y-306960D02*
X1255777Y-287912D01*
X1255777Y-287912D02*
X1255777Y-268865D01*
X1255777Y-268865D02*
X1265301Y-249817D01*
X1265301Y-249817D02*
X1284348Y-240293D01*
X1284348Y-240293D02*
X1331967Y-240293D01*
X1331967Y-240293D02*
X1351015Y-230769D01*
X1446253Y-183150D02*
X1446253Y-383150D01*
X1446253Y-192674D02*
X1465301Y-183150D01*
X1465301Y-183150D02*
X1503396Y-183150D01*
X1503396Y-183150D02*
X1522443Y-192674D01*
X1522443Y-192674D02*
X1531967Y-202198D01*
X1531967Y-202198D02*
X1541491Y-221246D01*
X1541491Y-221246D02*
X1541491Y-278389D01*
X1541491Y-278389D02*
X1531967Y-297436D01*
X1531967Y-297436D02*
X1522443Y-306960D01*
X1522443Y-306960D02*
X1503396Y-316484D01*
X1503396Y-316484D02*
X1465301Y-316484D01*
X1465301Y-316484D02*
X1446253Y-306960D01*
X1627205Y-297436D02*
X1636729Y-306960D01*
X1636729Y-306960D02*
X1627205Y-316484D01*
X1627205Y-316484D02*
X1617682Y-306960D01*
X1617682Y-306960D02*
X1627205Y-297436D01*
X1627205Y-297436D02*
X1627205Y-316484D01*
X1627205Y-192674D02*
X1636729Y-202198D01*
X1636729Y-202198D02*
X1627205Y-211722D01*
X1627205Y-211722D02*
X1617682Y-202198D01*
X1617682Y-202198D02*
X1627205Y-192674D01*
X1627205Y-192674D02*
X1627205Y-211722D01*
D10*
X-35000Y-630000D02*
X-5000Y-660000D01*
X-5000Y-630000D02*
X-35000Y-660000D01*
D11*
X293872Y-536484D02*
X312920Y-536484D01*
X312920Y-536484D02*
X331967Y-546008D01*
X331967Y-546008D02*
X341491Y-555531D01*
X341491Y-555531D02*
X351015Y-574579D01*
X351015Y-574579D02*
X360539Y-612674D01*
X360539Y-612674D02*
X360539Y-660293D01*
X360539Y-660293D02*
X351015Y-698389D01*
X351015Y-698389D02*
X341491Y-717436D01*
X341491Y-717436D02*
X331967Y-726960D01*
X331967Y-726960D02*
X312920Y-736484D01*
X312920Y-736484D02*
X293872Y-736484D01*
X293872Y-736484D02*
X274824Y-726960D01*
X274824Y-726960D02*
X265301Y-717436D01*
X265301Y-717436D02*
X255777Y-698389D01*
X255777Y-698389D02*
X246253Y-660293D01*
X246253Y-660293D02*
X246253Y-612674D01*
X246253Y-612674D02*
X255777Y-574579D01*
X255777Y-574579D02*
X265301Y-555531D01*
X265301Y-555531D02*
X274824Y-546008D01*
X274824Y-546008D02*
X293872Y-536484D01*
X446253Y-717436D02*
X455777Y-726960D01*
X455777Y-726960D02*
X446253Y-736484D01*
X446253Y-736484D02*
X436729Y-726960D01*
X436729Y-726960D02*
X446253Y-717436D01*
X446253Y-717436D02*
X446253Y-736484D01*
X522443Y-536484D02*
X646253Y-536484D01*
X646253Y-536484D02*
X579586Y-612674D01*
X579586Y-612674D02*
X608158Y-612674D01*
X608158Y-612674D02*
X627205Y-622198D01*
X627205Y-622198D02*
X636729Y-631722D01*
X636729Y-631722D02*
X646253Y-650770D01*
X646253Y-650770D02*
X646253Y-698389D01*
X646253Y-698389D02*
X636729Y-717436D01*
X636729Y-717436D02*
X627205Y-726960D01*
X627205Y-726960D02*
X608158Y-736484D01*
X608158Y-736484D02*
X551015Y-736484D01*
X551015Y-736484D02*
X531967Y-726960D01*
X531967Y-726960D02*
X522443Y-717436D01*
X770062Y-536484D02*
X789110Y-536484D01*
X789110Y-536484D02*
X808158Y-546008D01*
X808158Y-546008D02*
X817682Y-555531D01*
X817682Y-555531D02*
X827205Y-574579D01*
X827205Y-574579D02*
X836729Y-612674D01*
X836729Y-612674D02*
X836729Y-660293D01*
X836729Y-660293D02*
X827205Y-698389D01*
X827205Y-698389D02*
X817682Y-717436D01*
X817682Y-717436D02*
X808158Y-726960D01*
X808158Y-726960D02*
X789110Y-736484D01*
X789110Y-736484D02*
X770062Y-736484D01*
X770062Y-736484D02*
X751015Y-726960D01*
X751015Y-726960D02*
X741491Y-717436D01*
X741491Y-717436D02*
X731967Y-698389D01*
X731967Y-698389D02*
X722443Y-660293D01*
X722443Y-660293D02*
X722443Y-612674D01*
X722443Y-612674D02*
X731967Y-574579D01*
X731967Y-574579D02*
X741491Y-555531D01*
X741491Y-555531D02*
X751015Y-546008D01*
X751015Y-546008D02*
X770062Y-536484D01*
X960539Y-536484D02*
X979586Y-536484D01*
X979586Y-536484D02*
X998634Y-546008D01*
X998634Y-546008D02*
X1008158Y-555531D01*
X1008158Y-555531D02*
X1017682Y-574579D01*
X1017682Y-574579D02*
X1027205Y-612674D01*
X1027205Y-612674D02*
X1027205Y-660293D01*
X1027205Y-660293D02*
X1017682Y-698389D01*
X1017682Y-698389D02*
X1008158Y-717436D01*
X1008158Y-717436D02*
X998634Y-726960D01*
X998634Y-726960D02*
X979586Y-736484D01*
X979586Y-736484D02*
X960539Y-736484D01*
X960539Y-736484D02*
X941491Y-726960D01*
X941491Y-726960D02*
X931967Y-717436D01*
X931967Y-717436D02*
X922443Y-698389D01*
X922443Y-698389D02*
X912920Y-660293D01*
X912920Y-660293D02*
X912920Y-612674D01*
X912920Y-612674D02*
X922443Y-574579D01*
X922443Y-574579D02*
X931967Y-555531D01*
X931967Y-555531D02*
X941491Y-546008D01*
X941491Y-546008D02*
X960539Y-536484D01*
X1112920Y-736484D02*
X1112920Y-603150D01*
X1112920Y-622198D02*
X1122444Y-612674D01*
X1122444Y-612674D02*
X1141491Y-603150D01*
X1141491Y-603150D02*
X1170063Y-603150D01*
X1170063Y-603150D02*
X1189110Y-612674D01*
X1189110Y-612674D02*
X1198634Y-631722D01*
X1198634Y-631722D02*
X1198634Y-736484D01*
X1198634Y-631722D02*
X1208158Y-612674D01*
X1208158Y-612674D02*
X1227205Y-603150D01*
X1227205Y-603150D02*
X1255777Y-603150D01*
X1255777Y-603150D02*
X1274825Y-612674D01*
X1274825Y-612674D02*
X1284348Y-631722D01*
X1284348Y-631722D02*
X1284348Y-736484D01*
X1379586Y-736484D02*
X1379586Y-603150D01*
X1379586Y-622198D02*
X1389110Y-612674D01*
X1389110Y-612674D02*
X1408158Y-603150D01*
X1408158Y-603150D02*
X1436729Y-603150D01*
X1436729Y-603150D02*
X1455777Y-612674D01*
X1455777Y-612674D02*
X1465301Y-631722D01*
X1465301Y-631722D02*
X1465301Y-736484D01*
X1465301Y-631722D02*
X1474824Y-612674D01*
X1474824Y-612674D02*
X1493872Y-603150D01*
X1493872Y-603150D02*
X1522443Y-603150D01*
X1522443Y-603150D02*
X1541491Y-612674D01*
X1541491Y-612674D02*
X1551015Y-631722D01*
X1551015Y-631722D02*
X1551015Y-736484D01*
X1941491Y-526960D02*
X1770063Y-784103D01*
X2198634Y-536484D02*
X2217682Y-536484D01*
X2217682Y-536484D02*
X2236729Y-546008D01*
X2236729Y-546008D02*
X2246253Y-555531D01*
X2246253Y-555531D02*
X2255777Y-574579D01*
X2255777Y-574579D02*
X2265301Y-612674D01*
X2265301Y-612674D02*
X2265301Y-660293D01*
X2265301Y-660293D02*
X2255777Y-698389D01*
X2255777Y-698389D02*
X2246253Y-717436D01*
X2246253Y-717436D02*
X2236729Y-726960D01*
X2236729Y-726960D02*
X2217682Y-736484D01*
X2217682Y-736484D02*
X2198634Y-736484D01*
X2198634Y-736484D02*
X2179587Y-726960D01*
X2179587Y-726960D02*
X2170063Y-717436D01*
X2170063Y-717436D02*
X2160539Y-698389D01*
X2160539Y-698389D02*
X2151015Y-660293D01*
X2151015Y-660293D02*
X2151015Y-612674D01*
X2151015Y-612674D02*
X2160539Y-574579D01*
X2160539Y-574579D02*
X2170063Y-555531D01*
X2170063Y-555531D02*
X2179587Y-546008D01*
X2179587Y-546008D02*
X2198634Y-536484D01*
X2351015Y-717436D02*
X2360539Y-726960D01*
X2360539Y-726960D02*
X2351015Y-736484D01*
X2351015Y-736484D02*
X2341491Y-726960D01*
X2341491Y-726960D02*
X2351015Y-717436D01*
X2351015Y-717436D02*
X2351015Y-736484D01*
X2484348Y-536484D02*
X2503396Y-536484D01*
X2503396Y-536484D02*
X2522444Y-546008D01*
X2522444Y-546008D02*
X2531968Y-555531D01*
X2531968Y-555531D02*
X2541491Y-574579D01*
X2541491Y-574579D02*
X2551015Y-612674D01*
X2551015Y-612674D02*
X2551015Y-660293D01*
X2551015Y-660293D02*
X2541491Y-698389D01*
X2541491Y-698389D02*
X2531968Y-717436D01*
X2531968Y-717436D02*
X2522444Y-726960D01*
X2522444Y-726960D02*
X2503396Y-736484D01*
X2503396Y-736484D02*
X2484348Y-736484D01*
X2484348Y-736484D02*
X2465301Y-726960D01*
X2465301Y-726960D02*
X2455777Y-717436D01*
X2455777Y-717436D02*
X2446253Y-698389D01*
X2446253Y-698389D02*
X2436729Y-660293D01*
X2436729Y-660293D02*
X2436729Y-612674D01*
X2436729Y-612674D02*
X2446253Y-574579D01*
X2446253Y-574579D02*
X2455777Y-555531D01*
X2455777Y-555531D02*
X2465301Y-546008D01*
X2465301Y-546008D02*
X2484348Y-536484D01*
X2741491Y-736484D02*
X2627206Y-736484D01*
X2684348Y-736484D02*
X2684348Y-536484D01*
X2684348Y-536484D02*
X2665301Y-565055D01*
X2665301Y-565055D02*
X2646253Y-584103D01*
X2646253Y-584103D02*
X2627206Y-593627D01*
X2931967Y-736484D02*
X2817682Y-736484D01*
X2874825Y-736484D02*
X2874825Y-536484D01*
X2874825Y-536484D02*
X2855777Y-565055D01*
X2855777Y-565055D02*
X2836729Y-584103D01*
X2836729Y-584103D02*
X2817682Y-593627D01*
X3046253Y-622198D02*
X3027206Y-612674D01*
X3027206Y-612674D02*
X3017682Y-603150D01*
X3017682Y-603150D02*
X3008158Y-584103D01*
X3008158Y-584103D02*
X3008158Y-574579D01*
X3008158Y-574579D02*
X3017682Y-555531D01*
X3017682Y-555531D02*
X3027206Y-546008D01*
X3027206Y-546008D02*
X3046253Y-536484D01*
X3046253Y-536484D02*
X3084348Y-536484D01*
X3084348Y-536484D02*
X3103396Y-546008D01*
X3103396Y-546008D02*
X3112920Y-555531D01*
X3112920Y-555531D02*
X3122444Y-574579D01*
X3122444Y-574579D02*
X3122444Y-584103D01*
X3122444Y-584103D02*
X3112920Y-603150D01*
X3112920Y-603150D02*
X3103396Y-612674D01*
X3103396Y-612674D02*
X3084348Y-622198D01*
X3084348Y-622198D02*
X3046253Y-622198D01*
X3046253Y-622198D02*
X3027206Y-631722D01*
X3027206Y-631722D02*
X3017682Y-641246D01*
X3017682Y-641246D02*
X3008158Y-660293D01*
X3008158Y-660293D02*
X3008158Y-698389D01*
X3008158Y-698389D02*
X3017682Y-717436D01*
X3017682Y-717436D02*
X3027206Y-726960D01*
X3027206Y-726960D02*
X3046253Y-736484D01*
X3046253Y-736484D02*
X3084348Y-736484D01*
X3084348Y-736484D02*
X3103396Y-726960D01*
X3103396Y-726960D02*
X3112920Y-717436D01*
X3112920Y-717436D02*
X3122444Y-698389D01*
X3122444Y-698389D02*
X3122444Y-660293D01*
X3122444Y-660293D02*
X3112920Y-641246D01*
X3112920Y-641246D02*
X3103396Y-631722D01*
X3103396Y-631722D02*
X3084348Y-622198D01*
X3198634Y-536484D02*
X3198634Y-574579D01*
X3274825Y-536484D02*
X3274825Y-574579D01*
X3570063Y-812674D02*
X3560539Y-803150D01*
X3560539Y-803150D02*
X3541491Y-774579D01*
X3541491Y-774579D02*
X3531968Y-755531D01*
X3531968Y-755531D02*
X3522444Y-726960D01*
X3522444Y-726960D02*
X3512920Y-679341D01*
X3512920Y-679341D02*
X3512920Y-641246D01*
X3512920Y-641246D02*
X3522444Y-593627D01*
X3522444Y-593627D02*
X3531968Y-565055D01*
X3531968Y-565055D02*
X3541491Y-546008D01*
X3541491Y-546008D02*
X3560539Y-517436D01*
X3560539Y-517436D02*
X3570063Y-507912D01*
X3627206Y-536484D02*
X3751015Y-536484D01*
X3751015Y-536484D02*
X3684348Y-612674D01*
X3684348Y-612674D02*
X3712920Y-612674D01*
X3712920Y-612674D02*
X3731968Y-622198D01*
X3731968Y-622198D02*
X3741491Y-631722D01*
X3741491Y-631722D02*
X3751015Y-650770D01*
X3751015Y-650770D02*
X3751015Y-698389D01*
X3751015Y-698389D02*
X3741491Y-717436D01*
X3741491Y-717436D02*
X3731968Y-726960D01*
X3731968Y-726960D02*
X3712920Y-736484D01*
X3712920Y-736484D02*
X3655777Y-736484D01*
X3655777Y-736484D02*
X3636729Y-726960D01*
X3636729Y-726960D02*
X3627206Y-717436D01*
X3846253Y-736484D02*
X3884348Y-736484D01*
X3884348Y-736484D02*
X3903396Y-726960D01*
X3903396Y-726960D02*
X3912920Y-717436D01*
X3912920Y-717436D02*
X3931968Y-688865D01*
X3931968Y-688865D02*
X3941491Y-650770D01*
X3941491Y-650770D02*
X3941491Y-574579D01*
X3941491Y-574579D02*
X3931968Y-555531D01*
X3931968Y-555531D02*
X3922444Y-546008D01*
X3922444Y-546008D02*
X3903396Y-536484D01*
X3903396Y-536484D02*
X3865301Y-536484D01*
X3865301Y-536484D02*
X3846253Y-546008D01*
X3846253Y-546008D02*
X3836729Y-555531D01*
X3836729Y-555531D02*
X3827206Y-574579D01*
X3827206Y-574579D02*
X3827206Y-622198D01*
X3827206Y-622198D02*
X3836729Y-641246D01*
X3836729Y-641246D02*
X3846253Y-650770D01*
X3846253Y-650770D02*
X3865301Y-660293D01*
X3865301Y-660293D02*
X3903396Y-660293D01*
X3903396Y-660293D02*
X3922444Y-650770D01*
X3922444Y-650770D02*
X3931968Y-641246D01*
X3931968Y-641246D02*
X3941491Y-622198D01*
X4008158Y-536484D02*
X4131968Y-536484D01*
X4131968Y-536484D02*
X4065301Y-612674D01*
X4065301Y-612674D02*
X4093872Y-612674D01*
X4093872Y-612674D02*
X4112920Y-622198D01*
X4112920Y-622198D02*
X4122444Y-631722D01*
X4122444Y-631722D02*
X4131968Y-650770D01*
X4131968Y-650770D02*
X4131968Y-698389D01*
X4131968Y-698389D02*
X4122444Y-717436D01*
X4122444Y-717436D02*
X4112920Y-726960D01*
X4112920Y-726960D02*
X4093872Y-736484D01*
X4093872Y-736484D02*
X4036729Y-736484D01*
X4036729Y-736484D02*
X4017682Y-726960D01*
X4017682Y-726960D02*
X4008158Y-717436D01*
X4370063Y-736484D02*
X4370063Y-536484D01*
X4455777Y-736484D02*
X4455777Y-631722D01*
X4455777Y-631722D02*
X4446253Y-612674D01*
X4446253Y-612674D02*
X4427206Y-603150D01*
X4427206Y-603150D02*
X4398634Y-603150D01*
X4398634Y-603150D02*
X4379587Y-612674D01*
X4379587Y-612674D02*
X4370063Y-622198D01*
X4579587Y-736484D02*
X4560539Y-726960D01*
X4560539Y-726960D02*
X4551015Y-717436D01*
X4551015Y-717436D02*
X4541492Y-698389D01*
X4541492Y-698389D02*
X4541492Y-641246D01*
X4541492Y-641246D02*
X4551015Y-622198D01*
X4551015Y-622198D02*
X4560539Y-612674D01*
X4560539Y-612674D02*
X4579587Y-603150D01*
X4579587Y-603150D02*
X4608158Y-603150D01*
X4608158Y-603150D02*
X4627206Y-612674D01*
X4627206Y-612674D02*
X4636730Y-622198D01*
X4636730Y-622198D02*
X4646253Y-641246D01*
X4646253Y-641246D02*
X4646253Y-698389D01*
X4646253Y-698389D02*
X4636730Y-717436D01*
X4636730Y-717436D02*
X4627206Y-726960D01*
X4627206Y-726960D02*
X4608158Y-736484D01*
X4608158Y-736484D02*
X4579587Y-736484D01*
X4760539Y-736484D02*
X4741492Y-726960D01*
X4741492Y-726960D02*
X4731968Y-707912D01*
X4731968Y-707912D02*
X4731968Y-536484D01*
X4912920Y-726960D02*
X4893873Y-736484D01*
X4893873Y-736484D02*
X4855777Y-736484D01*
X4855777Y-736484D02*
X4836730Y-726960D01*
X4836730Y-726960D02*
X4827206Y-707912D01*
X4827206Y-707912D02*
X4827206Y-631722D01*
X4827206Y-631722D02*
X4836730Y-612674D01*
X4836730Y-612674D02*
X4855777Y-603150D01*
X4855777Y-603150D02*
X4893873Y-603150D01*
X4893873Y-603150D02*
X4912920Y-612674D01*
X4912920Y-612674D02*
X4922444Y-631722D01*
X4922444Y-631722D02*
X4922444Y-650770D01*
X4922444Y-650770D02*
X4827206Y-669817D01*
X4998634Y-726960D02*
X5017682Y-736484D01*
X5017682Y-736484D02*
X5055777Y-736484D01*
X5055777Y-736484D02*
X5074825Y-726960D01*
X5074825Y-726960D02*
X5084349Y-707912D01*
X5084349Y-707912D02*
X5084349Y-698389D01*
X5084349Y-698389D02*
X5074825Y-679341D01*
X5074825Y-679341D02*
X5055777Y-669817D01*
X5055777Y-669817D02*
X5027206Y-669817D01*
X5027206Y-669817D02*
X5008158Y-660293D01*
X5008158Y-660293D02*
X4998634Y-641246D01*
X4998634Y-641246D02*
X4998634Y-631722D01*
X4998634Y-631722D02*
X5008158Y-612674D01*
X5008158Y-612674D02*
X5027206Y-603150D01*
X5027206Y-603150D02*
X5055777Y-603150D01*
X5055777Y-603150D02*
X5074825Y-612674D01*
X5151015Y-812674D02*
X5160539Y-803150D01*
X5160539Y-803150D02*
X5179587Y-774579D01*
X5179587Y-774579D02*
X5189111Y-755531D01*
X5189111Y-755531D02*
X5198634Y-726960D01*
X5198634Y-726960D02*
X5208158Y-679341D01*
X5208158Y-679341D02*
X5208158Y-641246D01*
X5208158Y-641246D02*
X5198634Y-593627D01*
X5198634Y-593627D02*
X5189111Y-565055D01*
X5189111Y-565055D02*
X5179587Y-546008D01*
X5179587Y-546008D02*
X5160539Y-517436D01*
X5160539Y-517436D02*
X5151015Y-507912D01*
D10*
X-5000Y-909000D02*
G75*
G02*
X-75000Y-909000I-35000J0D01*
G01*
X-75000Y-909000D02*
G75*
G02*
X-5000Y-909000I35000J0D01*
G01*
D11*
X293872Y-800484D02*
X312920Y-800484D01*
X312920Y-800484D02*
X331967Y-810008D01*
X331967Y-810008D02*
X341491Y-819531D01*
X341491Y-819531D02*
X351015Y-838579D01*
X351015Y-838579D02*
X360539Y-876674D01*
X360539Y-876674D02*
X360539Y-924293D01*
X360539Y-924293D02*
X351015Y-962388D01*
X351015Y-962388D02*
X341491Y-981436D01*
X341491Y-981436D02*
X331967Y-990960D01*
X331967Y-990960D02*
X312920Y-1000484D01*
X312920Y-1000484D02*
X293872Y-1000484D01*
X293872Y-1000484D02*
X274824Y-990960D01*
X274824Y-990960D02*
X265301Y-981436D01*
X265301Y-981436D02*
X255777Y-962388D01*
X255777Y-962388D02*
X246253Y-924293D01*
X246253Y-924293D02*
X246253Y-876674D01*
X246253Y-876674D02*
X255777Y-838579D01*
X255777Y-838579D02*
X265301Y-819531D01*
X265301Y-819531D02*
X274824Y-810008D01*
X274824Y-810008D02*
X293872Y-800484D01*
X446253Y-981436D02*
X455777Y-990960D01*
X455777Y-990960D02*
X446253Y-1000484D01*
X446253Y-1000484D02*
X436729Y-990960D01*
X436729Y-990960D02*
X446253Y-981436D01*
X446253Y-981436D02*
X446253Y-1000484D01*
X522443Y-800484D02*
X655777Y-800484D01*
X655777Y-800484D02*
X570063Y-1000484D01*
X770062Y-800484D02*
X789110Y-800484D01*
X789110Y-800484D02*
X808158Y-810008D01*
X808158Y-810008D02*
X817682Y-819531D01*
X817682Y-819531D02*
X827205Y-838579D01*
X827205Y-838579D02*
X836729Y-876674D01*
X836729Y-876674D02*
X836729Y-924293D01*
X836729Y-924293D02*
X827205Y-962388D01*
X827205Y-962388D02*
X817682Y-981436D01*
X817682Y-981436D02*
X808158Y-990960D01*
X808158Y-990960D02*
X789110Y-1000484D01*
X789110Y-1000484D02*
X770062Y-1000484D01*
X770062Y-1000484D02*
X751015Y-990960D01*
X751015Y-990960D02*
X741491Y-981436D01*
X741491Y-981436D02*
X731967Y-962388D01*
X731967Y-962388D02*
X722443Y-924293D01*
X722443Y-924293D02*
X722443Y-876674D01*
X722443Y-876674D02*
X731967Y-838579D01*
X731967Y-838579D02*
X741491Y-819531D01*
X741491Y-819531D02*
X751015Y-810008D01*
X751015Y-810008D02*
X770062Y-800484D01*
X960539Y-800484D02*
X979586Y-800484D01*
X979586Y-800484D02*
X998634Y-810008D01*
X998634Y-810008D02*
X1008158Y-819531D01*
X1008158Y-819531D02*
X1017682Y-838579D01*
X1017682Y-838579D02*
X1027205Y-876674D01*
X1027205Y-876674D02*
X1027205Y-924293D01*
X1027205Y-924293D02*
X1017682Y-962388D01*
X1017682Y-962388D02*
X1008158Y-981436D01*
X1008158Y-981436D02*
X998634Y-990960D01*
X998634Y-990960D02*
X979586Y-1000484D01*
X979586Y-1000484D02*
X960539Y-1000484D01*
X960539Y-1000484D02*
X941491Y-990960D01*
X941491Y-990960D02*
X931967Y-981436D01*
X931967Y-981436D02*
X922443Y-962388D01*
X922443Y-962388D02*
X912920Y-924293D01*
X912920Y-924293D02*
X912920Y-876674D01*
X912920Y-876674D02*
X922443Y-838579D01*
X922443Y-838579D02*
X931967Y-819531D01*
X931967Y-819531D02*
X941491Y-810008D01*
X941491Y-810008D02*
X960539Y-800484D01*
X1112920Y-1000484D02*
X1112920Y-867150D01*
X1112920Y-886198D02*
X1122444Y-876674D01*
X1122444Y-876674D02*
X1141491Y-867150D01*
X1141491Y-867150D02*
X1170063Y-867150D01*
X1170063Y-867150D02*
X1189110Y-876674D01*
X1189110Y-876674D02*
X1198634Y-895722D01*
X1198634Y-895722D02*
X1198634Y-1000484D01*
X1198634Y-895722D02*
X1208158Y-876674D01*
X1208158Y-876674D02*
X1227205Y-867150D01*
X1227205Y-867150D02*
X1255777Y-867150D01*
X1255777Y-867150D02*
X1274825Y-876674D01*
X1274825Y-876674D02*
X1284348Y-895722D01*
X1284348Y-895722D02*
X1284348Y-1000484D01*
X1379586Y-1000484D02*
X1379586Y-867150D01*
X1379586Y-886198D02*
X1389110Y-876674D01*
X1389110Y-876674D02*
X1408158Y-867150D01*
X1408158Y-867150D02*
X1436729Y-867150D01*
X1436729Y-867150D02*
X1455777Y-876674D01*
X1455777Y-876674D02*
X1465301Y-895722D01*
X1465301Y-895722D02*
X1465301Y-1000484D01*
X1465301Y-895722D02*
X1474824Y-876674D01*
X1474824Y-876674D02*
X1493872Y-867150D01*
X1493872Y-867150D02*
X1522443Y-867150D01*
X1522443Y-867150D02*
X1541491Y-876674D01*
X1541491Y-876674D02*
X1551015Y-895722D01*
X1551015Y-895722D02*
X1551015Y-1000484D01*
X1941491Y-790960D02*
X1770063Y-1048103D01*
X2198634Y-800484D02*
X2217682Y-800484D01*
X2217682Y-800484D02*
X2236729Y-810008D01*
X2236729Y-810008D02*
X2246253Y-819531D01*
X2246253Y-819531D02*
X2255777Y-838579D01*
X2255777Y-838579D02*
X2265301Y-876674D01*
X2265301Y-876674D02*
X2265301Y-924293D01*
X2265301Y-924293D02*
X2255777Y-962388D01*
X2255777Y-962388D02*
X2246253Y-981436D01*
X2246253Y-981436D02*
X2236729Y-990960D01*
X2236729Y-990960D02*
X2217682Y-1000484D01*
X2217682Y-1000484D02*
X2198634Y-1000484D01*
X2198634Y-1000484D02*
X2179587Y-990960D01*
X2179587Y-990960D02*
X2170063Y-981436D01*
X2170063Y-981436D02*
X2160539Y-962388D01*
X2160539Y-962388D02*
X2151015Y-924293D01*
X2151015Y-924293D02*
X2151015Y-876674D01*
X2151015Y-876674D02*
X2160539Y-838579D01*
X2160539Y-838579D02*
X2170063Y-819531D01*
X2170063Y-819531D02*
X2179587Y-810008D01*
X2179587Y-810008D02*
X2198634Y-800484D01*
X2351015Y-981436D02*
X2360539Y-990960D01*
X2360539Y-990960D02*
X2351015Y-1000484D01*
X2351015Y-1000484D02*
X2341491Y-990960D01*
X2341491Y-990960D02*
X2351015Y-981436D01*
X2351015Y-981436D02*
X2351015Y-1000484D01*
X2484348Y-800484D02*
X2503396Y-800484D01*
X2503396Y-800484D02*
X2522444Y-810008D01*
X2522444Y-810008D02*
X2531968Y-819531D01*
X2531968Y-819531D02*
X2541491Y-838579D01*
X2541491Y-838579D02*
X2551015Y-876674D01*
X2551015Y-876674D02*
X2551015Y-924293D01*
X2551015Y-924293D02*
X2541491Y-962388D01*
X2541491Y-962388D02*
X2531968Y-981436D01*
X2531968Y-981436D02*
X2522444Y-990960D01*
X2522444Y-990960D02*
X2503396Y-1000484D01*
X2503396Y-1000484D02*
X2484348Y-1000484D01*
X2484348Y-1000484D02*
X2465301Y-990960D01*
X2465301Y-990960D02*
X2455777Y-981436D01*
X2455777Y-981436D02*
X2446253Y-962388D01*
X2446253Y-962388D02*
X2436729Y-924293D01*
X2436729Y-924293D02*
X2436729Y-876674D01*
X2436729Y-876674D02*
X2446253Y-838579D01*
X2446253Y-838579D02*
X2455777Y-819531D01*
X2455777Y-819531D02*
X2465301Y-810008D01*
X2465301Y-810008D02*
X2484348Y-800484D01*
X2627206Y-819531D02*
X2636729Y-810008D01*
X2636729Y-810008D02*
X2655777Y-800484D01*
X2655777Y-800484D02*
X2703396Y-800484D01*
X2703396Y-800484D02*
X2722444Y-810008D01*
X2722444Y-810008D02*
X2731968Y-819531D01*
X2731968Y-819531D02*
X2741491Y-838579D01*
X2741491Y-838579D02*
X2741491Y-857627D01*
X2741491Y-857627D02*
X2731968Y-886198D01*
X2731968Y-886198D02*
X2617682Y-1000484D01*
X2617682Y-1000484D02*
X2741491Y-1000484D01*
X2808158Y-800484D02*
X2941491Y-800484D01*
X2941491Y-800484D02*
X2855777Y-1000484D01*
X3103396Y-800484D02*
X3065301Y-800484D01*
X3065301Y-800484D02*
X3046253Y-810008D01*
X3046253Y-810008D02*
X3036729Y-819531D01*
X3036729Y-819531D02*
X3017682Y-848103D01*
X3017682Y-848103D02*
X3008158Y-886198D01*
X3008158Y-886198D02*
X3008158Y-962388D01*
X3008158Y-962388D02*
X3017682Y-981436D01*
X3017682Y-981436D02*
X3027206Y-990960D01*
X3027206Y-990960D02*
X3046253Y-1000484D01*
X3046253Y-1000484D02*
X3084348Y-1000484D01*
X3084348Y-1000484D02*
X3103396Y-990960D01*
X3103396Y-990960D02*
X3112920Y-981436D01*
X3112920Y-981436D02*
X3122444Y-962388D01*
X3122444Y-962388D02*
X3122444Y-914769D01*
X3122444Y-914769D02*
X3112920Y-895722D01*
X3112920Y-895722D02*
X3103396Y-886198D01*
X3103396Y-886198D02*
X3084348Y-876674D01*
X3084348Y-876674D02*
X3046253Y-876674D01*
X3046253Y-876674D02*
X3027206Y-886198D01*
X3027206Y-886198D02*
X3017682Y-895722D01*
X3017682Y-895722D02*
X3008158Y-914769D01*
X3198634Y-800484D02*
X3198634Y-838579D01*
X3274825Y-800484D02*
X3274825Y-838579D01*
X3570063Y-1076674D02*
X3560539Y-1067150D01*
X3560539Y-1067150D02*
X3541491Y-1038579D01*
X3541491Y-1038579D02*
X3531968Y-1019531D01*
X3531968Y-1019531D02*
X3522444Y-990960D01*
X3522444Y-990960D02*
X3512920Y-943341D01*
X3512920Y-943341D02*
X3512920Y-905246D01*
X3512920Y-905246D02*
X3522444Y-857627D01*
X3522444Y-857627D02*
X3531968Y-829055D01*
X3531968Y-829055D02*
X3541491Y-810008D01*
X3541491Y-810008D02*
X3560539Y-781436D01*
X3560539Y-781436D02*
X3570063Y-771912D01*
X3674825Y-886198D02*
X3655777Y-876674D01*
X3655777Y-876674D02*
X3646253Y-867150D01*
X3646253Y-867150D02*
X3636729Y-848103D01*
X3636729Y-848103D02*
X3636729Y-838579D01*
X3636729Y-838579D02*
X3646253Y-819531D01*
X3646253Y-819531D02*
X3655777Y-810008D01*
X3655777Y-810008D02*
X3674825Y-800484D01*
X3674825Y-800484D02*
X3712920Y-800484D01*
X3712920Y-800484D02*
X3731968Y-810008D01*
X3731968Y-810008D02*
X3741491Y-819531D01*
X3741491Y-819531D02*
X3751015Y-838579D01*
X3751015Y-838579D02*
X3751015Y-848103D01*
X3751015Y-848103D02*
X3741491Y-867150D01*
X3741491Y-867150D02*
X3731968Y-876674D01*
X3731968Y-876674D02*
X3712920Y-886198D01*
X3712920Y-886198D02*
X3674825Y-886198D01*
X3674825Y-886198D02*
X3655777Y-895722D01*
X3655777Y-895722D02*
X3646253Y-905246D01*
X3646253Y-905246D02*
X3636729Y-924293D01*
X3636729Y-924293D02*
X3636729Y-962388D01*
X3636729Y-962388D02*
X3646253Y-981436D01*
X3646253Y-981436D02*
X3655777Y-990960D01*
X3655777Y-990960D02*
X3674825Y-1000484D01*
X3674825Y-1000484D02*
X3712920Y-1000484D01*
X3712920Y-1000484D02*
X3731968Y-990960D01*
X3731968Y-990960D02*
X3741491Y-981436D01*
X3741491Y-981436D02*
X3751015Y-962388D01*
X3751015Y-962388D02*
X3751015Y-924293D01*
X3751015Y-924293D02*
X3741491Y-905246D01*
X3741491Y-905246D02*
X3731968Y-895722D01*
X3731968Y-895722D02*
X3712920Y-886198D01*
X3989110Y-1000484D02*
X3989110Y-800484D01*
X4074825Y-1000484D02*
X4074825Y-895722D01*
X4074825Y-895722D02*
X4065301Y-876674D01*
X4065301Y-876674D02*
X4046253Y-867150D01*
X4046253Y-867150D02*
X4017682Y-867150D01*
X4017682Y-867150D02*
X3998634Y-876674D01*
X3998634Y-876674D02*
X3989110Y-886198D01*
X4198634Y-1000484D02*
X4179587Y-990960D01*
X4179587Y-990960D02*
X4170063Y-981436D01*
X4170063Y-981436D02*
X4160539Y-962388D01*
X4160539Y-962388D02*
X4160539Y-905246D01*
X4160539Y-905246D02*
X4170063Y-886198D01*
X4170063Y-886198D02*
X4179587Y-876674D01*
X4179587Y-876674D02*
X4198634Y-867150D01*
X4198634Y-867150D02*
X4227206Y-867150D01*
X4227206Y-867150D02*
X4246253Y-876674D01*
X4246253Y-876674D02*
X4255777Y-886198D01*
X4255777Y-886198D02*
X4265301Y-905246D01*
X4265301Y-905246D02*
X4265301Y-962388D01*
X4265301Y-962388D02*
X4255777Y-981436D01*
X4255777Y-981436D02*
X4246253Y-990960D01*
X4246253Y-990960D02*
X4227206Y-1000484D01*
X4227206Y-1000484D02*
X4198634Y-1000484D01*
X4379587Y-1000484D02*
X4360539Y-990960D01*
X4360539Y-990960D02*
X4351015Y-971912D01*
X4351015Y-971912D02*
X4351015Y-800484D01*
X4531968Y-990960D02*
X4512920Y-1000484D01*
X4512920Y-1000484D02*
X4474825Y-1000484D01*
X4474825Y-1000484D02*
X4455777Y-990960D01*
X4455777Y-990960D02*
X4446253Y-971912D01*
X4446253Y-971912D02*
X4446253Y-895722D01*
X4446253Y-895722D02*
X4455777Y-876674D01*
X4455777Y-876674D02*
X4474825Y-867150D01*
X4474825Y-867150D02*
X4512920Y-867150D01*
X4512920Y-867150D02*
X4531968Y-876674D01*
X4531968Y-876674D02*
X4541492Y-895722D01*
X4541492Y-895722D02*
X4541492Y-914769D01*
X4541492Y-914769D02*
X4446253Y-933817D01*
X4617682Y-990960D02*
X4636730Y-1000484D01*
X4636730Y-1000484D02*
X4674825Y-1000484D01*
X4674825Y-1000484D02*
X4693873Y-990960D01*
X4693873Y-990960D02*
X4703396Y-971912D01*
X4703396Y-971912D02*
X4703396Y-962388D01*
X4703396Y-962388D02*
X4693873Y-943341D01*
X4693873Y-943341D02*
X4674825Y-933817D01*
X4674825Y-933817D02*
X4646253Y-933817D01*
X4646253Y-933817D02*
X4627206Y-924293D01*
X4627206Y-924293D02*
X4617682Y-905246D01*
X4617682Y-905246D02*
X4617682Y-895722D01*
X4617682Y-895722D02*
X4627206Y-876674D01*
X4627206Y-876674D02*
X4646253Y-867150D01*
X4646253Y-867150D02*
X4674825Y-867150D01*
X4674825Y-867150D02*
X4693873Y-876674D01*
X4770063Y-1076674D02*
X4779587Y-1067150D01*
X4779587Y-1067150D02*
X4798634Y-1038579D01*
X4798634Y-1038579D02*
X4808158Y-1019531D01*
X4808158Y-1019531D02*
X4817682Y-990960D01*
X4817682Y-990960D02*
X4827206Y-943341D01*
X4827206Y-943341D02*
X4827206Y-905246D01*
X4827206Y-905246D02*
X4817682Y-857627D01*
X4817682Y-857627D02*
X4808158Y-829055D01*
X4808158Y-829055D02*
X4798634Y-810008D01*
X4798634Y-810008D02*
X4779587Y-781436D01*
X4779587Y-781436D02*
X4770063Y-771912D01*
D10*
X-45000Y-1133000D02*
X-45000Y-1213000D01*
X-85000Y-1173000D02*
X-5000Y-1173000D01*
D11*
X293872Y-1064484D02*
X312920Y-1064484D01*
X312920Y-1064484D02*
X331967Y-1074008D01*
X331967Y-1074008D02*
X341491Y-1083531D01*
X341491Y-1083531D02*
X351015Y-1102579D01*
X351015Y-1102579D02*
X360539Y-1140674D01*
X360539Y-1140674D02*
X360539Y-1188293D01*
X360539Y-1188293D02*
X351015Y-1226389D01*
X351015Y-1226389D02*
X341491Y-1245436D01*
X341491Y-1245436D02*
X331967Y-1254960D01*
X331967Y-1254960D02*
X312920Y-1264484D01*
X312920Y-1264484D02*
X293872Y-1264484D01*
X293872Y-1264484D02*
X274824Y-1254960D01*
X274824Y-1254960D02*
X265301Y-1245436D01*
X265301Y-1245436D02*
X255777Y-1226389D01*
X255777Y-1226389D02*
X246253Y-1188293D01*
X246253Y-1188293D02*
X246253Y-1140674D01*
X246253Y-1140674D02*
X255777Y-1102579D01*
X255777Y-1102579D02*
X265301Y-1083531D01*
X265301Y-1083531D02*
X274824Y-1074008D01*
X274824Y-1074008D02*
X293872Y-1064484D01*
X446253Y-1245436D02*
X455777Y-1254960D01*
X455777Y-1254960D02*
X446253Y-1264484D01*
X446253Y-1264484D02*
X436729Y-1254960D01*
X436729Y-1254960D02*
X446253Y-1245436D01*
X446253Y-1245436D02*
X446253Y-1264484D01*
X570063Y-1150198D02*
X551015Y-1140674D01*
X551015Y-1140674D02*
X541491Y-1131150D01*
X541491Y-1131150D02*
X531967Y-1112103D01*
X531967Y-1112103D02*
X531967Y-1102579D01*
X531967Y-1102579D02*
X541491Y-1083531D01*
X541491Y-1083531D02*
X551015Y-1074008D01*
X551015Y-1074008D02*
X570063Y-1064484D01*
X570063Y-1064484D02*
X608158Y-1064484D01*
X608158Y-1064484D02*
X627205Y-1074008D01*
X627205Y-1074008D02*
X636729Y-1083531D01*
X636729Y-1083531D02*
X646253Y-1102579D01*
X646253Y-1102579D02*
X646253Y-1112103D01*
X646253Y-1112103D02*
X636729Y-1131150D01*
X636729Y-1131150D02*
X627205Y-1140674D01*
X627205Y-1140674D02*
X608158Y-1150198D01*
X608158Y-1150198D02*
X570063Y-1150198D01*
X570063Y-1150198D02*
X551015Y-1159722D01*
X551015Y-1159722D02*
X541491Y-1169246D01*
X541491Y-1169246D02*
X531967Y-1188293D01*
X531967Y-1188293D02*
X531967Y-1226389D01*
X531967Y-1226389D02*
X541491Y-1245436D01*
X541491Y-1245436D02*
X551015Y-1254960D01*
X551015Y-1254960D02*
X570063Y-1264484D01*
X570063Y-1264484D02*
X608158Y-1264484D01*
X608158Y-1264484D02*
X627205Y-1254960D01*
X627205Y-1254960D02*
X636729Y-1245436D01*
X636729Y-1245436D02*
X646253Y-1226389D01*
X646253Y-1226389D02*
X646253Y-1188293D01*
X646253Y-1188293D02*
X636729Y-1169246D01*
X636729Y-1169246D02*
X627205Y-1159722D01*
X627205Y-1159722D02*
X608158Y-1150198D01*
X770062Y-1064484D02*
X789110Y-1064484D01*
X789110Y-1064484D02*
X808158Y-1074008D01*
X808158Y-1074008D02*
X817682Y-1083531D01*
X817682Y-1083531D02*
X827205Y-1102579D01*
X827205Y-1102579D02*
X836729Y-1140674D01*
X836729Y-1140674D02*
X836729Y-1188293D01*
X836729Y-1188293D02*
X827205Y-1226389D01*
X827205Y-1226389D02*
X817682Y-1245436D01*
X817682Y-1245436D02*
X808158Y-1254960D01*
X808158Y-1254960D02*
X789110Y-1264484D01*
X789110Y-1264484D02*
X770062Y-1264484D01*
X770062Y-1264484D02*
X751015Y-1254960D01*
X751015Y-1254960D02*
X741491Y-1245436D01*
X741491Y-1245436D02*
X731967Y-1226389D01*
X731967Y-1226389D02*
X722443Y-1188293D01*
X722443Y-1188293D02*
X722443Y-1140674D01*
X722443Y-1140674D02*
X731967Y-1102579D01*
X731967Y-1102579D02*
X741491Y-1083531D01*
X741491Y-1083531D02*
X751015Y-1074008D01*
X751015Y-1074008D02*
X770062Y-1064484D01*
X960539Y-1064484D02*
X979586Y-1064484D01*
X979586Y-1064484D02*
X998634Y-1074008D01*
X998634Y-1074008D02*
X1008158Y-1083531D01*
X1008158Y-1083531D02*
X1017682Y-1102579D01*
X1017682Y-1102579D02*
X1027205Y-1140674D01*
X1027205Y-1140674D02*
X1027205Y-1188293D01*
X1027205Y-1188293D02*
X1017682Y-1226389D01*
X1017682Y-1226389D02*
X1008158Y-1245436D01*
X1008158Y-1245436D02*
X998634Y-1254960D01*
X998634Y-1254960D02*
X979586Y-1264484D01*
X979586Y-1264484D02*
X960539Y-1264484D01*
X960539Y-1264484D02*
X941491Y-1254960D01*
X941491Y-1254960D02*
X931967Y-1245436D01*
X931967Y-1245436D02*
X922443Y-1226389D01*
X922443Y-1226389D02*
X912920Y-1188293D01*
X912920Y-1188293D02*
X912920Y-1140674D01*
X912920Y-1140674D02*
X922443Y-1102579D01*
X922443Y-1102579D02*
X931967Y-1083531D01*
X931967Y-1083531D02*
X941491Y-1074008D01*
X941491Y-1074008D02*
X960539Y-1064484D01*
X1112920Y-1264484D02*
X1112920Y-1131150D01*
X1112920Y-1150198D02*
X1122444Y-1140674D01*
X1122444Y-1140674D02*
X1141491Y-1131150D01*
X1141491Y-1131150D02*
X1170063Y-1131150D01*
X1170063Y-1131150D02*
X1189110Y-1140674D01*
X1189110Y-1140674D02*
X1198634Y-1159722D01*
X1198634Y-1159722D02*
X1198634Y-1264484D01*
X1198634Y-1159722D02*
X1208158Y-1140674D01*
X1208158Y-1140674D02*
X1227205Y-1131150D01*
X1227205Y-1131150D02*
X1255777Y-1131150D01*
X1255777Y-1131150D02*
X1274825Y-1140674D01*
X1274825Y-1140674D02*
X1284348Y-1159722D01*
X1284348Y-1159722D02*
X1284348Y-1264484D01*
X1379586Y-1264484D02*
X1379586Y-1131150D01*
X1379586Y-1150198D02*
X1389110Y-1140674D01*
X1389110Y-1140674D02*
X1408158Y-1131150D01*
X1408158Y-1131150D02*
X1436729Y-1131150D01*
X1436729Y-1131150D02*
X1455777Y-1140674D01*
X1455777Y-1140674D02*
X1465301Y-1159722D01*
X1465301Y-1159722D02*
X1465301Y-1264484D01*
X1465301Y-1159722D02*
X1474824Y-1140674D01*
X1474824Y-1140674D02*
X1493872Y-1131150D01*
X1493872Y-1131150D02*
X1522443Y-1131150D01*
X1522443Y-1131150D02*
X1541491Y-1140674D01*
X1541491Y-1140674D02*
X1551015Y-1159722D01*
X1551015Y-1159722D02*
X1551015Y-1264484D01*
X1941491Y-1054960D02*
X1770063Y-1312103D01*
X2198634Y-1064484D02*
X2217682Y-1064484D01*
X2217682Y-1064484D02*
X2236729Y-1074008D01*
X2236729Y-1074008D02*
X2246253Y-1083531D01*
X2246253Y-1083531D02*
X2255777Y-1102579D01*
X2255777Y-1102579D02*
X2265301Y-1140674D01*
X2265301Y-1140674D02*
X2265301Y-1188293D01*
X2265301Y-1188293D02*
X2255777Y-1226389D01*
X2255777Y-1226389D02*
X2246253Y-1245436D01*
X2246253Y-1245436D02*
X2236729Y-1254960D01*
X2236729Y-1254960D02*
X2217682Y-1264484D01*
X2217682Y-1264484D02*
X2198634Y-1264484D01*
X2198634Y-1264484D02*
X2179587Y-1254960D01*
X2179587Y-1254960D02*
X2170063Y-1245436D01*
X2170063Y-1245436D02*
X2160539Y-1226389D01*
X2160539Y-1226389D02*
X2151015Y-1188293D01*
X2151015Y-1188293D02*
X2151015Y-1140674D01*
X2151015Y-1140674D02*
X2160539Y-1102579D01*
X2160539Y-1102579D02*
X2170063Y-1083531D01*
X2170063Y-1083531D02*
X2179587Y-1074008D01*
X2179587Y-1074008D02*
X2198634Y-1064484D01*
X2351015Y-1245436D02*
X2360539Y-1254960D01*
X2360539Y-1254960D02*
X2351015Y-1264484D01*
X2351015Y-1264484D02*
X2341491Y-1254960D01*
X2341491Y-1254960D02*
X2351015Y-1245436D01*
X2351015Y-1245436D02*
X2351015Y-1264484D01*
X2484348Y-1064484D02*
X2503396Y-1064484D01*
X2503396Y-1064484D02*
X2522444Y-1074008D01*
X2522444Y-1074008D02*
X2531968Y-1083531D01*
X2531968Y-1083531D02*
X2541491Y-1102579D01*
X2541491Y-1102579D02*
X2551015Y-1140674D01*
X2551015Y-1140674D02*
X2551015Y-1188293D01*
X2551015Y-1188293D02*
X2541491Y-1226389D01*
X2541491Y-1226389D02*
X2531968Y-1245436D01*
X2531968Y-1245436D02*
X2522444Y-1254960D01*
X2522444Y-1254960D02*
X2503396Y-1264484D01*
X2503396Y-1264484D02*
X2484348Y-1264484D01*
X2484348Y-1264484D02*
X2465301Y-1254960D01*
X2465301Y-1254960D02*
X2455777Y-1245436D01*
X2455777Y-1245436D02*
X2446253Y-1226389D01*
X2446253Y-1226389D02*
X2436729Y-1188293D01*
X2436729Y-1188293D02*
X2436729Y-1140674D01*
X2436729Y-1140674D02*
X2446253Y-1102579D01*
X2446253Y-1102579D02*
X2455777Y-1083531D01*
X2455777Y-1083531D02*
X2465301Y-1074008D01*
X2465301Y-1074008D02*
X2484348Y-1064484D01*
X2617682Y-1064484D02*
X2741491Y-1064484D01*
X2741491Y-1064484D02*
X2674825Y-1140674D01*
X2674825Y-1140674D02*
X2703396Y-1140674D01*
X2703396Y-1140674D02*
X2722444Y-1150198D01*
X2722444Y-1150198D02*
X2731968Y-1159722D01*
X2731968Y-1159722D02*
X2741491Y-1178770D01*
X2741491Y-1178770D02*
X2741491Y-1226389D01*
X2741491Y-1226389D02*
X2731968Y-1245436D01*
X2731968Y-1245436D02*
X2722444Y-1254960D01*
X2722444Y-1254960D02*
X2703396Y-1264484D01*
X2703396Y-1264484D02*
X2646253Y-1264484D01*
X2646253Y-1264484D02*
X2627206Y-1254960D01*
X2627206Y-1254960D02*
X2617682Y-1245436D01*
X2931967Y-1264484D02*
X2817682Y-1264484D01*
X2874825Y-1264484D02*
X2874825Y-1064484D01*
X2874825Y-1064484D02*
X2855777Y-1093055D01*
X2855777Y-1093055D02*
X2836729Y-1112103D01*
X2836729Y-1112103D02*
X2817682Y-1121627D01*
X3112920Y-1064484D02*
X3017682Y-1064484D01*
X3017682Y-1064484D02*
X3008158Y-1159722D01*
X3008158Y-1159722D02*
X3017682Y-1150198D01*
X3017682Y-1150198D02*
X3036729Y-1140674D01*
X3036729Y-1140674D02*
X3084348Y-1140674D01*
X3084348Y-1140674D02*
X3103396Y-1150198D01*
X3103396Y-1150198D02*
X3112920Y-1159722D01*
X3112920Y-1159722D02*
X3122444Y-1178770D01*
X3122444Y-1178770D02*
X3122444Y-1226389D01*
X3122444Y-1226389D02*
X3112920Y-1245436D01*
X3112920Y-1245436D02*
X3103396Y-1254960D01*
X3103396Y-1254960D02*
X3084348Y-1264484D01*
X3084348Y-1264484D02*
X3036729Y-1264484D01*
X3036729Y-1264484D02*
X3017682Y-1254960D01*
X3017682Y-1254960D02*
X3008158Y-1245436D01*
X3198634Y-1064484D02*
X3198634Y-1102579D01*
X3274825Y-1064484D02*
X3274825Y-1102579D01*
X3570063Y-1340674D02*
X3560539Y-1331150D01*
X3560539Y-1331150D02*
X3541491Y-1302579D01*
X3541491Y-1302579D02*
X3531968Y-1283531D01*
X3531968Y-1283531D02*
X3522444Y-1254960D01*
X3522444Y-1254960D02*
X3512920Y-1207341D01*
X3512920Y-1207341D02*
X3512920Y-1169246D01*
X3512920Y-1169246D02*
X3522444Y-1121627D01*
X3522444Y-1121627D02*
X3531968Y-1093055D01*
X3531968Y-1093055D02*
X3541491Y-1074008D01*
X3541491Y-1074008D02*
X3560539Y-1045436D01*
X3560539Y-1045436D02*
X3570063Y-1035912D01*
X3636729Y-1083531D02*
X3646253Y-1074008D01*
X3646253Y-1074008D02*
X3665301Y-1064484D01*
X3665301Y-1064484D02*
X3712920Y-1064484D01*
X3712920Y-1064484D02*
X3731968Y-1074008D01*
X3731968Y-1074008D02*
X3741491Y-1083531D01*
X3741491Y-1083531D02*
X3751015Y-1102579D01*
X3751015Y-1102579D02*
X3751015Y-1121627D01*
X3751015Y-1121627D02*
X3741491Y-1150198D01*
X3741491Y-1150198D02*
X3627206Y-1264484D01*
X3627206Y-1264484D02*
X3751015Y-1264484D01*
X3817682Y-1064484D02*
X3951015Y-1064484D01*
X3951015Y-1064484D02*
X3865301Y-1264484D01*
X4122444Y-1064484D02*
X4027206Y-1064484D01*
X4027206Y-1064484D02*
X4017682Y-1159722D01*
X4017682Y-1159722D02*
X4027206Y-1150198D01*
X4027206Y-1150198D02*
X4046253Y-1140674D01*
X4046253Y-1140674D02*
X4093872Y-1140674D01*
X4093872Y-1140674D02*
X4112920Y-1150198D01*
X4112920Y-1150198D02*
X4122444Y-1159722D01*
X4122444Y-1159722D02*
X4131968Y-1178770D01*
X4131968Y-1178770D02*
X4131968Y-1226389D01*
X4131968Y-1226389D02*
X4122444Y-1245436D01*
X4122444Y-1245436D02*
X4112920Y-1254960D01*
X4112920Y-1254960D02*
X4093872Y-1264484D01*
X4093872Y-1264484D02*
X4046253Y-1264484D01*
X4046253Y-1264484D02*
X4027206Y-1254960D01*
X4027206Y-1254960D02*
X4017682Y-1245436D01*
X4370063Y-1264484D02*
X4370063Y-1064484D01*
X4455777Y-1264484D02*
X4455777Y-1159722D01*
X4455777Y-1159722D02*
X4446253Y-1140674D01*
X4446253Y-1140674D02*
X4427206Y-1131150D01*
X4427206Y-1131150D02*
X4398634Y-1131150D01*
X4398634Y-1131150D02*
X4379587Y-1140674D01*
X4379587Y-1140674D02*
X4370063Y-1150198D01*
X4579587Y-1264484D02*
X4560539Y-1254960D01*
X4560539Y-1254960D02*
X4551015Y-1245436D01*
X4551015Y-1245436D02*
X4541492Y-1226389D01*
X4541492Y-1226389D02*
X4541492Y-1169246D01*
X4541492Y-1169246D02*
X4551015Y-1150198D01*
X4551015Y-1150198D02*
X4560539Y-1140674D01*
X4560539Y-1140674D02*
X4579587Y-1131150D01*
X4579587Y-1131150D02*
X4608158Y-1131150D01*
X4608158Y-1131150D02*
X4627206Y-1140674D01*
X4627206Y-1140674D02*
X4636730Y-1150198D01*
X4636730Y-1150198D02*
X4646253Y-1169246D01*
X4646253Y-1169246D02*
X4646253Y-1226389D01*
X4646253Y-1226389D02*
X4636730Y-1245436D01*
X4636730Y-1245436D02*
X4627206Y-1254960D01*
X4627206Y-1254960D02*
X4608158Y-1264484D01*
X4608158Y-1264484D02*
X4579587Y-1264484D01*
X4760539Y-1264484D02*
X4741492Y-1254960D01*
X4741492Y-1254960D02*
X4731968Y-1235912D01*
X4731968Y-1235912D02*
X4731968Y-1064484D01*
X4912920Y-1254960D02*
X4893873Y-1264484D01*
X4893873Y-1264484D02*
X4855777Y-1264484D01*
X4855777Y-1264484D02*
X4836730Y-1254960D01*
X4836730Y-1254960D02*
X4827206Y-1235912D01*
X4827206Y-1235912D02*
X4827206Y-1159722D01*
X4827206Y-1159722D02*
X4836730Y-1140674D01*
X4836730Y-1140674D02*
X4855777Y-1131150D01*
X4855777Y-1131150D02*
X4893873Y-1131150D01*
X4893873Y-1131150D02*
X4912920Y-1140674D01*
X4912920Y-1140674D02*
X4922444Y-1159722D01*
X4922444Y-1159722D02*
X4922444Y-1178770D01*
X4922444Y-1178770D02*
X4827206Y-1197817D01*
X4998634Y-1254960D02*
X5017682Y-1264484D01*
X5017682Y-1264484D02*
X5055777Y-1264484D01*
X5055777Y-1264484D02*
X5074825Y-1254960D01*
X5074825Y-1254960D02*
X5084349Y-1235912D01*
X5084349Y-1235912D02*
X5084349Y-1226389D01*
X5084349Y-1226389D02*
X5074825Y-1207341D01*
X5074825Y-1207341D02*
X5055777Y-1197817D01*
X5055777Y-1197817D02*
X5027206Y-1197817D01*
X5027206Y-1197817D02*
X5008158Y-1188293D01*
X5008158Y-1188293D02*
X4998634Y-1169246D01*
X4998634Y-1169246D02*
X4998634Y-1159722D01*
X4998634Y-1159722D02*
X5008158Y-1140674D01*
X5008158Y-1140674D02*
X5027206Y-1131150D01*
X5027206Y-1131150D02*
X5055777Y-1131150D01*
X5055777Y-1131150D02*
X5074825Y-1140674D01*
X5151015Y-1340674D02*
X5160539Y-1331150D01*
X5160539Y-1331150D02*
X5179587Y-1302579D01*
X5179587Y-1302579D02*
X5189111Y-1283531D01*
X5189111Y-1283531D02*
X5198634Y-1254960D01*
X5198634Y-1254960D02*
X5208158Y-1207341D01*
X5208158Y-1207341D02*
X5208158Y-1169246D01*
X5208158Y-1169246D02*
X5198634Y-1121627D01*
X5198634Y-1121627D02*
X5189111Y-1093055D01*
X5189111Y-1093055D02*
X5179587Y-1074008D01*
X5179587Y-1074008D02*
X5160539Y-1045436D01*
X5160539Y-1045436D02*
X5151015Y-1035912D01*
D10*
X-18180Y-1468820D02*
X-18180Y-1405180D01*
X-81820Y-1405180D01*
X-81820Y-1468820D01*
X-18180Y-1468820D01*
D11*
X293872Y-1328484D02*
X312920Y-1328484D01*
X312920Y-1328484D02*
X331967Y-1338008D01*
X331967Y-1338008D02*
X341491Y-1347531D01*
X341491Y-1347531D02*
X351015Y-1366579D01*
X351015Y-1366579D02*
X360539Y-1404674D01*
X360539Y-1404674D02*
X360539Y-1452293D01*
X360539Y-1452293D02*
X351015Y-1490388D01*
X351015Y-1490388D02*
X341491Y-1509436D01*
X341491Y-1509436D02*
X331967Y-1518960D01*
X331967Y-1518960D02*
X312920Y-1528484D01*
X312920Y-1528484D02*
X293872Y-1528484D01*
X293872Y-1528484D02*
X274824Y-1518960D01*
X274824Y-1518960D02*
X265301Y-1509436D01*
X265301Y-1509436D02*
X255777Y-1490388D01*
X255777Y-1490388D02*
X246253Y-1452293D01*
X246253Y-1452293D02*
X246253Y-1404674D01*
X246253Y-1404674D02*
X255777Y-1366579D01*
X255777Y-1366579D02*
X265301Y-1347531D01*
X265301Y-1347531D02*
X274824Y-1338008D01*
X274824Y-1338008D02*
X293872Y-1328484D01*
X446253Y-1509436D02*
X455777Y-1518960D01*
X455777Y-1518960D02*
X446253Y-1528484D01*
X446253Y-1528484D02*
X436729Y-1518960D01*
X436729Y-1518960D02*
X446253Y-1509436D01*
X446253Y-1509436D02*
X446253Y-1528484D01*
X551015Y-1528484D02*
X589110Y-1528484D01*
X589110Y-1528484D02*
X608158Y-1518960D01*
X608158Y-1518960D02*
X617682Y-1509436D01*
X617682Y-1509436D02*
X636729Y-1480865D01*
X636729Y-1480865D02*
X646253Y-1442769D01*
X646253Y-1442769D02*
X646253Y-1366579D01*
X646253Y-1366579D02*
X636729Y-1347531D01*
X636729Y-1347531D02*
X627205Y-1338008D01*
X627205Y-1338008D02*
X608158Y-1328484D01*
X608158Y-1328484D02*
X570063Y-1328484D01*
X570063Y-1328484D02*
X551015Y-1338008D01*
X551015Y-1338008D02*
X541491Y-1347531D01*
X541491Y-1347531D02*
X531967Y-1366579D01*
X531967Y-1366579D02*
X531967Y-1414198D01*
X531967Y-1414198D02*
X541491Y-1433246D01*
X541491Y-1433246D02*
X551015Y-1442769D01*
X551015Y-1442769D02*
X570063Y-1452293D01*
X570063Y-1452293D02*
X608158Y-1452293D01*
X608158Y-1452293D02*
X627205Y-1442769D01*
X627205Y-1442769D02*
X636729Y-1433246D01*
X636729Y-1433246D02*
X646253Y-1414198D01*
X770062Y-1328484D02*
X789110Y-1328484D01*
X789110Y-1328484D02*
X808158Y-1338008D01*
X808158Y-1338008D02*
X817682Y-1347531D01*
X817682Y-1347531D02*
X827205Y-1366579D01*
X827205Y-1366579D02*
X836729Y-1404674D01*
X836729Y-1404674D02*
X836729Y-1452293D01*
X836729Y-1452293D02*
X827205Y-1490388D01*
X827205Y-1490388D02*
X817682Y-1509436D01*
X817682Y-1509436D02*
X808158Y-1518960D01*
X808158Y-1518960D02*
X789110Y-1528484D01*
X789110Y-1528484D02*
X770062Y-1528484D01*
X770062Y-1528484D02*
X751015Y-1518960D01*
X751015Y-1518960D02*
X741491Y-1509436D01*
X741491Y-1509436D02*
X731967Y-1490388D01*
X731967Y-1490388D02*
X722443Y-1452293D01*
X722443Y-1452293D02*
X722443Y-1404674D01*
X722443Y-1404674D02*
X731967Y-1366579D01*
X731967Y-1366579D02*
X741491Y-1347531D01*
X741491Y-1347531D02*
X751015Y-1338008D01*
X751015Y-1338008D02*
X770062Y-1328484D01*
X960539Y-1328484D02*
X979586Y-1328484D01*
X979586Y-1328484D02*
X998634Y-1338008D01*
X998634Y-1338008D02*
X1008158Y-1347531D01*
X1008158Y-1347531D02*
X1017682Y-1366579D01*
X1017682Y-1366579D02*
X1027205Y-1404674D01*
X1027205Y-1404674D02*
X1027205Y-1452293D01*
X1027205Y-1452293D02*
X1017682Y-1490388D01*
X1017682Y-1490388D02*
X1008158Y-1509436D01*
X1008158Y-1509436D02*
X998634Y-1518960D01*
X998634Y-1518960D02*
X979586Y-1528484D01*
X979586Y-1528484D02*
X960539Y-1528484D01*
X960539Y-1528484D02*
X941491Y-1518960D01*
X941491Y-1518960D02*
X931967Y-1509436D01*
X931967Y-1509436D02*
X922443Y-1490388D01*
X922443Y-1490388D02*
X912920Y-1452293D01*
X912920Y-1452293D02*
X912920Y-1404674D01*
X912920Y-1404674D02*
X922443Y-1366579D01*
X922443Y-1366579D02*
X931967Y-1347531D01*
X931967Y-1347531D02*
X941491Y-1338008D01*
X941491Y-1338008D02*
X960539Y-1328484D01*
X1112920Y-1528484D02*
X1112920Y-1395150D01*
X1112920Y-1414198D02*
X1122444Y-1404674D01*
X1122444Y-1404674D02*
X1141491Y-1395150D01*
X1141491Y-1395150D02*
X1170063Y-1395150D01*
X1170063Y-1395150D02*
X1189110Y-1404674D01*
X1189110Y-1404674D02*
X1198634Y-1423722D01*
X1198634Y-1423722D02*
X1198634Y-1528484D01*
X1198634Y-1423722D02*
X1208158Y-1404674D01*
X1208158Y-1404674D02*
X1227205Y-1395150D01*
X1227205Y-1395150D02*
X1255777Y-1395150D01*
X1255777Y-1395150D02*
X1274825Y-1404674D01*
X1274825Y-1404674D02*
X1284348Y-1423722D01*
X1284348Y-1423722D02*
X1284348Y-1528484D01*
X1379586Y-1528484D02*
X1379586Y-1395150D01*
X1379586Y-1414198D02*
X1389110Y-1404674D01*
X1389110Y-1404674D02*
X1408158Y-1395150D01*
X1408158Y-1395150D02*
X1436729Y-1395150D01*
X1436729Y-1395150D02*
X1455777Y-1404674D01*
X1455777Y-1404674D02*
X1465301Y-1423722D01*
X1465301Y-1423722D02*
X1465301Y-1528484D01*
X1465301Y-1423722D02*
X1474824Y-1404674D01*
X1474824Y-1404674D02*
X1493872Y-1395150D01*
X1493872Y-1395150D02*
X1522443Y-1395150D01*
X1522443Y-1395150D02*
X1541491Y-1404674D01*
X1541491Y-1404674D02*
X1551015Y-1423722D01*
X1551015Y-1423722D02*
X1551015Y-1528484D01*
X1941491Y-1318960D02*
X1770063Y-1576103D01*
X2198634Y-1328484D02*
X2217682Y-1328484D01*
X2217682Y-1328484D02*
X2236729Y-1338008D01*
X2236729Y-1338008D02*
X2246253Y-1347531D01*
X2246253Y-1347531D02*
X2255777Y-1366579D01*
X2255777Y-1366579D02*
X2265301Y-1404674D01*
X2265301Y-1404674D02*
X2265301Y-1452293D01*
X2265301Y-1452293D02*
X2255777Y-1490388D01*
X2255777Y-1490388D02*
X2246253Y-1509436D01*
X2246253Y-1509436D02*
X2236729Y-1518960D01*
X2236729Y-1518960D02*
X2217682Y-1528484D01*
X2217682Y-1528484D02*
X2198634Y-1528484D01*
X2198634Y-1528484D02*
X2179587Y-1518960D01*
X2179587Y-1518960D02*
X2170063Y-1509436D01*
X2170063Y-1509436D02*
X2160539Y-1490388D01*
X2160539Y-1490388D02*
X2151015Y-1452293D01*
X2151015Y-1452293D02*
X2151015Y-1404674D01*
X2151015Y-1404674D02*
X2160539Y-1366579D01*
X2160539Y-1366579D02*
X2170063Y-1347531D01*
X2170063Y-1347531D02*
X2179587Y-1338008D01*
X2179587Y-1338008D02*
X2198634Y-1328484D01*
X2351015Y-1509436D02*
X2360539Y-1518960D01*
X2360539Y-1518960D02*
X2351015Y-1528484D01*
X2351015Y-1528484D02*
X2341491Y-1518960D01*
X2341491Y-1518960D02*
X2351015Y-1509436D01*
X2351015Y-1509436D02*
X2351015Y-1528484D01*
X2484348Y-1328484D02*
X2503396Y-1328484D01*
X2503396Y-1328484D02*
X2522444Y-1338008D01*
X2522444Y-1338008D02*
X2531968Y-1347531D01*
X2531968Y-1347531D02*
X2541491Y-1366579D01*
X2541491Y-1366579D02*
X2551015Y-1404674D01*
X2551015Y-1404674D02*
X2551015Y-1452293D01*
X2551015Y-1452293D02*
X2541491Y-1490388D01*
X2541491Y-1490388D02*
X2531968Y-1509436D01*
X2531968Y-1509436D02*
X2522444Y-1518960D01*
X2522444Y-1518960D02*
X2503396Y-1528484D01*
X2503396Y-1528484D02*
X2484348Y-1528484D01*
X2484348Y-1528484D02*
X2465301Y-1518960D01*
X2465301Y-1518960D02*
X2455777Y-1509436D01*
X2455777Y-1509436D02*
X2446253Y-1490388D01*
X2446253Y-1490388D02*
X2436729Y-1452293D01*
X2436729Y-1452293D02*
X2436729Y-1404674D01*
X2436729Y-1404674D02*
X2446253Y-1366579D01*
X2446253Y-1366579D02*
X2455777Y-1347531D01*
X2455777Y-1347531D02*
X2465301Y-1338008D01*
X2465301Y-1338008D02*
X2484348Y-1328484D01*
X2617682Y-1328484D02*
X2741491Y-1328484D01*
X2741491Y-1328484D02*
X2674825Y-1404674D01*
X2674825Y-1404674D02*
X2703396Y-1404674D01*
X2703396Y-1404674D02*
X2722444Y-1414198D01*
X2722444Y-1414198D02*
X2731968Y-1423722D01*
X2731968Y-1423722D02*
X2741491Y-1442769D01*
X2741491Y-1442769D02*
X2741491Y-1490388D01*
X2741491Y-1490388D02*
X2731968Y-1509436D01*
X2731968Y-1509436D02*
X2722444Y-1518960D01*
X2722444Y-1518960D02*
X2703396Y-1528484D01*
X2703396Y-1528484D02*
X2646253Y-1528484D01*
X2646253Y-1528484D02*
X2627206Y-1518960D01*
X2627206Y-1518960D02*
X2617682Y-1509436D01*
X2922444Y-1328484D02*
X2827206Y-1328484D01*
X2827206Y-1328484D02*
X2817682Y-1423722D01*
X2817682Y-1423722D02*
X2827206Y-1414198D01*
X2827206Y-1414198D02*
X2846253Y-1404674D01*
X2846253Y-1404674D02*
X2893872Y-1404674D01*
X2893872Y-1404674D02*
X2912920Y-1414198D01*
X2912920Y-1414198D02*
X2922444Y-1423722D01*
X2922444Y-1423722D02*
X2931967Y-1442769D01*
X2931967Y-1442769D02*
X2931967Y-1490388D01*
X2931967Y-1490388D02*
X2922444Y-1509436D01*
X2922444Y-1509436D02*
X2912920Y-1518960D01*
X2912920Y-1518960D02*
X2893872Y-1528484D01*
X2893872Y-1528484D02*
X2846253Y-1528484D01*
X2846253Y-1528484D02*
X2827206Y-1518960D01*
X2827206Y-1518960D02*
X2817682Y-1509436D01*
X3103396Y-1395150D02*
X3103396Y-1528484D01*
X3055777Y-1318960D02*
X3008158Y-1461817D01*
X3008158Y-1461817D02*
X3131967Y-1461817D01*
X3198634Y-1328484D02*
X3198634Y-1366579D01*
X3274825Y-1328484D02*
X3274825Y-1366579D01*
X3570063Y-1604674D02*
X3560539Y-1595150D01*
X3560539Y-1595150D02*
X3541491Y-1566579D01*
X3541491Y-1566579D02*
X3531968Y-1547531D01*
X3531968Y-1547531D02*
X3522444Y-1518960D01*
X3522444Y-1518960D02*
X3512920Y-1471341D01*
X3512920Y-1471341D02*
X3512920Y-1433246D01*
X3512920Y-1433246D02*
X3522444Y-1385627D01*
X3522444Y-1385627D02*
X3531968Y-1357055D01*
X3531968Y-1357055D02*
X3541491Y-1338008D01*
X3541491Y-1338008D02*
X3560539Y-1309436D01*
X3560539Y-1309436D02*
X3570063Y-1299912D01*
X3636729Y-1347531D02*
X3646253Y-1338008D01*
X3646253Y-1338008D02*
X3665301Y-1328484D01*
X3665301Y-1328484D02*
X3712920Y-1328484D01*
X3712920Y-1328484D02*
X3731968Y-1338008D01*
X3731968Y-1338008D02*
X3741491Y-1347531D01*
X3741491Y-1347531D02*
X3751015Y-1366579D01*
X3751015Y-1366579D02*
X3751015Y-1385627D01*
X3751015Y-1385627D02*
X3741491Y-1414198D01*
X3741491Y-1414198D02*
X3627206Y-1528484D01*
X3627206Y-1528484D02*
X3751015Y-1528484D01*
X3989110Y-1528484D02*
X3989110Y-1328484D01*
X4074825Y-1528484D02*
X4074825Y-1423722D01*
X4074825Y-1423722D02*
X4065301Y-1404674D01*
X4065301Y-1404674D02*
X4046253Y-1395150D01*
X4046253Y-1395150D02*
X4017682Y-1395150D01*
X4017682Y-1395150D02*
X3998634Y-1404674D01*
X3998634Y-1404674D02*
X3989110Y-1414198D01*
X4198634Y-1528484D02*
X4179587Y-1518960D01*
X4179587Y-1518960D02*
X4170063Y-1509436D01*
X4170063Y-1509436D02*
X4160539Y-1490388D01*
X4160539Y-1490388D02*
X4160539Y-1433246D01*
X4160539Y-1433246D02*
X4170063Y-1414198D01*
X4170063Y-1414198D02*
X4179587Y-1404674D01*
X4179587Y-1404674D02*
X4198634Y-1395150D01*
X4198634Y-1395150D02*
X4227206Y-1395150D01*
X4227206Y-1395150D02*
X4246253Y-1404674D01*
X4246253Y-1404674D02*
X4255777Y-1414198D01*
X4255777Y-1414198D02*
X4265301Y-1433246D01*
X4265301Y-1433246D02*
X4265301Y-1490388D01*
X4265301Y-1490388D02*
X4255777Y-1509436D01*
X4255777Y-1509436D02*
X4246253Y-1518960D01*
X4246253Y-1518960D02*
X4227206Y-1528484D01*
X4227206Y-1528484D02*
X4198634Y-1528484D01*
X4379587Y-1528484D02*
X4360539Y-1518960D01*
X4360539Y-1518960D02*
X4351015Y-1499912D01*
X4351015Y-1499912D02*
X4351015Y-1328484D01*
X4531968Y-1518960D02*
X4512920Y-1528484D01*
X4512920Y-1528484D02*
X4474825Y-1528484D01*
X4474825Y-1528484D02*
X4455777Y-1518960D01*
X4455777Y-1518960D02*
X4446253Y-1499912D01*
X4446253Y-1499912D02*
X4446253Y-1423722D01*
X4446253Y-1423722D02*
X4455777Y-1404674D01*
X4455777Y-1404674D02*
X4474825Y-1395150D01*
X4474825Y-1395150D02*
X4512920Y-1395150D01*
X4512920Y-1395150D02*
X4531968Y-1404674D01*
X4531968Y-1404674D02*
X4541492Y-1423722D01*
X4541492Y-1423722D02*
X4541492Y-1442769D01*
X4541492Y-1442769D02*
X4446253Y-1461817D01*
X4617682Y-1518960D02*
X4636730Y-1528484D01*
X4636730Y-1528484D02*
X4674825Y-1528484D01*
X4674825Y-1528484D02*
X4693873Y-1518960D01*
X4693873Y-1518960D02*
X4703396Y-1499912D01*
X4703396Y-1499912D02*
X4703396Y-1490388D01*
X4703396Y-1490388D02*
X4693873Y-1471341D01*
X4693873Y-1471341D02*
X4674825Y-1461817D01*
X4674825Y-1461817D02*
X4646253Y-1461817D01*
X4646253Y-1461817D02*
X4627206Y-1452293D01*
X4627206Y-1452293D02*
X4617682Y-1433246D01*
X4617682Y-1433246D02*
X4617682Y-1423722D01*
X4617682Y-1423722D02*
X4627206Y-1404674D01*
X4627206Y-1404674D02*
X4646253Y-1395150D01*
X4646253Y-1395150D02*
X4674825Y-1395150D01*
X4674825Y-1395150D02*
X4693873Y-1404674D01*
X4770063Y-1604674D02*
X4779587Y-1595150D01*
X4779587Y-1595150D02*
X4798634Y-1566579D01*
X4798634Y-1566579D02*
X4808158Y-1547531D01*
X4808158Y-1547531D02*
X4817682Y-1518960D01*
X4817682Y-1518960D02*
X4827206Y-1471341D01*
X4827206Y-1471341D02*
X4827206Y-1433246D01*
X4827206Y-1433246D02*
X4817682Y-1385627D01*
X4817682Y-1385627D02*
X4808158Y-1357055D01*
X4808158Y-1357055D02*
X4798634Y-1338008D01*
X4798634Y-1338008D02*
X4779587Y-1309436D01*
X4779587Y-1309436D02*
X4770063Y-1299912D01*
D10*
X-55000Y-1751000D02*
X-5000Y-1701000D01*
X-55000Y-1651000D01*
X-105000Y-1701000D01*
X-55000Y-1751000D01*
D11*
X360539Y-1792484D02*
X246253Y-1792484D01*
X303396Y-1792484D02*
X303396Y-1592484D01*
X303396Y-1592484D02*
X284348Y-1621055D01*
X284348Y-1621055D02*
X265301Y-1640103D01*
X265301Y-1640103D02*
X246253Y-1649627D01*
X446253Y-1773436D02*
X455777Y-1782960D01*
X455777Y-1782960D02*
X446253Y-1792484D01*
X446253Y-1792484D02*
X436729Y-1782960D01*
X436729Y-1782960D02*
X446253Y-1773436D01*
X446253Y-1773436D02*
X446253Y-1792484D01*
X579586Y-1592484D02*
X598634Y-1592484D01*
X598634Y-1592484D02*
X617682Y-1602008D01*
X617682Y-1602008D02*
X627205Y-1611531D01*
X627205Y-1611531D02*
X636729Y-1630579D01*
X636729Y-1630579D02*
X646253Y-1668674D01*
X646253Y-1668674D02*
X646253Y-1716293D01*
X646253Y-1716293D02*
X636729Y-1754388D01*
X636729Y-1754388D02*
X627205Y-1773436D01*
X627205Y-1773436D02*
X617682Y-1782960D01*
X617682Y-1782960D02*
X598634Y-1792484D01*
X598634Y-1792484D02*
X579586Y-1792484D01*
X579586Y-1792484D02*
X560539Y-1782960D01*
X560539Y-1782960D02*
X551015Y-1773436D01*
X551015Y-1773436D02*
X541491Y-1754388D01*
X541491Y-1754388D02*
X531967Y-1716293D01*
X531967Y-1716293D02*
X531967Y-1668674D01*
X531967Y-1668674D02*
X541491Y-1630579D01*
X541491Y-1630579D02*
X551015Y-1611531D01*
X551015Y-1611531D02*
X560539Y-1602008D01*
X560539Y-1602008D02*
X579586Y-1592484D01*
X770062Y-1592484D02*
X789110Y-1592484D01*
X789110Y-1592484D02*
X808158Y-1602008D01*
X808158Y-1602008D02*
X817682Y-1611531D01*
X817682Y-1611531D02*
X827205Y-1630579D01*
X827205Y-1630579D02*
X836729Y-1668674D01*
X836729Y-1668674D02*
X836729Y-1716293D01*
X836729Y-1716293D02*
X827205Y-1754388D01*
X827205Y-1754388D02*
X817682Y-1773436D01*
X817682Y-1773436D02*
X808158Y-1782960D01*
X808158Y-1782960D02*
X789110Y-1792484D01*
X789110Y-1792484D02*
X770062Y-1792484D01*
X770062Y-1792484D02*
X751015Y-1782960D01*
X751015Y-1782960D02*
X741491Y-1773436D01*
X741491Y-1773436D02*
X731967Y-1754388D01*
X731967Y-1754388D02*
X722443Y-1716293D01*
X722443Y-1716293D02*
X722443Y-1668674D01*
X722443Y-1668674D02*
X731967Y-1630579D01*
X731967Y-1630579D02*
X741491Y-1611531D01*
X741491Y-1611531D02*
X751015Y-1602008D01*
X751015Y-1602008D02*
X770062Y-1592484D01*
X960539Y-1592484D02*
X979586Y-1592484D01*
X979586Y-1592484D02*
X998634Y-1602008D01*
X998634Y-1602008D02*
X1008158Y-1611531D01*
X1008158Y-1611531D02*
X1017682Y-1630579D01*
X1017682Y-1630579D02*
X1027205Y-1668674D01*
X1027205Y-1668674D02*
X1027205Y-1716293D01*
X1027205Y-1716293D02*
X1017682Y-1754388D01*
X1017682Y-1754388D02*
X1008158Y-1773436D01*
X1008158Y-1773436D02*
X998634Y-1782960D01*
X998634Y-1782960D02*
X979586Y-1792484D01*
X979586Y-1792484D02*
X960539Y-1792484D01*
X960539Y-1792484D02*
X941491Y-1782960D01*
X941491Y-1782960D02*
X931967Y-1773436D01*
X931967Y-1773436D02*
X922443Y-1754388D01*
X922443Y-1754388D02*
X912920Y-1716293D01*
X912920Y-1716293D02*
X912920Y-1668674D01*
X912920Y-1668674D02*
X922443Y-1630579D01*
X922443Y-1630579D02*
X931967Y-1611531D01*
X931967Y-1611531D02*
X941491Y-1602008D01*
X941491Y-1602008D02*
X960539Y-1592484D01*
X1112920Y-1792484D02*
X1112920Y-1659150D01*
X1112920Y-1678198D02*
X1122444Y-1668674D01*
X1122444Y-1668674D02*
X1141491Y-1659150D01*
X1141491Y-1659150D02*
X1170063Y-1659150D01*
X1170063Y-1659150D02*
X1189110Y-1668674D01*
X1189110Y-1668674D02*
X1198634Y-1687722D01*
X1198634Y-1687722D02*
X1198634Y-1792484D01*
X1198634Y-1687722D02*
X1208158Y-1668674D01*
X1208158Y-1668674D02*
X1227205Y-1659150D01*
X1227205Y-1659150D02*
X1255777Y-1659150D01*
X1255777Y-1659150D02*
X1274825Y-1668674D01*
X1274825Y-1668674D02*
X1284348Y-1687722D01*
X1284348Y-1687722D02*
X1284348Y-1792484D01*
X1379586Y-1792484D02*
X1379586Y-1659150D01*
X1379586Y-1678198D02*
X1389110Y-1668674D01*
X1389110Y-1668674D02*
X1408158Y-1659150D01*
X1408158Y-1659150D02*
X1436729Y-1659150D01*
X1436729Y-1659150D02*
X1455777Y-1668674D01*
X1455777Y-1668674D02*
X1465301Y-1687722D01*
X1465301Y-1687722D02*
X1465301Y-1792484D01*
X1465301Y-1687722D02*
X1474824Y-1668674D01*
X1474824Y-1668674D02*
X1493872Y-1659150D01*
X1493872Y-1659150D02*
X1522443Y-1659150D01*
X1522443Y-1659150D02*
X1541491Y-1668674D01*
X1541491Y-1668674D02*
X1551015Y-1687722D01*
X1551015Y-1687722D02*
X1551015Y-1792484D01*
X1941491Y-1582960D02*
X1770063Y-1840103D01*
X2198634Y-1592484D02*
X2217682Y-1592484D01*
X2217682Y-1592484D02*
X2236729Y-1602008D01*
X2236729Y-1602008D02*
X2246253Y-1611531D01*
X2246253Y-1611531D02*
X2255777Y-1630579D01*
X2255777Y-1630579D02*
X2265301Y-1668674D01*
X2265301Y-1668674D02*
X2265301Y-1716293D01*
X2265301Y-1716293D02*
X2255777Y-1754388D01*
X2255777Y-1754388D02*
X2246253Y-1773436D01*
X2246253Y-1773436D02*
X2236729Y-1782960D01*
X2236729Y-1782960D02*
X2217682Y-1792484D01*
X2217682Y-1792484D02*
X2198634Y-1792484D01*
X2198634Y-1792484D02*
X2179587Y-1782960D01*
X2179587Y-1782960D02*
X2170063Y-1773436D01*
X2170063Y-1773436D02*
X2160539Y-1754388D01*
X2160539Y-1754388D02*
X2151015Y-1716293D01*
X2151015Y-1716293D02*
X2151015Y-1668674D01*
X2151015Y-1668674D02*
X2160539Y-1630579D01*
X2160539Y-1630579D02*
X2170063Y-1611531D01*
X2170063Y-1611531D02*
X2179587Y-1602008D01*
X2179587Y-1602008D02*
X2198634Y-1592484D01*
X2351015Y-1773436D02*
X2360539Y-1782960D01*
X2360539Y-1782960D02*
X2351015Y-1792484D01*
X2351015Y-1792484D02*
X2341491Y-1782960D01*
X2341491Y-1782960D02*
X2351015Y-1773436D01*
X2351015Y-1773436D02*
X2351015Y-1792484D01*
X2484348Y-1592484D02*
X2503396Y-1592484D01*
X2503396Y-1592484D02*
X2522444Y-1602008D01*
X2522444Y-1602008D02*
X2531968Y-1611531D01*
X2531968Y-1611531D02*
X2541491Y-1630579D01*
X2541491Y-1630579D02*
X2551015Y-1668674D01*
X2551015Y-1668674D02*
X2551015Y-1716293D01*
X2551015Y-1716293D02*
X2541491Y-1754388D01*
X2541491Y-1754388D02*
X2531968Y-1773436D01*
X2531968Y-1773436D02*
X2522444Y-1782960D01*
X2522444Y-1782960D02*
X2503396Y-1792484D01*
X2503396Y-1792484D02*
X2484348Y-1792484D01*
X2484348Y-1792484D02*
X2465301Y-1782960D01*
X2465301Y-1782960D02*
X2455777Y-1773436D01*
X2455777Y-1773436D02*
X2446253Y-1754388D01*
X2446253Y-1754388D02*
X2436729Y-1716293D01*
X2436729Y-1716293D02*
X2436729Y-1668674D01*
X2436729Y-1668674D02*
X2446253Y-1630579D01*
X2446253Y-1630579D02*
X2455777Y-1611531D01*
X2455777Y-1611531D02*
X2465301Y-1602008D01*
X2465301Y-1602008D02*
X2484348Y-1592484D01*
X2617682Y-1592484D02*
X2741491Y-1592484D01*
X2741491Y-1592484D02*
X2674825Y-1668674D01*
X2674825Y-1668674D02*
X2703396Y-1668674D01*
X2703396Y-1668674D02*
X2722444Y-1678198D01*
X2722444Y-1678198D02*
X2731968Y-1687722D01*
X2731968Y-1687722D02*
X2741491Y-1706769D01*
X2741491Y-1706769D02*
X2741491Y-1754388D01*
X2741491Y-1754388D02*
X2731968Y-1773436D01*
X2731968Y-1773436D02*
X2722444Y-1782960D01*
X2722444Y-1782960D02*
X2703396Y-1792484D01*
X2703396Y-1792484D02*
X2646253Y-1792484D01*
X2646253Y-1792484D02*
X2627206Y-1782960D01*
X2627206Y-1782960D02*
X2617682Y-1773436D01*
X2836729Y-1792484D02*
X2874825Y-1792484D01*
X2874825Y-1792484D02*
X2893872Y-1782960D01*
X2893872Y-1782960D02*
X2903396Y-1773436D01*
X2903396Y-1773436D02*
X2922444Y-1744865D01*
X2922444Y-1744865D02*
X2931967Y-1706769D01*
X2931967Y-1706769D02*
X2931967Y-1630579D01*
X2931967Y-1630579D02*
X2922444Y-1611531D01*
X2922444Y-1611531D02*
X2912920Y-1602008D01*
X2912920Y-1602008D02*
X2893872Y-1592484D01*
X2893872Y-1592484D02*
X2855777Y-1592484D01*
X2855777Y-1592484D02*
X2836729Y-1602008D01*
X2836729Y-1602008D02*
X2827206Y-1611531D01*
X2827206Y-1611531D02*
X2817682Y-1630579D01*
X2817682Y-1630579D02*
X2817682Y-1678198D01*
X2817682Y-1678198D02*
X2827206Y-1697246D01*
X2827206Y-1697246D02*
X2836729Y-1706769D01*
X2836729Y-1706769D02*
X2855777Y-1716293D01*
X2855777Y-1716293D02*
X2893872Y-1716293D01*
X2893872Y-1716293D02*
X2912920Y-1706769D01*
X2912920Y-1706769D02*
X2922444Y-1697246D01*
X2922444Y-1697246D02*
X2931967Y-1678198D01*
X3103396Y-1659150D02*
X3103396Y-1792484D01*
X3055777Y-1582960D02*
X3008158Y-1725817D01*
X3008158Y-1725817D02*
X3131967Y-1725817D01*
X3198634Y-1592484D02*
X3198634Y-1630579D01*
X3274825Y-1592484D02*
X3274825Y-1630579D01*
X3570063Y-1868674D02*
X3560539Y-1859150D01*
X3560539Y-1859150D02*
X3541491Y-1830579D01*
X3541491Y-1830579D02*
X3531968Y-1811531D01*
X3531968Y-1811531D02*
X3522444Y-1782960D01*
X3522444Y-1782960D02*
X3512920Y-1735341D01*
X3512920Y-1735341D02*
X3512920Y-1697246D01*
X3512920Y-1697246D02*
X3522444Y-1649627D01*
X3522444Y-1649627D02*
X3531968Y-1621055D01*
X3531968Y-1621055D02*
X3541491Y-1602008D01*
X3541491Y-1602008D02*
X3560539Y-1573436D01*
X3560539Y-1573436D02*
X3570063Y-1563912D01*
X3751015Y-1792484D02*
X3636729Y-1792484D01*
X3693872Y-1792484D02*
X3693872Y-1592484D01*
X3693872Y-1592484D02*
X3674825Y-1621055D01*
X3674825Y-1621055D02*
X3655777Y-1640103D01*
X3655777Y-1640103D02*
X3636729Y-1649627D01*
X3941491Y-1792484D02*
X3827206Y-1792484D01*
X3884348Y-1792484D02*
X3884348Y-1592484D01*
X3884348Y-1592484D02*
X3865301Y-1621055D01*
X3865301Y-1621055D02*
X3846253Y-1640103D01*
X3846253Y-1640103D02*
X3827206Y-1649627D01*
X4065301Y-1592484D02*
X4084349Y-1592484D01*
X4084349Y-1592484D02*
X4103396Y-1602008D01*
X4103396Y-1602008D02*
X4112920Y-1611531D01*
X4112920Y-1611531D02*
X4122444Y-1630579D01*
X4122444Y-1630579D02*
X4131968Y-1668674D01*
X4131968Y-1668674D02*
X4131968Y-1716293D01*
X4131968Y-1716293D02*
X4122444Y-1754388D01*
X4122444Y-1754388D02*
X4112920Y-1773436D01*
X4112920Y-1773436D02*
X4103396Y-1782960D01*
X4103396Y-1782960D02*
X4084349Y-1792484D01*
X4084349Y-1792484D02*
X4065301Y-1792484D01*
X4065301Y-1792484D02*
X4046253Y-1782960D01*
X4046253Y-1782960D02*
X4036729Y-1773436D01*
X4036729Y-1773436D02*
X4027206Y-1754388D01*
X4027206Y-1754388D02*
X4017682Y-1716293D01*
X4017682Y-1716293D02*
X4017682Y-1668674D01*
X4017682Y-1668674D02*
X4027206Y-1630579D01*
X4027206Y-1630579D02*
X4036729Y-1611531D01*
X4036729Y-1611531D02*
X4046253Y-1602008D01*
X4046253Y-1602008D02*
X4065301Y-1592484D01*
X4370063Y-1792484D02*
X4370063Y-1592484D01*
X4455777Y-1792484D02*
X4455777Y-1687722D01*
X4455777Y-1687722D02*
X4446253Y-1668674D01*
X4446253Y-1668674D02*
X4427206Y-1659150D01*
X4427206Y-1659150D02*
X4398634Y-1659150D01*
X4398634Y-1659150D02*
X4379587Y-1668674D01*
X4379587Y-1668674D02*
X4370063Y-1678198D01*
X4579587Y-1792484D02*
X4560539Y-1782960D01*
X4560539Y-1782960D02*
X4551015Y-1773436D01*
X4551015Y-1773436D02*
X4541492Y-1754388D01*
X4541492Y-1754388D02*
X4541492Y-1697246D01*
X4541492Y-1697246D02*
X4551015Y-1678198D01*
X4551015Y-1678198D02*
X4560539Y-1668674D01*
X4560539Y-1668674D02*
X4579587Y-1659150D01*
X4579587Y-1659150D02*
X4608158Y-1659150D01*
X4608158Y-1659150D02*
X4627206Y-1668674D01*
X4627206Y-1668674D02*
X4636730Y-1678198D01*
X4636730Y-1678198D02*
X4646253Y-1697246D01*
X4646253Y-1697246D02*
X4646253Y-1754388D01*
X4646253Y-1754388D02*
X4636730Y-1773436D01*
X4636730Y-1773436D02*
X4627206Y-1782960D01*
X4627206Y-1782960D02*
X4608158Y-1792484D01*
X4608158Y-1792484D02*
X4579587Y-1792484D01*
X4760539Y-1792484D02*
X4741492Y-1782960D01*
X4741492Y-1782960D02*
X4731968Y-1763912D01*
X4731968Y-1763912D02*
X4731968Y-1592484D01*
X4912920Y-1782960D02*
X4893873Y-1792484D01*
X4893873Y-1792484D02*
X4855777Y-1792484D01*
X4855777Y-1792484D02*
X4836730Y-1782960D01*
X4836730Y-1782960D02*
X4827206Y-1763912D01*
X4827206Y-1763912D02*
X4827206Y-1687722D01*
X4827206Y-1687722D02*
X4836730Y-1668674D01*
X4836730Y-1668674D02*
X4855777Y-1659150D01*
X4855777Y-1659150D02*
X4893873Y-1659150D01*
X4893873Y-1659150D02*
X4912920Y-1668674D01*
X4912920Y-1668674D02*
X4922444Y-1687722D01*
X4922444Y-1687722D02*
X4922444Y-1706769D01*
X4922444Y-1706769D02*
X4827206Y-1725817D01*
X4998634Y-1782960D02*
X5017682Y-1792484D01*
X5017682Y-1792484D02*
X5055777Y-1792484D01*
X5055777Y-1792484D02*
X5074825Y-1782960D01*
X5074825Y-1782960D02*
X5084349Y-1763912D01*
X5084349Y-1763912D02*
X5084349Y-1754388D01*
X5084349Y-1754388D02*
X5074825Y-1735341D01*
X5074825Y-1735341D02*
X5055777Y-1725817D01*
X5055777Y-1725817D02*
X5027206Y-1725817D01*
X5027206Y-1725817D02*
X5008158Y-1716293D01*
X5008158Y-1716293D02*
X4998634Y-1697246D01*
X4998634Y-1697246D02*
X4998634Y-1687722D01*
X4998634Y-1687722D02*
X5008158Y-1668674D01*
X5008158Y-1668674D02*
X5027206Y-1659150D01*
X5027206Y-1659150D02*
X5055777Y-1659150D01*
X5055777Y-1659150D02*
X5074825Y-1668674D01*
X5151015Y-1868674D02*
X5160539Y-1859150D01*
X5160539Y-1859150D02*
X5179587Y-1830579D01*
X5179587Y-1830579D02*
X5189111Y-1811531D01*
X5189111Y-1811531D02*
X5198634Y-1782960D01*
X5198634Y-1782960D02*
X5208158Y-1735341D01*
X5208158Y-1735341D02*
X5208158Y-1697246D01*
X5208158Y-1697246D02*
X5198634Y-1649627D01*
X5198634Y-1649627D02*
X5189111Y-1621055D01*
X5189111Y-1621055D02*
X5179587Y-1602008D01*
X5179587Y-1602008D02*
X5160539Y-1573436D01*
X5160539Y-1573436D02*
X5151015Y-1563912D01*
X-205000Y-1865000D02*
X-5000Y-2065000D01*
X-5000Y-1865000D02*
X-205000Y-2065000D01*
X-5000Y-1965000D02*
G75*
G02*
X-205000Y-1965000I-100000J0D01*
G01*
X-205000Y-1965000D02*
G75*
G02*
X-5000Y-1965000I100000J0D01*
G01*
X236729Y-1856484D02*
X360539Y-1856484D01*
X360539Y-1856484D02*
X293872Y-1932674D01*
X293872Y-1932674D02*
X322444Y-1932674D01*
X322444Y-1932674D02*
X341491Y-1942198D01*
X341491Y-1942198D02*
X351015Y-1951722D01*
X351015Y-1951722D02*
X360539Y-1970769D01*
X360539Y-1970769D02*
X360539Y-2018388D01*
X360539Y-2018388D02*
X351015Y-2037436D01*
X351015Y-2037436D02*
X341491Y-2046960D01*
X341491Y-2046960D02*
X322444Y-2056484D01*
X322444Y-2056484D02*
X265301Y-2056484D01*
X265301Y-2056484D02*
X246253Y-2046960D01*
X246253Y-2046960D02*
X236729Y-2037436D01*
X446253Y-2037436D02*
X455777Y-2046960D01*
X455777Y-2046960D02*
X446253Y-2056484D01*
X446253Y-2056484D02*
X436729Y-2046960D01*
X436729Y-2046960D02*
X446253Y-2037436D01*
X446253Y-2037436D02*
X446253Y-2056484D01*
X531967Y-1875531D02*
X541491Y-1866008D01*
X541491Y-1866008D02*
X560539Y-1856484D01*
X560539Y-1856484D02*
X608158Y-1856484D01*
X608158Y-1856484D02*
X627205Y-1866008D01*
X627205Y-1866008D02*
X636729Y-1875531D01*
X636729Y-1875531D02*
X646253Y-1894579D01*
X646253Y-1894579D02*
X646253Y-1913627D01*
X646253Y-1913627D02*
X636729Y-1942198D01*
X636729Y-1942198D02*
X522443Y-2056484D01*
X522443Y-2056484D02*
X646253Y-2056484D01*
X770062Y-1856484D02*
X789110Y-1856484D01*
X789110Y-1856484D02*
X808158Y-1866008D01*
X808158Y-1866008D02*
X817682Y-1875531D01*
X817682Y-1875531D02*
X827205Y-1894579D01*
X827205Y-1894579D02*
X836729Y-1932674D01*
X836729Y-1932674D02*
X836729Y-1980293D01*
X836729Y-1980293D02*
X827205Y-2018388D01*
X827205Y-2018388D02*
X817682Y-2037436D01*
X817682Y-2037436D02*
X808158Y-2046960D01*
X808158Y-2046960D02*
X789110Y-2056484D01*
X789110Y-2056484D02*
X770062Y-2056484D01*
X770062Y-2056484D02*
X751015Y-2046960D01*
X751015Y-2046960D02*
X741491Y-2037436D01*
X741491Y-2037436D02*
X731967Y-2018388D01*
X731967Y-2018388D02*
X722443Y-1980293D01*
X722443Y-1980293D02*
X722443Y-1932674D01*
X722443Y-1932674D02*
X731967Y-1894579D01*
X731967Y-1894579D02*
X741491Y-1875531D01*
X741491Y-1875531D02*
X751015Y-1866008D01*
X751015Y-1866008D02*
X770062Y-1856484D01*
X960539Y-1856484D02*
X979586Y-1856484D01*
X979586Y-1856484D02*
X998634Y-1866008D01*
X998634Y-1866008D02*
X1008158Y-1875531D01*
X1008158Y-1875531D02*
X1017682Y-1894579D01*
X1017682Y-1894579D02*
X1027205Y-1932674D01*
X1027205Y-1932674D02*
X1027205Y-1980293D01*
X1027205Y-1980293D02*
X1017682Y-2018388D01*
X1017682Y-2018388D02*
X1008158Y-2037436D01*
X1008158Y-2037436D02*
X998634Y-2046960D01*
X998634Y-2046960D02*
X979586Y-2056484D01*
X979586Y-2056484D02*
X960539Y-2056484D01*
X960539Y-2056484D02*
X941491Y-2046960D01*
X941491Y-2046960D02*
X931967Y-2037436D01*
X931967Y-2037436D02*
X922443Y-2018388D01*
X922443Y-2018388D02*
X912920Y-1980293D01*
X912920Y-1980293D02*
X912920Y-1932674D01*
X912920Y-1932674D02*
X922443Y-1894579D01*
X922443Y-1894579D02*
X931967Y-1875531D01*
X931967Y-1875531D02*
X941491Y-1866008D01*
X941491Y-1866008D02*
X960539Y-1856484D01*
X1112920Y-2056484D02*
X1112920Y-1923150D01*
X1112920Y-1942198D02*
X1122444Y-1932674D01*
X1122444Y-1932674D02*
X1141491Y-1923150D01*
X1141491Y-1923150D02*
X1170063Y-1923150D01*
X1170063Y-1923150D02*
X1189110Y-1932674D01*
X1189110Y-1932674D02*
X1198634Y-1951722D01*
X1198634Y-1951722D02*
X1198634Y-2056484D01*
X1198634Y-1951722D02*
X1208158Y-1932674D01*
X1208158Y-1932674D02*
X1227205Y-1923150D01*
X1227205Y-1923150D02*
X1255777Y-1923150D01*
X1255777Y-1923150D02*
X1274825Y-1932674D01*
X1274825Y-1932674D02*
X1284348Y-1951722D01*
X1284348Y-1951722D02*
X1284348Y-2056484D01*
X1379586Y-2056484D02*
X1379586Y-1923150D01*
X1379586Y-1942198D02*
X1389110Y-1932674D01*
X1389110Y-1932674D02*
X1408158Y-1923150D01*
X1408158Y-1923150D02*
X1436729Y-1923150D01*
X1436729Y-1923150D02*
X1455777Y-1932674D01*
X1455777Y-1932674D02*
X1465301Y-1951722D01*
X1465301Y-1951722D02*
X1465301Y-2056484D01*
X1465301Y-1951722D02*
X1474824Y-1932674D01*
X1474824Y-1932674D02*
X1493872Y-1923150D01*
X1493872Y-1923150D02*
X1522443Y-1923150D01*
X1522443Y-1923150D02*
X1541491Y-1932674D01*
X1541491Y-1932674D02*
X1551015Y-1951722D01*
X1551015Y-1951722D02*
X1551015Y-2056484D01*
X1941491Y-1846960D02*
X1770063Y-2104103D01*
X2198634Y-1856484D02*
X2217682Y-1856484D01*
X2217682Y-1856484D02*
X2236729Y-1866008D01*
X2236729Y-1866008D02*
X2246253Y-1875531D01*
X2246253Y-1875531D02*
X2255777Y-1894579D01*
X2255777Y-1894579D02*
X2265301Y-1932674D01*
X2265301Y-1932674D02*
X2265301Y-1980293D01*
X2265301Y-1980293D02*
X2255777Y-2018388D01*
X2255777Y-2018388D02*
X2246253Y-2037436D01*
X2246253Y-2037436D02*
X2236729Y-2046960D01*
X2236729Y-2046960D02*
X2217682Y-2056484D01*
X2217682Y-2056484D02*
X2198634Y-2056484D01*
X2198634Y-2056484D02*
X2179587Y-2046960D01*
X2179587Y-2046960D02*
X2170063Y-2037436D01*
X2170063Y-2037436D02*
X2160539Y-2018388D01*
X2160539Y-2018388D02*
X2151015Y-1980293D01*
X2151015Y-1980293D02*
X2151015Y-1932674D01*
X2151015Y-1932674D02*
X2160539Y-1894579D01*
X2160539Y-1894579D02*
X2170063Y-1875531D01*
X2170063Y-1875531D02*
X2179587Y-1866008D01*
X2179587Y-1866008D02*
X2198634Y-1856484D01*
X2351015Y-2037436D02*
X2360539Y-2046960D01*
X2360539Y-2046960D02*
X2351015Y-2056484D01*
X2351015Y-2056484D02*
X2341491Y-2046960D01*
X2341491Y-2046960D02*
X2351015Y-2037436D01*
X2351015Y-2037436D02*
X2351015Y-2056484D01*
X2551015Y-2056484D02*
X2436729Y-2056484D01*
X2493872Y-2056484D02*
X2493872Y-1856484D01*
X2493872Y-1856484D02*
X2474825Y-1885055D01*
X2474825Y-1885055D02*
X2455777Y-1904103D01*
X2455777Y-1904103D02*
X2436729Y-1913627D01*
X2627206Y-1875531D02*
X2636729Y-1866008D01*
X2636729Y-1866008D02*
X2655777Y-1856484D01*
X2655777Y-1856484D02*
X2703396Y-1856484D01*
X2703396Y-1856484D02*
X2722444Y-1866008D01*
X2722444Y-1866008D02*
X2731968Y-1875531D01*
X2731968Y-1875531D02*
X2741491Y-1894579D01*
X2741491Y-1894579D02*
X2741491Y-1913627D01*
X2741491Y-1913627D02*
X2731968Y-1942198D01*
X2731968Y-1942198D02*
X2617682Y-2056484D01*
X2617682Y-2056484D02*
X2741491Y-2056484D01*
X2912920Y-1856484D02*
X2874825Y-1856484D01*
X2874825Y-1856484D02*
X2855777Y-1866008D01*
X2855777Y-1866008D02*
X2846253Y-1875531D01*
X2846253Y-1875531D02*
X2827206Y-1904103D01*
X2827206Y-1904103D02*
X2817682Y-1942198D01*
X2817682Y-1942198D02*
X2817682Y-2018388D01*
X2817682Y-2018388D02*
X2827206Y-2037436D01*
X2827206Y-2037436D02*
X2836729Y-2046960D01*
X2836729Y-2046960D02*
X2855777Y-2056484D01*
X2855777Y-2056484D02*
X2893872Y-2056484D01*
X2893872Y-2056484D02*
X2912920Y-2046960D01*
X2912920Y-2046960D02*
X2922444Y-2037436D01*
X2922444Y-2037436D02*
X2931967Y-2018388D01*
X2931967Y-2018388D02*
X2931967Y-1970769D01*
X2931967Y-1970769D02*
X2922444Y-1951722D01*
X2922444Y-1951722D02*
X2912920Y-1942198D01*
X2912920Y-1942198D02*
X2893872Y-1932674D01*
X2893872Y-1932674D02*
X2855777Y-1932674D01*
X2855777Y-1932674D02*
X2836729Y-1942198D01*
X2836729Y-1942198D02*
X2827206Y-1951722D01*
X2827206Y-1951722D02*
X2817682Y-1970769D01*
X3055777Y-1856484D02*
X3074825Y-1856484D01*
X3074825Y-1856484D02*
X3093872Y-1866008D01*
X3093872Y-1866008D02*
X3103396Y-1875531D01*
X3103396Y-1875531D02*
X3112920Y-1894579D01*
X3112920Y-1894579D02*
X3122444Y-1932674D01*
X3122444Y-1932674D02*
X3122444Y-1980293D01*
X3122444Y-1980293D02*
X3112920Y-2018388D01*
X3112920Y-2018388D02*
X3103396Y-2037436D01*
X3103396Y-2037436D02*
X3093872Y-2046960D01*
X3093872Y-2046960D02*
X3074825Y-2056484D01*
X3074825Y-2056484D02*
X3055777Y-2056484D01*
X3055777Y-2056484D02*
X3036729Y-2046960D01*
X3036729Y-2046960D02*
X3027206Y-2037436D01*
X3027206Y-2037436D02*
X3017682Y-2018388D01*
X3017682Y-2018388D02*
X3008158Y-1980293D01*
X3008158Y-1980293D02*
X3008158Y-1932674D01*
X3008158Y-1932674D02*
X3017682Y-1894579D01*
X3017682Y-1894579D02*
X3027206Y-1875531D01*
X3027206Y-1875531D02*
X3036729Y-1866008D01*
X3036729Y-1866008D02*
X3055777Y-1856484D01*
X3198634Y-1856484D02*
X3198634Y-1894579D01*
X3274825Y-1856484D02*
X3274825Y-1894579D01*
X3570063Y-2132674D02*
X3560539Y-2123150D01*
X3560539Y-2123150D02*
X3541491Y-2094579D01*
X3541491Y-2094579D02*
X3531968Y-2075531D01*
X3531968Y-2075531D02*
X3522444Y-2046960D01*
X3522444Y-2046960D02*
X3512920Y-1999341D01*
X3512920Y-1999341D02*
X3512920Y-1961246D01*
X3512920Y-1961246D02*
X3522444Y-1913627D01*
X3522444Y-1913627D02*
X3531968Y-1885055D01*
X3531968Y-1885055D02*
X3541491Y-1866008D01*
X3541491Y-1866008D02*
X3560539Y-1837436D01*
X3560539Y-1837436D02*
X3570063Y-1827912D01*
X3731968Y-1923150D02*
X3731968Y-2056484D01*
X3684348Y-1846960D02*
X3636729Y-1989817D01*
X3636729Y-1989817D02*
X3760539Y-1989817D01*
X3989110Y-2056484D02*
X3989110Y-1856484D01*
X4074825Y-2056484D02*
X4074825Y-1951722D01*
X4074825Y-1951722D02*
X4065301Y-1932674D01*
X4065301Y-1932674D02*
X4046253Y-1923150D01*
X4046253Y-1923150D02*
X4017682Y-1923150D01*
X4017682Y-1923150D02*
X3998634Y-1932674D01*
X3998634Y-1932674D02*
X3989110Y-1942198D01*
X4198634Y-2056484D02*
X4179587Y-2046960D01*
X4179587Y-2046960D02*
X4170063Y-2037436D01*
X4170063Y-2037436D02*
X4160539Y-2018388D01*
X4160539Y-2018388D02*
X4160539Y-1961246D01*
X4160539Y-1961246D02*
X4170063Y-1942198D01*
X4170063Y-1942198D02*
X4179587Y-1932674D01*
X4179587Y-1932674D02*
X4198634Y-1923150D01*
X4198634Y-1923150D02*
X4227206Y-1923150D01*
X4227206Y-1923150D02*
X4246253Y-1932674D01*
X4246253Y-1932674D02*
X4255777Y-1942198D01*
X4255777Y-1942198D02*
X4265301Y-1961246D01*
X4265301Y-1961246D02*
X4265301Y-2018388D01*
X4265301Y-2018388D02*
X4255777Y-2037436D01*
X4255777Y-2037436D02*
X4246253Y-2046960D01*
X4246253Y-2046960D02*
X4227206Y-2056484D01*
X4227206Y-2056484D02*
X4198634Y-2056484D01*
X4379587Y-2056484D02*
X4360539Y-2046960D01*
X4360539Y-2046960D02*
X4351015Y-2027912D01*
X4351015Y-2027912D02*
X4351015Y-1856484D01*
X4531968Y-2046960D02*
X4512920Y-2056484D01*
X4512920Y-2056484D02*
X4474825Y-2056484D01*
X4474825Y-2056484D02*
X4455777Y-2046960D01*
X4455777Y-2046960D02*
X4446253Y-2027912D01*
X4446253Y-2027912D02*
X4446253Y-1951722D01*
X4446253Y-1951722D02*
X4455777Y-1932674D01*
X4455777Y-1932674D02*
X4474825Y-1923150D01*
X4474825Y-1923150D02*
X4512920Y-1923150D01*
X4512920Y-1923150D02*
X4531968Y-1932674D01*
X4531968Y-1932674D02*
X4541492Y-1951722D01*
X4541492Y-1951722D02*
X4541492Y-1970769D01*
X4541492Y-1970769D02*
X4446253Y-1989817D01*
X4617682Y-2046960D02*
X4636730Y-2056484D01*
X4636730Y-2056484D02*
X4674825Y-2056484D01*
X4674825Y-2056484D02*
X4693873Y-2046960D01*
X4693873Y-2046960D02*
X4703396Y-2027912D01*
X4703396Y-2027912D02*
X4703396Y-2018388D01*
X4703396Y-2018388D02*
X4693873Y-1999341D01*
X4693873Y-1999341D02*
X4674825Y-1989817D01*
X4674825Y-1989817D02*
X4646253Y-1989817D01*
X4646253Y-1989817D02*
X4627206Y-1980293D01*
X4627206Y-1980293D02*
X4617682Y-1961246D01*
X4617682Y-1961246D02*
X4617682Y-1951722D01*
X4617682Y-1951722D02*
X4627206Y-1932674D01*
X4627206Y-1932674D02*
X4646253Y-1923150D01*
X4646253Y-1923150D02*
X4674825Y-1923150D01*
X4674825Y-1923150D02*
X4693873Y-1932674D01*
X4770063Y-2132674D02*
X4779587Y-2123150D01*
X4779587Y-2123150D02*
X4798634Y-2094579D01*
X4798634Y-2094579D02*
X4808158Y-2075531D01*
X4808158Y-2075531D02*
X4817682Y-2046960D01*
X4817682Y-2046960D02*
X4827206Y-1999341D01*
X4827206Y-1999341D02*
X4827206Y-1961246D01*
X4827206Y-1961246D02*
X4817682Y-1913627D01*
X4817682Y-1913627D02*
X4808158Y-1885055D01*
X4808158Y-1885055D02*
X4798634Y-1866008D01*
X4798634Y-1866008D02*
X4779587Y-1837436D01*
X4779587Y-1837436D02*
X4770063Y-1827912D01*
M02*
