M48
; DRILL file {KiCad 8.0.2} date 2024-06-30T15:56:34+0200
; FORMAT={-:-/ absolute / inch / decimal}
; #@! TF.CreationDate,2024-06-30T15:56:34+02:00
; #@! TF.GenerationSoftware,Kicad,Pcbnew,8.0.2
; #@! TF.FileFunction,Plated,1,2,PTH
FMAT,2
INCH
; #@! TA.AperFunction,Plated,PTH,ViaDrill
T1C0.0118
; #@! TA.AperFunction,Plated,PTH,ComponentDrill
T2C0.0276
; #@! TA.AperFunction,Plated,PTH,ComponentDrill
T3C0.0315
; #@! TA.AperFunction,Plated,PTH,ComponentDrill
T4C0.0354
; #@! TA.AperFunction,Plated,PTH,ComponentDrill
T5C0.0394
; #@! TA.AperFunction,Plated,PTH,ComponentDrill
T6C0.1260
%
G90
G05
T1
X2.66Y-2.14
X2.66Y-2.25
X2.7Y-1.82
X2.7Y-2.02
X2.7Y-2.08
X2.7Y-2.4153
X2.7Y-2.6141
X2.7Y-2.813
X2.7Y-3.0118
X2.7Y-3.11
X2.73Y-2.13
T2
X1.42Y-4.25
X1.72Y-4.25
X2.13Y-1.8189
X2.13Y-1.9183
X2.13Y-2.0177
X2.13Y-2.1171
X2.13Y-2.2165
X2.13Y-2.3159
X2.13Y-2.4153
X2.13Y-2.5147
X2.13Y-2.6141
X2.13Y-2.7135
X2.13Y-2.813
X2.13Y-2.9124
X2.13Y-3.0118
X2.13Y-3.1112
X2.13Y-3.2106
X2.13Y-3.31
X2.43Y-1.8189
X2.43Y-1.9183
X2.43Y-2.0177
X2.43Y-2.1171
X2.43Y-2.2165
X2.43Y-2.3159
X2.43Y-2.4153
X2.43Y-2.5147
X2.43Y-2.6141
X2.43Y-2.7135
X2.43Y-2.813
X2.43Y-2.9124
X2.43Y-3.0118
X2.43Y-3.1112
X2.43Y-3.2106
X2.43Y-3.31
T3
X2.0Y-1.375
X2.0Y-1.4734
X2.1998Y-1.375
X2.1998Y-1.675
X2.2998Y-1.375
X2.2998Y-1.675
X2.3998Y-1.375
X2.3998Y-1.675
X2.43Y-3.53
X2.43Y-3.63
X2.43Y-3.73
X2.43Y-3.83
X2.43Y-3.93
X2.43Y-4.03
X2.43Y-4.13
X2.43Y-4.23
X2.43Y-4.33
X2.4998Y-1.375
X2.4998Y-1.675
X2.5998Y-1.375
X2.5998Y-1.675
X2.6998Y-1.375
X2.6998Y-1.675
X2.71Y-4.2296
X2.71Y-4.5296
X2.7998Y-1.375
X2.7998Y-1.675
X2.81Y-4.2296
X2.81Y-4.5296
X2.91Y-4.2296
X2.91Y-4.5296
X3.01Y-4.2296
X3.01Y-4.5296
X3.05Y-1.375
X3.05Y-1.4734
X3.05Y-2.02
X3.05Y-2.1184
X3.05Y-3.2396
X3.05Y-3.338
X3.11Y-4.2296
X3.11Y-4.5296
X3.21Y-4.2296
X3.21Y-4.5296
X3.25Y-1.375
X3.25Y-1.675
X3.25Y-2.02
X3.25Y-2.32
X3.25Y-3.2396
X3.25Y-3.5396
X3.31Y-4.2296
X3.31Y-4.5296
X3.35Y-1.375
X3.35Y-1.675
X3.35Y-2.02
X3.35Y-2.32
X3.35Y-3.2396
X3.35Y-3.5396
X3.41Y-4.2296
X3.41Y-4.5296
X3.45Y-1.375
X3.45Y-1.675
X3.45Y-2.02
X3.45Y-2.32
X3.45Y-3.2396
X3.45Y-3.5396
X3.55Y-1.375
X3.55Y-1.675
X3.55Y-2.02
X3.55Y-2.32
X3.55Y-3.2396
X3.55Y-3.5396
X3.65Y-1.375
X3.65Y-1.675
X3.65Y-2.02
X3.65Y-2.32
X3.65Y-3.2396
X3.65Y-3.5396
X3.75Y-1.375
X3.75Y-1.675
X3.75Y-2.02
X3.75Y-2.32
X3.75Y-3.2396
X3.75Y-3.5396
X3.82Y-3.8939
X3.82Y-3.9924
X3.85Y-1.375
X3.85Y-1.675
X3.85Y-2.02
X3.85Y-2.32
X3.85Y-3.2396
X3.85Y-3.5396
X3.95Y-1.375
X3.95Y-1.675
X3.95Y-2.02
X3.95Y-2.32
X3.95Y-3.2396
X3.95Y-3.5396
X4.05Y-1.375
X4.05Y-1.675
X4.05Y-2.02
X4.05Y-2.32
X4.05Y-3.2396
X4.05Y-3.5396
X4.12Y-3.8939
X4.12Y-3.9924
X4.15Y-1.375
X4.15Y-1.675
X4.15Y-2.02
X4.15Y-2.32
X4.15Y-3.2396
X4.15Y-3.5396
T4
X1.14Y-1.45
X1.14Y-1.65
X1.14Y-1.85
X1.14Y-2.05
X1.14Y-2.25
X1.14Y-2.45
X1.14Y-2.65
X1.14Y-2.85
X1.14Y-4.25
X1.24Y-1.45
X1.24Y-1.65
X1.24Y-1.85
X1.24Y-2.05
X1.24Y-2.25
X1.24Y-2.45
X1.24Y-2.65
X1.24Y-2.85
X1.24Y-4.25
X4.55Y-3.9924
X4.55Y-4.0908
X4.55Y-4.1892
X4.55Y-4.2876
T5
X1.14Y-3.2894
X1.14Y-3.3894
X1.14Y-3.4894
X1.14Y-3.5894
X1.14Y-3.6894
X1.14Y-3.7894
X1.14Y-3.8894
X1.14Y-3.9894
X1.62Y-1.1
X1.62Y-1.2
X1.72Y-1.1
X1.72Y-1.2
X1.82Y-1.1
X1.82Y-1.2
X1.92Y-1.1
X1.92Y-1.2
X4.55Y-1.675
X4.55Y-1.775
X4.55Y-1.875
X4.55Y-1.975
X4.55Y-2.075
X4.55Y-2.175
X4.55Y-2.275
X4.55Y-2.375
X4.55Y-2.475
X4.55Y-2.575
X4.55Y-2.675
X4.55Y-2.775
X4.55Y-2.875
X4.55Y-2.975
X4.55Y-3.075
X4.55Y-3.175
X4.55Y-3.275
X4.55Y-3.375
X4.55Y-3.475
X4.55Y-3.575
X4.65Y-1.675
X4.65Y-1.775
X4.65Y-1.875
X4.65Y-1.975
X4.65Y-2.075
X4.65Y-2.175
X4.65Y-2.275
X4.65Y-2.375
X4.65Y-2.475
X4.65Y-2.575
X4.65Y-2.675
X4.65Y-2.775
X4.65Y-2.875
X4.65Y-2.975
X4.65Y-3.075
X4.65Y-3.175
X4.65Y-3.275
X4.65Y-3.375
X4.65Y-3.475
X4.65Y-3.575
T6
X1.1388Y-1.1388
X1.1388Y-4.6112
X4.6112Y-1.1388
X4.6112Y-4.6112
M30
