%TF.GenerationSoftware,KiCad,Pcbnew,8.0.4*%
%TF.CreationDate,2024-09-09T16:13:34+02:00*%
%TF.ProjectId,serial_io_board,73657269-616c-45f6-996f-5f626f617264,1.8*%
%TF.SameCoordinates,Original*%
%TF.FileFunction,Other,User*%
%FSLAX46Y46*%
G04 Gerber Fmt 4.6, Leading zero omitted, Abs format (unit mm)*
G04 Created by KiCad (PCBNEW 8.0.4) date 2024-09-09 16:13:34*
%MOMM*%
%LPD*%
G01*
G04 APERTURE LIST*
%ADD10C,0.050000*%
G04 APERTURE END LIST*
D10*
%TO.C,U1*%
X87755000Y-41336000D02*
X87755000Y-59786000D01*
X87755000Y-59786000D02*
X98455000Y-59786000D01*
X98455000Y-41336000D02*
X87755000Y-41336000D01*
X98455000Y-59786000D02*
X98455000Y-41336000D01*
%TO.C,R4*%
X92268000Y-104868000D02*
X92268000Y-106968000D01*
X92268000Y-106968000D02*
X101788000Y-106968000D01*
X101788000Y-104868000D02*
X92268000Y-104868000D01*
X101788000Y-106968000D02*
X101788000Y-104868000D01*
%TO.C,H1*%
X32025000Y-28925000D02*
G75*
G02*
X25825000Y-28925000I-3100000J0D01*
G01*
X25825000Y-28925000D02*
G75*
G02*
X32025000Y-28925000I3100000J0D01*
G01*
%TO.C,CP5*%
X60226000Y-81260000D02*
G75*
G02*
X54726000Y-81260000I-2750000J0D01*
G01*
X54726000Y-81260000D02*
G75*
G02*
X60226000Y-81260000I2750000J0D01*
G01*
%TO.C,CP1*%
X40342000Y-81260000D02*
G75*
G02*
X34842000Y-81260000I-2750000J0D01*
G01*
X34842000Y-81260000D02*
G75*
G02*
X40342000Y-81260000I2750000J0D01*
G01*
%TO.C,X1*%
X74142000Y-61148000D02*
X74142000Y-71948000D01*
X74142000Y-71948000D02*
X84842000Y-71948000D01*
X84842000Y-61148000D02*
X74142000Y-61148000D01*
X84842000Y-71948000D02*
X84842000Y-61148000D01*
%TO.C,C5*%
X73890000Y-74652000D02*
X73890000Y-71652000D01*
X73890000Y-71652000D02*
X68390000Y-71652000D01*
X68390000Y-74652000D02*
X73890000Y-74652000D01*
X68390000Y-71652000D02*
X68390000Y-74652000D01*
%TO.C,RN1*%
X98575000Y-76278000D02*
X95275000Y-76278000D01*
X95275000Y-76278000D02*
X95275000Y-100028000D01*
X98575000Y-100028000D02*
X98575000Y-76278000D01*
X95275000Y-100028000D02*
X98575000Y-100028000D01*
%TO.C,J4*%
X57172000Y-36046000D02*
X48522000Y-36046000D01*
X48522000Y-36046000D02*
X48522000Y-39646000D01*
X57172000Y-39646000D02*
X57172000Y-36046000D01*
X48522000Y-39646000D02*
X57172000Y-39646000D01*
%TO.C,J7*%
X52465000Y-111766000D02*
X52465000Y-129716000D01*
X52465000Y-129716000D02*
X84365000Y-129716000D01*
X84365000Y-111766000D02*
X52465000Y-111766000D01*
X84365000Y-129716000D02*
X84365000Y-111766000D01*
%TO.C,R1*%
X30006000Y-56708000D02*
X27906000Y-56708000D01*
X27906000Y-56708000D02*
X27906000Y-66228000D01*
X30006000Y-66228000D02*
X30006000Y-56708000D01*
X27906000Y-66228000D02*
X30006000Y-66228000D01*
%TO.C,H2*%
X120225000Y-28925000D02*
G75*
G02*
X114025000Y-28925000I-3100000J0D01*
G01*
X114025000Y-28925000D02*
G75*
G02*
X120225000Y-28925000I3100000J0D01*
G01*
%TO.C,CP6*%
X60226000Y-90404000D02*
G75*
G02*
X54726000Y-90404000I-2750000J0D01*
G01*
X54726000Y-90404000D02*
G75*
G02*
X60226000Y-90404000I2750000J0D01*
G01*
%TO.C,J6*%
X17517000Y-39094000D02*
X17517000Y-55344000D01*
X17517000Y-55344000D02*
X29817000Y-55344000D01*
X29817000Y-39094000D02*
X17517000Y-39094000D01*
X29817000Y-55344000D02*
X29817000Y-39094000D01*
%TO.C,CP7*%
X53586000Y-90404000D02*
G75*
G02*
X48086000Y-90404000I-2750000J0D01*
G01*
X48086000Y-90404000D02*
G75*
G02*
X53586000Y-90404000I2750000J0D01*
G01*
%TO.C,J1*%
X114220000Y-36945000D02*
X114220000Y-96405000D01*
X114220000Y-96405000D02*
X129350000Y-96405000D01*
X129350000Y-36945000D02*
X114220000Y-36945000D01*
X129350000Y-96405000D02*
X129350000Y-36945000D01*
%TO.C,U5*%
X63220000Y-76378000D02*
X63220000Y-97378000D01*
X63220000Y-97378000D02*
X73920000Y-97378000D01*
X73920000Y-76378000D02*
X63220000Y-76378000D01*
X73920000Y-97378000D02*
X73920000Y-76378000D01*
%TO.C,D1*%
X26706000Y-72524000D02*
X31206000Y-72524000D01*
X31206000Y-72524000D02*
X31206000Y-67674000D01*
X26706000Y-67674000D02*
X26706000Y-72524000D01*
X31206000Y-67674000D02*
X26706000Y-67674000D01*
%TO.C,U3*%
X101066000Y-76378000D02*
X101066000Y-102428000D01*
X101066000Y-102428000D02*
X111766000Y-102428000D01*
X111766000Y-76378000D02*
X101066000Y-76378000D01*
X111766000Y-102428000D02*
X111766000Y-76378000D01*
%TO.C,C1*%
X98425000Y-39092000D02*
X98425000Y-36092000D01*
X98425000Y-36092000D02*
X92925000Y-36092000D01*
X92925000Y-39092000D02*
X98425000Y-39092000D01*
X92925000Y-36092000D02*
X92925000Y-39092000D01*
%TO.C,U2*%
X101066000Y-41336000D02*
X101066000Y-62336000D01*
X101066000Y-62336000D02*
X111766000Y-62336000D01*
X111766000Y-41336000D02*
X101066000Y-41336000D01*
X111766000Y-62336000D02*
X111766000Y-41336000D01*
%TO.C,SW1*%
X92764000Y-98128000D02*
X92764000Y-75578000D01*
X92764000Y-75578000D02*
X82964000Y-75578000D01*
X82964000Y-98128000D02*
X92764000Y-98128000D01*
X82964000Y-75578000D02*
X82964000Y-98128000D01*
%TO.C,CP2*%
X46946000Y-81260000D02*
G75*
G02*
X41446000Y-81260000I-2750000J0D01*
G01*
X41446000Y-81260000D02*
G75*
G02*
X46946000Y-81260000I2750000J0D01*
G01*
%TO.C,C2*%
X111736000Y-39092000D02*
X111736000Y-36092000D01*
X111736000Y-36092000D02*
X106236000Y-36092000D01*
X106236000Y-39092000D02*
X111736000Y-39092000D01*
X106236000Y-36092000D02*
X106236000Y-39092000D01*
%TO.C,C3*%
X111736000Y-74652000D02*
X111736000Y-71652000D01*
X111736000Y-71652000D02*
X106236000Y-71652000D01*
X106236000Y-74652000D02*
X111736000Y-74652000D01*
X106236000Y-71652000D02*
X106236000Y-74652000D01*
%TO.C,CP8*%
X53586000Y-81260000D02*
G75*
G02*
X48086000Y-81260000I-2750000J0D01*
G01*
X48086000Y-81260000D02*
G75*
G02*
X53586000Y-81260000I2750000J0D01*
G01*
%TO.C,J3*%
X113120000Y-110406000D02*
X113120000Y-99906000D01*
X127120000Y-110406000D02*
X113120000Y-110406000D01*
X113120000Y-99906000D02*
X127120000Y-99906000D01*
X127120000Y-99906000D02*
X127120000Y-110406000D01*
%TO.C,H4*%
X32025000Y-117125000D02*
G75*
G02*
X25825000Y-117125000I-3100000J0D01*
G01*
X25825000Y-117125000D02*
G75*
G02*
X32025000Y-117125000I3100000J0D01*
G01*
%TO.C,J2*%
X57265000Y-31830000D02*
X109105000Y-31830000D01*
X109105000Y-31830000D02*
X109105000Y-16700000D01*
X57265000Y-16700000D02*
X57265000Y-31830000D01*
X109105000Y-16700000D02*
X57265000Y-16700000D01*
%TO.C,C4*%
X33552000Y-36346000D02*
X33552000Y-39346000D01*
X33552000Y-39346000D02*
X39052000Y-39346000D01*
X39052000Y-36346000D02*
X33552000Y-36346000D01*
X39052000Y-39346000D02*
X39052000Y-36346000D01*
%TO.C,SW2*%
X59876000Y-63670000D02*
X37326000Y-63670000D01*
X37326000Y-63670000D02*
X37326000Y-73470000D01*
X59876000Y-73470000D02*
X59876000Y-63670000D01*
X37326000Y-73470000D02*
X59876000Y-73470000D01*
%TO.C,H3*%
X120225000Y-117125000D02*
G75*
G02*
X114025000Y-117125000I-3100000J0D01*
G01*
X114025000Y-117125000D02*
G75*
G02*
X120225000Y-117125000I3100000J0D01*
G01*
%TO.C,U4*%
X33452000Y-59726000D02*
X84902000Y-59726000D01*
X84902000Y-59726000D02*
X84902000Y-41376000D01*
X33452000Y-41376000D02*
X33452000Y-59726000D01*
X84902000Y-41376000D02*
X33452000Y-41376000D01*
%TD*%
M02*
