%TF.GenerationSoftware,KiCad,Pcbnew,8.0.4*%
%TF.CreationDate,2024-09-09T16:13:32+02:00*%
%TF.ProjectId,serial_io_board,73657269-616c-45f6-996f-5f626f617264,1.8*%
%TF.SameCoordinates,Original*%
%TF.FileFunction,Drillmap*%
%TF.FilePolarity,Positive*%
%FSLAX45Y45*%
G04 Gerber Fmt 4.5, Leading zero omitted, Abs format (unit mm)*
G04 Created by KiCad (PCBNEW 8.0.4) date 2024-09-09 16:13:32*
%MOMM*%
%LPD*%
G01*
G04 APERTURE LIST*
%ADD10C,0.100000*%
%ADD11C,0.200000*%
G04 APERTURE END LIST*
D10*
X2540000Y-2740000D02*
X2540000Y-11865000D01*
X12065000Y-2740000D02*
X12065000Y-11865000D01*
X12065000Y-11865000D02*
G75*
G02*
X11865000Y-12065000I-200000J0D01*
G01*
X2740000Y-12065000D02*
G75*
G02*
X2540000Y-11865000I0J200000D01*
G01*
X2540000Y-2740000D02*
G75*
G02*
X2740000Y-2540000I200000J0D01*
G01*
X11865000Y-2540000D02*
G75*
G02*
X12065000Y-2740000I0J-200000D01*
G01*
X2740000Y-12065000D02*
X11865000Y-12065000D01*
X2740000Y-2540000D02*
X11865000Y-2540000D01*
D11*
X2795777Y-12381484D02*
X2795777Y-12181484D01*
X2795777Y-12181484D02*
X2843396Y-12181484D01*
X2843396Y-12181484D02*
X2871967Y-12191008D01*
X2871967Y-12191008D02*
X2891015Y-12210055D01*
X2891015Y-12210055D02*
X2900539Y-12229103D01*
X2900539Y-12229103D02*
X2910062Y-12267198D01*
X2910062Y-12267198D02*
X2910062Y-12295769D01*
X2910062Y-12295769D02*
X2900539Y-12333865D01*
X2900539Y-12333865D02*
X2891015Y-12352912D01*
X2891015Y-12352912D02*
X2871967Y-12371960D01*
X2871967Y-12371960D02*
X2843396Y-12381484D01*
X2843396Y-12381484D02*
X2795777Y-12381484D01*
X2995777Y-12381484D02*
X2995777Y-12248150D01*
X2995777Y-12286246D02*
X3005301Y-12267198D01*
X3005301Y-12267198D02*
X3014824Y-12257674D01*
X3014824Y-12257674D02*
X3033872Y-12248150D01*
X3033872Y-12248150D02*
X3052920Y-12248150D01*
X3119586Y-12381484D02*
X3119586Y-12248150D01*
X3119586Y-12181484D02*
X3110062Y-12191008D01*
X3110062Y-12191008D02*
X3119586Y-12200531D01*
X3119586Y-12200531D02*
X3129110Y-12191008D01*
X3129110Y-12191008D02*
X3119586Y-12181484D01*
X3119586Y-12181484D02*
X3119586Y-12200531D01*
X3243396Y-12381484D02*
X3224348Y-12371960D01*
X3224348Y-12371960D02*
X3214824Y-12352912D01*
X3214824Y-12352912D02*
X3214824Y-12181484D01*
X3348158Y-12381484D02*
X3329110Y-12371960D01*
X3329110Y-12371960D02*
X3319586Y-12352912D01*
X3319586Y-12352912D02*
X3319586Y-12181484D01*
X3576729Y-12381484D02*
X3576729Y-12181484D01*
X3576729Y-12181484D02*
X3643396Y-12324341D01*
X3643396Y-12324341D02*
X3710062Y-12181484D01*
X3710062Y-12181484D02*
X3710062Y-12381484D01*
X3891015Y-12381484D02*
X3891015Y-12276722D01*
X3891015Y-12276722D02*
X3881491Y-12257674D01*
X3881491Y-12257674D02*
X3862443Y-12248150D01*
X3862443Y-12248150D02*
X3824348Y-12248150D01*
X3824348Y-12248150D02*
X3805301Y-12257674D01*
X3891015Y-12371960D02*
X3871967Y-12381484D01*
X3871967Y-12381484D02*
X3824348Y-12381484D01*
X3824348Y-12381484D02*
X3805301Y-12371960D01*
X3805301Y-12371960D02*
X3795777Y-12352912D01*
X3795777Y-12352912D02*
X3795777Y-12333865D01*
X3795777Y-12333865D02*
X3805301Y-12314817D01*
X3805301Y-12314817D02*
X3824348Y-12305293D01*
X3824348Y-12305293D02*
X3871967Y-12305293D01*
X3871967Y-12305293D02*
X3891015Y-12295769D01*
X3986253Y-12248150D02*
X3986253Y-12448150D01*
X3986253Y-12257674D02*
X4005301Y-12248150D01*
X4005301Y-12248150D02*
X4043396Y-12248150D01*
X4043396Y-12248150D02*
X4062443Y-12257674D01*
X4062443Y-12257674D02*
X4071967Y-12267198D01*
X4071967Y-12267198D02*
X4081491Y-12286246D01*
X4081491Y-12286246D02*
X4081491Y-12343388D01*
X4081491Y-12343388D02*
X4071967Y-12362436D01*
X4071967Y-12362436D02*
X4062443Y-12371960D01*
X4062443Y-12371960D02*
X4043396Y-12381484D01*
X4043396Y-12381484D02*
X4005301Y-12381484D01*
X4005301Y-12381484D02*
X3986253Y-12371960D01*
X4167205Y-12362436D02*
X4176729Y-12371960D01*
X4176729Y-12371960D02*
X4167205Y-12381484D01*
X4167205Y-12381484D02*
X4157682Y-12371960D01*
X4157682Y-12371960D02*
X4167205Y-12362436D01*
X4167205Y-12362436D02*
X4167205Y-12381484D01*
X4167205Y-12257674D02*
X4176729Y-12267198D01*
X4176729Y-12267198D02*
X4167205Y-12276722D01*
X4167205Y-12276722D02*
X4157682Y-12267198D01*
X4157682Y-12267198D02*
X4167205Y-12257674D01*
X4167205Y-12257674D02*
X4167205Y-12276722D01*
M02*
