M48
; DRILL file {KiCad 8.0.4} date 2024-09-09T16:13:32+0200
; FORMAT={-:-/ absolute / inch / decimal}
; #@! TF.CreationDate,2024-09-09T16:13:32+02:00
; #@! TF.GenerationSoftware,Kicad,Pcbnew,8.0.4
; #@! TF.FileFunction,Plated,1,2,PTH
FMAT,2
INCH
; #@! TA.AperFunction,Plated,PTH,ViaDrill
T1C0.0118
; #@! TA.AperFunction,Plated,PTH,ComponentDrill
T2C0.0276
; #@! TA.AperFunction,Plated,PTH,ComponentDrill
T3C0.0315
; #@! TA.AperFunction,Plated,PTH,ComponentDrill
T4C0.0354
; #@! TA.AperFunction,Plated,PTH,ComponentDrill
T5C0.0394
; #@! TA.AperFunction,Plated,PTH,ComponentDrill
T6C0.1260
%
G90
G05
T1
X1.48Y-2.18
X1.495Y-1.935
X1.57Y-2.14
X1.607Y-2.2163
X1.61Y-2.02
X1.635Y-2.17
X1.685Y-2.225
X1.71Y-2.395
X1.84Y-2.79
X1.88Y-1.94
X1.88Y-1.9715
X1.88Y-2.003
X1.89Y-2.61
X2.0Y-2.9
X2.08Y-3.0
X2.185Y-3.3094
X2.21Y-1.94
X2.2524Y-1.9476
X2.2899Y-1.9601
X2.3274Y-1.9726
X2.3635Y-1.9836
X2.3975Y-1.9925
X2.42Y-3.155
X2.4399Y-2.0001
X2.4873Y-2.0127
X2.59Y-3.875
X2.755Y-3.515
X2.86Y-1.9897
X2.86Y-2.0211
X2.86Y-2.0526
X2.86Y-2.0841
X2.86Y-2.1156
X2.86Y-2.147
X2.86Y-2.1785
X2.86Y-2.21
X2.88Y-2.48
X3.02Y-2.045
X3.3224Y-1.7876
X3.355Y-2.03
X3.375Y-1.625
X3.4841Y-2.3785
X3.565Y-2.3575
X3.57Y-1.78
X3.57Y-1.88
X3.57Y-2.12
X3.57Y-2.21
X3.595Y-1.935
X3.595Y-2.045
X3.61Y-1.74
X3.61Y-2.4254
X3.64Y-3.42
X3.655Y-2.505
X3.665Y-3.225
X3.675Y-3.27
X3.68Y-1.61
X3.68Y-1.74
X3.68Y-1.85
X3.6854Y-3.4895
X3.705Y-3.365
X3.735Y-3.405
X3.745Y-3.225
X3.85Y-2.34
X3.91Y-2.755
X4.015Y-2.04
X4.09Y-2.07
X4.09Y-2.15
X4.09Y-2.47
X4.09Y-2.5015
X4.09Y-2.533
X4.105Y-3.955
X4.12Y-2.38
X4.13Y-2.33
X4.14Y-2.41
X4.27Y-1.8
X4.29Y-2.21
X4.3Y-2.9579
X4.415Y-2.715
X4.42Y-2.47
X4.42Y-2.51
X4.42Y-2.55
X4.4203Y-2.1212
X4.43Y-2.225
X4.43Y-2.34
X4.44Y-2.38
X4.44Y-2.6
X4.45Y-2.73
X4.46Y-2.41
X4.46Y-2.55
X4.475Y-2.3
X4.495Y-2.19
X4.695Y-1.725
T2
X1.14Y-2.27
X1.14Y-2.57
X3.67Y-4.17
X3.97Y-4.17
T3
X1.38Y-1.49
X1.38Y-1.6904
X1.38Y-2.2904
X1.4784Y-1.49
X1.48Y-1.6904
X1.48Y-2.2904
X1.48Y-3.15
X1.48Y-3.2484
X1.5628Y-2.55
X1.5628Y-2.85
X1.58Y-1.6904
X1.58Y-2.2904
X1.6628Y-2.55
X1.6628Y-2.85
X1.68Y-1.6904
X1.68Y-2.2904
X1.74Y-3.15
X1.74Y-3.2484
X1.7628Y-2.55
X1.7628Y-2.85
X1.78Y-1.6904
X1.78Y-2.2904
X1.8628Y-2.55
X1.8628Y-2.85
X1.88Y-1.6904
X1.88Y-2.2904
X1.9628Y-2.55
X1.9628Y-2.85
X1.98Y-1.6904
X1.98Y-2.2904
X2.0014Y-3.15
X2.0014Y-3.2484
X2.0014Y-3.51
X2.0014Y-3.6084
X2.0628Y-2.55
X2.0628Y-2.85
X2.08Y-1.6904
X2.08Y-2.2904
X2.1628Y-2.55
X2.1628Y-2.85
X2.18Y-1.6904
X2.18Y-2.2904
X2.2628Y-2.55
X2.2628Y-2.85
X2.2628Y-3.15
X2.2628Y-3.2484
X2.2628Y-3.51
X2.2628Y-3.6084
X2.28Y-1.6904
X2.28Y-2.2904
X2.38Y-1.6904
X2.38Y-2.2904
X2.48Y-1.6904
X2.48Y-2.2904
X2.55Y-3.07
X2.55Y-3.17
X2.55Y-3.27
X2.55Y-3.37
X2.55Y-3.47
X2.55Y-3.57
X2.55Y-3.67
X2.55Y-3.77
X2.58Y-1.6904
X2.58Y-2.2904
X2.68Y-1.6904
X2.68Y-2.2904
X2.7516Y-2.88
X2.78Y-1.6904
X2.78Y-2.2904
X2.85Y-2.88
X2.85Y-3.07
X2.85Y-3.17
X2.85Y-3.27
X2.85Y-3.37
X2.85Y-3.47
X2.85Y-3.57
X2.85Y-3.67
X2.85Y-3.77
X2.88Y-1.6904
X2.88Y-2.2904
X2.98Y-1.6904
X2.98Y-2.2904
X2.98Y-2.4704
X2.98Y-2.5704
X2.98Y-2.6704
X2.98Y-2.7704
X3.08Y-1.6904
X3.08Y-2.2904
X3.18Y-1.6904
X3.18Y-2.2904
X3.28Y-1.6904
X3.28Y-2.2904
X3.28Y-2.4704
X3.28Y-2.5704
X3.28Y-2.6704
X3.28Y-2.7704
X3.3096Y-3.07
X3.3096Y-3.17
X3.3096Y-3.27
X3.3096Y-3.37
X3.3096Y-3.47
X3.3096Y-3.57
X3.3096Y-3.67
X3.3096Y-3.77
X3.5159Y-1.6904
X3.5159Y-1.7904
X3.5159Y-1.8904
X3.5159Y-1.9904
X3.5159Y-2.0904
X3.5159Y-2.1904
X3.5159Y-2.2904
X3.6096Y-3.07
X3.6096Y-3.17
X3.6096Y-3.27
X3.6096Y-3.37
X3.6096Y-3.47
X3.6096Y-3.57
X3.6096Y-3.67
X3.6096Y-3.77
X3.7175Y-1.48
X3.8159Y-1.48
X3.8159Y-1.6904
X3.8159Y-1.7904
X3.8159Y-1.8904
X3.8159Y-1.9904
X3.8159Y-2.0904
X3.8159Y-2.1904
X3.8159Y-2.2904
X3.8159Y-3.07
X3.8159Y-3.17
X3.8159Y-3.27
X3.8159Y-3.37
X3.8159Y-3.47
X3.8159Y-3.57
X3.8159Y-3.67
X3.8159Y-3.77
X3.8159Y-3.87
X4.04Y-1.6904
X4.04Y-1.7904
X4.04Y-1.8904
X4.04Y-1.9904
X4.04Y-2.0904
X4.04Y-2.1904
X4.04Y-2.2904
X4.04Y-2.3904
X4.04Y-3.07
X4.04Y-3.17
X4.04Y-3.27
X4.04Y-3.37
X4.04Y-3.47
X4.04Y-3.57
X4.04Y-3.67
X4.04Y-3.77
X4.04Y-3.87
X4.04Y-3.97
X4.2416Y-1.48
X4.2416Y-2.88
X4.34Y-1.48
X4.34Y-1.6904
X4.34Y-1.7904
X4.34Y-1.8904
X4.34Y-1.9904
X4.34Y-2.0904
X4.34Y-2.1904
X4.34Y-2.2904
X4.34Y-2.3904
X4.34Y-2.88
X4.34Y-3.07
X4.34Y-3.17
X4.34Y-3.27
X4.34Y-3.37
X4.34Y-3.47
X4.34Y-3.57
X4.34Y-3.67
X4.34Y-3.77
X4.34Y-3.87
X4.34Y-3.97
T4
X1.14Y-2.71
X1.14Y-2.81
X4.55Y-3.9924
X4.55Y-4.0908
X4.55Y-4.1892
X4.55Y-4.2876
T5
X1.105Y-1.61
X1.105Y-1.71
X1.105Y-1.81
X1.105Y-1.91
X1.105Y-2.01
X1.105Y-2.11
X1.98Y-1.49
X2.08Y-1.49
X2.18Y-1.49
X2.475Y-1.1
X2.475Y-1.2
X2.475Y-4.5282
X2.5295Y-4.64
X2.575Y-1.1
X2.575Y-1.2
X2.5841Y-4.5282
X2.6386Y-4.64
X2.675Y-1.1
X2.675Y-1.2
X2.6931Y-4.5282
X2.7476Y-4.64
X2.775Y-1.1
X2.775Y-1.2
X2.8022Y-4.5282
X2.8567Y-4.64
X2.875Y-1.1
X2.875Y-1.2
X2.9112Y-4.5282
X2.975Y-1.1
X2.975Y-1.2
X3.075Y-1.1
X3.075Y-1.2
X3.175Y-1.1
X3.175Y-1.2
X3.275Y-1.1
X3.275Y-1.2
X3.375Y-1.1
X3.375Y-1.2
X3.475Y-1.1
X3.475Y-1.2
X3.575Y-1.1
X3.575Y-1.2
X3.675Y-1.1
X3.675Y-1.2
X3.775Y-1.1
X3.775Y-1.2
X3.875Y-1.1
X3.875Y-1.2
X3.975Y-1.1
X3.975Y-1.2
X4.075Y-1.1
X4.075Y-1.2
X4.55Y-1.675
X4.55Y-1.775
X4.55Y-1.875
X4.55Y-1.975
X4.55Y-2.075
X4.55Y-2.175
X4.55Y-2.275
X4.55Y-2.375
X4.55Y-2.475
X4.55Y-2.575
X4.55Y-2.675
X4.55Y-2.775
X4.55Y-2.875
X4.55Y-2.975
X4.55Y-3.075
X4.55Y-3.175
X4.55Y-3.275
X4.55Y-3.375
X4.55Y-3.475
X4.55Y-3.575
X4.65Y-1.675
X4.65Y-1.775
X4.65Y-1.875
X4.65Y-1.975
X4.65Y-2.075
X4.65Y-2.175
X4.65Y-2.275
X4.65Y-2.375
X4.65Y-2.475
X4.65Y-2.575
X4.65Y-2.675
X4.65Y-2.775
X4.65Y-2.875
X4.65Y-2.975
X4.65Y-3.075
X4.65Y-3.175
X4.65Y-3.275
X4.65Y-3.375
X4.65Y-3.475
X4.65Y-3.575
T6
X1.1388Y-1.1388
X1.1388Y-4.6112
X2.201Y-4.54
X3.1852Y-4.54
X4.6112Y-1.1388
X4.6112Y-4.6112
M30
