%TF.GenerationSoftware,KiCad,Pcbnew,8.0.2*%
%TF.CreationDate,2024-06-21T19:26:26+02:00*%
%TF.ProjectId,power_board_v2,706f7765-725f-4626-9f61-72645f76322e,2.0*%
%TF.SameCoordinates,Original*%
%TF.FileFunction,Drillmap*%
%TF.FilePolarity,Positive*%
%FSLAX45Y45*%
G04 Gerber Fmt 4.5, Leading zero omitted, Abs format (unit mm)*
G04 Created by KiCad (PCBNEW 8.0.2) date 2024-06-21 19:26:26*
%MOMM*%
%LPD*%
G01*
G04 APERTURE LIST*
%ADD10C,0.100000*%
%ADD11C,0.200000*%
%ADD12C,0.180000*%
%ADD13C,0.320000*%
G04 APERTURE END LIST*
D10*
X2540000Y-2740000D02*
X2540000Y-11865000D01*
X12065000Y-2740000D02*
X12065000Y-11865000D01*
X12065000Y-11865000D02*
G75*
G02*
X11865000Y-12065000I-200000J0D01*
G01*
X2740000Y-12065000D02*
G75*
G02*
X2540000Y-11865000I0J200000D01*
G01*
X2540000Y-2740000D02*
G75*
G02*
X2740000Y-2540000I200000J0D01*
G01*
X11865000Y-2540000D02*
G75*
G02*
X12065000Y-2740000I0J-200000D01*
G01*
X2740000Y-12065000D02*
X11865000Y-12065000D01*
X2740000Y-2540000D02*
X11865000Y-2540000D01*
D11*
D10*
X2613900Y-7998700D02*
X2643900Y-8028700D01*
X2643900Y-7998700D02*
X2613900Y-8028700D01*
X2652000Y-10627600D02*
X2682000Y-10657600D01*
X2682000Y-10627600D02*
X2652000Y-10657600D01*
X3693400Y-10196980D02*
X3723400Y-10226980D01*
X3723400Y-10196980D02*
X3693400Y-10226980D01*
X3795000Y-10018000D02*
X3825000Y-10048000D01*
X3825000Y-10018000D02*
X3795000Y-10048000D01*
X3871200Y-9204020D02*
X3901200Y-9234020D01*
X3901200Y-9204020D02*
X3871200Y-9234020D01*
X3960100Y-10145000D02*
X3990100Y-10175000D01*
X3990100Y-10145000D02*
X3960100Y-10175000D01*
X3972800Y-5903200D02*
X4002800Y-5933200D01*
X4002800Y-5903200D02*
X3972800Y-5933200D01*
X4150600Y-9179800D02*
X4180600Y-9209800D01*
X4180600Y-9179800D02*
X4150600Y-9209800D01*
X4150600Y-9929100D02*
X4180600Y-9959100D01*
X4180600Y-9929100D02*
X4150600Y-9959100D01*
X4404600Y-9713200D02*
X4434600Y-9743200D01*
X4434600Y-9713200D02*
X4404600Y-9743200D01*
X4518900Y-7414500D02*
X4548900Y-7444500D01*
X4548900Y-7414500D02*
X4518900Y-7444500D01*
X4518900Y-9941800D02*
X4548900Y-9971800D01*
X4548900Y-9941800D02*
X4518900Y-9971800D01*
X4200600Y-5943600D02*
G75*
G02*
X4130600Y-5943600I-35000J0D01*
G01*
X4130600Y-5943600D02*
G75*
G02*
X4200600Y-5943600I35000J0D01*
G01*
X4200600Y-6705600D02*
G75*
G02*
X4130600Y-6705600I-35000J0D01*
G01*
X4130600Y-6705600D02*
G75*
G02*
X4200600Y-6705600I35000J0D01*
G01*
X4556200Y-5943600D02*
G75*
G02*
X4486200Y-5943600I-35000J0D01*
G01*
X4486200Y-5943600D02*
G75*
G02*
X4556200Y-5943600I35000J0D01*
G01*
X4556200Y-6705600D02*
G75*
G02*
X4486200Y-6705600I-35000J0D01*
G01*
X4486200Y-6705600D02*
G75*
G02*
X4556200Y-6705600I35000J0D01*
G01*
X4911800Y-5943600D02*
G75*
G02*
X4841800Y-5943600I-35000J0D01*
G01*
X4841800Y-5943600D02*
G75*
G02*
X4911800Y-5943600I35000J0D01*
G01*
X4911800Y-6705600D02*
G75*
G02*
X4841800Y-6705600I-35000J0D01*
G01*
X4841800Y-6705600D02*
G75*
G02*
X4911800Y-6705600I35000J0D01*
G01*
X5267400Y-5943600D02*
G75*
G02*
X5197400Y-5943600I-35000J0D01*
G01*
X5197400Y-5943600D02*
G75*
G02*
X5267400Y-5943600I35000J0D01*
G01*
X5267400Y-6705600D02*
G75*
G02*
X5197400Y-6705600I-35000J0D01*
G01*
X5197400Y-6705600D02*
G75*
G02*
X5267400Y-6705600I35000J0D01*
G01*
X5623000Y-5943600D02*
G75*
G02*
X5553000Y-5943600I-35000J0D01*
G01*
X5553000Y-5943600D02*
G75*
G02*
X5623000Y-5943600I35000J0D01*
G01*
X5623000Y-6705600D02*
G75*
G02*
X5553000Y-6705600I-35000J0D01*
G01*
X5553000Y-6705600D02*
G75*
G02*
X5623000Y-6705600I35000J0D01*
G01*
X6359600Y-5943600D02*
G75*
G02*
X6289600Y-5943600I-35000J0D01*
G01*
X6289600Y-5943600D02*
G75*
G02*
X6359600Y-5943600I35000J0D01*
G01*
X6359600Y-6705600D02*
G75*
G02*
X6289600Y-6705600I-35000J0D01*
G01*
X6289600Y-6705600D02*
G75*
G02*
X6359600Y-6705600I35000J0D01*
G01*
X5969000Y-7833500D02*
X5969000Y-7913500D01*
X5929000Y-7873500D02*
X6009000Y-7873500D01*
X5969000Y-8083500D02*
X5969000Y-8163500D01*
X5929000Y-8123500D02*
X6009000Y-8123500D01*
X6705600Y-7833500D02*
X6705600Y-7913500D01*
X6665600Y-7873500D02*
X6745600Y-7873500D01*
X6705600Y-8083500D02*
X6705600Y-8163500D01*
X6665600Y-8123500D02*
X6745600Y-8123500D01*
X7367000Y-7833500D02*
X7367000Y-7913500D01*
X7327000Y-7873500D02*
X7407000Y-7873500D01*
X7367000Y-8087500D02*
X7367000Y-8167500D01*
X7327000Y-8127500D02*
X7407000Y-8127500D01*
X7367000Y-8341500D02*
X7367000Y-8421500D01*
X7327000Y-8381500D02*
X7407000Y-8381500D01*
X7367000Y-8595500D02*
X7367000Y-8675500D01*
X7327000Y-8635500D02*
X7407000Y-8635500D01*
X7367000Y-8849500D02*
X7367000Y-8929500D01*
X7327000Y-8889500D02*
X7407000Y-8889500D01*
X7367000Y-9103500D02*
X7367000Y-9183500D01*
X7327000Y-9143500D02*
X7407000Y-9143500D01*
X7367000Y-9357500D02*
X7367000Y-9437500D01*
X7327000Y-9397500D02*
X7407000Y-9397500D01*
X7879000Y-7224400D02*
X7879000Y-7304400D01*
X7839000Y-7264400D02*
X7919000Y-7264400D01*
X8129000Y-7224400D02*
X8129000Y-7304400D01*
X8089000Y-7264400D02*
X8169000Y-7264400D01*
X8129000Y-7833500D02*
X8129000Y-7913500D01*
X8089000Y-7873500D02*
X8169000Y-7873500D01*
X8129000Y-8087500D02*
X8129000Y-8167500D01*
X8089000Y-8127500D02*
X8169000Y-8127500D01*
X8129000Y-8341500D02*
X8129000Y-8421500D01*
X8089000Y-8381500D02*
X8169000Y-8381500D01*
X8129000Y-8595500D02*
X8129000Y-8675500D01*
X8089000Y-8635500D02*
X8169000Y-8635500D01*
X8129000Y-8849500D02*
X8129000Y-8929500D01*
X8089000Y-8889500D02*
X8169000Y-8889500D01*
X8129000Y-9103500D02*
X8129000Y-9183500D01*
X8089000Y-9143500D02*
X8169000Y-9143500D01*
X8129000Y-9357500D02*
X8129000Y-9437500D01*
X8089000Y-9397500D02*
X8169000Y-9397500D01*
X8788400Y-7834000D02*
X8788400Y-7914000D01*
X8748400Y-7874000D02*
X8828400Y-7874000D01*
X8788400Y-8088000D02*
X8788400Y-8168000D01*
X8748400Y-8128000D02*
X8828400Y-8128000D01*
X8788400Y-8342000D02*
X8788400Y-8422000D01*
X8748400Y-8382000D02*
X8828400Y-8382000D01*
X8788400Y-8596000D02*
X8788400Y-8676000D01*
X8748400Y-8636000D02*
X8828400Y-8636000D01*
X8788400Y-8850000D02*
X8788400Y-8930000D01*
X8748400Y-8890000D02*
X8828400Y-8890000D01*
X8788400Y-9104000D02*
X8788400Y-9184000D01*
X8748400Y-9144000D02*
X8828400Y-9144000D01*
X8788400Y-9358000D02*
X8788400Y-9438000D01*
X8748400Y-9398000D02*
X8828400Y-9398000D01*
X9300400Y-7224400D02*
X9300400Y-7304400D01*
X9260400Y-7264400D02*
X9340400Y-7264400D01*
X9550400Y-7224400D02*
X9550400Y-7304400D01*
X9510400Y-7264400D02*
X9590400Y-7264400D01*
X9550400Y-7834000D02*
X9550400Y-7914000D01*
X9510400Y-7874000D02*
X9590400Y-7874000D01*
X9550400Y-8088000D02*
X9550400Y-8168000D01*
X9510400Y-8128000D02*
X9590400Y-8128000D01*
X9550400Y-8342000D02*
X9550400Y-8422000D01*
X9510400Y-8382000D02*
X9590400Y-8382000D01*
X9550400Y-8596000D02*
X9550400Y-8676000D01*
X9510400Y-8636000D02*
X9590400Y-8636000D01*
X9550400Y-8850000D02*
X9550400Y-8930000D01*
X9510400Y-8890000D02*
X9590400Y-8890000D01*
X9550400Y-9104000D02*
X9550400Y-9184000D01*
X9510400Y-9144000D02*
X9590400Y-9144000D01*
X9550400Y-9358000D02*
X9550400Y-9438000D01*
X9510400Y-9398000D02*
X9590400Y-9398000D01*
X2952820Y-5975420D02*
X2952820Y-5911780D01*
X2889180Y-5911780D01*
X2889180Y-5975420D01*
X2952820Y-5975420D01*
X2952820Y-6229420D02*
X2952820Y-6165780D01*
X2889180Y-6165780D01*
X2889180Y-6229420D01*
X2952820Y-6229420D01*
X3689420Y-5975420D02*
X3689420Y-5911780D01*
X3625780Y-5911780D01*
X3625780Y-5975420D01*
X3689420Y-5975420D01*
X3689420Y-6229420D02*
X3689420Y-6165780D01*
X3625780Y-6165780D01*
X3625780Y-6229420D01*
X3689420Y-6229420D01*
X6000820Y-5975420D02*
X6000820Y-5911780D01*
X5937180Y-5911780D01*
X5937180Y-5975420D01*
X6000820Y-5975420D01*
X6000820Y-6737420D02*
X6000820Y-6673780D01*
X5937180Y-6673780D01*
X5937180Y-6737420D01*
X6000820Y-6737420D01*
X6737420Y-5975420D02*
X6737420Y-5911780D01*
X6673780Y-5911780D01*
X6673780Y-5975420D01*
X6737420Y-5975420D01*
X6737420Y-6737420D02*
X6737420Y-6673780D01*
X6673780Y-6673780D01*
X6673780Y-6737420D01*
X6737420Y-6737420D01*
X2799200Y-6683000D02*
X2849200Y-6633000D01*
X2799200Y-6583000D01*
X2749200Y-6633000D01*
X2799200Y-6683000D01*
X2799200Y-7133000D02*
X2849200Y-7083000D01*
X2799200Y-7033000D01*
X2749200Y-7083000D01*
X2799200Y-7133000D01*
X2806700Y-3860000D02*
X2856700Y-3810000D01*
X2806700Y-3760000D01*
X2756700Y-3810000D01*
X2806700Y-3860000D01*
X2806700Y-4114000D02*
X2856700Y-4064000D01*
X2806700Y-4014000D01*
X2756700Y-4064000D01*
X2806700Y-4114000D01*
X2806700Y-4368000D02*
X2856700Y-4318000D01*
X2806700Y-4268000D01*
X2756700Y-4318000D01*
X2806700Y-4368000D01*
X2806700Y-4622000D02*
X2856700Y-4572000D01*
X2806700Y-4522000D01*
X2756700Y-4572000D01*
X2806700Y-4622000D01*
X2806700Y-4876000D02*
X2856700Y-4826000D01*
X2806700Y-4776000D01*
X2756700Y-4826000D01*
X2806700Y-4876000D01*
X2806700Y-5130000D02*
X2856700Y-5080000D01*
X2806700Y-5030000D01*
X2756700Y-5080000D01*
X2806700Y-5130000D01*
X2806700Y-8114500D02*
X2856700Y-8064500D01*
X2806700Y-8014500D01*
X2756700Y-8064500D01*
X2806700Y-8114500D01*
X2806700Y-8368500D02*
X2856700Y-8318500D01*
X2806700Y-8268500D01*
X2756700Y-8318500D01*
X2806700Y-8368500D01*
X2806700Y-8622500D02*
X2856700Y-8572500D01*
X2806700Y-8522500D01*
X2756700Y-8572500D01*
X2806700Y-8622500D01*
X2806700Y-8876500D02*
X2856700Y-8826500D01*
X2806700Y-8776500D01*
X2756700Y-8826500D01*
X2806700Y-8876500D01*
X2806700Y-9130500D02*
X2856700Y-9080500D01*
X2806700Y-9030500D01*
X2756700Y-9080500D01*
X2806700Y-9130500D01*
X2806700Y-9384500D02*
X2856700Y-9334500D01*
X2806700Y-9284500D01*
X2756700Y-9334500D01*
X2806700Y-9384500D01*
X2806700Y-9638500D02*
X2856700Y-9588500D01*
X2806700Y-9538500D01*
X2756700Y-9588500D01*
X2806700Y-9638500D01*
X2806700Y-9892500D02*
X2856700Y-9842500D01*
X2806700Y-9792500D01*
X2756700Y-9842500D01*
X2806700Y-9892500D01*
X2806700Y-10146500D02*
X2856700Y-10096500D01*
X2806700Y-10046500D01*
X2756700Y-10096500D01*
X2806700Y-10146500D01*
X2806700Y-10400500D02*
X2856700Y-10350500D01*
X2806700Y-10300500D01*
X2756700Y-10350500D01*
X2806700Y-10400500D01*
X3060700Y-3860000D02*
X3110700Y-3810000D01*
X3060700Y-3760000D01*
X3010700Y-3810000D01*
X3060700Y-3860000D01*
X3060700Y-4114000D02*
X3110700Y-4064000D01*
X3060700Y-4014000D01*
X3010700Y-4064000D01*
X3060700Y-4114000D01*
X3060700Y-4368000D02*
X3110700Y-4318000D01*
X3060700Y-4268000D01*
X3010700Y-4318000D01*
X3060700Y-4368000D01*
X3060700Y-4622000D02*
X3110700Y-4572000D01*
X3060700Y-4522000D01*
X3010700Y-4572000D01*
X3060700Y-4622000D01*
X3060700Y-4876000D02*
X3110700Y-4826000D01*
X3060700Y-4776000D01*
X3010700Y-4826000D01*
X3060700Y-4876000D01*
X3060700Y-5130000D02*
X3110700Y-5080000D01*
X3060700Y-5030000D01*
X3010700Y-5080000D01*
X3060700Y-5130000D01*
X3060700Y-8114500D02*
X3110700Y-8064500D01*
X3060700Y-8014500D01*
X3010700Y-8064500D01*
X3060700Y-8114500D01*
X3060700Y-8368500D02*
X3110700Y-8318500D01*
X3060700Y-8268500D01*
X3010700Y-8318500D01*
X3060700Y-8368500D01*
X3060700Y-8622500D02*
X3110700Y-8572500D01*
X3060700Y-8522500D01*
X3010700Y-8572500D01*
X3060700Y-8622500D01*
X3060700Y-8876500D02*
X3110700Y-8826500D01*
X3060700Y-8776500D01*
X3010700Y-8826500D01*
X3060700Y-8876500D01*
X3060700Y-9130500D02*
X3110700Y-9080500D01*
X3060700Y-9030500D01*
X3010700Y-9080500D01*
X3060700Y-9130500D01*
X3060700Y-9384500D02*
X3110700Y-9334500D01*
X3060700Y-9284500D01*
X3010700Y-9334500D01*
X3060700Y-9384500D01*
X3060700Y-9638500D02*
X3110700Y-9588500D01*
X3060700Y-9538500D01*
X3010700Y-9588500D01*
X3060700Y-9638500D01*
X3060700Y-9892500D02*
X3110700Y-9842500D01*
X3060700Y-9792500D01*
X3010700Y-9842500D01*
X3060700Y-9892500D01*
X3060700Y-10146500D02*
X3110700Y-10096500D01*
X3060700Y-10046500D01*
X3010700Y-10096500D01*
X3060700Y-10146500D01*
X3060700Y-10400500D02*
X3110700Y-10350500D01*
X3060700Y-10300500D01*
X3010700Y-10350500D01*
X3060700Y-10400500D01*
X3449200Y-6683000D02*
X3499200Y-6633000D01*
X3449200Y-6583000D01*
X3399200Y-6633000D01*
X3449200Y-6683000D01*
X3449200Y-7133000D02*
X3499200Y-7083000D01*
X3449200Y-7033000D01*
X3399200Y-7083000D01*
X3449200Y-7133000D01*
X4114800Y-2844000D02*
X4164800Y-2794000D01*
X4114800Y-2744000D01*
X4064800Y-2794000D01*
X4114800Y-2844000D01*
X4114800Y-3098000D02*
X4164800Y-3048000D01*
X4114800Y-2998000D01*
X4064800Y-3048000D01*
X4114800Y-3098000D01*
X4368800Y-2844000D02*
X4418800Y-2794000D01*
X4368800Y-2744000D01*
X4318800Y-2794000D01*
X4368800Y-2844000D01*
X4368800Y-3098000D02*
X4418800Y-3048000D01*
X4368800Y-2998000D01*
X4318800Y-3048000D01*
X4368800Y-3098000D01*
X4622800Y-2844000D02*
X4672800Y-2794000D01*
X4622800Y-2744000D01*
X4572800Y-2794000D01*
X4622800Y-2844000D01*
X4622800Y-3098000D02*
X4672800Y-3048000D01*
X4622800Y-2998000D01*
X4572800Y-3048000D01*
X4622800Y-3098000D01*
X4876800Y-2844000D02*
X4926800Y-2794000D01*
X4876800Y-2744000D01*
X4826800Y-2794000D01*
X4876800Y-2844000D01*
X4876800Y-3098000D02*
X4926800Y-3048000D01*
X4876800Y-2998000D01*
X4826800Y-3048000D01*
X4876800Y-3098000D01*
X6286500Y-2844000D02*
X6336500Y-2794000D01*
X6286500Y-2744000D01*
X6236500Y-2794000D01*
X6286500Y-2844000D01*
X6286500Y-3098000D02*
X6336500Y-3048000D01*
X6286500Y-2998000D01*
X6236500Y-3048000D01*
X6286500Y-3098000D01*
X6540500Y-2844000D02*
X6590500Y-2794000D01*
X6540500Y-2744000D01*
X6490500Y-2794000D01*
X6540500Y-2844000D01*
X6540500Y-3098000D02*
X6590500Y-3048000D01*
X6540500Y-2998000D01*
X6490500Y-3048000D01*
X6540500Y-3098000D01*
X6794500Y-2844000D02*
X6844500Y-2794000D01*
X6794500Y-2744000D01*
X6744500Y-2794000D01*
X6794500Y-2844000D01*
X6794500Y-3098000D02*
X6844500Y-3048000D01*
X6794500Y-2998000D01*
X6744500Y-3048000D01*
X6794500Y-3098000D01*
X7048500Y-2844000D02*
X7098500Y-2794000D01*
X7048500Y-2744000D01*
X6998500Y-2794000D01*
X7048500Y-2844000D01*
X7048500Y-3098000D02*
X7098500Y-3048000D01*
X7048500Y-2998000D01*
X6998500Y-3048000D01*
X7048500Y-3098000D01*
X7302500Y-2844000D02*
X7352500Y-2794000D01*
X7302500Y-2744000D01*
X7252500Y-2794000D01*
X7302500Y-2844000D01*
X7302500Y-3098000D02*
X7352500Y-3048000D01*
X7302500Y-2998000D01*
X7252500Y-3048000D01*
X7302500Y-3098000D01*
X7556500Y-2844000D02*
X7606500Y-2794000D01*
X7556500Y-2744000D01*
X7506500Y-2794000D01*
X7556500Y-2844000D01*
X7556500Y-3098000D02*
X7606500Y-3048000D01*
X7556500Y-2998000D01*
X7506500Y-3048000D01*
X7556500Y-3098000D01*
X7810500Y-2844000D02*
X7860500Y-2794000D01*
X7810500Y-2744000D01*
X7760500Y-2794000D01*
X7810500Y-2844000D01*
X7810500Y-3098000D02*
X7860500Y-3048000D01*
X7810500Y-2998000D01*
X7760500Y-3048000D01*
X7810500Y-3098000D01*
X8064500Y-2844000D02*
X8114500Y-2794000D01*
X8064500Y-2744000D01*
X8014500Y-2794000D01*
X8064500Y-2844000D01*
X8064500Y-3098000D02*
X8114500Y-3048000D01*
X8064500Y-2998000D01*
X8014500Y-3048000D01*
X8064500Y-3098000D01*
X8318500Y-2844000D02*
X8368500Y-2794000D01*
X8318500Y-2744000D01*
X8268500Y-2794000D01*
X8318500Y-2844000D01*
X8318500Y-3098000D02*
X8368500Y-3048000D01*
X8318500Y-2998000D01*
X8268500Y-3048000D01*
X8318500Y-3098000D01*
X8572500Y-2844000D02*
X8622500Y-2794000D01*
X8572500Y-2744000D01*
X8522500Y-2794000D01*
X8572500Y-2844000D01*
X8572500Y-3098000D02*
X8622500Y-3048000D01*
X8572500Y-2998000D01*
X8522500Y-3048000D01*
X8572500Y-3098000D01*
X8826500Y-2844000D02*
X8876500Y-2794000D01*
X8826500Y-2744000D01*
X8776500Y-2794000D01*
X8826500Y-2844000D01*
X8826500Y-3098000D02*
X8876500Y-3048000D01*
X8826500Y-2998000D01*
X8776500Y-3048000D01*
X8826500Y-3098000D01*
X9080500Y-2844000D02*
X9130500Y-2794000D01*
X9080500Y-2744000D01*
X9030500Y-2794000D01*
X9080500Y-2844000D01*
X9080500Y-3098000D02*
X9130500Y-3048000D01*
X9080500Y-2998000D01*
X9030500Y-3048000D01*
X9080500Y-3098000D01*
X9334500Y-2844000D02*
X9384500Y-2794000D01*
X9334500Y-2744000D01*
X9284500Y-2794000D01*
X9334500Y-2844000D01*
X9334500Y-3098000D02*
X9384500Y-3048000D01*
X9334500Y-2998000D01*
X9284500Y-3048000D01*
X9334500Y-3098000D01*
X9588500Y-2844000D02*
X9638500Y-2794000D01*
X9588500Y-2744000D01*
X9538500Y-2794000D01*
X9588500Y-2844000D01*
X9588500Y-3098000D02*
X9638500Y-3048000D01*
X9588500Y-2998000D01*
X9538500Y-3048000D01*
X9588500Y-3098000D01*
X9842500Y-2844000D02*
X9892500Y-2794000D01*
X9842500Y-2744000D01*
X9792500Y-2794000D01*
X9842500Y-2844000D01*
X9842500Y-3098000D02*
X9892500Y-3048000D01*
X9842500Y-2998000D01*
X9792500Y-3048000D01*
X9842500Y-3098000D01*
X10096500Y-2844000D02*
X10146500Y-2794000D01*
X10096500Y-2744000D01*
X10046500Y-2794000D01*
X10096500Y-2844000D01*
X10096500Y-3098000D02*
X10146500Y-3048000D01*
X10096500Y-2998000D01*
X10046500Y-3048000D01*
X10096500Y-3098000D01*
X10350500Y-2844000D02*
X10400500Y-2794000D01*
X10350500Y-2744000D01*
X10300500Y-2794000D01*
X10350500Y-2844000D01*
X10350500Y-3098000D02*
X10400500Y-3048000D01*
X10350500Y-2998000D01*
X10300500Y-3048000D01*
X10350500Y-3098000D01*
X11557000Y-4304500D02*
X11607000Y-4254500D01*
X11557000Y-4204500D01*
X11507000Y-4254500D01*
X11557000Y-4304500D01*
X11557000Y-4558500D02*
X11607000Y-4508500D01*
X11557000Y-4458500D01*
X11507000Y-4508500D01*
X11557000Y-4558500D01*
X11557000Y-4812500D02*
X11607000Y-4762500D01*
X11557000Y-4712500D01*
X11507000Y-4762500D01*
X11557000Y-4812500D01*
X11557000Y-5066500D02*
X11607000Y-5016500D01*
X11557000Y-4966500D01*
X11507000Y-5016500D01*
X11557000Y-5066500D01*
X11557000Y-5320500D02*
X11607000Y-5270500D01*
X11557000Y-5220500D01*
X11507000Y-5270500D01*
X11557000Y-5320500D01*
X11557000Y-5574500D02*
X11607000Y-5524500D01*
X11557000Y-5474500D01*
X11507000Y-5524500D01*
X11557000Y-5574500D01*
X11557000Y-5828500D02*
X11607000Y-5778500D01*
X11557000Y-5728500D01*
X11507000Y-5778500D01*
X11557000Y-5828500D01*
X11557000Y-6082500D02*
X11607000Y-6032500D01*
X11557000Y-5982500D01*
X11507000Y-6032500D01*
X11557000Y-6082500D01*
X11557000Y-6336500D02*
X11607000Y-6286500D01*
X11557000Y-6236500D01*
X11507000Y-6286500D01*
X11557000Y-6336500D01*
X11557000Y-6590500D02*
X11607000Y-6540500D01*
X11557000Y-6490500D01*
X11507000Y-6540500D01*
X11557000Y-6590500D01*
X11557000Y-6844500D02*
X11607000Y-6794500D01*
X11557000Y-6744500D01*
X11507000Y-6794500D01*
X11557000Y-6844500D01*
X11557000Y-7098500D02*
X11607000Y-7048500D01*
X11557000Y-6998500D01*
X11507000Y-7048500D01*
X11557000Y-7098500D01*
X11557000Y-7352500D02*
X11607000Y-7302500D01*
X11557000Y-7252500D01*
X11507000Y-7302500D01*
X11557000Y-7352500D01*
X11557000Y-7606500D02*
X11607000Y-7556500D01*
X11557000Y-7506500D01*
X11507000Y-7556500D01*
X11557000Y-7606500D01*
X11557000Y-7860500D02*
X11607000Y-7810500D01*
X11557000Y-7760500D01*
X11507000Y-7810500D01*
X11557000Y-7860500D01*
X11557000Y-8114500D02*
X11607000Y-8064500D01*
X11557000Y-8014500D01*
X11507000Y-8064500D01*
X11557000Y-8114500D01*
X11557000Y-8368500D02*
X11607000Y-8318500D01*
X11557000Y-8268500D01*
X11507000Y-8318500D01*
X11557000Y-8368500D01*
X11557000Y-8622500D02*
X11607000Y-8572500D01*
X11557000Y-8522500D01*
X11507000Y-8572500D01*
X11557000Y-8622500D01*
X11557000Y-8876500D02*
X11607000Y-8826500D01*
X11557000Y-8776500D01*
X11507000Y-8826500D01*
X11557000Y-8876500D01*
X11557000Y-9130500D02*
X11607000Y-9080500D01*
X11557000Y-9030500D01*
X11507000Y-9080500D01*
X11557000Y-9130500D01*
X11811000Y-4304500D02*
X11861000Y-4254500D01*
X11811000Y-4204500D01*
X11761000Y-4254500D01*
X11811000Y-4304500D01*
X11811000Y-4558500D02*
X11861000Y-4508500D01*
X11811000Y-4458500D01*
X11761000Y-4508500D01*
X11811000Y-4558500D01*
X11811000Y-4812500D02*
X11861000Y-4762500D01*
X11811000Y-4712500D01*
X11761000Y-4762500D01*
X11811000Y-4812500D01*
X11811000Y-5066500D02*
X11861000Y-5016500D01*
X11811000Y-4966500D01*
X11761000Y-5016500D01*
X11811000Y-5066500D01*
X11811000Y-5320500D02*
X11861000Y-5270500D01*
X11811000Y-5220500D01*
X11761000Y-5270500D01*
X11811000Y-5320500D01*
X11811000Y-5574500D02*
X11861000Y-5524500D01*
X11811000Y-5474500D01*
X11761000Y-5524500D01*
X11811000Y-5574500D01*
X11811000Y-5828500D02*
X11861000Y-5778500D01*
X11811000Y-5728500D01*
X11761000Y-5778500D01*
X11811000Y-5828500D01*
X11811000Y-6082500D02*
X11861000Y-6032500D01*
X11811000Y-5982500D01*
X11761000Y-6032500D01*
X11811000Y-6082500D01*
X11811000Y-6336500D02*
X11861000Y-6286500D01*
X11811000Y-6236500D01*
X11761000Y-6286500D01*
X11811000Y-6336500D01*
X11811000Y-6590500D02*
X11861000Y-6540500D01*
X11811000Y-6490500D01*
X11761000Y-6540500D01*
X11811000Y-6590500D01*
X11811000Y-6844500D02*
X11861000Y-6794500D01*
X11811000Y-6744500D01*
X11761000Y-6794500D01*
X11811000Y-6844500D01*
X11811000Y-7098500D02*
X11861000Y-7048500D01*
X11811000Y-6998500D01*
X11761000Y-7048500D01*
X11811000Y-7098500D01*
X11811000Y-7352500D02*
X11861000Y-7302500D01*
X11811000Y-7252500D01*
X11761000Y-7302500D01*
X11811000Y-7352500D01*
X11811000Y-7606500D02*
X11861000Y-7556500D01*
X11811000Y-7506500D01*
X11761000Y-7556500D01*
X11811000Y-7606500D01*
X11811000Y-7860500D02*
X11861000Y-7810500D01*
X11811000Y-7760500D01*
X11761000Y-7810500D01*
X11811000Y-7860500D01*
X11811000Y-8114500D02*
X11861000Y-8064500D01*
X11811000Y-8014500D01*
X11761000Y-8064500D01*
X11811000Y-8114500D01*
X11811000Y-8368500D02*
X11861000Y-8318500D01*
X11811000Y-8268500D01*
X11761000Y-8318500D01*
X11811000Y-8368500D01*
X11811000Y-8622500D02*
X11861000Y-8572500D01*
X11811000Y-8522500D01*
X11761000Y-8572500D01*
X11811000Y-8622500D01*
X11811000Y-8876500D02*
X11861000Y-8826500D01*
X11811000Y-8776500D01*
X11761000Y-8826500D01*
X11811000Y-8876500D01*
X11811000Y-9130500D02*
X11861000Y-9080500D01*
X11811000Y-9030500D01*
X11761000Y-9080500D01*
X11811000Y-9130500D01*
D12*
X5322500Y-10561400D02*
X5502500Y-10741400D01*
X5502500Y-10561400D02*
X5322500Y-10741400D01*
X5502500Y-10651400D02*
G75*
G02*
X5322500Y-10651400I-90000J0D01*
G01*
X5322500Y-10651400D02*
G75*
G02*
X5502500Y-10651400I90000J0D01*
G01*
X5322500Y-11111400D02*
X5502500Y-11291400D01*
X5502500Y-11111400D02*
X5322500Y-11291400D01*
X5502500Y-11201400D02*
G75*
G02*
X5322500Y-11201400I-90000J0D01*
G01*
X5322500Y-11201400D02*
G75*
G02*
X5502500Y-11201400I90000J0D01*
G01*
X5742500Y-10561400D02*
X5922500Y-10741400D01*
X5922500Y-10561400D02*
X5742500Y-10741400D01*
X5922500Y-10651400D02*
G75*
G02*
X5742500Y-10651400I-90000J0D01*
G01*
X5742500Y-10651400D02*
G75*
G02*
X5922500Y-10651400I90000J0D01*
G01*
X5742500Y-11111400D02*
X5922500Y-11291400D01*
X5922500Y-11111400D02*
X5742500Y-11291400D01*
X5922500Y-11201400D02*
G75*
G02*
X5742500Y-11201400I-90000J0D01*
G01*
X5742500Y-11201400D02*
G75*
G02*
X5922500Y-11201400I90000J0D01*
G01*
X6162500Y-10561400D02*
X6342500Y-10741400D01*
X6342500Y-10561400D02*
X6162500Y-10741400D01*
X6342500Y-10651400D02*
G75*
G02*
X6162500Y-10651400I-90000J0D01*
G01*
X6162500Y-10651400D02*
G75*
G02*
X6342500Y-10651400I90000J0D01*
G01*
X6162500Y-11111400D02*
X6342500Y-11291400D01*
X6342500Y-11111400D02*
X6162500Y-11291400D01*
X6342500Y-11201400D02*
G75*
G02*
X6162500Y-11201400I-90000J0D01*
G01*
X6162500Y-11201400D02*
G75*
G02*
X6342500Y-11201400I90000J0D01*
G01*
X6582500Y-10561400D02*
X6762500Y-10741400D01*
X6762500Y-10561400D02*
X6582500Y-10741400D01*
X6762500Y-10651400D02*
G75*
G02*
X6582500Y-10651400I-90000J0D01*
G01*
X6582500Y-10651400D02*
G75*
G02*
X6762500Y-10651400I90000J0D01*
G01*
X6582500Y-11111400D02*
X6762500Y-11291400D01*
X6762500Y-11111400D02*
X6582500Y-11291400D01*
X6762500Y-11201400D02*
G75*
G02*
X6582500Y-11201400I-90000J0D01*
G01*
X6582500Y-11201400D02*
G75*
G02*
X6762500Y-11201400I90000J0D01*
G01*
X7002500Y-10561400D02*
X7182500Y-10741400D01*
X7182500Y-10561400D02*
X7002500Y-10741400D01*
X7182500Y-10651400D02*
G75*
G02*
X7002500Y-10651400I-90000J0D01*
G01*
X7002500Y-10651400D02*
G75*
G02*
X7182500Y-10651400I90000J0D01*
G01*
X7002500Y-11111400D02*
X7182500Y-11291400D01*
X7182500Y-11111400D02*
X7002500Y-11291400D01*
X7182500Y-11201400D02*
G75*
G02*
X7002500Y-11201400I-90000J0D01*
G01*
X7002500Y-11201400D02*
G75*
G02*
X7182500Y-11201400I90000J0D01*
G01*
X7422500Y-10561400D02*
X7602500Y-10741400D01*
X7602500Y-10561400D02*
X7422500Y-10741400D01*
X7602500Y-10651400D02*
G75*
G02*
X7422500Y-10651400I-90000J0D01*
G01*
X7422500Y-10651400D02*
G75*
G02*
X7602500Y-10651400I90000J0D01*
G01*
X7422500Y-11111400D02*
X7602500Y-11291400D01*
X7602500Y-11111400D02*
X7422500Y-11291400D01*
X7602500Y-11201400D02*
G75*
G02*
X7422500Y-11201400I-90000J0D01*
G01*
X7422500Y-11201400D02*
G75*
G02*
X7602500Y-11201400I90000J0D01*
G01*
X7842500Y-10561400D02*
X8022500Y-10741400D01*
X8022500Y-10561400D02*
X7842500Y-10741400D01*
X8022500Y-10651400D02*
G75*
G02*
X7842500Y-10651400I-90000J0D01*
G01*
X7842500Y-10651400D02*
G75*
G02*
X8022500Y-10651400I90000J0D01*
G01*
X7842500Y-11111400D02*
X8022500Y-11291400D01*
X8022500Y-11111400D02*
X7842500Y-11291400D01*
X8022500Y-11201400D02*
G75*
G02*
X7842500Y-11201400I-90000J0D01*
G01*
X7842500Y-11201400D02*
G75*
G02*
X8022500Y-11201400I90000J0D01*
G01*
X8262500Y-10561400D02*
X8442500Y-10741400D01*
X8442500Y-10561400D02*
X8262500Y-10741400D01*
X8442500Y-10651400D02*
G75*
G02*
X8262500Y-10651400I-90000J0D01*
G01*
X8262500Y-10651400D02*
G75*
G02*
X8442500Y-10651400I90000J0D01*
G01*
X8262500Y-11111400D02*
X8442500Y-11291400D01*
X8442500Y-11111400D02*
X8262500Y-11291400D01*
X8442500Y-11201400D02*
G75*
G02*
X8262500Y-11201400I-90000J0D01*
G01*
X8262500Y-11201400D02*
G75*
G02*
X8442500Y-11201400I90000J0D01*
G01*
X8682500Y-10561400D02*
X8862500Y-10741400D01*
X8862500Y-10561400D02*
X8682500Y-10741400D01*
X8862500Y-10651400D02*
G75*
G02*
X8682500Y-10651400I-90000J0D01*
G01*
X8682500Y-10651400D02*
G75*
G02*
X8862500Y-10651400I90000J0D01*
G01*
X8682500Y-11111400D02*
X8862500Y-11291400D01*
X8862500Y-11111400D02*
X8682500Y-11291400D01*
X8862500Y-11201400D02*
G75*
G02*
X8682500Y-11201400I-90000J0D01*
G01*
X8682500Y-11201400D02*
G75*
G02*
X8862500Y-11201400I90000J0D01*
G01*
X9102500Y-10561400D02*
X9282500Y-10741400D01*
X9282500Y-10561400D02*
X9102500Y-10741400D01*
X9282500Y-10651400D02*
G75*
G02*
X9102500Y-10651400I-90000J0D01*
G01*
X9102500Y-10651400D02*
G75*
G02*
X9282500Y-10651400I90000J0D01*
G01*
X9102500Y-11111400D02*
X9282500Y-11291400D01*
X9282500Y-11111400D02*
X9102500Y-11291400D01*
X9282500Y-11201400D02*
G75*
G02*
X9102500Y-11201400I-90000J0D01*
G01*
X9102500Y-11201400D02*
G75*
G02*
X9282500Y-11201400I90000J0D01*
G01*
D13*
X2732500Y-2732500D02*
X3052500Y-3052500D01*
X3052500Y-2732500D02*
X2732500Y-3052500D01*
X2892500Y-2732500D02*
X2892500Y-3052500D01*
X2732500Y-2892500D02*
X3052500Y-2892500D01*
X2732500Y-11552500D02*
X3052500Y-11872500D01*
X3052500Y-11552500D02*
X2732500Y-11872500D01*
X2892500Y-11552500D02*
X2892500Y-11872500D01*
X2732500Y-11712500D02*
X3052500Y-11712500D01*
X11552500Y-2732500D02*
X11872500Y-3052500D01*
X11872500Y-2732500D02*
X11552500Y-3052500D01*
X11712500Y-2732500D02*
X11712500Y-3052500D01*
X11552500Y-2892500D02*
X11872500Y-2892500D01*
X11552500Y-11552500D02*
X11872500Y-11872500D01*
X11872500Y-11552500D02*
X11552500Y-11872500D01*
X11712500Y-11552500D02*
X11712500Y-11872500D01*
X11552500Y-11712500D02*
X11872500Y-11712500D01*
D11*
X2795777Y-12381484D02*
X2795777Y-12181484D01*
X2795777Y-12181484D02*
X2843396Y-12181484D01*
X2843396Y-12181484D02*
X2871967Y-12191008D01*
X2871967Y-12191008D02*
X2891015Y-12210055D01*
X2891015Y-12210055D02*
X2900539Y-12229103D01*
X2900539Y-12229103D02*
X2910062Y-12267198D01*
X2910062Y-12267198D02*
X2910062Y-12295769D01*
X2910062Y-12295769D02*
X2900539Y-12333865D01*
X2900539Y-12333865D02*
X2891015Y-12352912D01*
X2891015Y-12352912D02*
X2871967Y-12371960D01*
X2871967Y-12371960D02*
X2843396Y-12381484D01*
X2843396Y-12381484D02*
X2795777Y-12381484D01*
X2995777Y-12381484D02*
X2995777Y-12248150D01*
X2995777Y-12286246D02*
X3005301Y-12267198D01*
X3005301Y-12267198D02*
X3014824Y-12257674D01*
X3014824Y-12257674D02*
X3033872Y-12248150D01*
X3033872Y-12248150D02*
X3052920Y-12248150D01*
X3119586Y-12381484D02*
X3119586Y-12248150D01*
X3119586Y-12181484D02*
X3110062Y-12191008D01*
X3110062Y-12191008D02*
X3119586Y-12200531D01*
X3119586Y-12200531D02*
X3129110Y-12191008D01*
X3129110Y-12191008D02*
X3119586Y-12181484D01*
X3119586Y-12181484D02*
X3119586Y-12200531D01*
X3243396Y-12381484D02*
X3224348Y-12371960D01*
X3224348Y-12371960D02*
X3214824Y-12352912D01*
X3214824Y-12352912D02*
X3214824Y-12181484D01*
X3348158Y-12381484D02*
X3329110Y-12371960D01*
X3329110Y-12371960D02*
X3319586Y-12352912D01*
X3319586Y-12352912D02*
X3319586Y-12181484D01*
X3576729Y-12381484D02*
X3576729Y-12181484D01*
X3576729Y-12181484D02*
X3643396Y-12324341D01*
X3643396Y-12324341D02*
X3710062Y-12181484D01*
X3710062Y-12181484D02*
X3710062Y-12381484D01*
X3891015Y-12381484D02*
X3891015Y-12276722D01*
X3891015Y-12276722D02*
X3881491Y-12257674D01*
X3881491Y-12257674D02*
X3862443Y-12248150D01*
X3862443Y-12248150D02*
X3824348Y-12248150D01*
X3824348Y-12248150D02*
X3805301Y-12257674D01*
X3891015Y-12371960D02*
X3871967Y-12381484D01*
X3871967Y-12381484D02*
X3824348Y-12381484D01*
X3824348Y-12381484D02*
X3805301Y-12371960D01*
X3805301Y-12371960D02*
X3795777Y-12352912D01*
X3795777Y-12352912D02*
X3795777Y-12333865D01*
X3795777Y-12333865D02*
X3805301Y-12314817D01*
X3805301Y-12314817D02*
X3824348Y-12305293D01*
X3824348Y-12305293D02*
X3871967Y-12305293D01*
X3871967Y-12305293D02*
X3891015Y-12295769D01*
X3986253Y-12248150D02*
X3986253Y-12448150D01*
X3986253Y-12257674D02*
X4005301Y-12248150D01*
X4005301Y-12248150D02*
X4043396Y-12248150D01*
X4043396Y-12248150D02*
X4062443Y-12257674D01*
X4062443Y-12257674D02*
X4071967Y-12267198D01*
X4071967Y-12267198D02*
X4081491Y-12286246D01*
X4081491Y-12286246D02*
X4081491Y-12343388D01*
X4081491Y-12343388D02*
X4071967Y-12362436D01*
X4071967Y-12362436D02*
X4062443Y-12371960D01*
X4062443Y-12371960D02*
X4043396Y-12381484D01*
X4043396Y-12381484D02*
X4005301Y-12381484D01*
X4005301Y-12381484D02*
X3986253Y-12371960D01*
X4167205Y-12362436D02*
X4176729Y-12371960D01*
X4176729Y-12371960D02*
X4167205Y-12381484D01*
X4167205Y-12381484D02*
X4157682Y-12371960D01*
X4157682Y-12371960D02*
X4167205Y-12362436D01*
X4167205Y-12362436D02*
X4167205Y-12381484D01*
X4167205Y-12257674D02*
X4176729Y-12267198D01*
X4176729Y-12267198D02*
X4167205Y-12276722D01*
X4167205Y-12276722D02*
X4157682Y-12267198D01*
X4157682Y-12267198D02*
X4167205Y-12257674D01*
X4167205Y-12257674D02*
X4167205Y-12276722D01*
D10*
X2505000Y-12695000D02*
X2535000Y-12725000D01*
X2535000Y-12695000D02*
X2505000Y-12725000D01*
D11*
X2833872Y-12601484D02*
X2852920Y-12601484D01*
X2852920Y-12601484D02*
X2871967Y-12611008D01*
X2871967Y-12611008D02*
X2881491Y-12620531D01*
X2881491Y-12620531D02*
X2891015Y-12639579D01*
X2891015Y-12639579D02*
X2900539Y-12677674D01*
X2900539Y-12677674D02*
X2900539Y-12725293D01*
X2900539Y-12725293D02*
X2891015Y-12763388D01*
X2891015Y-12763388D02*
X2881491Y-12782436D01*
X2881491Y-12782436D02*
X2871967Y-12791960D01*
X2871967Y-12791960D02*
X2852920Y-12801484D01*
X2852920Y-12801484D02*
X2833872Y-12801484D01*
X2833872Y-12801484D02*
X2814824Y-12791960D01*
X2814824Y-12791960D02*
X2805301Y-12782436D01*
X2805301Y-12782436D02*
X2795777Y-12763388D01*
X2795777Y-12763388D02*
X2786253Y-12725293D01*
X2786253Y-12725293D02*
X2786253Y-12677674D01*
X2786253Y-12677674D02*
X2795777Y-12639579D01*
X2795777Y-12639579D02*
X2805301Y-12620531D01*
X2805301Y-12620531D02*
X2814824Y-12611008D01*
X2814824Y-12611008D02*
X2833872Y-12601484D01*
X2986253Y-12782436D02*
X2995777Y-12791960D01*
X2995777Y-12791960D02*
X2986253Y-12801484D01*
X2986253Y-12801484D02*
X2976729Y-12791960D01*
X2976729Y-12791960D02*
X2986253Y-12782436D01*
X2986253Y-12782436D02*
X2986253Y-12801484D01*
X3062443Y-12601484D02*
X3186253Y-12601484D01*
X3186253Y-12601484D02*
X3119586Y-12677674D01*
X3119586Y-12677674D02*
X3148158Y-12677674D01*
X3148158Y-12677674D02*
X3167205Y-12687198D01*
X3167205Y-12687198D02*
X3176729Y-12696722D01*
X3176729Y-12696722D02*
X3186253Y-12715769D01*
X3186253Y-12715769D02*
X3186253Y-12763388D01*
X3186253Y-12763388D02*
X3176729Y-12782436D01*
X3176729Y-12782436D02*
X3167205Y-12791960D01*
X3167205Y-12791960D02*
X3148158Y-12801484D01*
X3148158Y-12801484D02*
X3091015Y-12801484D01*
X3091015Y-12801484D02*
X3071967Y-12791960D01*
X3071967Y-12791960D02*
X3062443Y-12782436D01*
X3310062Y-12601484D02*
X3329110Y-12601484D01*
X3329110Y-12601484D02*
X3348158Y-12611008D01*
X3348158Y-12611008D02*
X3357682Y-12620531D01*
X3357682Y-12620531D02*
X3367205Y-12639579D01*
X3367205Y-12639579D02*
X3376729Y-12677674D01*
X3376729Y-12677674D02*
X3376729Y-12725293D01*
X3376729Y-12725293D02*
X3367205Y-12763388D01*
X3367205Y-12763388D02*
X3357682Y-12782436D01*
X3357682Y-12782436D02*
X3348158Y-12791960D01*
X3348158Y-12791960D02*
X3329110Y-12801484D01*
X3329110Y-12801484D02*
X3310062Y-12801484D01*
X3310062Y-12801484D02*
X3291015Y-12791960D01*
X3291015Y-12791960D02*
X3281491Y-12782436D01*
X3281491Y-12782436D02*
X3271967Y-12763388D01*
X3271967Y-12763388D02*
X3262443Y-12725293D01*
X3262443Y-12725293D02*
X3262443Y-12677674D01*
X3262443Y-12677674D02*
X3271967Y-12639579D01*
X3271967Y-12639579D02*
X3281491Y-12620531D01*
X3281491Y-12620531D02*
X3291015Y-12611008D01*
X3291015Y-12611008D02*
X3310062Y-12601484D01*
X3500539Y-12601484D02*
X3519586Y-12601484D01*
X3519586Y-12601484D02*
X3538634Y-12611008D01*
X3538634Y-12611008D02*
X3548158Y-12620531D01*
X3548158Y-12620531D02*
X3557682Y-12639579D01*
X3557682Y-12639579D02*
X3567205Y-12677674D01*
X3567205Y-12677674D02*
X3567205Y-12725293D01*
X3567205Y-12725293D02*
X3557682Y-12763388D01*
X3557682Y-12763388D02*
X3548158Y-12782436D01*
X3548158Y-12782436D02*
X3538634Y-12791960D01*
X3538634Y-12791960D02*
X3519586Y-12801484D01*
X3519586Y-12801484D02*
X3500539Y-12801484D01*
X3500539Y-12801484D02*
X3481491Y-12791960D01*
X3481491Y-12791960D02*
X3471967Y-12782436D01*
X3471967Y-12782436D02*
X3462443Y-12763388D01*
X3462443Y-12763388D02*
X3452920Y-12725293D01*
X3452920Y-12725293D02*
X3452920Y-12677674D01*
X3452920Y-12677674D02*
X3462443Y-12639579D01*
X3462443Y-12639579D02*
X3471967Y-12620531D01*
X3471967Y-12620531D02*
X3481491Y-12611008D01*
X3481491Y-12611008D02*
X3500539Y-12601484D01*
X3652920Y-12801484D02*
X3652920Y-12668150D01*
X3652920Y-12687198D02*
X3662443Y-12677674D01*
X3662443Y-12677674D02*
X3681491Y-12668150D01*
X3681491Y-12668150D02*
X3710063Y-12668150D01*
X3710063Y-12668150D02*
X3729110Y-12677674D01*
X3729110Y-12677674D02*
X3738634Y-12696722D01*
X3738634Y-12696722D02*
X3738634Y-12801484D01*
X3738634Y-12696722D02*
X3748158Y-12677674D01*
X3748158Y-12677674D02*
X3767205Y-12668150D01*
X3767205Y-12668150D02*
X3795777Y-12668150D01*
X3795777Y-12668150D02*
X3814824Y-12677674D01*
X3814824Y-12677674D02*
X3824348Y-12696722D01*
X3824348Y-12696722D02*
X3824348Y-12801484D01*
X3919586Y-12801484D02*
X3919586Y-12668150D01*
X3919586Y-12687198D02*
X3929110Y-12677674D01*
X3929110Y-12677674D02*
X3948158Y-12668150D01*
X3948158Y-12668150D02*
X3976729Y-12668150D01*
X3976729Y-12668150D02*
X3995777Y-12677674D01*
X3995777Y-12677674D02*
X4005301Y-12696722D01*
X4005301Y-12696722D02*
X4005301Y-12801484D01*
X4005301Y-12696722D02*
X4014824Y-12677674D01*
X4014824Y-12677674D02*
X4033872Y-12668150D01*
X4033872Y-12668150D02*
X4062443Y-12668150D01*
X4062443Y-12668150D02*
X4081491Y-12677674D01*
X4081491Y-12677674D02*
X4091015Y-12696722D01*
X4091015Y-12696722D02*
X4091015Y-12801484D01*
X4481491Y-12591960D02*
X4310063Y-12849103D01*
X4738634Y-12601484D02*
X4757682Y-12601484D01*
X4757682Y-12601484D02*
X4776729Y-12611008D01*
X4776729Y-12611008D02*
X4786253Y-12620531D01*
X4786253Y-12620531D02*
X4795777Y-12639579D01*
X4795777Y-12639579D02*
X4805301Y-12677674D01*
X4805301Y-12677674D02*
X4805301Y-12725293D01*
X4805301Y-12725293D02*
X4795777Y-12763388D01*
X4795777Y-12763388D02*
X4786253Y-12782436D01*
X4786253Y-12782436D02*
X4776729Y-12791960D01*
X4776729Y-12791960D02*
X4757682Y-12801484D01*
X4757682Y-12801484D02*
X4738634Y-12801484D01*
X4738634Y-12801484D02*
X4719587Y-12791960D01*
X4719587Y-12791960D02*
X4710063Y-12782436D01*
X4710063Y-12782436D02*
X4700539Y-12763388D01*
X4700539Y-12763388D02*
X4691015Y-12725293D01*
X4691015Y-12725293D02*
X4691015Y-12677674D01*
X4691015Y-12677674D02*
X4700539Y-12639579D01*
X4700539Y-12639579D02*
X4710063Y-12620531D01*
X4710063Y-12620531D02*
X4719587Y-12611008D01*
X4719587Y-12611008D02*
X4738634Y-12601484D01*
X4891015Y-12782436D02*
X4900539Y-12791960D01*
X4900539Y-12791960D02*
X4891015Y-12801484D01*
X4891015Y-12801484D02*
X4881491Y-12791960D01*
X4881491Y-12791960D02*
X4891015Y-12782436D01*
X4891015Y-12782436D02*
X4891015Y-12801484D01*
X5024348Y-12601484D02*
X5043396Y-12601484D01*
X5043396Y-12601484D02*
X5062444Y-12611008D01*
X5062444Y-12611008D02*
X5071968Y-12620531D01*
X5071968Y-12620531D02*
X5081491Y-12639579D01*
X5081491Y-12639579D02*
X5091015Y-12677674D01*
X5091015Y-12677674D02*
X5091015Y-12725293D01*
X5091015Y-12725293D02*
X5081491Y-12763388D01*
X5081491Y-12763388D02*
X5071968Y-12782436D01*
X5071968Y-12782436D02*
X5062444Y-12791960D01*
X5062444Y-12791960D02*
X5043396Y-12801484D01*
X5043396Y-12801484D02*
X5024348Y-12801484D01*
X5024348Y-12801484D02*
X5005301Y-12791960D01*
X5005301Y-12791960D02*
X4995777Y-12782436D01*
X4995777Y-12782436D02*
X4986253Y-12763388D01*
X4986253Y-12763388D02*
X4976729Y-12725293D01*
X4976729Y-12725293D02*
X4976729Y-12677674D01*
X4976729Y-12677674D02*
X4986253Y-12639579D01*
X4986253Y-12639579D02*
X4995777Y-12620531D01*
X4995777Y-12620531D02*
X5005301Y-12611008D01*
X5005301Y-12611008D02*
X5024348Y-12601484D01*
X5281491Y-12801484D02*
X5167206Y-12801484D01*
X5224348Y-12801484D02*
X5224348Y-12601484D01*
X5224348Y-12601484D02*
X5205301Y-12630055D01*
X5205301Y-12630055D02*
X5186253Y-12649103D01*
X5186253Y-12649103D02*
X5167206Y-12658627D01*
X5471968Y-12801484D02*
X5357682Y-12801484D01*
X5414825Y-12801484D02*
X5414825Y-12601484D01*
X5414825Y-12601484D02*
X5395777Y-12630055D01*
X5395777Y-12630055D02*
X5376729Y-12649103D01*
X5376729Y-12649103D02*
X5357682Y-12658627D01*
X5586253Y-12687198D02*
X5567206Y-12677674D01*
X5567206Y-12677674D02*
X5557682Y-12668150D01*
X5557682Y-12668150D02*
X5548158Y-12649103D01*
X5548158Y-12649103D02*
X5548158Y-12639579D01*
X5548158Y-12639579D02*
X5557682Y-12620531D01*
X5557682Y-12620531D02*
X5567206Y-12611008D01*
X5567206Y-12611008D02*
X5586253Y-12601484D01*
X5586253Y-12601484D02*
X5624348Y-12601484D01*
X5624348Y-12601484D02*
X5643396Y-12611008D01*
X5643396Y-12611008D02*
X5652920Y-12620531D01*
X5652920Y-12620531D02*
X5662444Y-12639579D01*
X5662444Y-12639579D02*
X5662444Y-12649103D01*
X5662444Y-12649103D02*
X5652920Y-12668150D01*
X5652920Y-12668150D02*
X5643396Y-12677674D01*
X5643396Y-12677674D02*
X5624348Y-12687198D01*
X5624348Y-12687198D02*
X5586253Y-12687198D01*
X5586253Y-12687198D02*
X5567206Y-12696722D01*
X5567206Y-12696722D02*
X5557682Y-12706246D01*
X5557682Y-12706246D02*
X5548158Y-12725293D01*
X5548158Y-12725293D02*
X5548158Y-12763388D01*
X5548158Y-12763388D02*
X5557682Y-12782436D01*
X5557682Y-12782436D02*
X5567206Y-12791960D01*
X5567206Y-12791960D02*
X5586253Y-12801484D01*
X5586253Y-12801484D02*
X5624348Y-12801484D01*
X5624348Y-12801484D02*
X5643396Y-12791960D01*
X5643396Y-12791960D02*
X5652920Y-12782436D01*
X5652920Y-12782436D02*
X5662444Y-12763388D01*
X5662444Y-12763388D02*
X5662444Y-12725293D01*
X5662444Y-12725293D02*
X5652920Y-12706246D01*
X5652920Y-12706246D02*
X5643396Y-12696722D01*
X5643396Y-12696722D02*
X5624348Y-12687198D01*
X5738634Y-12601484D02*
X5738634Y-12639579D01*
X5814825Y-12601484D02*
X5814825Y-12639579D01*
X6110063Y-12877674D02*
X6100539Y-12868150D01*
X6100539Y-12868150D02*
X6081491Y-12839579D01*
X6081491Y-12839579D02*
X6071968Y-12820531D01*
X6071968Y-12820531D02*
X6062444Y-12791960D01*
X6062444Y-12791960D02*
X6052920Y-12744341D01*
X6052920Y-12744341D02*
X6052920Y-12706246D01*
X6052920Y-12706246D02*
X6062444Y-12658627D01*
X6062444Y-12658627D02*
X6071968Y-12630055D01*
X6071968Y-12630055D02*
X6081491Y-12611008D01*
X6081491Y-12611008D02*
X6100539Y-12582436D01*
X6100539Y-12582436D02*
X6110063Y-12572912D01*
X6291015Y-12801484D02*
X6176729Y-12801484D01*
X6233872Y-12801484D02*
X6233872Y-12601484D01*
X6233872Y-12601484D02*
X6214825Y-12630055D01*
X6214825Y-12630055D02*
X6195777Y-12649103D01*
X6195777Y-12649103D02*
X6176729Y-12658627D01*
X6367206Y-12620531D02*
X6376729Y-12611008D01*
X6376729Y-12611008D02*
X6395777Y-12601484D01*
X6395777Y-12601484D02*
X6443396Y-12601484D01*
X6443396Y-12601484D02*
X6462444Y-12611008D01*
X6462444Y-12611008D02*
X6471968Y-12620531D01*
X6471968Y-12620531D02*
X6481491Y-12639579D01*
X6481491Y-12639579D02*
X6481491Y-12658627D01*
X6481491Y-12658627D02*
X6471968Y-12687198D01*
X6471968Y-12687198D02*
X6357682Y-12801484D01*
X6357682Y-12801484D02*
X6481491Y-12801484D01*
X6719587Y-12801484D02*
X6719587Y-12601484D01*
X6805301Y-12801484D02*
X6805301Y-12696722D01*
X6805301Y-12696722D02*
X6795777Y-12677674D01*
X6795777Y-12677674D02*
X6776730Y-12668150D01*
X6776730Y-12668150D02*
X6748158Y-12668150D01*
X6748158Y-12668150D02*
X6729110Y-12677674D01*
X6729110Y-12677674D02*
X6719587Y-12687198D01*
X6929110Y-12801484D02*
X6910063Y-12791960D01*
X6910063Y-12791960D02*
X6900539Y-12782436D01*
X6900539Y-12782436D02*
X6891015Y-12763388D01*
X6891015Y-12763388D02*
X6891015Y-12706246D01*
X6891015Y-12706246D02*
X6900539Y-12687198D01*
X6900539Y-12687198D02*
X6910063Y-12677674D01*
X6910063Y-12677674D02*
X6929110Y-12668150D01*
X6929110Y-12668150D02*
X6957682Y-12668150D01*
X6957682Y-12668150D02*
X6976730Y-12677674D01*
X6976730Y-12677674D02*
X6986253Y-12687198D01*
X6986253Y-12687198D02*
X6995777Y-12706246D01*
X6995777Y-12706246D02*
X6995777Y-12763388D01*
X6995777Y-12763388D02*
X6986253Y-12782436D01*
X6986253Y-12782436D02*
X6976730Y-12791960D01*
X6976730Y-12791960D02*
X6957682Y-12801484D01*
X6957682Y-12801484D02*
X6929110Y-12801484D01*
X7110063Y-12801484D02*
X7091015Y-12791960D01*
X7091015Y-12791960D02*
X7081491Y-12772912D01*
X7081491Y-12772912D02*
X7081491Y-12601484D01*
X7262444Y-12791960D02*
X7243396Y-12801484D01*
X7243396Y-12801484D02*
X7205301Y-12801484D01*
X7205301Y-12801484D02*
X7186253Y-12791960D01*
X7186253Y-12791960D02*
X7176730Y-12772912D01*
X7176730Y-12772912D02*
X7176730Y-12696722D01*
X7176730Y-12696722D02*
X7186253Y-12677674D01*
X7186253Y-12677674D02*
X7205301Y-12668150D01*
X7205301Y-12668150D02*
X7243396Y-12668150D01*
X7243396Y-12668150D02*
X7262444Y-12677674D01*
X7262444Y-12677674D02*
X7271968Y-12696722D01*
X7271968Y-12696722D02*
X7271968Y-12715769D01*
X7271968Y-12715769D02*
X7176730Y-12734817D01*
X7348158Y-12791960D02*
X7367206Y-12801484D01*
X7367206Y-12801484D02*
X7405301Y-12801484D01*
X7405301Y-12801484D02*
X7424349Y-12791960D01*
X7424349Y-12791960D02*
X7433872Y-12772912D01*
X7433872Y-12772912D02*
X7433872Y-12763388D01*
X7433872Y-12763388D02*
X7424349Y-12744341D01*
X7424349Y-12744341D02*
X7405301Y-12734817D01*
X7405301Y-12734817D02*
X7376730Y-12734817D01*
X7376730Y-12734817D02*
X7357682Y-12725293D01*
X7357682Y-12725293D02*
X7348158Y-12706246D01*
X7348158Y-12706246D02*
X7348158Y-12696722D01*
X7348158Y-12696722D02*
X7357682Y-12677674D01*
X7357682Y-12677674D02*
X7376730Y-12668150D01*
X7376730Y-12668150D02*
X7405301Y-12668150D01*
X7405301Y-12668150D02*
X7424349Y-12677674D01*
X7500539Y-12877674D02*
X7510063Y-12868150D01*
X7510063Y-12868150D02*
X7529111Y-12839579D01*
X7529111Y-12839579D02*
X7538634Y-12820531D01*
X7538634Y-12820531D02*
X7548158Y-12791960D01*
X7548158Y-12791960D02*
X7557682Y-12744341D01*
X7557682Y-12744341D02*
X7557682Y-12706246D01*
X7557682Y-12706246D02*
X7548158Y-12658627D01*
X7548158Y-12658627D02*
X7538634Y-12630055D01*
X7538634Y-12630055D02*
X7529111Y-12611008D01*
X7529111Y-12611008D02*
X7510063Y-12582436D01*
X7510063Y-12582436D02*
X7500539Y-12572912D01*
D10*
X2535000Y-12974000D02*
G75*
G02*
X2465000Y-12974000I-35000J0D01*
G01*
X2465000Y-12974000D02*
G75*
G02*
X2535000Y-12974000I35000J0D01*
G01*
D11*
X2833872Y-12865484D02*
X2852920Y-12865484D01*
X2852920Y-12865484D02*
X2871967Y-12875008D01*
X2871967Y-12875008D02*
X2881491Y-12884531D01*
X2881491Y-12884531D02*
X2891015Y-12903579D01*
X2891015Y-12903579D02*
X2900539Y-12941674D01*
X2900539Y-12941674D02*
X2900539Y-12989293D01*
X2900539Y-12989293D02*
X2891015Y-13027388D01*
X2891015Y-13027388D02*
X2881491Y-13046436D01*
X2881491Y-13046436D02*
X2871967Y-13055960D01*
X2871967Y-13055960D02*
X2852920Y-13065484D01*
X2852920Y-13065484D02*
X2833872Y-13065484D01*
X2833872Y-13065484D02*
X2814824Y-13055960D01*
X2814824Y-13055960D02*
X2805301Y-13046436D01*
X2805301Y-13046436D02*
X2795777Y-13027388D01*
X2795777Y-13027388D02*
X2786253Y-12989293D01*
X2786253Y-12989293D02*
X2786253Y-12941674D01*
X2786253Y-12941674D02*
X2795777Y-12903579D01*
X2795777Y-12903579D02*
X2805301Y-12884531D01*
X2805301Y-12884531D02*
X2814824Y-12875008D01*
X2814824Y-12875008D02*
X2833872Y-12865484D01*
X2986253Y-13046436D02*
X2995777Y-13055960D01*
X2995777Y-13055960D02*
X2986253Y-13065484D01*
X2986253Y-13065484D02*
X2976729Y-13055960D01*
X2976729Y-13055960D02*
X2986253Y-13046436D01*
X2986253Y-13046436D02*
X2986253Y-13065484D01*
X3062443Y-12865484D02*
X3195777Y-12865484D01*
X3195777Y-12865484D02*
X3110062Y-13065484D01*
X3310062Y-12865484D02*
X3329110Y-12865484D01*
X3329110Y-12865484D02*
X3348158Y-12875008D01*
X3348158Y-12875008D02*
X3357682Y-12884531D01*
X3357682Y-12884531D02*
X3367205Y-12903579D01*
X3367205Y-12903579D02*
X3376729Y-12941674D01*
X3376729Y-12941674D02*
X3376729Y-12989293D01*
X3376729Y-12989293D02*
X3367205Y-13027388D01*
X3367205Y-13027388D02*
X3357682Y-13046436D01*
X3357682Y-13046436D02*
X3348158Y-13055960D01*
X3348158Y-13055960D02*
X3329110Y-13065484D01*
X3329110Y-13065484D02*
X3310062Y-13065484D01*
X3310062Y-13065484D02*
X3291015Y-13055960D01*
X3291015Y-13055960D02*
X3281491Y-13046436D01*
X3281491Y-13046436D02*
X3271967Y-13027388D01*
X3271967Y-13027388D02*
X3262443Y-12989293D01*
X3262443Y-12989293D02*
X3262443Y-12941674D01*
X3262443Y-12941674D02*
X3271967Y-12903579D01*
X3271967Y-12903579D02*
X3281491Y-12884531D01*
X3281491Y-12884531D02*
X3291015Y-12875008D01*
X3291015Y-12875008D02*
X3310062Y-12865484D01*
X3500539Y-12865484D02*
X3519586Y-12865484D01*
X3519586Y-12865484D02*
X3538634Y-12875008D01*
X3538634Y-12875008D02*
X3548158Y-12884531D01*
X3548158Y-12884531D02*
X3557682Y-12903579D01*
X3557682Y-12903579D02*
X3567205Y-12941674D01*
X3567205Y-12941674D02*
X3567205Y-12989293D01*
X3567205Y-12989293D02*
X3557682Y-13027388D01*
X3557682Y-13027388D02*
X3548158Y-13046436D01*
X3548158Y-13046436D02*
X3538634Y-13055960D01*
X3538634Y-13055960D02*
X3519586Y-13065484D01*
X3519586Y-13065484D02*
X3500539Y-13065484D01*
X3500539Y-13065484D02*
X3481491Y-13055960D01*
X3481491Y-13055960D02*
X3471967Y-13046436D01*
X3471967Y-13046436D02*
X3462443Y-13027388D01*
X3462443Y-13027388D02*
X3452920Y-12989293D01*
X3452920Y-12989293D02*
X3452920Y-12941674D01*
X3452920Y-12941674D02*
X3462443Y-12903579D01*
X3462443Y-12903579D02*
X3471967Y-12884531D01*
X3471967Y-12884531D02*
X3481491Y-12875008D01*
X3481491Y-12875008D02*
X3500539Y-12865484D01*
X3652920Y-13065484D02*
X3652920Y-12932150D01*
X3652920Y-12951198D02*
X3662443Y-12941674D01*
X3662443Y-12941674D02*
X3681491Y-12932150D01*
X3681491Y-12932150D02*
X3710063Y-12932150D01*
X3710063Y-12932150D02*
X3729110Y-12941674D01*
X3729110Y-12941674D02*
X3738634Y-12960722D01*
X3738634Y-12960722D02*
X3738634Y-13065484D01*
X3738634Y-12960722D02*
X3748158Y-12941674D01*
X3748158Y-12941674D02*
X3767205Y-12932150D01*
X3767205Y-12932150D02*
X3795777Y-12932150D01*
X3795777Y-12932150D02*
X3814824Y-12941674D01*
X3814824Y-12941674D02*
X3824348Y-12960722D01*
X3824348Y-12960722D02*
X3824348Y-13065484D01*
X3919586Y-13065484D02*
X3919586Y-12932150D01*
X3919586Y-12951198D02*
X3929110Y-12941674D01*
X3929110Y-12941674D02*
X3948158Y-12932150D01*
X3948158Y-12932150D02*
X3976729Y-12932150D01*
X3976729Y-12932150D02*
X3995777Y-12941674D01*
X3995777Y-12941674D02*
X4005301Y-12960722D01*
X4005301Y-12960722D02*
X4005301Y-13065484D01*
X4005301Y-12960722D02*
X4014824Y-12941674D01*
X4014824Y-12941674D02*
X4033872Y-12932150D01*
X4033872Y-12932150D02*
X4062443Y-12932150D01*
X4062443Y-12932150D02*
X4081491Y-12941674D01*
X4081491Y-12941674D02*
X4091015Y-12960722D01*
X4091015Y-12960722D02*
X4091015Y-13065484D01*
X4481491Y-12855960D02*
X4310063Y-13113103D01*
X4738634Y-12865484D02*
X4757682Y-12865484D01*
X4757682Y-12865484D02*
X4776729Y-12875008D01*
X4776729Y-12875008D02*
X4786253Y-12884531D01*
X4786253Y-12884531D02*
X4795777Y-12903579D01*
X4795777Y-12903579D02*
X4805301Y-12941674D01*
X4805301Y-12941674D02*
X4805301Y-12989293D01*
X4805301Y-12989293D02*
X4795777Y-13027388D01*
X4795777Y-13027388D02*
X4786253Y-13046436D01*
X4786253Y-13046436D02*
X4776729Y-13055960D01*
X4776729Y-13055960D02*
X4757682Y-13065484D01*
X4757682Y-13065484D02*
X4738634Y-13065484D01*
X4738634Y-13065484D02*
X4719587Y-13055960D01*
X4719587Y-13055960D02*
X4710063Y-13046436D01*
X4710063Y-13046436D02*
X4700539Y-13027388D01*
X4700539Y-13027388D02*
X4691015Y-12989293D01*
X4691015Y-12989293D02*
X4691015Y-12941674D01*
X4691015Y-12941674D02*
X4700539Y-12903579D01*
X4700539Y-12903579D02*
X4710063Y-12884531D01*
X4710063Y-12884531D02*
X4719587Y-12875008D01*
X4719587Y-12875008D02*
X4738634Y-12865484D01*
X4891015Y-13046436D02*
X4900539Y-13055960D01*
X4900539Y-13055960D02*
X4891015Y-13065484D01*
X4891015Y-13065484D02*
X4881491Y-13055960D01*
X4881491Y-13055960D02*
X4891015Y-13046436D01*
X4891015Y-13046436D02*
X4891015Y-13065484D01*
X5024348Y-12865484D02*
X5043396Y-12865484D01*
X5043396Y-12865484D02*
X5062444Y-12875008D01*
X5062444Y-12875008D02*
X5071968Y-12884531D01*
X5071968Y-12884531D02*
X5081491Y-12903579D01*
X5081491Y-12903579D02*
X5091015Y-12941674D01*
X5091015Y-12941674D02*
X5091015Y-12989293D01*
X5091015Y-12989293D02*
X5081491Y-13027388D01*
X5081491Y-13027388D02*
X5071968Y-13046436D01*
X5071968Y-13046436D02*
X5062444Y-13055960D01*
X5062444Y-13055960D02*
X5043396Y-13065484D01*
X5043396Y-13065484D02*
X5024348Y-13065484D01*
X5024348Y-13065484D02*
X5005301Y-13055960D01*
X5005301Y-13055960D02*
X4995777Y-13046436D01*
X4995777Y-13046436D02*
X4986253Y-13027388D01*
X4986253Y-13027388D02*
X4976729Y-12989293D01*
X4976729Y-12989293D02*
X4976729Y-12941674D01*
X4976729Y-12941674D02*
X4986253Y-12903579D01*
X4986253Y-12903579D02*
X4995777Y-12884531D01*
X4995777Y-12884531D02*
X5005301Y-12875008D01*
X5005301Y-12875008D02*
X5024348Y-12865484D01*
X5167206Y-12884531D02*
X5176729Y-12875008D01*
X5176729Y-12875008D02*
X5195777Y-12865484D01*
X5195777Y-12865484D02*
X5243396Y-12865484D01*
X5243396Y-12865484D02*
X5262444Y-12875008D01*
X5262444Y-12875008D02*
X5271968Y-12884531D01*
X5271968Y-12884531D02*
X5281491Y-12903579D01*
X5281491Y-12903579D02*
X5281491Y-12922627D01*
X5281491Y-12922627D02*
X5271968Y-12951198D01*
X5271968Y-12951198D02*
X5157682Y-13065484D01*
X5157682Y-13065484D02*
X5281491Y-13065484D01*
X5348158Y-12865484D02*
X5481491Y-12865484D01*
X5481491Y-12865484D02*
X5395777Y-13065484D01*
X5643396Y-12865484D02*
X5605301Y-12865484D01*
X5605301Y-12865484D02*
X5586253Y-12875008D01*
X5586253Y-12875008D02*
X5576729Y-12884531D01*
X5576729Y-12884531D02*
X5557682Y-12913103D01*
X5557682Y-12913103D02*
X5548158Y-12951198D01*
X5548158Y-12951198D02*
X5548158Y-13027388D01*
X5548158Y-13027388D02*
X5557682Y-13046436D01*
X5557682Y-13046436D02*
X5567206Y-13055960D01*
X5567206Y-13055960D02*
X5586253Y-13065484D01*
X5586253Y-13065484D02*
X5624348Y-13065484D01*
X5624348Y-13065484D02*
X5643396Y-13055960D01*
X5643396Y-13055960D02*
X5652920Y-13046436D01*
X5652920Y-13046436D02*
X5662444Y-13027388D01*
X5662444Y-13027388D02*
X5662444Y-12979769D01*
X5662444Y-12979769D02*
X5652920Y-12960722D01*
X5652920Y-12960722D02*
X5643396Y-12951198D01*
X5643396Y-12951198D02*
X5624348Y-12941674D01*
X5624348Y-12941674D02*
X5586253Y-12941674D01*
X5586253Y-12941674D02*
X5567206Y-12951198D01*
X5567206Y-12951198D02*
X5557682Y-12960722D01*
X5557682Y-12960722D02*
X5548158Y-12979769D01*
X5738634Y-12865484D02*
X5738634Y-12903579D01*
X5814825Y-12865484D02*
X5814825Y-12903579D01*
X6110063Y-13141674D02*
X6100539Y-13132150D01*
X6100539Y-13132150D02*
X6081491Y-13103579D01*
X6081491Y-13103579D02*
X6071968Y-13084531D01*
X6071968Y-13084531D02*
X6062444Y-13055960D01*
X6062444Y-13055960D02*
X6052920Y-13008341D01*
X6052920Y-13008341D02*
X6052920Y-12970246D01*
X6052920Y-12970246D02*
X6062444Y-12922627D01*
X6062444Y-12922627D02*
X6071968Y-12894055D01*
X6071968Y-12894055D02*
X6081491Y-12875008D01*
X6081491Y-12875008D02*
X6100539Y-12846436D01*
X6100539Y-12846436D02*
X6110063Y-12836912D01*
X6291015Y-13065484D02*
X6176729Y-13065484D01*
X6233872Y-13065484D02*
X6233872Y-12865484D01*
X6233872Y-12865484D02*
X6214825Y-12894055D01*
X6214825Y-12894055D02*
X6195777Y-12913103D01*
X6195777Y-12913103D02*
X6176729Y-12922627D01*
X6367206Y-12884531D02*
X6376729Y-12875008D01*
X6376729Y-12875008D02*
X6395777Y-12865484D01*
X6395777Y-12865484D02*
X6443396Y-12865484D01*
X6443396Y-12865484D02*
X6462444Y-12875008D01*
X6462444Y-12875008D02*
X6471968Y-12884531D01*
X6471968Y-12884531D02*
X6481491Y-12903579D01*
X6481491Y-12903579D02*
X6481491Y-12922627D01*
X6481491Y-12922627D02*
X6471968Y-12951198D01*
X6471968Y-12951198D02*
X6357682Y-13065484D01*
X6357682Y-13065484D02*
X6481491Y-13065484D01*
X6719587Y-13065484D02*
X6719587Y-12865484D01*
X6805301Y-13065484D02*
X6805301Y-12960722D01*
X6805301Y-12960722D02*
X6795777Y-12941674D01*
X6795777Y-12941674D02*
X6776730Y-12932150D01*
X6776730Y-12932150D02*
X6748158Y-12932150D01*
X6748158Y-12932150D02*
X6729110Y-12941674D01*
X6729110Y-12941674D02*
X6719587Y-12951198D01*
X6929110Y-13065484D02*
X6910063Y-13055960D01*
X6910063Y-13055960D02*
X6900539Y-13046436D01*
X6900539Y-13046436D02*
X6891015Y-13027388D01*
X6891015Y-13027388D02*
X6891015Y-12970246D01*
X6891015Y-12970246D02*
X6900539Y-12951198D01*
X6900539Y-12951198D02*
X6910063Y-12941674D01*
X6910063Y-12941674D02*
X6929110Y-12932150D01*
X6929110Y-12932150D02*
X6957682Y-12932150D01*
X6957682Y-12932150D02*
X6976730Y-12941674D01*
X6976730Y-12941674D02*
X6986253Y-12951198D01*
X6986253Y-12951198D02*
X6995777Y-12970246D01*
X6995777Y-12970246D02*
X6995777Y-13027388D01*
X6995777Y-13027388D02*
X6986253Y-13046436D01*
X6986253Y-13046436D02*
X6976730Y-13055960D01*
X6976730Y-13055960D02*
X6957682Y-13065484D01*
X6957682Y-13065484D02*
X6929110Y-13065484D01*
X7110063Y-13065484D02*
X7091015Y-13055960D01*
X7091015Y-13055960D02*
X7081491Y-13036912D01*
X7081491Y-13036912D02*
X7081491Y-12865484D01*
X7262444Y-13055960D02*
X7243396Y-13065484D01*
X7243396Y-13065484D02*
X7205301Y-13065484D01*
X7205301Y-13065484D02*
X7186253Y-13055960D01*
X7186253Y-13055960D02*
X7176730Y-13036912D01*
X7176730Y-13036912D02*
X7176730Y-12960722D01*
X7176730Y-12960722D02*
X7186253Y-12941674D01*
X7186253Y-12941674D02*
X7205301Y-12932150D01*
X7205301Y-12932150D02*
X7243396Y-12932150D01*
X7243396Y-12932150D02*
X7262444Y-12941674D01*
X7262444Y-12941674D02*
X7271968Y-12960722D01*
X7271968Y-12960722D02*
X7271968Y-12979769D01*
X7271968Y-12979769D02*
X7176730Y-12998817D01*
X7348158Y-13055960D02*
X7367206Y-13065484D01*
X7367206Y-13065484D02*
X7405301Y-13065484D01*
X7405301Y-13065484D02*
X7424349Y-13055960D01*
X7424349Y-13055960D02*
X7433872Y-13036912D01*
X7433872Y-13036912D02*
X7433872Y-13027388D01*
X7433872Y-13027388D02*
X7424349Y-13008341D01*
X7424349Y-13008341D02*
X7405301Y-12998817D01*
X7405301Y-12998817D02*
X7376730Y-12998817D01*
X7376730Y-12998817D02*
X7357682Y-12989293D01*
X7357682Y-12989293D02*
X7348158Y-12970246D01*
X7348158Y-12970246D02*
X7348158Y-12960722D01*
X7348158Y-12960722D02*
X7357682Y-12941674D01*
X7357682Y-12941674D02*
X7376730Y-12932150D01*
X7376730Y-12932150D02*
X7405301Y-12932150D01*
X7405301Y-12932150D02*
X7424349Y-12941674D01*
X7500539Y-13141674D02*
X7510063Y-13132150D01*
X7510063Y-13132150D02*
X7529111Y-13103579D01*
X7529111Y-13103579D02*
X7538634Y-13084531D01*
X7538634Y-13084531D02*
X7548158Y-13055960D01*
X7548158Y-13055960D02*
X7557682Y-13008341D01*
X7557682Y-13008341D02*
X7557682Y-12970246D01*
X7557682Y-12970246D02*
X7548158Y-12922627D01*
X7548158Y-12922627D02*
X7538634Y-12894055D01*
X7538634Y-12894055D02*
X7529111Y-12875008D01*
X7529111Y-12875008D02*
X7510063Y-12846436D01*
X7510063Y-12846436D02*
X7500539Y-12836912D01*
D10*
X2495000Y-13198000D02*
X2495000Y-13278000D01*
X2455000Y-13238000D02*
X2535000Y-13238000D01*
D11*
X2833872Y-13129484D02*
X2852920Y-13129484D01*
X2852920Y-13129484D02*
X2871967Y-13139008D01*
X2871967Y-13139008D02*
X2881491Y-13148531D01*
X2881491Y-13148531D02*
X2891015Y-13167579D01*
X2891015Y-13167579D02*
X2900539Y-13205674D01*
X2900539Y-13205674D02*
X2900539Y-13253293D01*
X2900539Y-13253293D02*
X2891015Y-13291388D01*
X2891015Y-13291388D02*
X2881491Y-13310436D01*
X2881491Y-13310436D02*
X2871967Y-13319960D01*
X2871967Y-13319960D02*
X2852920Y-13329484D01*
X2852920Y-13329484D02*
X2833872Y-13329484D01*
X2833872Y-13329484D02*
X2814824Y-13319960D01*
X2814824Y-13319960D02*
X2805301Y-13310436D01*
X2805301Y-13310436D02*
X2795777Y-13291388D01*
X2795777Y-13291388D02*
X2786253Y-13253293D01*
X2786253Y-13253293D02*
X2786253Y-13205674D01*
X2786253Y-13205674D02*
X2795777Y-13167579D01*
X2795777Y-13167579D02*
X2805301Y-13148531D01*
X2805301Y-13148531D02*
X2814824Y-13139008D01*
X2814824Y-13139008D02*
X2833872Y-13129484D01*
X2986253Y-13310436D02*
X2995777Y-13319960D01*
X2995777Y-13319960D02*
X2986253Y-13329484D01*
X2986253Y-13329484D02*
X2976729Y-13319960D01*
X2976729Y-13319960D02*
X2986253Y-13310436D01*
X2986253Y-13310436D02*
X2986253Y-13329484D01*
X3110062Y-13215198D02*
X3091015Y-13205674D01*
X3091015Y-13205674D02*
X3081491Y-13196150D01*
X3081491Y-13196150D02*
X3071967Y-13177103D01*
X3071967Y-13177103D02*
X3071967Y-13167579D01*
X3071967Y-13167579D02*
X3081491Y-13148531D01*
X3081491Y-13148531D02*
X3091015Y-13139008D01*
X3091015Y-13139008D02*
X3110062Y-13129484D01*
X3110062Y-13129484D02*
X3148158Y-13129484D01*
X3148158Y-13129484D02*
X3167205Y-13139008D01*
X3167205Y-13139008D02*
X3176729Y-13148531D01*
X3176729Y-13148531D02*
X3186253Y-13167579D01*
X3186253Y-13167579D02*
X3186253Y-13177103D01*
X3186253Y-13177103D02*
X3176729Y-13196150D01*
X3176729Y-13196150D02*
X3167205Y-13205674D01*
X3167205Y-13205674D02*
X3148158Y-13215198D01*
X3148158Y-13215198D02*
X3110062Y-13215198D01*
X3110062Y-13215198D02*
X3091015Y-13224722D01*
X3091015Y-13224722D02*
X3081491Y-13234246D01*
X3081491Y-13234246D02*
X3071967Y-13253293D01*
X3071967Y-13253293D02*
X3071967Y-13291388D01*
X3071967Y-13291388D02*
X3081491Y-13310436D01*
X3081491Y-13310436D02*
X3091015Y-13319960D01*
X3091015Y-13319960D02*
X3110062Y-13329484D01*
X3110062Y-13329484D02*
X3148158Y-13329484D01*
X3148158Y-13329484D02*
X3167205Y-13319960D01*
X3167205Y-13319960D02*
X3176729Y-13310436D01*
X3176729Y-13310436D02*
X3186253Y-13291388D01*
X3186253Y-13291388D02*
X3186253Y-13253293D01*
X3186253Y-13253293D02*
X3176729Y-13234246D01*
X3176729Y-13234246D02*
X3167205Y-13224722D01*
X3167205Y-13224722D02*
X3148158Y-13215198D01*
X3310062Y-13129484D02*
X3329110Y-13129484D01*
X3329110Y-13129484D02*
X3348158Y-13139008D01*
X3348158Y-13139008D02*
X3357682Y-13148531D01*
X3357682Y-13148531D02*
X3367205Y-13167579D01*
X3367205Y-13167579D02*
X3376729Y-13205674D01*
X3376729Y-13205674D02*
X3376729Y-13253293D01*
X3376729Y-13253293D02*
X3367205Y-13291388D01*
X3367205Y-13291388D02*
X3357682Y-13310436D01*
X3357682Y-13310436D02*
X3348158Y-13319960D01*
X3348158Y-13319960D02*
X3329110Y-13329484D01*
X3329110Y-13329484D02*
X3310062Y-13329484D01*
X3310062Y-13329484D02*
X3291015Y-13319960D01*
X3291015Y-13319960D02*
X3281491Y-13310436D01*
X3281491Y-13310436D02*
X3271967Y-13291388D01*
X3271967Y-13291388D02*
X3262443Y-13253293D01*
X3262443Y-13253293D02*
X3262443Y-13205674D01*
X3262443Y-13205674D02*
X3271967Y-13167579D01*
X3271967Y-13167579D02*
X3281491Y-13148531D01*
X3281491Y-13148531D02*
X3291015Y-13139008D01*
X3291015Y-13139008D02*
X3310062Y-13129484D01*
X3500539Y-13129484D02*
X3519586Y-13129484D01*
X3519586Y-13129484D02*
X3538634Y-13139008D01*
X3538634Y-13139008D02*
X3548158Y-13148531D01*
X3548158Y-13148531D02*
X3557682Y-13167579D01*
X3557682Y-13167579D02*
X3567205Y-13205674D01*
X3567205Y-13205674D02*
X3567205Y-13253293D01*
X3567205Y-13253293D02*
X3557682Y-13291388D01*
X3557682Y-13291388D02*
X3548158Y-13310436D01*
X3548158Y-13310436D02*
X3538634Y-13319960D01*
X3538634Y-13319960D02*
X3519586Y-13329484D01*
X3519586Y-13329484D02*
X3500539Y-13329484D01*
X3500539Y-13329484D02*
X3481491Y-13319960D01*
X3481491Y-13319960D02*
X3471967Y-13310436D01*
X3471967Y-13310436D02*
X3462443Y-13291388D01*
X3462443Y-13291388D02*
X3452920Y-13253293D01*
X3452920Y-13253293D02*
X3452920Y-13205674D01*
X3452920Y-13205674D02*
X3462443Y-13167579D01*
X3462443Y-13167579D02*
X3471967Y-13148531D01*
X3471967Y-13148531D02*
X3481491Y-13139008D01*
X3481491Y-13139008D02*
X3500539Y-13129484D01*
X3652920Y-13329484D02*
X3652920Y-13196150D01*
X3652920Y-13215198D02*
X3662443Y-13205674D01*
X3662443Y-13205674D02*
X3681491Y-13196150D01*
X3681491Y-13196150D02*
X3710063Y-13196150D01*
X3710063Y-13196150D02*
X3729110Y-13205674D01*
X3729110Y-13205674D02*
X3738634Y-13224722D01*
X3738634Y-13224722D02*
X3738634Y-13329484D01*
X3738634Y-13224722D02*
X3748158Y-13205674D01*
X3748158Y-13205674D02*
X3767205Y-13196150D01*
X3767205Y-13196150D02*
X3795777Y-13196150D01*
X3795777Y-13196150D02*
X3814824Y-13205674D01*
X3814824Y-13205674D02*
X3824348Y-13224722D01*
X3824348Y-13224722D02*
X3824348Y-13329484D01*
X3919586Y-13329484D02*
X3919586Y-13196150D01*
X3919586Y-13215198D02*
X3929110Y-13205674D01*
X3929110Y-13205674D02*
X3948158Y-13196150D01*
X3948158Y-13196150D02*
X3976729Y-13196150D01*
X3976729Y-13196150D02*
X3995777Y-13205674D01*
X3995777Y-13205674D02*
X4005301Y-13224722D01*
X4005301Y-13224722D02*
X4005301Y-13329484D01*
X4005301Y-13224722D02*
X4014824Y-13205674D01*
X4014824Y-13205674D02*
X4033872Y-13196150D01*
X4033872Y-13196150D02*
X4062443Y-13196150D01*
X4062443Y-13196150D02*
X4081491Y-13205674D01*
X4081491Y-13205674D02*
X4091015Y-13224722D01*
X4091015Y-13224722D02*
X4091015Y-13329484D01*
X4481491Y-13119960D02*
X4310063Y-13377103D01*
X4738634Y-13129484D02*
X4757682Y-13129484D01*
X4757682Y-13129484D02*
X4776729Y-13139008D01*
X4776729Y-13139008D02*
X4786253Y-13148531D01*
X4786253Y-13148531D02*
X4795777Y-13167579D01*
X4795777Y-13167579D02*
X4805301Y-13205674D01*
X4805301Y-13205674D02*
X4805301Y-13253293D01*
X4805301Y-13253293D02*
X4795777Y-13291388D01*
X4795777Y-13291388D02*
X4786253Y-13310436D01*
X4786253Y-13310436D02*
X4776729Y-13319960D01*
X4776729Y-13319960D02*
X4757682Y-13329484D01*
X4757682Y-13329484D02*
X4738634Y-13329484D01*
X4738634Y-13329484D02*
X4719587Y-13319960D01*
X4719587Y-13319960D02*
X4710063Y-13310436D01*
X4710063Y-13310436D02*
X4700539Y-13291388D01*
X4700539Y-13291388D02*
X4691015Y-13253293D01*
X4691015Y-13253293D02*
X4691015Y-13205674D01*
X4691015Y-13205674D02*
X4700539Y-13167579D01*
X4700539Y-13167579D02*
X4710063Y-13148531D01*
X4710063Y-13148531D02*
X4719587Y-13139008D01*
X4719587Y-13139008D02*
X4738634Y-13129484D01*
X4891015Y-13310436D02*
X4900539Y-13319960D01*
X4900539Y-13319960D02*
X4891015Y-13329484D01*
X4891015Y-13329484D02*
X4881491Y-13319960D01*
X4881491Y-13319960D02*
X4891015Y-13310436D01*
X4891015Y-13310436D02*
X4891015Y-13329484D01*
X5024348Y-13129484D02*
X5043396Y-13129484D01*
X5043396Y-13129484D02*
X5062444Y-13139008D01*
X5062444Y-13139008D02*
X5071968Y-13148531D01*
X5071968Y-13148531D02*
X5081491Y-13167579D01*
X5081491Y-13167579D02*
X5091015Y-13205674D01*
X5091015Y-13205674D02*
X5091015Y-13253293D01*
X5091015Y-13253293D02*
X5081491Y-13291388D01*
X5081491Y-13291388D02*
X5071968Y-13310436D01*
X5071968Y-13310436D02*
X5062444Y-13319960D01*
X5062444Y-13319960D02*
X5043396Y-13329484D01*
X5043396Y-13329484D02*
X5024348Y-13329484D01*
X5024348Y-13329484D02*
X5005301Y-13319960D01*
X5005301Y-13319960D02*
X4995777Y-13310436D01*
X4995777Y-13310436D02*
X4986253Y-13291388D01*
X4986253Y-13291388D02*
X4976729Y-13253293D01*
X4976729Y-13253293D02*
X4976729Y-13205674D01*
X4976729Y-13205674D02*
X4986253Y-13167579D01*
X4986253Y-13167579D02*
X4995777Y-13148531D01*
X4995777Y-13148531D02*
X5005301Y-13139008D01*
X5005301Y-13139008D02*
X5024348Y-13129484D01*
X5157682Y-13129484D02*
X5281491Y-13129484D01*
X5281491Y-13129484D02*
X5214825Y-13205674D01*
X5214825Y-13205674D02*
X5243396Y-13205674D01*
X5243396Y-13205674D02*
X5262444Y-13215198D01*
X5262444Y-13215198D02*
X5271968Y-13224722D01*
X5271968Y-13224722D02*
X5281491Y-13243769D01*
X5281491Y-13243769D02*
X5281491Y-13291388D01*
X5281491Y-13291388D02*
X5271968Y-13310436D01*
X5271968Y-13310436D02*
X5262444Y-13319960D01*
X5262444Y-13319960D02*
X5243396Y-13329484D01*
X5243396Y-13329484D02*
X5186253Y-13329484D01*
X5186253Y-13329484D02*
X5167206Y-13319960D01*
X5167206Y-13319960D02*
X5157682Y-13310436D01*
X5471968Y-13329484D02*
X5357682Y-13329484D01*
X5414825Y-13329484D02*
X5414825Y-13129484D01*
X5414825Y-13129484D02*
X5395777Y-13158055D01*
X5395777Y-13158055D02*
X5376729Y-13177103D01*
X5376729Y-13177103D02*
X5357682Y-13186627D01*
X5652920Y-13129484D02*
X5557682Y-13129484D01*
X5557682Y-13129484D02*
X5548158Y-13224722D01*
X5548158Y-13224722D02*
X5557682Y-13215198D01*
X5557682Y-13215198D02*
X5576729Y-13205674D01*
X5576729Y-13205674D02*
X5624348Y-13205674D01*
X5624348Y-13205674D02*
X5643396Y-13215198D01*
X5643396Y-13215198D02*
X5652920Y-13224722D01*
X5652920Y-13224722D02*
X5662444Y-13243769D01*
X5662444Y-13243769D02*
X5662444Y-13291388D01*
X5662444Y-13291388D02*
X5652920Y-13310436D01*
X5652920Y-13310436D02*
X5643396Y-13319960D01*
X5643396Y-13319960D02*
X5624348Y-13329484D01*
X5624348Y-13329484D02*
X5576729Y-13329484D01*
X5576729Y-13329484D02*
X5557682Y-13319960D01*
X5557682Y-13319960D02*
X5548158Y-13310436D01*
X5738634Y-13129484D02*
X5738634Y-13167579D01*
X5814825Y-13129484D02*
X5814825Y-13167579D01*
X6110063Y-13405674D02*
X6100539Y-13396150D01*
X6100539Y-13396150D02*
X6081491Y-13367579D01*
X6081491Y-13367579D02*
X6071968Y-13348531D01*
X6071968Y-13348531D02*
X6062444Y-13319960D01*
X6062444Y-13319960D02*
X6052920Y-13272341D01*
X6052920Y-13272341D02*
X6052920Y-13234246D01*
X6052920Y-13234246D02*
X6062444Y-13186627D01*
X6062444Y-13186627D02*
X6071968Y-13158055D01*
X6071968Y-13158055D02*
X6081491Y-13139008D01*
X6081491Y-13139008D02*
X6100539Y-13110436D01*
X6100539Y-13110436D02*
X6110063Y-13100912D01*
X6167206Y-13129484D02*
X6291015Y-13129484D01*
X6291015Y-13129484D02*
X6224348Y-13205674D01*
X6224348Y-13205674D02*
X6252920Y-13205674D01*
X6252920Y-13205674D02*
X6271968Y-13215198D01*
X6271968Y-13215198D02*
X6281491Y-13224722D01*
X6281491Y-13224722D02*
X6291015Y-13243769D01*
X6291015Y-13243769D02*
X6291015Y-13291388D01*
X6291015Y-13291388D02*
X6281491Y-13310436D01*
X6281491Y-13310436D02*
X6271968Y-13319960D01*
X6271968Y-13319960D02*
X6252920Y-13329484D01*
X6252920Y-13329484D02*
X6195777Y-13329484D01*
X6195777Y-13329484D02*
X6176729Y-13319960D01*
X6176729Y-13319960D02*
X6167206Y-13310436D01*
X6462444Y-13129484D02*
X6424348Y-13129484D01*
X6424348Y-13129484D02*
X6405301Y-13139008D01*
X6405301Y-13139008D02*
X6395777Y-13148531D01*
X6395777Y-13148531D02*
X6376729Y-13177103D01*
X6376729Y-13177103D02*
X6367206Y-13215198D01*
X6367206Y-13215198D02*
X6367206Y-13291388D01*
X6367206Y-13291388D02*
X6376729Y-13310436D01*
X6376729Y-13310436D02*
X6386253Y-13319960D01*
X6386253Y-13319960D02*
X6405301Y-13329484D01*
X6405301Y-13329484D02*
X6443396Y-13329484D01*
X6443396Y-13329484D02*
X6462444Y-13319960D01*
X6462444Y-13319960D02*
X6471968Y-13310436D01*
X6471968Y-13310436D02*
X6481491Y-13291388D01*
X6481491Y-13291388D02*
X6481491Y-13243769D01*
X6481491Y-13243769D02*
X6471968Y-13224722D01*
X6471968Y-13224722D02*
X6462444Y-13215198D01*
X6462444Y-13215198D02*
X6443396Y-13205674D01*
X6443396Y-13205674D02*
X6405301Y-13205674D01*
X6405301Y-13205674D02*
X6386253Y-13215198D01*
X6386253Y-13215198D02*
X6376729Y-13224722D01*
X6376729Y-13224722D02*
X6367206Y-13243769D01*
X6719587Y-13329484D02*
X6719587Y-13129484D01*
X6805301Y-13329484D02*
X6805301Y-13224722D01*
X6805301Y-13224722D02*
X6795777Y-13205674D01*
X6795777Y-13205674D02*
X6776730Y-13196150D01*
X6776730Y-13196150D02*
X6748158Y-13196150D01*
X6748158Y-13196150D02*
X6729110Y-13205674D01*
X6729110Y-13205674D02*
X6719587Y-13215198D01*
X6929110Y-13329484D02*
X6910063Y-13319960D01*
X6910063Y-13319960D02*
X6900539Y-13310436D01*
X6900539Y-13310436D02*
X6891015Y-13291388D01*
X6891015Y-13291388D02*
X6891015Y-13234246D01*
X6891015Y-13234246D02*
X6900539Y-13215198D01*
X6900539Y-13215198D02*
X6910063Y-13205674D01*
X6910063Y-13205674D02*
X6929110Y-13196150D01*
X6929110Y-13196150D02*
X6957682Y-13196150D01*
X6957682Y-13196150D02*
X6976730Y-13205674D01*
X6976730Y-13205674D02*
X6986253Y-13215198D01*
X6986253Y-13215198D02*
X6995777Y-13234246D01*
X6995777Y-13234246D02*
X6995777Y-13291388D01*
X6995777Y-13291388D02*
X6986253Y-13310436D01*
X6986253Y-13310436D02*
X6976730Y-13319960D01*
X6976730Y-13319960D02*
X6957682Y-13329484D01*
X6957682Y-13329484D02*
X6929110Y-13329484D01*
X7110063Y-13329484D02*
X7091015Y-13319960D01*
X7091015Y-13319960D02*
X7081491Y-13300912D01*
X7081491Y-13300912D02*
X7081491Y-13129484D01*
X7262444Y-13319960D02*
X7243396Y-13329484D01*
X7243396Y-13329484D02*
X7205301Y-13329484D01*
X7205301Y-13329484D02*
X7186253Y-13319960D01*
X7186253Y-13319960D02*
X7176730Y-13300912D01*
X7176730Y-13300912D02*
X7176730Y-13224722D01*
X7176730Y-13224722D02*
X7186253Y-13205674D01*
X7186253Y-13205674D02*
X7205301Y-13196150D01*
X7205301Y-13196150D02*
X7243396Y-13196150D01*
X7243396Y-13196150D02*
X7262444Y-13205674D01*
X7262444Y-13205674D02*
X7271968Y-13224722D01*
X7271968Y-13224722D02*
X7271968Y-13243769D01*
X7271968Y-13243769D02*
X7176730Y-13262817D01*
X7348158Y-13319960D02*
X7367206Y-13329484D01*
X7367206Y-13329484D02*
X7405301Y-13329484D01*
X7405301Y-13329484D02*
X7424349Y-13319960D01*
X7424349Y-13319960D02*
X7433872Y-13300912D01*
X7433872Y-13300912D02*
X7433872Y-13291388D01*
X7433872Y-13291388D02*
X7424349Y-13272341D01*
X7424349Y-13272341D02*
X7405301Y-13262817D01*
X7405301Y-13262817D02*
X7376730Y-13262817D01*
X7376730Y-13262817D02*
X7357682Y-13253293D01*
X7357682Y-13253293D02*
X7348158Y-13234246D01*
X7348158Y-13234246D02*
X7348158Y-13224722D01*
X7348158Y-13224722D02*
X7357682Y-13205674D01*
X7357682Y-13205674D02*
X7376730Y-13196150D01*
X7376730Y-13196150D02*
X7405301Y-13196150D01*
X7405301Y-13196150D02*
X7424349Y-13205674D01*
X7500539Y-13405674D02*
X7510063Y-13396150D01*
X7510063Y-13396150D02*
X7529111Y-13367579D01*
X7529111Y-13367579D02*
X7538634Y-13348531D01*
X7538634Y-13348531D02*
X7548158Y-13319960D01*
X7548158Y-13319960D02*
X7557682Y-13272341D01*
X7557682Y-13272341D02*
X7557682Y-13234246D01*
X7557682Y-13234246D02*
X7548158Y-13186627D01*
X7548158Y-13186627D02*
X7538634Y-13158055D01*
X7538634Y-13158055D02*
X7529111Y-13139008D01*
X7529111Y-13139008D02*
X7510063Y-13110436D01*
X7510063Y-13110436D02*
X7500539Y-13100912D01*
D10*
X2521820Y-13533820D02*
X2521820Y-13470180D01*
X2458180Y-13470180D01*
X2458180Y-13533820D01*
X2521820Y-13533820D01*
D11*
X2833872Y-13393484D02*
X2852920Y-13393484D01*
X2852920Y-13393484D02*
X2871967Y-13403008D01*
X2871967Y-13403008D02*
X2881491Y-13412531D01*
X2881491Y-13412531D02*
X2891015Y-13431579D01*
X2891015Y-13431579D02*
X2900539Y-13469674D01*
X2900539Y-13469674D02*
X2900539Y-13517293D01*
X2900539Y-13517293D02*
X2891015Y-13555388D01*
X2891015Y-13555388D02*
X2881491Y-13574436D01*
X2881491Y-13574436D02*
X2871967Y-13583960D01*
X2871967Y-13583960D02*
X2852920Y-13593484D01*
X2852920Y-13593484D02*
X2833872Y-13593484D01*
X2833872Y-13593484D02*
X2814824Y-13583960D01*
X2814824Y-13583960D02*
X2805301Y-13574436D01*
X2805301Y-13574436D02*
X2795777Y-13555388D01*
X2795777Y-13555388D02*
X2786253Y-13517293D01*
X2786253Y-13517293D02*
X2786253Y-13469674D01*
X2786253Y-13469674D02*
X2795777Y-13431579D01*
X2795777Y-13431579D02*
X2805301Y-13412531D01*
X2805301Y-13412531D02*
X2814824Y-13403008D01*
X2814824Y-13403008D02*
X2833872Y-13393484D01*
X2986253Y-13574436D02*
X2995777Y-13583960D01*
X2995777Y-13583960D02*
X2986253Y-13593484D01*
X2986253Y-13593484D02*
X2976729Y-13583960D01*
X2976729Y-13583960D02*
X2986253Y-13574436D01*
X2986253Y-13574436D02*
X2986253Y-13593484D01*
X3091015Y-13593484D02*
X3129110Y-13593484D01*
X3129110Y-13593484D02*
X3148158Y-13583960D01*
X3148158Y-13583960D02*
X3157682Y-13574436D01*
X3157682Y-13574436D02*
X3176729Y-13545865D01*
X3176729Y-13545865D02*
X3186253Y-13507769D01*
X3186253Y-13507769D02*
X3186253Y-13431579D01*
X3186253Y-13431579D02*
X3176729Y-13412531D01*
X3176729Y-13412531D02*
X3167205Y-13403008D01*
X3167205Y-13403008D02*
X3148158Y-13393484D01*
X3148158Y-13393484D02*
X3110062Y-13393484D01*
X3110062Y-13393484D02*
X3091015Y-13403008D01*
X3091015Y-13403008D02*
X3081491Y-13412531D01*
X3081491Y-13412531D02*
X3071967Y-13431579D01*
X3071967Y-13431579D02*
X3071967Y-13479198D01*
X3071967Y-13479198D02*
X3081491Y-13498246D01*
X3081491Y-13498246D02*
X3091015Y-13507769D01*
X3091015Y-13507769D02*
X3110062Y-13517293D01*
X3110062Y-13517293D02*
X3148158Y-13517293D01*
X3148158Y-13517293D02*
X3167205Y-13507769D01*
X3167205Y-13507769D02*
X3176729Y-13498246D01*
X3176729Y-13498246D02*
X3186253Y-13479198D01*
X3310062Y-13393484D02*
X3329110Y-13393484D01*
X3329110Y-13393484D02*
X3348158Y-13403008D01*
X3348158Y-13403008D02*
X3357682Y-13412531D01*
X3357682Y-13412531D02*
X3367205Y-13431579D01*
X3367205Y-13431579D02*
X3376729Y-13469674D01*
X3376729Y-13469674D02*
X3376729Y-13517293D01*
X3376729Y-13517293D02*
X3367205Y-13555388D01*
X3367205Y-13555388D02*
X3357682Y-13574436D01*
X3357682Y-13574436D02*
X3348158Y-13583960D01*
X3348158Y-13583960D02*
X3329110Y-13593484D01*
X3329110Y-13593484D02*
X3310062Y-13593484D01*
X3310062Y-13593484D02*
X3291015Y-13583960D01*
X3291015Y-13583960D02*
X3281491Y-13574436D01*
X3281491Y-13574436D02*
X3271967Y-13555388D01*
X3271967Y-13555388D02*
X3262443Y-13517293D01*
X3262443Y-13517293D02*
X3262443Y-13469674D01*
X3262443Y-13469674D02*
X3271967Y-13431579D01*
X3271967Y-13431579D02*
X3281491Y-13412531D01*
X3281491Y-13412531D02*
X3291015Y-13403008D01*
X3291015Y-13403008D02*
X3310062Y-13393484D01*
X3500539Y-13393484D02*
X3519586Y-13393484D01*
X3519586Y-13393484D02*
X3538634Y-13403008D01*
X3538634Y-13403008D02*
X3548158Y-13412531D01*
X3548158Y-13412531D02*
X3557682Y-13431579D01*
X3557682Y-13431579D02*
X3567205Y-13469674D01*
X3567205Y-13469674D02*
X3567205Y-13517293D01*
X3567205Y-13517293D02*
X3557682Y-13555388D01*
X3557682Y-13555388D02*
X3548158Y-13574436D01*
X3548158Y-13574436D02*
X3538634Y-13583960D01*
X3538634Y-13583960D02*
X3519586Y-13593484D01*
X3519586Y-13593484D02*
X3500539Y-13593484D01*
X3500539Y-13593484D02*
X3481491Y-13583960D01*
X3481491Y-13583960D02*
X3471967Y-13574436D01*
X3471967Y-13574436D02*
X3462443Y-13555388D01*
X3462443Y-13555388D02*
X3452920Y-13517293D01*
X3452920Y-13517293D02*
X3452920Y-13469674D01*
X3452920Y-13469674D02*
X3462443Y-13431579D01*
X3462443Y-13431579D02*
X3471967Y-13412531D01*
X3471967Y-13412531D02*
X3481491Y-13403008D01*
X3481491Y-13403008D02*
X3500539Y-13393484D01*
X3652920Y-13593484D02*
X3652920Y-13460150D01*
X3652920Y-13479198D02*
X3662443Y-13469674D01*
X3662443Y-13469674D02*
X3681491Y-13460150D01*
X3681491Y-13460150D02*
X3710063Y-13460150D01*
X3710063Y-13460150D02*
X3729110Y-13469674D01*
X3729110Y-13469674D02*
X3738634Y-13488722D01*
X3738634Y-13488722D02*
X3738634Y-13593484D01*
X3738634Y-13488722D02*
X3748158Y-13469674D01*
X3748158Y-13469674D02*
X3767205Y-13460150D01*
X3767205Y-13460150D02*
X3795777Y-13460150D01*
X3795777Y-13460150D02*
X3814824Y-13469674D01*
X3814824Y-13469674D02*
X3824348Y-13488722D01*
X3824348Y-13488722D02*
X3824348Y-13593484D01*
X3919586Y-13593484D02*
X3919586Y-13460150D01*
X3919586Y-13479198D02*
X3929110Y-13469674D01*
X3929110Y-13469674D02*
X3948158Y-13460150D01*
X3948158Y-13460150D02*
X3976729Y-13460150D01*
X3976729Y-13460150D02*
X3995777Y-13469674D01*
X3995777Y-13469674D02*
X4005301Y-13488722D01*
X4005301Y-13488722D02*
X4005301Y-13593484D01*
X4005301Y-13488722D02*
X4014824Y-13469674D01*
X4014824Y-13469674D02*
X4033872Y-13460150D01*
X4033872Y-13460150D02*
X4062443Y-13460150D01*
X4062443Y-13460150D02*
X4081491Y-13469674D01*
X4081491Y-13469674D02*
X4091015Y-13488722D01*
X4091015Y-13488722D02*
X4091015Y-13593484D01*
X4481491Y-13383960D02*
X4310063Y-13641103D01*
X4738634Y-13393484D02*
X4757682Y-13393484D01*
X4757682Y-13393484D02*
X4776729Y-13403008D01*
X4776729Y-13403008D02*
X4786253Y-13412531D01*
X4786253Y-13412531D02*
X4795777Y-13431579D01*
X4795777Y-13431579D02*
X4805301Y-13469674D01*
X4805301Y-13469674D02*
X4805301Y-13517293D01*
X4805301Y-13517293D02*
X4795777Y-13555388D01*
X4795777Y-13555388D02*
X4786253Y-13574436D01*
X4786253Y-13574436D02*
X4776729Y-13583960D01*
X4776729Y-13583960D02*
X4757682Y-13593484D01*
X4757682Y-13593484D02*
X4738634Y-13593484D01*
X4738634Y-13593484D02*
X4719587Y-13583960D01*
X4719587Y-13583960D02*
X4710063Y-13574436D01*
X4710063Y-13574436D02*
X4700539Y-13555388D01*
X4700539Y-13555388D02*
X4691015Y-13517293D01*
X4691015Y-13517293D02*
X4691015Y-13469674D01*
X4691015Y-13469674D02*
X4700539Y-13431579D01*
X4700539Y-13431579D02*
X4710063Y-13412531D01*
X4710063Y-13412531D02*
X4719587Y-13403008D01*
X4719587Y-13403008D02*
X4738634Y-13393484D01*
X4891015Y-13574436D02*
X4900539Y-13583960D01*
X4900539Y-13583960D02*
X4891015Y-13593484D01*
X4891015Y-13593484D02*
X4881491Y-13583960D01*
X4881491Y-13583960D02*
X4891015Y-13574436D01*
X4891015Y-13574436D02*
X4891015Y-13593484D01*
X5024348Y-13393484D02*
X5043396Y-13393484D01*
X5043396Y-13393484D02*
X5062444Y-13403008D01*
X5062444Y-13403008D02*
X5071968Y-13412531D01*
X5071968Y-13412531D02*
X5081491Y-13431579D01*
X5081491Y-13431579D02*
X5091015Y-13469674D01*
X5091015Y-13469674D02*
X5091015Y-13517293D01*
X5091015Y-13517293D02*
X5081491Y-13555388D01*
X5081491Y-13555388D02*
X5071968Y-13574436D01*
X5071968Y-13574436D02*
X5062444Y-13583960D01*
X5062444Y-13583960D02*
X5043396Y-13593484D01*
X5043396Y-13593484D02*
X5024348Y-13593484D01*
X5024348Y-13593484D02*
X5005301Y-13583960D01*
X5005301Y-13583960D02*
X4995777Y-13574436D01*
X4995777Y-13574436D02*
X4986253Y-13555388D01*
X4986253Y-13555388D02*
X4976729Y-13517293D01*
X4976729Y-13517293D02*
X4976729Y-13469674D01*
X4976729Y-13469674D02*
X4986253Y-13431579D01*
X4986253Y-13431579D02*
X4995777Y-13412531D01*
X4995777Y-13412531D02*
X5005301Y-13403008D01*
X5005301Y-13403008D02*
X5024348Y-13393484D01*
X5157682Y-13393484D02*
X5281491Y-13393484D01*
X5281491Y-13393484D02*
X5214825Y-13469674D01*
X5214825Y-13469674D02*
X5243396Y-13469674D01*
X5243396Y-13469674D02*
X5262444Y-13479198D01*
X5262444Y-13479198D02*
X5271968Y-13488722D01*
X5271968Y-13488722D02*
X5281491Y-13507769D01*
X5281491Y-13507769D02*
X5281491Y-13555388D01*
X5281491Y-13555388D02*
X5271968Y-13574436D01*
X5271968Y-13574436D02*
X5262444Y-13583960D01*
X5262444Y-13583960D02*
X5243396Y-13593484D01*
X5243396Y-13593484D02*
X5186253Y-13593484D01*
X5186253Y-13593484D02*
X5167206Y-13583960D01*
X5167206Y-13583960D02*
X5157682Y-13574436D01*
X5462444Y-13393484D02*
X5367206Y-13393484D01*
X5367206Y-13393484D02*
X5357682Y-13488722D01*
X5357682Y-13488722D02*
X5367206Y-13479198D01*
X5367206Y-13479198D02*
X5386253Y-13469674D01*
X5386253Y-13469674D02*
X5433872Y-13469674D01*
X5433872Y-13469674D02*
X5452920Y-13479198D01*
X5452920Y-13479198D02*
X5462444Y-13488722D01*
X5462444Y-13488722D02*
X5471968Y-13507769D01*
X5471968Y-13507769D02*
X5471968Y-13555388D01*
X5471968Y-13555388D02*
X5462444Y-13574436D01*
X5462444Y-13574436D02*
X5452920Y-13583960D01*
X5452920Y-13583960D02*
X5433872Y-13593484D01*
X5433872Y-13593484D02*
X5386253Y-13593484D01*
X5386253Y-13593484D02*
X5367206Y-13583960D01*
X5367206Y-13583960D02*
X5357682Y-13574436D01*
X5643396Y-13460150D02*
X5643396Y-13593484D01*
X5595777Y-13383960D02*
X5548158Y-13526817D01*
X5548158Y-13526817D02*
X5671967Y-13526817D01*
X5738634Y-13393484D02*
X5738634Y-13431579D01*
X5814825Y-13393484D02*
X5814825Y-13431579D01*
X6110063Y-13669674D02*
X6100539Y-13660150D01*
X6100539Y-13660150D02*
X6081491Y-13631579D01*
X6081491Y-13631579D02*
X6071968Y-13612531D01*
X6071968Y-13612531D02*
X6062444Y-13583960D01*
X6062444Y-13583960D02*
X6052920Y-13536341D01*
X6052920Y-13536341D02*
X6052920Y-13498246D01*
X6052920Y-13498246D02*
X6062444Y-13450627D01*
X6062444Y-13450627D02*
X6071968Y-13422055D01*
X6071968Y-13422055D02*
X6081491Y-13403008D01*
X6081491Y-13403008D02*
X6100539Y-13374436D01*
X6100539Y-13374436D02*
X6110063Y-13364912D01*
X6214825Y-13479198D02*
X6195777Y-13469674D01*
X6195777Y-13469674D02*
X6186253Y-13460150D01*
X6186253Y-13460150D02*
X6176729Y-13441103D01*
X6176729Y-13441103D02*
X6176729Y-13431579D01*
X6176729Y-13431579D02*
X6186253Y-13412531D01*
X6186253Y-13412531D02*
X6195777Y-13403008D01*
X6195777Y-13403008D02*
X6214825Y-13393484D01*
X6214825Y-13393484D02*
X6252920Y-13393484D01*
X6252920Y-13393484D02*
X6271968Y-13403008D01*
X6271968Y-13403008D02*
X6281491Y-13412531D01*
X6281491Y-13412531D02*
X6291015Y-13431579D01*
X6291015Y-13431579D02*
X6291015Y-13441103D01*
X6291015Y-13441103D02*
X6281491Y-13460150D01*
X6281491Y-13460150D02*
X6271968Y-13469674D01*
X6271968Y-13469674D02*
X6252920Y-13479198D01*
X6252920Y-13479198D02*
X6214825Y-13479198D01*
X6214825Y-13479198D02*
X6195777Y-13488722D01*
X6195777Y-13488722D02*
X6186253Y-13498246D01*
X6186253Y-13498246D02*
X6176729Y-13517293D01*
X6176729Y-13517293D02*
X6176729Y-13555388D01*
X6176729Y-13555388D02*
X6186253Y-13574436D01*
X6186253Y-13574436D02*
X6195777Y-13583960D01*
X6195777Y-13583960D02*
X6214825Y-13593484D01*
X6214825Y-13593484D02*
X6252920Y-13593484D01*
X6252920Y-13593484D02*
X6271968Y-13583960D01*
X6271968Y-13583960D02*
X6281491Y-13574436D01*
X6281491Y-13574436D02*
X6291015Y-13555388D01*
X6291015Y-13555388D02*
X6291015Y-13517293D01*
X6291015Y-13517293D02*
X6281491Y-13498246D01*
X6281491Y-13498246D02*
X6271968Y-13488722D01*
X6271968Y-13488722D02*
X6252920Y-13479198D01*
X6529110Y-13593484D02*
X6529110Y-13393484D01*
X6614825Y-13593484D02*
X6614825Y-13488722D01*
X6614825Y-13488722D02*
X6605301Y-13469674D01*
X6605301Y-13469674D02*
X6586253Y-13460150D01*
X6586253Y-13460150D02*
X6557682Y-13460150D01*
X6557682Y-13460150D02*
X6538634Y-13469674D01*
X6538634Y-13469674D02*
X6529110Y-13479198D01*
X6738634Y-13593484D02*
X6719587Y-13583960D01*
X6719587Y-13583960D02*
X6710063Y-13574436D01*
X6710063Y-13574436D02*
X6700539Y-13555388D01*
X6700539Y-13555388D02*
X6700539Y-13498246D01*
X6700539Y-13498246D02*
X6710063Y-13479198D01*
X6710063Y-13479198D02*
X6719587Y-13469674D01*
X6719587Y-13469674D02*
X6738634Y-13460150D01*
X6738634Y-13460150D02*
X6767206Y-13460150D01*
X6767206Y-13460150D02*
X6786253Y-13469674D01*
X6786253Y-13469674D02*
X6795777Y-13479198D01*
X6795777Y-13479198D02*
X6805301Y-13498246D01*
X6805301Y-13498246D02*
X6805301Y-13555388D01*
X6805301Y-13555388D02*
X6795777Y-13574436D01*
X6795777Y-13574436D02*
X6786253Y-13583960D01*
X6786253Y-13583960D02*
X6767206Y-13593484D01*
X6767206Y-13593484D02*
X6738634Y-13593484D01*
X6919587Y-13593484D02*
X6900539Y-13583960D01*
X6900539Y-13583960D02*
X6891015Y-13564912D01*
X6891015Y-13564912D02*
X6891015Y-13393484D01*
X7071968Y-13583960D02*
X7052920Y-13593484D01*
X7052920Y-13593484D02*
X7014825Y-13593484D01*
X7014825Y-13593484D02*
X6995777Y-13583960D01*
X6995777Y-13583960D02*
X6986253Y-13564912D01*
X6986253Y-13564912D02*
X6986253Y-13488722D01*
X6986253Y-13488722D02*
X6995777Y-13469674D01*
X6995777Y-13469674D02*
X7014825Y-13460150D01*
X7014825Y-13460150D02*
X7052920Y-13460150D01*
X7052920Y-13460150D02*
X7071968Y-13469674D01*
X7071968Y-13469674D02*
X7081491Y-13488722D01*
X7081491Y-13488722D02*
X7081491Y-13507769D01*
X7081491Y-13507769D02*
X6986253Y-13526817D01*
X7157682Y-13583960D02*
X7176730Y-13593484D01*
X7176730Y-13593484D02*
X7214825Y-13593484D01*
X7214825Y-13593484D02*
X7233872Y-13583960D01*
X7233872Y-13583960D02*
X7243396Y-13564912D01*
X7243396Y-13564912D02*
X7243396Y-13555388D01*
X7243396Y-13555388D02*
X7233872Y-13536341D01*
X7233872Y-13536341D02*
X7214825Y-13526817D01*
X7214825Y-13526817D02*
X7186253Y-13526817D01*
X7186253Y-13526817D02*
X7167206Y-13517293D01*
X7167206Y-13517293D02*
X7157682Y-13498246D01*
X7157682Y-13498246D02*
X7157682Y-13488722D01*
X7157682Y-13488722D02*
X7167206Y-13469674D01*
X7167206Y-13469674D02*
X7186253Y-13460150D01*
X7186253Y-13460150D02*
X7214825Y-13460150D01*
X7214825Y-13460150D02*
X7233872Y-13469674D01*
X7310063Y-13669674D02*
X7319587Y-13660150D01*
X7319587Y-13660150D02*
X7338634Y-13631579D01*
X7338634Y-13631579D02*
X7348158Y-13612531D01*
X7348158Y-13612531D02*
X7357682Y-13583960D01*
X7357682Y-13583960D02*
X7367206Y-13536341D01*
X7367206Y-13536341D02*
X7367206Y-13498246D01*
X7367206Y-13498246D02*
X7357682Y-13450627D01*
X7357682Y-13450627D02*
X7348158Y-13422055D01*
X7348158Y-13422055D02*
X7338634Y-13403008D01*
X7338634Y-13403008D02*
X7319587Y-13374436D01*
X7319587Y-13374436D02*
X7310063Y-13364912D01*
D10*
X2485000Y-13816000D02*
X2535000Y-13766000D01*
X2485000Y-13716000D01*
X2435000Y-13766000D01*
X2485000Y-13816000D01*
D11*
X2900539Y-13857484D02*
X2786253Y-13857484D01*
X2843396Y-13857484D02*
X2843396Y-13657484D01*
X2843396Y-13657484D02*
X2824348Y-13686055D01*
X2824348Y-13686055D02*
X2805301Y-13705103D01*
X2805301Y-13705103D02*
X2786253Y-13714627D01*
X2986253Y-13838436D02*
X2995777Y-13847960D01*
X2995777Y-13847960D02*
X2986253Y-13857484D01*
X2986253Y-13857484D02*
X2976729Y-13847960D01*
X2976729Y-13847960D02*
X2986253Y-13838436D01*
X2986253Y-13838436D02*
X2986253Y-13857484D01*
X3119586Y-13657484D02*
X3138634Y-13657484D01*
X3138634Y-13657484D02*
X3157682Y-13667008D01*
X3157682Y-13667008D02*
X3167205Y-13676531D01*
X3167205Y-13676531D02*
X3176729Y-13695579D01*
X3176729Y-13695579D02*
X3186253Y-13733674D01*
X3186253Y-13733674D02*
X3186253Y-13781293D01*
X3186253Y-13781293D02*
X3176729Y-13819388D01*
X3176729Y-13819388D02*
X3167205Y-13838436D01*
X3167205Y-13838436D02*
X3157682Y-13847960D01*
X3157682Y-13847960D02*
X3138634Y-13857484D01*
X3138634Y-13857484D02*
X3119586Y-13857484D01*
X3119586Y-13857484D02*
X3100539Y-13847960D01*
X3100539Y-13847960D02*
X3091015Y-13838436D01*
X3091015Y-13838436D02*
X3081491Y-13819388D01*
X3081491Y-13819388D02*
X3071967Y-13781293D01*
X3071967Y-13781293D02*
X3071967Y-13733674D01*
X3071967Y-13733674D02*
X3081491Y-13695579D01*
X3081491Y-13695579D02*
X3091015Y-13676531D01*
X3091015Y-13676531D02*
X3100539Y-13667008D01*
X3100539Y-13667008D02*
X3119586Y-13657484D01*
X3310062Y-13657484D02*
X3329110Y-13657484D01*
X3329110Y-13657484D02*
X3348158Y-13667008D01*
X3348158Y-13667008D02*
X3357682Y-13676531D01*
X3357682Y-13676531D02*
X3367205Y-13695579D01*
X3367205Y-13695579D02*
X3376729Y-13733674D01*
X3376729Y-13733674D02*
X3376729Y-13781293D01*
X3376729Y-13781293D02*
X3367205Y-13819388D01*
X3367205Y-13819388D02*
X3357682Y-13838436D01*
X3357682Y-13838436D02*
X3348158Y-13847960D01*
X3348158Y-13847960D02*
X3329110Y-13857484D01*
X3329110Y-13857484D02*
X3310062Y-13857484D01*
X3310062Y-13857484D02*
X3291015Y-13847960D01*
X3291015Y-13847960D02*
X3281491Y-13838436D01*
X3281491Y-13838436D02*
X3271967Y-13819388D01*
X3271967Y-13819388D02*
X3262443Y-13781293D01*
X3262443Y-13781293D02*
X3262443Y-13733674D01*
X3262443Y-13733674D02*
X3271967Y-13695579D01*
X3271967Y-13695579D02*
X3281491Y-13676531D01*
X3281491Y-13676531D02*
X3291015Y-13667008D01*
X3291015Y-13667008D02*
X3310062Y-13657484D01*
X3500539Y-13657484D02*
X3519586Y-13657484D01*
X3519586Y-13657484D02*
X3538634Y-13667008D01*
X3538634Y-13667008D02*
X3548158Y-13676531D01*
X3548158Y-13676531D02*
X3557682Y-13695579D01*
X3557682Y-13695579D02*
X3567205Y-13733674D01*
X3567205Y-13733674D02*
X3567205Y-13781293D01*
X3567205Y-13781293D02*
X3557682Y-13819388D01*
X3557682Y-13819388D02*
X3548158Y-13838436D01*
X3548158Y-13838436D02*
X3538634Y-13847960D01*
X3538634Y-13847960D02*
X3519586Y-13857484D01*
X3519586Y-13857484D02*
X3500539Y-13857484D01*
X3500539Y-13857484D02*
X3481491Y-13847960D01*
X3481491Y-13847960D02*
X3471967Y-13838436D01*
X3471967Y-13838436D02*
X3462443Y-13819388D01*
X3462443Y-13819388D02*
X3452920Y-13781293D01*
X3452920Y-13781293D02*
X3452920Y-13733674D01*
X3452920Y-13733674D02*
X3462443Y-13695579D01*
X3462443Y-13695579D02*
X3471967Y-13676531D01*
X3471967Y-13676531D02*
X3481491Y-13667008D01*
X3481491Y-13667008D02*
X3500539Y-13657484D01*
X3652920Y-13857484D02*
X3652920Y-13724150D01*
X3652920Y-13743198D02*
X3662443Y-13733674D01*
X3662443Y-13733674D02*
X3681491Y-13724150D01*
X3681491Y-13724150D02*
X3710063Y-13724150D01*
X3710063Y-13724150D02*
X3729110Y-13733674D01*
X3729110Y-13733674D02*
X3738634Y-13752722D01*
X3738634Y-13752722D02*
X3738634Y-13857484D01*
X3738634Y-13752722D02*
X3748158Y-13733674D01*
X3748158Y-13733674D02*
X3767205Y-13724150D01*
X3767205Y-13724150D02*
X3795777Y-13724150D01*
X3795777Y-13724150D02*
X3814824Y-13733674D01*
X3814824Y-13733674D02*
X3824348Y-13752722D01*
X3824348Y-13752722D02*
X3824348Y-13857484D01*
X3919586Y-13857484D02*
X3919586Y-13724150D01*
X3919586Y-13743198D02*
X3929110Y-13733674D01*
X3929110Y-13733674D02*
X3948158Y-13724150D01*
X3948158Y-13724150D02*
X3976729Y-13724150D01*
X3976729Y-13724150D02*
X3995777Y-13733674D01*
X3995777Y-13733674D02*
X4005301Y-13752722D01*
X4005301Y-13752722D02*
X4005301Y-13857484D01*
X4005301Y-13752722D02*
X4014824Y-13733674D01*
X4014824Y-13733674D02*
X4033872Y-13724150D01*
X4033872Y-13724150D02*
X4062443Y-13724150D01*
X4062443Y-13724150D02*
X4081491Y-13733674D01*
X4081491Y-13733674D02*
X4091015Y-13752722D01*
X4091015Y-13752722D02*
X4091015Y-13857484D01*
X4481491Y-13647960D02*
X4310063Y-13905103D01*
X4738634Y-13657484D02*
X4757682Y-13657484D01*
X4757682Y-13657484D02*
X4776729Y-13667008D01*
X4776729Y-13667008D02*
X4786253Y-13676531D01*
X4786253Y-13676531D02*
X4795777Y-13695579D01*
X4795777Y-13695579D02*
X4805301Y-13733674D01*
X4805301Y-13733674D02*
X4805301Y-13781293D01*
X4805301Y-13781293D02*
X4795777Y-13819388D01*
X4795777Y-13819388D02*
X4786253Y-13838436D01*
X4786253Y-13838436D02*
X4776729Y-13847960D01*
X4776729Y-13847960D02*
X4757682Y-13857484D01*
X4757682Y-13857484D02*
X4738634Y-13857484D01*
X4738634Y-13857484D02*
X4719587Y-13847960D01*
X4719587Y-13847960D02*
X4710063Y-13838436D01*
X4710063Y-13838436D02*
X4700539Y-13819388D01*
X4700539Y-13819388D02*
X4691015Y-13781293D01*
X4691015Y-13781293D02*
X4691015Y-13733674D01*
X4691015Y-13733674D02*
X4700539Y-13695579D01*
X4700539Y-13695579D02*
X4710063Y-13676531D01*
X4710063Y-13676531D02*
X4719587Y-13667008D01*
X4719587Y-13667008D02*
X4738634Y-13657484D01*
X4891015Y-13838436D02*
X4900539Y-13847960D01*
X4900539Y-13847960D02*
X4891015Y-13857484D01*
X4891015Y-13857484D02*
X4881491Y-13847960D01*
X4881491Y-13847960D02*
X4891015Y-13838436D01*
X4891015Y-13838436D02*
X4891015Y-13857484D01*
X5024348Y-13657484D02*
X5043396Y-13657484D01*
X5043396Y-13657484D02*
X5062444Y-13667008D01*
X5062444Y-13667008D02*
X5071968Y-13676531D01*
X5071968Y-13676531D02*
X5081491Y-13695579D01*
X5081491Y-13695579D02*
X5091015Y-13733674D01*
X5091015Y-13733674D02*
X5091015Y-13781293D01*
X5091015Y-13781293D02*
X5081491Y-13819388D01*
X5081491Y-13819388D02*
X5071968Y-13838436D01*
X5071968Y-13838436D02*
X5062444Y-13847960D01*
X5062444Y-13847960D02*
X5043396Y-13857484D01*
X5043396Y-13857484D02*
X5024348Y-13857484D01*
X5024348Y-13857484D02*
X5005301Y-13847960D01*
X5005301Y-13847960D02*
X4995777Y-13838436D01*
X4995777Y-13838436D02*
X4986253Y-13819388D01*
X4986253Y-13819388D02*
X4976729Y-13781293D01*
X4976729Y-13781293D02*
X4976729Y-13733674D01*
X4976729Y-13733674D02*
X4986253Y-13695579D01*
X4986253Y-13695579D02*
X4995777Y-13676531D01*
X4995777Y-13676531D02*
X5005301Y-13667008D01*
X5005301Y-13667008D02*
X5024348Y-13657484D01*
X5157682Y-13657484D02*
X5281491Y-13657484D01*
X5281491Y-13657484D02*
X5214825Y-13733674D01*
X5214825Y-13733674D02*
X5243396Y-13733674D01*
X5243396Y-13733674D02*
X5262444Y-13743198D01*
X5262444Y-13743198D02*
X5271968Y-13752722D01*
X5271968Y-13752722D02*
X5281491Y-13771769D01*
X5281491Y-13771769D02*
X5281491Y-13819388D01*
X5281491Y-13819388D02*
X5271968Y-13838436D01*
X5271968Y-13838436D02*
X5262444Y-13847960D01*
X5262444Y-13847960D02*
X5243396Y-13857484D01*
X5243396Y-13857484D02*
X5186253Y-13857484D01*
X5186253Y-13857484D02*
X5167206Y-13847960D01*
X5167206Y-13847960D02*
X5157682Y-13838436D01*
X5376729Y-13857484D02*
X5414825Y-13857484D01*
X5414825Y-13857484D02*
X5433872Y-13847960D01*
X5433872Y-13847960D02*
X5443396Y-13838436D01*
X5443396Y-13838436D02*
X5462444Y-13809865D01*
X5462444Y-13809865D02*
X5471968Y-13771769D01*
X5471968Y-13771769D02*
X5471968Y-13695579D01*
X5471968Y-13695579D02*
X5462444Y-13676531D01*
X5462444Y-13676531D02*
X5452920Y-13667008D01*
X5452920Y-13667008D02*
X5433872Y-13657484D01*
X5433872Y-13657484D02*
X5395777Y-13657484D01*
X5395777Y-13657484D02*
X5376729Y-13667008D01*
X5376729Y-13667008D02*
X5367206Y-13676531D01*
X5367206Y-13676531D02*
X5357682Y-13695579D01*
X5357682Y-13695579D02*
X5357682Y-13743198D01*
X5357682Y-13743198D02*
X5367206Y-13762246D01*
X5367206Y-13762246D02*
X5376729Y-13771769D01*
X5376729Y-13771769D02*
X5395777Y-13781293D01*
X5395777Y-13781293D02*
X5433872Y-13781293D01*
X5433872Y-13781293D02*
X5452920Y-13771769D01*
X5452920Y-13771769D02*
X5462444Y-13762246D01*
X5462444Y-13762246D02*
X5471968Y-13743198D01*
X5643396Y-13724150D02*
X5643396Y-13857484D01*
X5595777Y-13647960D02*
X5548158Y-13790817D01*
X5548158Y-13790817D02*
X5671967Y-13790817D01*
X5738634Y-13657484D02*
X5738634Y-13695579D01*
X5814825Y-13657484D02*
X5814825Y-13695579D01*
X6110063Y-13933674D02*
X6100539Y-13924150D01*
X6100539Y-13924150D02*
X6081491Y-13895579D01*
X6081491Y-13895579D02*
X6071968Y-13876531D01*
X6071968Y-13876531D02*
X6062444Y-13847960D01*
X6062444Y-13847960D02*
X6052920Y-13800341D01*
X6052920Y-13800341D02*
X6052920Y-13762246D01*
X6052920Y-13762246D02*
X6062444Y-13714627D01*
X6062444Y-13714627D02*
X6071968Y-13686055D01*
X6071968Y-13686055D02*
X6081491Y-13667008D01*
X6081491Y-13667008D02*
X6100539Y-13638436D01*
X6100539Y-13638436D02*
X6110063Y-13628912D01*
X6291015Y-13857484D02*
X6176729Y-13857484D01*
X6233872Y-13857484D02*
X6233872Y-13657484D01*
X6233872Y-13657484D02*
X6214825Y-13686055D01*
X6214825Y-13686055D02*
X6195777Y-13705103D01*
X6195777Y-13705103D02*
X6176729Y-13714627D01*
X6481491Y-13857484D02*
X6367206Y-13857484D01*
X6424348Y-13857484D02*
X6424348Y-13657484D01*
X6424348Y-13657484D02*
X6405301Y-13686055D01*
X6405301Y-13686055D02*
X6386253Y-13705103D01*
X6386253Y-13705103D02*
X6367206Y-13714627D01*
X6595777Y-13743198D02*
X6576729Y-13733674D01*
X6576729Y-13733674D02*
X6567206Y-13724150D01*
X6567206Y-13724150D02*
X6557682Y-13705103D01*
X6557682Y-13705103D02*
X6557682Y-13695579D01*
X6557682Y-13695579D02*
X6567206Y-13676531D01*
X6567206Y-13676531D02*
X6576729Y-13667008D01*
X6576729Y-13667008D02*
X6595777Y-13657484D01*
X6595777Y-13657484D02*
X6633872Y-13657484D01*
X6633872Y-13657484D02*
X6652920Y-13667008D01*
X6652920Y-13667008D02*
X6662444Y-13676531D01*
X6662444Y-13676531D02*
X6671968Y-13695579D01*
X6671968Y-13695579D02*
X6671968Y-13705103D01*
X6671968Y-13705103D02*
X6662444Y-13724150D01*
X6662444Y-13724150D02*
X6652920Y-13733674D01*
X6652920Y-13733674D02*
X6633872Y-13743198D01*
X6633872Y-13743198D02*
X6595777Y-13743198D01*
X6595777Y-13743198D02*
X6576729Y-13752722D01*
X6576729Y-13752722D02*
X6567206Y-13762246D01*
X6567206Y-13762246D02*
X6557682Y-13781293D01*
X6557682Y-13781293D02*
X6557682Y-13819388D01*
X6557682Y-13819388D02*
X6567206Y-13838436D01*
X6567206Y-13838436D02*
X6576729Y-13847960D01*
X6576729Y-13847960D02*
X6595777Y-13857484D01*
X6595777Y-13857484D02*
X6633872Y-13857484D01*
X6633872Y-13857484D02*
X6652920Y-13847960D01*
X6652920Y-13847960D02*
X6662444Y-13838436D01*
X6662444Y-13838436D02*
X6671968Y-13819388D01*
X6671968Y-13819388D02*
X6671968Y-13781293D01*
X6671968Y-13781293D02*
X6662444Y-13762246D01*
X6662444Y-13762246D02*
X6652920Y-13752722D01*
X6652920Y-13752722D02*
X6633872Y-13743198D01*
X6910063Y-13857484D02*
X6910063Y-13657484D01*
X6995777Y-13857484D02*
X6995777Y-13752722D01*
X6995777Y-13752722D02*
X6986253Y-13733674D01*
X6986253Y-13733674D02*
X6967206Y-13724150D01*
X6967206Y-13724150D02*
X6938634Y-13724150D01*
X6938634Y-13724150D02*
X6919587Y-13733674D01*
X6919587Y-13733674D02*
X6910063Y-13743198D01*
X7119587Y-13857484D02*
X7100539Y-13847960D01*
X7100539Y-13847960D02*
X7091015Y-13838436D01*
X7091015Y-13838436D02*
X7081491Y-13819388D01*
X7081491Y-13819388D02*
X7081491Y-13762246D01*
X7081491Y-13762246D02*
X7091015Y-13743198D01*
X7091015Y-13743198D02*
X7100539Y-13733674D01*
X7100539Y-13733674D02*
X7119587Y-13724150D01*
X7119587Y-13724150D02*
X7148158Y-13724150D01*
X7148158Y-13724150D02*
X7167206Y-13733674D01*
X7167206Y-13733674D02*
X7176730Y-13743198D01*
X7176730Y-13743198D02*
X7186253Y-13762246D01*
X7186253Y-13762246D02*
X7186253Y-13819388D01*
X7186253Y-13819388D02*
X7176730Y-13838436D01*
X7176730Y-13838436D02*
X7167206Y-13847960D01*
X7167206Y-13847960D02*
X7148158Y-13857484D01*
X7148158Y-13857484D02*
X7119587Y-13857484D01*
X7300539Y-13857484D02*
X7281491Y-13847960D01*
X7281491Y-13847960D02*
X7271968Y-13828912D01*
X7271968Y-13828912D02*
X7271968Y-13657484D01*
X7452920Y-13847960D02*
X7433872Y-13857484D01*
X7433872Y-13857484D02*
X7395777Y-13857484D01*
X7395777Y-13857484D02*
X7376730Y-13847960D01*
X7376730Y-13847960D02*
X7367206Y-13828912D01*
X7367206Y-13828912D02*
X7367206Y-13752722D01*
X7367206Y-13752722D02*
X7376730Y-13733674D01*
X7376730Y-13733674D02*
X7395777Y-13724150D01*
X7395777Y-13724150D02*
X7433872Y-13724150D01*
X7433872Y-13724150D02*
X7452920Y-13733674D01*
X7452920Y-13733674D02*
X7462444Y-13752722D01*
X7462444Y-13752722D02*
X7462444Y-13771769D01*
X7462444Y-13771769D02*
X7367206Y-13790817D01*
X7538634Y-13847960D02*
X7557682Y-13857484D01*
X7557682Y-13857484D02*
X7595777Y-13857484D01*
X7595777Y-13857484D02*
X7614825Y-13847960D01*
X7614825Y-13847960D02*
X7624349Y-13828912D01*
X7624349Y-13828912D02*
X7624349Y-13819388D01*
X7624349Y-13819388D02*
X7614825Y-13800341D01*
X7614825Y-13800341D02*
X7595777Y-13790817D01*
X7595777Y-13790817D02*
X7567206Y-13790817D01*
X7567206Y-13790817D02*
X7548158Y-13781293D01*
X7548158Y-13781293D02*
X7538634Y-13762246D01*
X7538634Y-13762246D02*
X7538634Y-13752722D01*
X7538634Y-13752722D02*
X7548158Y-13733674D01*
X7548158Y-13733674D02*
X7567206Y-13724150D01*
X7567206Y-13724150D02*
X7595777Y-13724150D01*
X7595777Y-13724150D02*
X7614825Y-13733674D01*
X7691015Y-13933674D02*
X7700539Y-13924150D01*
X7700539Y-13924150D02*
X7719587Y-13895579D01*
X7719587Y-13895579D02*
X7729111Y-13876531D01*
X7729111Y-13876531D02*
X7738634Y-13847960D01*
X7738634Y-13847960D02*
X7748158Y-13800341D01*
X7748158Y-13800341D02*
X7748158Y-13762246D01*
X7748158Y-13762246D02*
X7738634Y-13714627D01*
X7738634Y-13714627D02*
X7729111Y-13686055D01*
X7729111Y-13686055D02*
X7719587Y-13667008D01*
X7719587Y-13667008D02*
X7700539Y-13638436D01*
X7700539Y-13638436D02*
X7691015Y-13628912D01*
D12*
X2355000Y-13940000D02*
X2535000Y-14120000D01*
X2535000Y-13940000D02*
X2355000Y-14120000D01*
X2535000Y-14030000D02*
G75*
G02*
X2355000Y-14030000I-90000J0D01*
G01*
X2355000Y-14030000D02*
G75*
G02*
X2535000Y-14030000I90000J0D01*
G01*
D11*
X2900539Y-14121484D02*
X2786253Y-14121484D01*
X2843396Y-14121484D02*
X2843396Y-13921484D01*
X2843396Y-13921484D02*
X2824348Y-13950055D01*
X2824348Y-13950055D02*
X2805301Y-13969103D01*
X2805301Y-13969103D02*
X2786253Y-13978627D01*
X2986253Y-14102436D02*
X2995777Y-14111960D01*
X2995777Y-14111960D02*
X2986253Y-14121484D01*
X2986253Y-14121484D02*
X2976729Y-14111960D01*
X2976729Y-14111960D02*
X2986253Y-14102436D01*
X2986253Y-14102436D02*
X2986253Y-14121484D01*
X3110062Y-14007198D02*
X3091015Y-13997674D01*
X3091015Y-13997674D02*
X3081491Y-13988150D01*
X3081491Y-13988150D02*
X3071967Y-13969103D01*
X3071967Y-13969103D02*
X3071967Y-13959579D01*
X3071967Y-13959579D02*
X3081491Y-13940531D01*
X3081491Y-13940531D02*
X3091015Y-13931008D01*
X3091015Y-13931008D02*
X3110062Y-13921484D01*
X3110062Y-13921484D02*
X3148158Y-13921484D01*
X3148158Y-13921484D02*
X3167205Y-13931008D01*
X3167205Y-13931008D02*
X3176729Y-13940531D01*
X3176729Y-13940531D02*
X3186253Y-13959579D01*
X3186253Y-13959579D02*
X3186253Y-13969103D01*
X3186253Y-13969103D02*
X3176729Y-13988150D01*
X3176729Y-13988150D02*
X3167205Y-13997674D01*
X3167205Y-13997674D02*
X3148158Y-14007198D01*
X3148158Y-14007198D02*
X3110062Y-14007198D01*
X3110062Y-14007198D02*
X3091015Y-14016722D01*
X3091015Y-14016722D02*
X3081491Y-14026246D01*
X3081491Y-14026246D02*
X3071967Y-14045293D01*
X3071967Y-14045293D02*
X3071967Y-14083388D01*
X3071967Y-14083388D02*
X3081491Y-14102436D01*
X3081491Y-14102436D02*
X3091015Y-14111960D01*
X3091015Y-14111960D02*
X3110062Y-14121484D01*
X3110062Y-14121484D02*
X3148158Y-14121484D01*
X3148158Y-14121484D02*
X3167205Y-14111960D01*
X3167205Y-14111960D02*
X3176729Y-14102436D01*
X3176729Y-14102436D02*
X3186253Y-14083388D01*
X3186253Y-14083388D02*
X3186253Y-14045293D01*
X3186253Y-14045293D02*
X3176729Y-14026246D01*
X3176729Y-14026246D02*
X3167205Y-14016722D01*
X3167205Y-14016722D02*
X3148158Y-14007198D01*
X3310062Y-13921484D02*
X3329110Y-13921484D01*
X3329110Y-13921484D02*
X3348158Y-13931008D01*
X3348158Y-13931008D02*
X3357682Y-13940531D01*
X3357682Y-13940531D02*
X3367205Y-13959579D01*
X3367205Y-13959579D02*
X3376729Y-13997674D01*
X3376729Y-13997674D02*
X3376729Y-14045293D01*
X3376729Y-14045293D02*
X3367205Y-14083388D01*
X3367205Y-14083388D02*
X3357682Y-14102436D01*
X3357682Y-14102436D02*
X3348158Y-14111960D01*
X3348158Y-14111960D02*
X3329110Y-14121484D01*
X3329110Y-14121484D02*
X3310062Y-14121484D01*
X3310062Y-14121484D02*
X3291015Y-14111960D01*
X3291015Y-14111960D02*
X3281491Y-14102436D01*
X3281491Y-14102436D02*
X3271967Y-14083388D01*
X3271967Y-14083388D02*
X3262443Y-14045293D01*
X3262443Y-14045293D02*
X3262443Y-13997674D01*
X3262443Y-13997674D02*
X3271967Y-13959579D01*
X3271967Y-13959579D02*
X3281491Y-13940531D01*
X3281491Y-13940531D02*
X3291015Y-13931008D01*
X3291015Y-13931008D02*
X3310062Y-13921484D01*
X3500539Y-13921484D02*
X3519586Y-13921484D01*
X3519586Y-13921484D02*
X3538634Y-13931008D01*
X3538634Y-13931008D02*
X3548158Y-13940531D01*
X3548158Y-13940531D02*
X3557682Y-13959579D01*
X3557682Y-13959579D02*
X3567205Y-13997674D01*
X3567205Y-13997674D02*
X3567205Y-14045293D01*
X3567205Y-14045293D02*
X3557682Y-14083388D01*
X3557682Y-14083388D02*
X3548158Y-14102436D01*
X3548158Y-14102436D02*
X3538634Y-14111960D01*
X3538634Y-14111960D02*
X3519586Y-14121484D01*
X3519586Y-14121484D02*
X3500539Y-14121484D01*
X3500539Y-14121484D02*
X3481491Y-14111960D01*
X3481491Y-14111960D02*
X3471967Y-14102436D01*
X3471967Y-14102436D02*
X3462443Y-14083388D01*
X3462443Y-14083388D02*
X3452920Y-14045293D01*
X3452920Y-14045293D02*
X3452920Y-13997674D01*
X3452920Y-13997674D02*
X3462443Y-13959579D01*
X3462443Y-13959579D02*
X3471967Y-13940531D01*
X3471967Y-13940531D02*
X3481491Y-13931008D01*
X3481491Y-13931008D02*
X3500539Y-13921484D01*
X3652920Y-14121484D02*
X3652920Y-13988150D01*
X3652920Y-14007198D02*
X3662443Y-13997674D01*
X3662443Y-13997674D02*
X3681491Y-13988150D01*
X3681491Y-13988150D02*
X3710063Y-13988150D01*
X3710063Y-13988150D02*
X3729110Y-13997674D01*
X3729110Y-13997674D02*
X3738634Y-14016722D01*
X3738634Y-14016722D02*
X3738634Y-14121484D01*
X3738634Y-14016722D02*
X3748158Y-13997674D01*
X3748158Y-13997674D02*
X3767205Y-13988150D01*
X3767205Y-13988150D02*
X3795777Y-13988150D01*
X3795777Y-13988150D02*
X3814824Y-13997674D01*
X3814824Y-13997674D02*
X3824348Y-14016722D01*
X3824348Y-14016722D02*
X3824348Y-14121484D01*
X3919586Y-14121484D02*
X3919586Y-13988150D01*
X3919586Y-14007198D02*
X3929110Y-13997674D01*
X3929110Y-13997674D02*
X3948158Y-13988150D01*
X3948158Y-13988150D02*
X3976729Y-13988150D01*
X3976729Y-13988150D02*
X3995777Y-13997674D01*
X3995777Y-13997674D02*
X4005301Y-14016722D01*
X4005301Y-14016722D02*
X4005301Y-14121484D01*
X4005301Y-14016722D02*
X4014824Y-13997674D01*
X4014824Y-13997674D02*
X4033872Y-13988150D01*
X4033872Y-13988150D02*
X4062443Y-13988150D01*
X4062443Y-13988150D02*
X4081491Y-13997674D01*
X4081491Y-13997674D02*
X4091015Y-14016722D01*
X4091015Y-14016722D02*
X4091015Y-14121484D01*
X4481491Y-13911960D02*
X4310063Y-14169103D01*
X4738634Y-13921484D02*
X4757682Y-13921484D01*
X4757682Y-13921484D02*
X4776729Y-13931008D01*
X4776729Y-13931008D02*
X4786253Y-13940531D01*
X4786253Y-13940531D02*
X4795777Y-13959579D01*
X4795777Y-13959579D02*
X4805301Y-13997674D01*
X4805301Y-13997674D02*
X4805301Y-14045293D01*
X4805301Y-14045293D02*
X4795777Y-14083388D01*
X4795777Y-14083388D02*
X4786253Y-14102436D01*
X4786253Y-14102436D02*
X4776729Y-14111960D01*
X4776729Y-14111960D02*
X4757682Y-14121484D01*
X4757682Y-14121484D02*
X4738634Y-14121484D01*
X4738634Y-14121484D02*
X4719587Y-14111960D01*
X4719587Y-14111960D02*
X4710063Y-14102436D01*
X4710063Y-14102436D02*
X4700539Y-14083388D01*
X4700539Y-14083388D02*
X4691015Y-14045293D01*
X4691015Y-14045293D02*
X4691015Y-13997674D01*
X4691015Y-13997674D02*
X4700539Y-13959579D01*
X4700539Y-13959579D02*
X4710063Y-13940531D01*
X4710063Y-13940531D02*
X4719587Y-13931008D01*
X4719587Y-13931008D02*
X4738634Y-13921484D01*
X4891015Y-14102436D02*
X4900539Y-14111960D01*
X4900539Y-14111960D02*
X4891015Y-14121484D01*
X4891015Y-14121484D02*
X4881491Y-14111960D01*
X4881491Y-14111960D02*
X4891015Y-14102436D01*
X4891015Y-14102436D02*
X4891015Y-14121484D01*
X5024348Y-13921484D02*
X5043396Y-13921484D01*
X5043396Y-13921484D02*
X5062444Y-13931008D01*
X5062444Y-13931008D02*
X5071968Y-13940531D01*
X5071968Y-13940531D02*
X5081491Y-13959579D01*
X5081491Y-13959579D02*
X5091015Y-13997674D01*
X5091015Y-13997674D02*
X5091015Y-14045293D01*
X5091015Y-14045293D02*
X5081491Y-14083388D01*
X5081491Y-14083388D02*
X5071968Y-14102436D01*
X5071968Y-14102436D02*
X5062444Y-14111960D01*
X5062444Y-14111960D02*
X5043396Y-14121484D01*
X5043396Y-14121484D02*
X5024348Y-14121484D01*
X5024348Y-14121484D02*
X5005301Y-14111960D01*
X5005301Y-14111960D02*
X4995777Y-14102436D01*
X4995777Y-14102436D02*
X4986253Y-14083388D01*
X4986253Y-14083388D02*
X4976729Y-14045293D01*
X4976729Y-14045293D02*
X4976729Y-13997674D01*
X4976729Y-13997674D02*
X4986253Y-13959579D01*
X4986253Y-13959579D02*
X4995777Y-13940531D01*
X4995777Y-13940531D02*
X5005301Y-13931008D01*
X5005301Y-13931008D02*
X5024348Y-13921484D01*
X5157682Y-13921484D02*
X5291015Y-13921484D01*
X5291015Y-13921484D02*
X5205301Y-14121484D01*
X5405301Y-13921484D02*
X5424349Y-13921484D01*
X5424349Y-13921484D02*
X5443396Y-13931008D01*
X5443396Y-13931008D02*
X5452920Y-13940531D01*
X5452920Y-13940531D02*
X5462444Y-13959579D01*
X5462444Y-13959579D02*
X5471968Y-13997674D01*
X5471968Y-13997674D02*
X5471968Y-14045293D01*
X5471968Y-14045293D02*
X5462444Y-14083388D01*
X5462444Y-14083388D02*
X5452920Y-14102436D01*
X5452920Y-14102436D02*
X5443396Y-14111960D01*
X5443396Y-14111960D02*
X5424349Y-14121484D01*
X5424349Y-14121484D02*
X5405301Y-14121484D01*
X5405301Y-14121484D02*
X5386253Y-14111960D01*
X5386253Y-14111960D02*
X5376729Y-14102436D01*
X5376729Y-14102436D02*
X5367206Y-14083388D01*
X5367206Y-14083388D02*
X5357682Y-14045293D01*
X5357682Y-14045293D02*
X5357682Y-13997674D01*
X5357682Y-13997674D02*
X5367206Y-13959579D01*
X5367206Y-13959579D02*
X5376729Y-13940531D01*
X5376729Y-13940531D02*
X5386253Y-13931008D01*
X5386253Y-13931008D02*
X5405301Y-13921484D01*
X5567206Y-14121484D02*
X5605301Y-14121484D01*
X5605301Y-14121484D02*
X5624348Y-14111960D01*
X5624348Y-14111960D02*
X5633872Y-14102436D01*
X5633872Y-14102436D02*
X5652920Y-14073865D01*
X5652920Y-14073865D02*
X5662444Y-14035769D01*
X5662444Y-14035769D02*
X5662444Y-13959579D01*
X5662444Y-13959579D02*
X5652920Y-13940531D01*
X5652920Y-13940531D02*
X5643396Y-13931008D01*
X5643396Y-13931008D02*
X5624348Y-13921484D01*
X5624348Y-13921484D02*
X5586253Y-13921484D01*
X5586253Y-13921484D02*
X5567206Y-13931008D01*
X5567206Y-13931008D02*
X5557682Y-13940531D01*
X5557682Y-13940531D02*
X5548158Y-13959579D01*
X5548158Y-13959579D02*
X5548158Y-14007198D01*
X5548158Y-14007198D02*
X5557682Y-14026246D01*
X5557682Y-14026246D02*
X5567206Y-14035769D01*
X5567206Y-14035769D02*
X5586253Y-14045293D01*
X5586253Y-14045293D02*
X5624348Y-14045293D01*
X5624348Y-14045293D02*
X5643396Y-14035769D01*
X5643396Y-14035769D02*
X5652920Y-14026246D01*
X5652920Y-14026246D02*
X5662444Y-14007198D01*
X5738634Y-13921484D02*
X5738634Y-13959579D01*
X5814825Y-13921484D02*
X5814825Y-13959579D01*
X6110063Y-14197674D02*
X6100539Y-14188150D01*
X6100539Y-14188150D02*
X6081491Y-14159579D01*
X6081491Y-14159579D02*
X6071968Y-14140531D01*
X6071968Y-14140531D02*
X6062444Y-14111960D01*
X6062444Y-14111960D02*
X6052920Y-14064341D01*
X6052920Y-14064341D02*
X6052920Y-14026246D01*
X6052920Y-14026246D02*
X6062444Y-13978627D01*
X6062444Y-13978627D02*
X6071968Y-13950055D01*
X6071968Y-13950055D02*
X6081491Y-13931008D01*
X6081491Y-13931008D02*
X6100539Y-13902436D01*
X6100539Y-13902436D02*
X6110063Y-13892912D01*
X6176729Y-13940531D02*
X6186253Y-13931008D01*
X6186253Y-13931008D02*
X6205301Y-13921484D01*
X6205301Y-13921484D02*
X6252920Y-13921484D01*
X6252920Y-13921484D02*
X6271968Y-13931008D01*
X6271968Y-13931008D02*
X6281491Y-13940531D01*
X6281491Y-13940531D02*
X6291015Y-13959579D01*
X6291015Y-13959579D02*
X6291015Y-13978627D01*
X6291015Y-13978627D02*
X6281491Y-14007198D01*
X6281491Y-14007198D02*
X6167206Y-14121484D01*
X6167206Y-14121484D02*
X6291015Y-14121484D01*
X6414825Y-13921484D02*
X6433872Y-13921484D01*
X6433872Y-13921484D02*
X6452920Y-13931008D01*
X6452920Y-13931008D02*
X6462444Y-13940531D01*
X6462444Y-13940531D02*
X6471968Y-13959579D01*
X6471968Y-13959579D02*
X6481491Y-13997674D01*
X6481491Y-13997674D02*
X6481491Y-14045293D01*
X6481491Y-14045293D02*
X6471968Y-14083388D01*
X6471968Y-14083388D02*
X6462444Y-14102436D01*
X6462444Y-14102436D02*
X6452920Y-14111960D01*
X6452920Y-14111960D02*
X6433872Y-14121484D01*
X6433872Y-14121484D02*
X6414825Y-14121484D01*
X6414825Y-14121484D02*
X6395777Y-14111960D01*
X6395777Y-14111960D02*
X6386253Y-14102436D01*
X6386253Y-14102436D02*
X6376729Y-14083388D01*
X6376729Y-14083388D02*
X6367206Y-14045293D01*
X6367206Y-14045293D02*
X6367206Y-13997674D01*
X6367206Y-13997674D02*
X6376729Y-13959579D01*
X6376729Y-13959579D02*
X6386253Y-13940531D01*
X6386253Y-13940531D02*
X6395777Y-13931008D01*
X6395777Y-13931008D02*
X6414825Y-13921484D01*
X6719587Y-14121484D02*
X6719587Y-13921484D01*
X6805301Y-14121484D02*
X6805301Y-14016722D01*
X6805301Y-14016722D02*
X6795777Y-13997674D01*
X6795777Y-13997674D02*
X6776730Y-13988150D01*
X6776730Y-13988150D02*
X6748158Y-13988150D01*
X6748158Y-13988150D02*
X6729110Y-13997674D01*
X6729110Y-13997674D02*
X6719587Y-14007198D01*
X6929110Y-14121484D02*
X6910063Y-14111960D01*
X6910063Y-14111960D02*
X6900539Y-14102436D01*
X6900539Y-14102436D02*
X6891015Y-14083388D01*
X6891015Y-14083388D02*
X6891015Y-14026246D01*
X6891015Y-14026246D02*
X6900539Y-14007198D01*
X6900539Y-14007198D02*
X6910063Y-13997674D01*
X6910063Y-13997674D02*
X6929110Y-13988150D01*
X6929110Y-13988150D02*
X6957682Y-13988150D01*
X6957682Y-13988150D02*
X6976730Y-13997674D01*
X6976730Y-13997674D02*
X6986253Y-14007198D01*
X6986253Y-14007198D02*
X6995777Y-14026246D01*
X6995777Y-14026246D02*
X6995777Y-14083388D01*
X6995777Y-14083388D02*
X6986253Y-14102436D01*
X6986253Y-14102436D02*
X6976730Y-14111960D01*
X6976730Y-14111960D02*
X6957682Y-14121484D01*
X6957682Y-14121484D02*
X6929110Y-14121484D01*
X7110063Y-14121484D02*
X7091015Y-14111960D01*
X7091015Y-14111960D02*
X7081491Y-14092912D01*
X7081491Y-14092912D02*
X7081491Y-13921484D01*
X7262444Y-14111960D02*
X7243396Y-14121484D01*
X7243396Y-14121484D02*
X7205301Y-14121484D01*
X7205301Y-14121484D02*
X7186253Y-14111960D01*
X7186253Y-14111960D02*
X7176730Y-14092912D01*
X7176730Y-14092912D02*
X7176730Y-14016722D01*
X7176730Y-14016722D02*
X7186253Y-13997674D01*
X7186253Y-13997674D02*
X7205301Y-13988150D01*
X7205301Y-13988150D02*
X7243396Y-13988150D01*
X7243396Y-13988150D02*
X7262444Y-13997674D01*
X7262444Y-13997674D02*
X7271968Y-14016722D01*
X7271968Y-14016722D02*
X7271968Y-14035769D01*
X7271968Y-14035769D02*
X7176730Y-14054817D01*
X7348158Y-14111960D02*
X7367206Y-14121484D01*
X7367206Y-14121484D02*
X7405301Y-14121484D01*
X7405301Y-14121484D02*
X7424349Y-14111960D01*
X7424349Y-14111960D02*
X7433872Y-14092912D01*
X7433872Y-14092912D02*
X7433872Y-14083388D01*
X7433872Y-14083388D02*
X7424349Y-14064341D01*
X7424349Y-14064341D02*
X7405301Y-14054817D01*
X7405301Y-14054817D02*
X7376730Y-14054817D01*
X7376730Y-14054817D02*
X7357682Y-14045293D01*
X7357682Y-14045293D02*
X7348158Y-14026246D01*
X7348158Y-14026246D02*
X7348158Y-14016722D01*
X7348158Y-14016722D02*
X7357682Y-13997674D01*
X7357682Y-13997674D02*
X7376730Y-13988150D01*
X7376730Y-13988150D02*
X7405301Y-13988150D01*
X7405301Y-13988150D02*
X7424349Y-13997674D01*
X7500539Y-14197674D02*
X7510063Y-14188150D01*
X7510063Y-14188150D02*
X7529111Y-14159579D01*
X7529111Y-14159579D02*
X7538634Y-14140531D01*
X7538634Y-14140531D02*
X7548158Y-14111960D01*
X7548158Y-14111960D02*
X7557682Y-14064341D01*
X7557682Y-14064341D02*
X7557682Y-14026246D01*
X7557682Y-14026246D02*
X7548158Y-13978627D01*
X7548158Y-13978627D02*
X7538634Y-13950055D01*
X7538634Y-13950055D02*
X7529111Y-13931008D01*
X7529111Y-13931008D02*
X7510063Y-13902436D01*
X7510063Y-13902436D02*
X7500539Y-13892912D01*
X2335000Y-14230000D02*
X2535000Y-14430000D01*
X2535000Y-14230000D02*
X2335000Y-14430000D01*
X2435000Y-14230000D02*
X2435000Y-14430000D01*
X2335000Y-14330000D02*
X2535000Y-14330000D01*
X2776729Y-14221484D02*
X2900539Y-14221484D01*
X2900539Y-14221484D02*
X2833872Y-14297674D01*
X2833872Y-14297674D02*
X2862443Y-14297674D01*
X2862443Y-14297674D02*
X2881491Y-14307198D01*
X2881491Y-14307198D02*
X2891015Y-14316722D01*
X2891015Y-14316722D02*
X2900539Y-14335769D01*
X2900539Y-14335769D02*
X2900539Y-14383388D01*
X2900539Y-14383388D02*
X2891015Y-14402436D01*
X2891015Y-14402436D02*
X2881491Y-14411960D01*
X2881491Y-14411960D02*
X2862443Y-14421484D01*
X2862443Y-14421484D02*
X2805301Y-14421484D01*
X2805301Y-14421484D02*
X2786253Y-14411960D01*
X2786253Y-14411960D02*
X2776729Y-14402436D01*
X2986253Y-14402436D02*
X2995777Y-14411960D01*
X2995777Y-14411960D02*
X2986253Y-14421484D01*
X2986253Y-14421484D02*
X2976729Y-14411960D01*
X2976729Y-14411960D02*
X2986253Y-14402436D01*
X2986253Y-14402436D02*
X2986253Y-14421484D01*
X3071967Y-14240531D02*
X3081491Y-14231008D01*
X3081491Y-14231008D02*
X3100539Y-14221484D01*
X3100539Y-14221484D02*
X3148158Y-14221484D01*
X3148158Y-14221484D02*
X3167205Y-14231008D01*
X3167205Y-14231008D02*
X3176729Y-14240531D01*
X3176729Y-14240531D02*
X3186253Y-14259579D01*
X3186253Y-14259579D02*
X3186253Y-14278627D01*
X3186253Y-14278627D02*
X3176729Y-14307198D01*
X3176729Y-14307198D02*
X3062443Y-14421484D01*
X3062443Y-14421484D02*
X3186253Y-14421484D01*
X3310062Y-14221484D02*
X3329110Y-14221484D01*
X3329110Y-14221484D02*
X3348158Y-14231008D01*
X3348158Y-14231008D02*
X3357682Y-14240531D01*
X3357682Y-14240531D02*
X3367205Y-14259579D01*
X3367205Y-14259579D02*
X3376729Y-14297674D01*
X3376729Y-14297674D02*
X3376729Y-14345293D01*
X3376729Y-14345293D02*
X3367205Y-14383388D01*
X3367205Y-14383388D02*
X3357682Y-14402436D01*
X3357682Y-14402436D02*
X3348158Y-14411960D01*
X3348158Y-14411960D02*
X3329110Y-14421484D01*
X3329110Y-14421484D02*
X3310062Y-14421484D01*
X3310062Y-14421484D02*
X3291015Y-14411960D01*
X3291015Y-14411960D02*
X3281491Y-14402436D01*
X3281491Y-14402436D02*
X3271967Y-14383388D01*
X3271967Y-14383388D02*
X3262443Y-14345293D01*
X3262443Y-14345293D02*
X3262443Y-14297674D01*
X3262443Y-14297674D02*
X3271967Y-14259579D01*
X3271967Y-14259579D02*
X3281491Y-14240531D01*
X3281491Y-14240531D02*
X3291015Y-14231008D01*
X3291015Y-14231008D02*
X3310062Y-14221484D01*
X3500539Y-14221484D02*
X3519586Y-14221484D01*
X3519586Y-14221484D02*
X3538634Y-14231008D01*
X3538634Y-14231008D02*
X3548158Y-14240531D01*
X3548158Y-14240531D02*
X3557682Y-14259579D01*
X3557682Y-14259579D02*
X3567205Y-14297674D01*
X3567205Y-14297674D02*
X3567205Y-14345293D01*
X3567205Y-14345293D02*
X3557682Y-14383388D01*
X3557682Y-14383388D02*
X3548158Y-14402436D01*
X3548158Y-14402436D02*
X3538634Y-14411960D01*
X3538634Y-14411960D02*
X3519586Y-14421484D01*
X3519586Y-14421484D02*
X3500539Y-14421484D01*
X3500539Y-14421484D02*
X3481491Y-14411960D01*
X3481491Y-14411960D02*
X3471967Y-14402436D01*
X3471967Y-14402436D02*
X3462443Y-14383388D01*
X3462443Y-14383388D02*
X3452920Y-14345293D01*
X3452920Y-14345293D02*
X3452920Y-14297674D01*
X3452920Y-14297674D02*
X3462443Y-14259579D01*
X3462443Y-14259579D02*
X3471967Y-14240531D01*
X3471967Y-14240531D02*
X3481491Y-14231008D01*
X3481491Y-14231008D02*
X3500539Y-14221484D01*
X3652920Y-14421484D02*
X3652920Y-14288150D01*
X3652920Y-14307198D02*
X3662443Y-14297674D01*
X3662443Y-14297674D02*
X3681491Y-14288150D01*
X3681491Y-14288150D02*
X3710063Y-14288150D01*
X3710063Y-14288150D02*
X3729110Y-14297674D01*
X3729110Y-14297674D02*
X3738634Y-14316722D01*
X3738634Y-14316722D02*
X3738634Y-14421484D01*
X3738634Y-14316722D02*
X3748158Y-14297674D01*
X3748158Y-14297674D02*
X3767205Y-14288150D01*
X3767205Y-14288150D02*
X3795777Y-14288150D01*
X3795777Y-14288150D02*
X3814824Y-14297674D01*
X3814824Y-14297674D02*
X3824348Y-14316722D01*
X3824348Y-14316722D02*
X3824348Y-14421484D01*
X3919586Y-14421484D02*
X3919586Y-14288150D01*
X3919586Y-14307198D02*
X3929110Y-14297674D01*
X3929110Y-14297674D02*
X3948158Y-14288150D01*
X3948158Y-14288150D02*
X3976729Y-14288150D01*
X3976729Y-14288150D02*
X3995777Y-14297674D01*
X3995777Y-14297674D02*
X4005301Y-14316722D01*
X4005301Y-14316722D02*
X4005301Y-14421484D01*
X4005301Y-14316722D02*
X4014824Y-14297674D01*
X4014824Y-14297674D02*
X4033872Y-14288150D01*
X4033872Y-14288150D02*
X4062443Y-14288150D01*
X4062443Y-14288150D02*
X4081491Y-14297674D01*
X4081491Y-14297674D02*
X4091015Y-14316722D01*
X4091015Y-14316722D02*
X4091015Y-14421484D01*
X4481491Y-14211960D02*
X4310063Y-14469103D01*
X4738634Y-14221484D02*
X4757682Y-14221484D01*
X4757682Y-14221484D02*
X4776729Y-14231008D01*
X4776729Y-14231008D02*
X4786253Y-14240531D01*
X4786253Y-14240531D02*
X4795777Y-14259579D01*
X4795777Y-14259579D02*
X4805301Y-14297674D01*
X4805301Y-14297674D02*
X4805301Y-14345293D01*
X4805301Y-14345293D02*
X4795777Y-14383388D01*
X4795777Y-14383388D02*
X4786253Y-14402436D01*
X4786253Y-14402436D02*
X4776729Y-14411960D01*
X4776729Y-14411960D02*
X4757682Y-14421484D01*
X4757682Y-14421484D02*
X4738634Y-14421484D01*
X4738634Y-14421484D02*
X4719587Y-14411960D01*
X4719587Y-14411960D02*
X4710063Y-14402436D01*
X4710063Y-14402436D02*
X4700539Y-14383388D01*
X4700539Y-14383388D02*
X4691015Y-14345293D01*
X4691015Y-14345293D02*
X4691015Y-14297674D01*
X4691015Y-14297674D02*
X4700539Y-14259579D01*
X4700539Y-14259579D02*
X4710063Y-14240531D01*
X4710063Y-14240531D02*
X4719587Y-14231008D01*
X4719587Y-14231008D02*
X4738634Y-14221484D01*
X4891015Y-14402436D02*
X4900539Y-14411960D01*
X4900539Y-14411960D02*
X4891015Y-14421484D01*
X4891015Y-14421484D02*
X4881491Y-14411960D01*
X4881491Y-14411960D02*
X4891015Y-14402436D01*
X4891015Y-14402436D02*
X4891015Y-14421484D01*
X5091015Y-14421484D02*
X4976729Y-14421484D01*
X5033872Y-14421484D02*
X5033872Y-14221484D01*
X5033872Y-14221484D02*
X5014825Y-14250055D01*
X5014825Y-14250055D02*
X4995777Y-14269103D01*
X4995777Y-14269103D02*
X4976729Y-14278627D01*
X5167206Y-14240531D02*
X5176729Y-14231008D01*
X5176729Y-14231008D02*
X5195777Y-14221484D01*
X5195777Y-14221484D02*
X5243396Y-14221484D01*
X5243396Y-14221484D02*
X5262444Y-14231008D01*
X5262444Y-14231008D02*
X5271968Y-14240531D01*
X5271968Y-14240531D02*
X5281491Y-14259579D01*
X5281491Y-14259579D02*
X5281491Y-14278627D01*
X5281491Y-14278627D02*
X5271968Y-14307198D01*
X5271968Y-14307198D02*
X5157682Y-14421484D01*
X5157682Y-14421484D02*
X5281491Y-14421484D01*
X5452920Y-14221484D02*
X5414825Y-14221484D01*
X5414825Y-14221484D02*
X5395777Y-14231008D01*
X5395777Y-14231008D02*
X5386253Y-14240531D01*
X5386253Y-14240531D02*
X5367206Y-14269103D01*
X5367206Y-14269103D02*
X5357682Y-14307198D01*
X5357682Y-14307198D02*
X5357682Y-14383388D01*
X5357682Y-14383388D02*
X5367206Y-14402436D01*
X5367206Y-14402436D02*
X5376729Y-14411960D01*
X5376729Y-14411960D02*
X5395777Y-14421484D01*
X5395777Y-14421484D02*
X5433872Y-14421484D01*
X5433872Y-14421484D02*
X5452920Y-14411960D01*
X5452920Y-14411960D02*
X5462444Y-14402436D01*
X5462444Y-14402436D02*
X5471968Y-14383388D01*
X5471968Y-14383388D02*
X5471968Y-14335769D01*
X5471968Y-14335769D02*
X5462444Y-14316722D01*
X5462444Y-14316722D02*
X5452920Y-14307198D01*
X5452920Y-14307198D02*
X5433872Y-14297674D01*
X5433872Y-14297674D02*
X5395777Y-14297674D01*
X5395777Y-14297674D02*
X5376729Y-14307198D01*
X5376729Y-14307198D02*
X5367206Y-14316722D01*
X5367206Y-14316722D02*
X5357682Y-14335769D01*
X5595777Y-14221484D02*
X5614825Y-14221484D01*
X5614825Y-14221484D02*
X5633872Y-14231008D01*
X5633872Y-14231008D02*
X5643396Y-14240531D01*
X5643396Y-14240531D02*
X5652920Y-14259579D01*
X5652920Y-14259579D02*
X5662444Y-14297674D01*
X5662444Y-14297674D02*
X5662444Y-14345293D01*
X5662444Y-14345293D02*
X5652920Y-14383388D01*
X5652920Y-14383388D02*
X5643396Y-14402436D01*
X5643396Y-14402436D02*
X5633872Y-14411960D01*
X5633872Y-14411960D02*
X5614825Y-14421484D01*
X5614825Y-14421484D02*
X5595777Y-14421484D01*
X5595777Y-14421484D02*
X5576729Y-14411960D01*
X5576729Y-14411960D02*
X5567206Y-14402436D01*
X5567206Y-14402436D02*
X5557682Y-14383388D01*
X5557682Y-14383388D02*
X5548158Y-14345293D01*
X5548158Y-14345293D02*
X5548158Y-14297674D01*
X5548158Y-14297674D02*
X5557682Y-14259579D01*
X5557682Y-14259579D02*
X5567206Y-14240531D01*
X5567206Y-14240531D02*
X5576729Y-14231008D01*
X5576729Y-14231008D02*
X5595777Y-14221484D01*
X5738634Y-14221484D02*
X5738634Y-14259579D01*
X5814825Y-14221484D02*
X5814825Y-14259579D01*
X6110063Y-14497674D02*
X6100539Y-14488150D01*
X6100539Y-14488150D02*
X6081491Y-14459579D01*
X6081491Y-14459579D02*
X6071968Y-14440531D01*
X6071968Y-14440531D02*
X6062444Y-14411960D01*
X6062444Y-14411960D02*
X6052920Y-14364341D01*
X6052920Y-14364341D02*
X6052920Y-14326246D01*
X6052920Y-14326246D02*
X6062444Y-14278627D01*
X6062444Y-14278627D02*
X6071968Y-14250055D01*
X6071968Y-14250055D02*
X6081491Y-14231008D01*
X6081491Y-14231008D02*
X6100539Y-14202436D01*
X6100539Y-14202436D02*
X6110063Y-14192912D01*
X6271968Y-14288150D02*
X6271968Y-14421484D01*
X6224348Y-14211960D02*
X6176729Y-14354817D01*
X6176729Y-14354817D02*
X6300539Y-14354817D01*
X6529110Y-14421484D02*
X6529110Y-14221484D01*
X6614825Y-14421484D02*
X6614825Y-14316722D01*
X6614825Y-14316722D02*
X6605301Y-14297674D01*
X6605301Y-14297674D02*
X6586253Y-14288150D01*
X6586253Y-14288150D02*
X6557682Y-14288150D01*
X6557682Y-14288150D02*
X6538634Y-14297674D01*
X6538634Y-14297674D02*
X6529110Y-14307198D01*
X6738634Y-14421484D02*
X6719587Y-14411960D01*
X6719587Y-14411960D02*
X6710063Y-14402436D01*
X6710063Y-14402436D02*
X6700539Y-14383388D01*
X6700539Y-14383388D02*
X6700539Y-14326246D01*
X6700539Y-14326246D02*
X6710063Y-14307198D01*
X6710063Y-14307198D02*
X6719587Y-14297674D01*
X6719587Y-14297674D02*
X6738634Y-14288150D01*
X6738634Y-14288150D02*
X6767206Y-14288150D01*
X6767206Y-14288150D02*
X6786253Y-14297674D01*
X6786253Y-14297674D02*
X6795777Y-14307198D01*
X6795777Y-14307198D02*
X6805301Y-14326246D01*
X6805301Y-14326246D02*
X6805301Y-14383388D01*
X6805301Y-14383388D02*
X6795777Y-14402436D01*
X6795777Y-14402436D02*
X6786253Y-14411960D01*
X6786253Y-14411960D02*
X6767206Y-14421484D01*
X6767206Y-14421484D02*
X6738634Y-14421484D01*
X6919587Y-14421484D02*
X6900539Y-14411960D01*
X6900539Y-14411960D02*
X6891015Y-14392912D01*
X6891015Y-14392912D02*
X6891015Y-14221484D01*
X7071968Y-14411960D02*
X7052920Y-14421484D01*
X7052920Y-14421484D02*
X7014825Y-14421484D01*
X7014825Y-14421484D02*
X6995777Y-14411960D01*
X6995777Y-14411960D02*
X6986253Y-14392912D01*
X6986253Y-14392912D02*
X6986253Y-14316722D01*
X6986253Y-14316722D02*
X6995777Y-14297674D01*
X6995777Y-14297674D02*
X7014825Y-14288150D01*
X7014825Y-14288150D02*
X7052920Y-14288150D01*
X7052920Y-14288150D02*
X7071968Y-14297674D01*
X7071968Y-14297674D02*
X7081491Y-14316722D01*
X7081491Y-14316722D02*
X7081491Y-14335769D01*
X7081491Y-14335769D02*
X6986253Y-14354817D01*
X7157682Y-14411960D02*
X7176730Y-14421484D01*
X7176730Y-14421484D02*
X7214825Y-14421484D01*
X7214825Y-14421484D02*
X7233872Y-14411960D01*
X7233872Y-14411960D02*
X7243396Y-14392912D01*
X7243396Y-14392912D02*
X7243396Y-14383388D01*
X7243396Y-14383388D02*
X7233872Y-14364341D01*
X7233872Y-14364341D02*
X7214825Y-14354817D01*
X7214825Y-14354817D02*
X7186253Y-14354817D01*
X7186253Y-14354817D02*
X7167206Y-14345293D01*
X7167206Y-14345293D02*
X7157682Y-14326246D01*
X7157682Y-14326246D02*
X7157682Y-14316722D01*
X7157682Y-14316722D02*
X7167206Y-14297674D01*
X7167206Y-14297674D02*
X7186253Y-14288150D01*
X7186253Y-14288150D02*
X7214825Y-14288150D01*
X7214825Y-14288150D02*
X7233872Y-14297674D01*
X7310063Y-14497674D02*
X7319587Y-14488150D01*
X7319587Y-14488150D02*
X7338634Y-14459579D01*
X7338634Y-14459579D02*
X7348158Y-14440531D01*
X7348158Y-14440531D02*
X7357682Y-14411960D01*
X7357682Y-14411960D02*
X7367206Y-14364341D01*
X7367206Y-14364341D02*
X7367206Y-14326246D01*
X7367206Y-14326246D02*
X7357682Y-14278627D01*
X7357682Y-14278627D02*
X7348158Y-14250055D01*
X7348158Y-14250055D02*
X7338634Y-14231008D01*
X7338634Y-14231008D02*
X7319587Y-14202436D01*
X7319587Y-14202436D02*
X7310063Y-14192912D01*
M02*
