M48
; DRILL file {KiCad 8.0.2} date 2024-06-21T19:26:26+0200
; FORMAT={-:-/ absolute / inch / decimal}
; #@! TF.CreationDate,2024-06-21T19:26:26+02:00
; #@! TF.GenerationSoftware,Kicad,Pcbnew,8.0.2
; #@! TF.FileFunction,Plated,1,2,PTH
FMAT,2
INCH
; #@! TA.AperFunction,Plated,PTH,ViaDrill
T1C0.0118
; #@! TA.AperFunction,Plated,PTH,ComponentDrill
T2C0.0276
; #@! TA.AperFunction,Plated,PTH,ComponentDrill
T3C0.0315
; #@! TA.AperFunction,Plated,PTH,ComponentDrill
T4C0.0354
; #@! TA.AperFunction,Plated,PTH,ComponentDrill
T5C0.0394
; #@! TA.AperFunction,Plated,PTH,ComponentDrill
T6C0.0709
; #@! TA.AperFunction,Plated,PTH,ComponentDrill
T7C0.1260
%
G90
G05
T1
X1.035Y-3.155
X1.05Y-4.19
X1.46Y-4.0205
X1.5Y-3.95
X1.53Y-3.6295
X1.565Y-4.0
X1.57Y-2.33
X1.64Y-3.62
X1.64Y-3.915
X1.74Y-3.83
X1.785Y-2.925
X1.785Y-3.92
T2
X1.64Y-2.34
X1.64Y-2.64
X1.78Y-2.34
X1.78Y-2.64
X1.92Y-2.34
X1.92Y-2.64
X2.06Y-2.34
X2.06Y-2.64
X2.2Y-2.34
X2.2Y-2.64
X2.49Y-2.34
X2.49Y-2.64
T3
X2.35Y-3.0998
X2.35Y-3.1982
X2.64Y-3.0998
X2.64Y-3.1982
X2.9004Y-3.0998
X2.9004Y-3.1998
X2.9004Y-3.2998
X2.9004Y-3.3998
X2.9004Y-3.4998
X2.9004Y-3.5998
X2.9004Y-3.6998
X3.102Y-2.86
X3.2004Y-2.86
X3.2004Y-3.0998
X3.2004Y-3.1998
X3.2004Y-3.2998
X3.2004Y-3.3998
X3.2004Y-3.4998
X3.2004Y-3.5998
X3.2004Y-3.6998
X3.46Y-3.1
X3.46Y-3.2
X3.46Y-3.3
X3.46Y-3.4
X3.46Y-3.5
X3.46Y-3.6
X3.46Y-3.7
X3.6616Y-2.86
X3.76Y-2.86
X3.76Y-3.1
X3.76Y-3.2
X3.76Y-3.3
X3.76Y-3.4
X3.76Y-3.5
X3.76Y-3.6
X3.76Y-3.7
T4
X1.15Y-2.34
X1.15Y-2.44
X1.44Y-2.34
X1.44Y-2.44
X2.35Y-2.34
X2.35Y-2.64
X2.64Y-2.34
X2.64Y-2.64
T5
X1.102Y-2.6114
X1.102Y-2.7886
X1.105Y-1.5
X1.105Y-1.6
X1.105Y-1.7
X1.105Y-1.8
X1.105Y-1.9
X1.105Y-2.0
X1.105Y-3.175
X1.105Y-3.275
X1.105Y-3.375
X1.105Y-3.475
X1.105Y-3.575
X1.105Y-3.675
X1.105Y-3.775
X1.105Y-3.875
X1.105Y-3.975
X1.105Y-4.075
X1.205Y-1.5
X1.205Y-1.6
X1.205Y-1.7
X1.205Y-1.8
X1.205Y-1.9
X1.205Y-2.0
X1.205Y-3.175
X1.205Y-3.275
X1.205Y-3.375
X1.205Y-3.475
X1.205Y-3.575
X1.205Y-3.675
X1.205Y-3.775
X1.205Y-3.875
X1.205Y-3.975
X1.205Y-4.075
X1.358Y-2.6114
X1.358Y-2.7886
X1.62Y-1.1
X1.62Y-1.2
X1.72Y-1.1
X1.72Y-1.2
X1.82Y-1.1
X1.82Y-1.2
X1.92Y-1.1
X1.92Y-1.2
X2.475Y-1.1
X2.475Y-1.2
X2.575Y-1.1
X2.575Y-1.2
X2.675Y-1.1
X2.675Y-1.2
X2.775Y-1.1
X2.775Y-1.2
X2.875Y-1.1
X2.875Y-1.2
X2.975Y-1.1
X2.975Y-1.2
X3.075Y-1.1
X3.075Y-1.2
X3.175Y-1.1
X3.175Y-1.2
X3.275Y-1.1
X3.275Y-1.2
X3.375Y-1.1
X3.375Y-1.2
X3.475Y-1.1
X3.475Y-1.2
X3.575Y-1.1
X3.575Y-1.2
X3.675Y-1.1
X3.675Y-1.2
X3.775Y-1.1
X3.775Y-1.2
X3.875Y-1.1
X3.875Y-1.2
X3.975Y-1.1
X3.975Y-1.2
X4.075Y-1.1
X4.075Y-1.2
X4.55Y-1.675
X4.55Y-1.775
X4.55Y-1.875
X4.55Y-1.975
X4.55Y-2.075
X4.55Y-2.175
X4.55Y-2.275
X4.55Y-2.375
X4.55Y-2.475
X4.55Y-2.575
X4.55Y-2.675
X4.55Y-2.775
X4.55Y-2.875
X4.55Y-2.975
X4.55Y-3.075
X4.55Y-3.175
X4.55Y-3.275
X4.55Y-3.375
X4.55Y-3.475
X4.55Y-3.575
X4.65Y-1.675
X4.65Y-1.775
X4.65Y-1.875
X4.65Y-1.975
X4.65Y-2.075
X4.65Y-2.175
X4.65Y-2.275
X4.65Y-2.375
X4.65Y-2.475
X4.65Y-2.575
X4.65Y-2.675
X4.65Y-2.775
X4.65Y-2.875
X4.65Y-2.975
X4.65Y-3.075
X4.65Y-3.175
X4.65Y-3.275
X4.65Y-3.375
X4.65Y-3.475
X4.65Y-3.575
T6
X2.1309Y-4.1935
X2.1309Y-4.41
X2.2963Y-4.1935
X2.2963Y-4.41
X2.4616Y-4.1935
X2.4616Y-4.41
X2.627Y-4.1935
X2.627Y-4.41
X2.7923Y-4.1935
X2.7923Y-4.41
X2.9577Y-4.1935
X2.9577Y-4.41
X3.123Y-4.1935
X3.123Y-4.41
X3.2884Y-4.1935
X3.2884Y-4.41
X3.4537Y-4.1935
X3.4537Y-4.41
X3.6191Y-4.1935
X3.6191Y-4.41
T7
X1.1388Y-1.1388
X1.1388Y-4.6112
X4.6112Y-1.1388
X4.6112Y-4.6112
M30
