%TF.GenerationSoftware,KiCad,Pcbnew,8.0.2*%
%TF.CreationDate,2024-06-21T19:26:26+02:00*%
%TF.ProjectId,power_board_v2,706f7765-725f-4626-9f61-72645f76322e,2.0*%
%TF.SameCoordinates,Original*%
%TF.FileFunction,Drillmap*%
%TF.FilePolarity,Positive*%
%FSLAX45Y45*%
G04 Gerber Fmt 4.5, Leading zero omitted, Abs format (unit mm)*
G04 Created by KiCad (PCBNEW 8.0.2) date 2024-06-21 19:26:26*
%MOMM*%
%LPD*%
G01*
G04 APERTURE LIST*
%ADD10C,0.100000*%
%ADD11C,0.200000*%
%ADD12C,0.320000*%
G04 APERTURE END LIST*
D10*
X2540000Y-2740000D02*
X2540000Y-11865000D01*
X12065000Y-2740000D02*
X12065000Y-11865000D01*
X12065000Y-11865000D02*
G75*
G02*
X11865000Y-12065000I-200000J0D01*
G01*
X2740000Y-12065000D02*
G75*
G02*
X2540000Y-11865000I0J200000D01*
G01*
X2540000Y-2740000D02*
G75*
G02*
X2740000Y-2540000I200000J0D01*
G01*
X11865000Y-2540000D02*
G75*
G02*
X12065000Y-2740000I0J-200000D01*
G01*
X2740000Y-12065000D02*
X11865000Y-12065000D01*
X2740000Y-2540000D02*
X11865000Y-2540000D01*
D11*
D12*
X4802500Y-11461400D02*
X5122500Y-11781400D01*
X5122500Y-11461400D02*
X4802500Y-11781400D01*
X9482500Y-11461400D02*
X9802500Y-11781400D01*
X9802500Y-11461400D02*
X9482500Y-11781400D01*
D11*
X2795777Y-12381484D02*
X2795777Y-12181484D01*
X2795777Y-12181484D02*
X2843396Y-12181484D01*
X2843396Y-12181484D02*
X2871967Y-12191008D01*
X2871967Y-12191008D02*
X2891015Y-12210055D01*
X2891015Y-12210055D02*
X2900539Y-12229103D01*
X2900539Y-12229103D02*
X2910062Y-12267198D01*
X2910062Y-12267198D02*
X2910062Y-12295769D01*
X2910062Y-12295769D02*
X2900539Y-12333865D01*
X2900539Y-12333865D02*
X2891015Y-12352912D01*
X2891015Y-12352912D02*
X2871967Y-12371960D01*
X2871967Y-12371960D02*
X2843396Y-12381484D01*
X2843396Y-12381484D02*
X2795777Y-12381484D01*
X2995777Y-12381484D02*
X2995777Y-12248150D01*
X2995777Y-12286246D02*
X3005301Y-12267198D01*
X3005301Y-12267198D02*
X3014824Y-12257674D01*
X3014824Y-12257674D02*
X3033872Y-12248150D01*
X3033872Y-12248150D02*
X3052920Y-12248150D01*
X3119586Y-12381484D02*
X3119586Y-12248150D01*
X3119586Y-12181484D02*
X3110062Y-12191008D01*
X3110062Y-12191008D02*
X3119586Y-12200531D01*
X3119586Y-12200531D02*
X3129110Y-12191008D01*
X3129110Y-12191008D02*
X3119586Y-12181484D01*
X3119586Y-12181484D02*
X3119586Y-12200531D01*
X3243396Y-12381484D02*
X3224348Y-12371960D01*
X3224348Y-12371960D02*
X3214824Y-12352912D01*
X3214824Y-12352912D02*
X3214824Y-12181484D01*
X3348158Y-12381484D02*
X3329110Y-12371960D01*
X3329110Y-12371960D02*
X3319586Y-12352912D01*
X3319586Y-12352912D02*
X3319586Y-12181484D01*
X3576729Y-12381484D02*
X3576729Y-12181484D01*
X3576729Y-12181484D02*
X3643396Y-12324341D01*
X3643396Y-12324341D02*
X3710062Y-12181484D01*
X3710062Y-12181484D02*
X3710062Y-12381484D01*
X3891015Y-12381484D02*
X3891015Y-12276722D01*
X3891015Y-12276722D02*
X3881491Y-12257674D01*
X3881491Y-12257674D02*
X3862443Y-12248150D01*
X3862443Y-12248150D02*
X3824348Y-12248150D01*
X3824348Y-12248150D02*
X3805301Y-12257674D01*
X3891015Y-12371960D02*
X3871967Y-12381484D01*
X3871967Y-12381484D02*
X3824348Y-12381484D01*
X3824348Y-12381484D02*
X3805301Y-12371960D01*
X3805301Y-12371960D02*
X3795777Y-12352912D01*
X3795777Y-12352912D02*
X3795777Y-12333865D01*
X3795777Y-12333865D02*
X3805301Y-12314817D01*
X3805301Y-12314817D02*
X3824348Y-12305293D01*
X3824348Y-12305293D02*
X3871967Y-12305293D01*
X3871967Y-12305293D02*
X3891015Y-12295769D01*
X3986253Y-12248150D02*
X3986253Y-12448150D01*
X3986253Y-12257674D02*
X4005301Y-12248150D01*
X4005301Y-12248150D02*
X4043396Y-12248150D01*
X4043396Y-12248150D02*
X4062443Y-12257674D01*
X4062443Y-12257674D02*
X4071967Y-12267198D01*
X4071967Y-12267198D02*
X4081491Y-12286246D01*
X4081491Y-12286246D02*
X4081491Y-12343388D01*
X4081491Y-12343388D02*
X4071967Y-12362436D01*
X4071967Y-12362436D02*
X4062443Y-12371960D01*
X4062443Y-12371960D02*
X4043396Y-12381484D01*
X4043396Y-12381484D02*
X4005301Y-12381484D01*
X4005301Y-12381484D02*
X3986253Y-12371960D01*
X4167205Y-12362436D02*
X4176729Y-12371960D01*
X4176729Y-12371960D02*
X4167205Y-12381484D01*
X4167205Y-12381484D02*
X4157682Y-12371960D01*
X4157682Y-12371960D02*
X4167205Y-12362436D01*
X4167205Y-12362436D02*
X4167205Y-12381484D01*
X4167205Y-12257674D02*
X4176729Y-12267198D01*
X4176729Y-12267198D02*
X4167205Y-12276722D01*
X4167205Y-12276722D02*
X4157682Y-12267198D01*
X4157682Y-12267198D02*
X4167205Y-12257674D01*
X4167205Y-12257674D02*
X4167205Y-12276722D01*
X2335000Y-12610000D02*
X2535000Y-12810000D01*
X2535000Y-12610000D02*
X2335000Y-12810000D01*
X2776729Y-12601484D02*
X2900539Y-12601484D01*
X2900539Y-12601484D02*
X2833872Y-12677674D01*
X2833872Y-12677674D02*
X2862443Y-12677674D01*
X2862443Y-12677674D02*
X2881491Y-12687198D01*
X2881491Y-12687198D02*
X2891015Y-12696722D01*
X2891015Y-12696722D02*
X2900539Y-12715769D01*
X2900539Y-12715769D02*
X2900539Y-12763388D01*
X2900539Y-12763388D02*
X2891015Y-12782436D01*
X2891015Y-12782436D02*
X2881491Y-12791960D01*
X2881491Y-12791960D02*
X2862443Y-12801484D01*
X2862443Y-12801484D02*
X2805301Y-12801484D01*
X2805301Y-12801484D02*
X2786253Y-12791960D01*
X2786253Y-12791960D02*
X2776729Y-12782436D01*
X2986253Y-12782436D02*
X2995777Y-12791960D01*
X2995777Y-12791960D02*
X2986253Y-12801484D01*
X2986253Y-12801484D02*
X2976729Y-12791960D01*
X2976729Y-12791960D02*
X2986253Y-12782436D01*
X2986253Y-12782436D02*
X2986253Y-12801484D01*
X3071967Y-12620531D02*
X3081491Y-12611008D01*
X3081491Y-12611008D02*
X3100539Y-12601484D01*
X3100539Y-12601484D02*
X3148158Y-12601484D01*
X3148158Y-12601484D02*
X3167205Y-12611008D01*
X3167205Y-12611008D02*
X3176729Y-12620531D01*
X3176729Y-12620531D02*
X3186253Y-12639579D01*
X3186253Y-12639579D02*
X3186253Y-12658627D01*
X3186253Y-12658627D02*
X3176729Y-12687198D01*
X3176729Y-12687198D02*
X3062443Y-12801484D01*
X3062443Y-12801484D02*
X3186253Y-12801484D01*
X3310062Y-12601484D02*
X3329110Y-12601484D01*
X3329110Y-12601484D02*
X3348158Y-12611008D01*
X3348158Y-12611008D02*
X3357682Y-12620531D01*
X3357682Y-12620531D02*
X3367205Y-12639579D01*
X3367205Y-12639579D02*
X3376729Y-12677674D01*
X3376729Y-12677674D02*
X3376729Y-12725293D01*
X3376729Y-12725293D02*
X3367205Y-12763388D01*
X3367205Y-12763388D02*
X3357682Y-12782436D01*
X3357682Y-12782436D02*
X3348158Y-12791960D01*
X3348158Y-12791960D02*
X3329110Y-12801484D01*
X3329110Y-12801484D02*
X3310062Y-12801484D01*
X3310062Y-12801484D02*
X3291015Y-12791960D01*
X3291015Y-12791960D02*
X3281491Y-12782436D01*
X3281491Y-12782436D02*
X3271967Y-12763388D01*
X3271967Y-12763388D02*
X3262443Y-12725293D01*
X3262443Y-12725293D02*
X3262443Y-12677674D01*
X3262443Y-12677674D02*
X3271967Y-12639579D01*
X3271967Y-12639579D02*
X3281491Y-12620531D01*
X3281491Y-12620531D02*
X3291015Y-12611008D01*
X3291015Y-12611008D02*
X3310062Y-12601484D01*
X3500539Y-12601484D02*
X3519586Y-12601484D01*
X3519586Y-12601484D02*
X3538634Y-12611008D01*
X3538634Y-12611008D02*
X3548158Y-12620531D01*
X3548158Y-12620531D02*
X3557682Y-12639579D01*
X3557682Y-12639579D02*
X3567205Y-12677674D01*
X3567205Y-12677674D02*
X3567205Y-12725293D01*
X3567205Y-12725293D02*
X3557682Y-12763388D01*
X3557682Y-12763388D02*
X3548158Y-12782436D01*
X3548158Y-12782436D02*
X3538634Y-12791960D01*
X3538634Y-12791960D02*
X3519586Y-12801484D01*
X3519586Y-12801484D02*
X3500539Y-12801484D01*
X3500539Y-12801484D02*
X3481491Y-12791960D01*
X3481491Y-12791960D02*
X3471967Y-12782436D01*
X3471967Y-12782436D02*
X3462443Y-12763388D01*
X3462443Y-12763388D02*
X3452920Y-12725293D01*
X3452920Y-12725293D02*
X3452920Y-12677674D01*
X3452920Y-12677674D02*
X3462443Y-12639579D01*
X3462443Y-12639579D02*
X3471967Y-12620531D01*
X3471967Y-12620531D02*
X3481491Y-12611008D01*
X3481491Y-12611008D02*
X3500539Y-12601484D01*
X3652920Y-12801484D02*
X3652920Y-12668150D01*
X3652920Y-12687198D02*
X3662443Y-12677674D01*
X3662443Y-12677674D02*
X3681491Y-12668150D01*
X3681491Y-12668150D02*
X3710063Y-12668150D01*
X3710063Y-12668150D02*
X3729110Y-12677674D01*
X3729110Y-12677674D02*
X3738634Y-12696722D01*
X3738634Y-12696722D02*
X3738634Y-12801484D01*
X3738634Y-12696722D02*
X3748158Y-12677674D01*
X3748158Y-12677674D02*
X3767205Y-12668150D01*
X3767205Y-12668150D02*
X3795777Y-12668150D01*
X3795777Y-12668150D02*
X3814824Y-12677674D01*
X3814824Y-12677674D02*
X3824348Y-12696722D01*
X3824348Y-12696722D02*
X3824348Y-12801484D01*
X3919586Y-12801484D02*
X3919586Y-12668150D01*
X3919586Y-12687198D02*
X3929110Y-12677674D01*
X3929110Y-12677674D02*
X3948158Y-12668150D01*
X3948158Y-12668150D02*
X3976729Y-12668150D01*
X3976729Y-12668150D02*
X3995777Y-12677674D01*
X3995777Y-12677674D02*
X4005301Y-12696722D01*
X4005301Y-12696722D02*
X4005301Y-12801484D01*
X4005301Y-12696722D02*
X4014824Y-12677674D01*
X4014824Y-12677674D02*
X4033872Y-12668150D01*
X4033872Y-12668150D02*
X4062443Y-12668150D01*
X4062443Y-12668150D02*
X4081491Y-12677674D01*
X4081491Y-12677674D02*
X4091015Y-12696722D01*
X4091015Y-12696722D02*
X4091015Y-12801484D01*
X4481491Y-12591960D02*
X4310063Y-12849103D01*
X4738634Y-12601484D02*
X4757682Y-12601484D01*
X4757682Y-12601484D02*
X4776729Y-12611008D01*
X4776729Y-12611008D02*
X4786253Y-12620531D01*
X4786253Y-12620531D02*
X4795777Y-12639579D01*
X4795777Y-12639579D02*
X4805301Y-12677674D01*
X4805301Y-12677674D02*
X4805301Y-12725293D01*
X4805301Y-12725293D02*
X4795777Y-12763388D01*
X4795777Y-12763388D02*
X4786253Y-12782436D01*
X4786253Y-12782436D02*
X4776729Y-12791960D01*
X4776729Y-12791960D02*
X4757682Y-12801484D01*
X4757682Y-12801484D02*
X4738634Y-12801484D01*
X4738634Y-12801484D02*
X4719587Y-12791960D01*
X4719587Y-12791960D02*
X4710063Y-12782436D01*
X4710063Y-12782436D02*
X4700539Y-12763388D01*
X4700539Y-12763388D02*
X4691015Y-12725293D01*
X4691015Y-12725293D02*
X4691015Y-12677674D01*
X4691015Y-12677674D02*
X4700539Y-12639579D01*
X4700539Y-12639579D02*
X4710063Y-12620531D01*
X4710063Y-12620531D02*
X4719587Y-12611008D01*
X4719587Y-12611008D02*
X4738634Y-12601484D01*
X4891015Y-12782436D02*
X4900539Y-12791960D01*
X4900539Y-12791960D02*
X4891015Y-12801484D01*
X4891015Y-12801484D02*
X4881491Y-12791960D01*
X4881491Y-12791960D02*
X4891015Y-12782436D01*
X4891015Y-12782436D02*
X4891015Y-12801484D01*
X5091015Y-12801484D02*
X4976729Y-12801484D01*
X5033872Y-12801484D02*
X5033872Y-12601484D01*
X5033872Y-12601484D02*
X5014825Y-12630055D01*
X5014825Y-12630055D02*
X4995777Y-12649103D01*
X4995777Y-12649103D02*
X4976729Y-12658627D01*
X5167206Y-12620531D02*
X5176729Y-12611008D01*
X5176729Y-12611008D02*
X5195777Y-12601484D01*
X5195777Y-12601484D02*
X5243396Y-12601484D01*
X5243396Y-12601484D02*
X5262444Y-12611008D01*
X5262444Y-12611008D02*
X5271968Y-12620531D01*
X5271968Y-12620531D02*
X5281491Y-12639579D01*
X5281491Y-12639579D02*
X5281491Y-12658627D01*
X5281491Y-12658627D02*
X5271968Y-12687198D01*
X5271968Y-12687198D02*
X5157682Y-12801484D01*
X5157682Y-12801484D02*
X5281491Y-12801484D01*
X5452920Y-12601484D02*
X5414825Y-12601484D01*
X5414825Y-12601484D02*
X5395777Y-12611008D01*
X5395777Y-12611008D02*
X5386253Y-12620531D01*
X5386253Y-12620531D02*
X5367206Y-12649103D01*
X5367206Y-12649103D02*
X5357682Y-12687198D01*
X5357682Y-12687198D02*
X5357682Y-12763388D01*
X5357682Y-12763388D02*
X5367206Y-12782436D01*
X5367206Y-12782436D02*
X5376729Y-12791960D01*
X5376729Y-12791960D02*
X5395777Y-12801484D01*
X5395777Y-12801484D02*
X5433872Y-12801484D01*
X5433872Y-12801484D02*
X5452920Y-12791960D01*
X5452920Y-12791960D02*
X5462444Y-12782436D01*
X5462444Y-12782436D02*
X5471968Y-12763388D01*
X5471968Y-12763388D02*
X5471968Y-12715769D01*
X5471968Y-12715769D02*
X5462444Y-12696722D01*
X5462444Y-12696722D02*
X5452920Y-12687198D01*
X5452920Y-12687198D02*
X5433872Y-12677674D01*
X5433872Y-12677674D02*
X5395777Y-12677674D01*
X5395777Y-12677674D02*
X5376729Y-12687198D01*
X5376729Y-12687198D02*
X5367206Y-12696722D01*
X5367206Y-12696722D02*
X5357682Y-12715769D01*
X5595777Y-12601484D02*
X5614825Y-12601484D01*
X5614825Y-12601484D02*
X5633872Y-12611008D01*
X5633872Y-12611008D02*
X5643396Y-12620531D01*
X5643396Y-12620531D02*
X5652920Y-12639579D01*
X5652920Y-12639579D02*
X5662444Y-12677674D01*
X5662444Y-12677674D02*
X5662444Y-12725293D01*
X5662444Y-12725293D02*
X5652920Y-12763388D01*
X5652920Y-12763388D02*
X5643396Y-12782436D01*
X5643396Y-12782436D02*
X5633872Y-12791960D01*
X5633872Y-12791960D02*
X5614825Y-12801484D01*
X5614825Y-12801484D02*
X5595777Y-12801484D01*
X5595777Y-12801484D02*
X5576729Y-12791960D01*
X5576729Y-12791960D02*
X5567206Y-12782436D01*
X5567206Y-12782436D02*
X5557682Y-12763388D01*
X5557682Y-12763388D02*
X5548158Y-12725293D01*
X5548158Y-12725293D02*
X5548158Y-12677674D01*
X5548158Y-12677674D02*
X5557682Y-12639579D01*
X5557682Y-12639579D02*
X5567206Y-12620531D01*
X5567206Y-12620531D02*
X5576729Y-12611008D01*
X5576729Y-12611008D02*
X5595777Y-12601484D01*
X5738634Y-12601484D02*
X5738634Y-12639579D01*
X5814825Y-12601484D02*
X5814825Y-12639579D01*
X6110063Y-12877674D02*
X6100539Y-12868150D01*
X6100539Y-12868150D02*
X6081491Y-12839579D01*
X6081491Y-12839579D02*
X6071968Y-12820531D01*
X6071968Y-12820531D02*
X6062444Y-12791960D01*
X6062444Y-12791960D02*
X6052920Y-12744341D01*
X6052920Y-12744341D02*
X6052920Y-12706246D01*
X6052920Y-12706246D02*
X6062444Y-12658627D01*
X6062444Y-12658627D02*
X6071968Y-12630055D01*
X6071968Y-12630055D02*
X6081491Y-12611008D01*
X6081491Y-12611008D02*
X6100539Y-12582436D01*
X6100539Y-12582436D02*
X6110063Y-12572912D01*
X6176729Y-12620531D02*
X6186253Y-12611008D01*
X6186253Y-12611008D02*
X6205301Y-12601484D01*
X6205301Y-12601484D02*
X6252920Y-12601484D01*
X6252920Y-12601484D02*
X6271968Y-12611008D01*
X6271968Y-12611008D02*
X6281491Y-12620531D01*
X6281491Y-12620531D02*
X6291015Y-12639579D01*
X6291015Y-12639579D02*
X6291015Y-12658627D01*
X6291015Y-12658627D02*
X6281491Y-12687198D01*
X6281491Y-12687198D02*
X6167206Y-12801484D01*
X6167206Y-12801484D02*
X6291015Y-12801484D01*
X6529110Y-12801484D02*
X6529110Y-12601484D01*
X6614825Y-12801484D02*
X6614825Y-12696722D01*
X6614825Y-12696722D02*
X6605301Y-12677674D01*
X6605301Y-12677674D02*
X6586253Y-12668150D01*
X6586253Y-12668150D02*
X6557682Y-12668150D01*
X6557682Y-12668150D02*
X6538634Y-12677674D01*
X6538634Y-12677674D02*
X6529110Y-12687198D01*
X6738634Y-12801484D02*
X6719587Y-12791960D01*
X6719587Y-12791960D02*
X6710063Y-12782436D01*
X6710063Y-12782436D02*
X6700539Y-12763388D01*
X6700539Y-12763388D02*
X6700539Y-12706246D01*
X6700539Y-12706246D02*
X6710063Y-12687198D01*
X6710063Y-12687198D02*
X6719587Y-12677674D01*
X6719587Y-12677674D02*
X6738634Y-12668150D01*
X6738634Y-12668150D02*
X6767206Y-12668150D01*
X6767206Y-12668150D02*
X6786253Y-12677674D01*
X6786253Y-12677674D02*
X6795777Y-12687198D01*
X6795777Y-12687198D02*
X6805301Y-12706246D01*
X6805301Y-12706246D02*
X6805301Y-12763388D01*
X6805301Y-12763388D02*
X6795777Y-12782436D01*
X6795777Y-12782436D02*
X6786253Y-12791960D01*
X6786253Y-12791960D02*
X6767206Y-12801484D01*
X6767206Y-12801484D02*
X6738634Y-12801484D01*
X6919587Y-12801484D02*
X6900539Y-12791960D01*
X6900539Y-12791960D02*
X6891015Y-12772912D01*
X6891015Y-12772912D02*
X6891015Y-12601484D01*
X7071968Y-12791960D02*
X7052920Y-12801484D01*
X7052920Y-12801484D02*
X7014825Y-12801484D01*
X7014825Y-12801484D02*
X6995777Y-12791960D01*
X6995777Y-12791960D02*
X6986253Y-12772912D01*
X6986253Y-12772912D02*
X6986253Y-12696722D01*
X6986253Y-12696722D02*
X6995777Y-12677674D01*
X6995777Y-12677674D02*
X7014825Y-12668150D01*
X7014825Y-12668150D02*
X7052920Y-12668150D01*
X7052920Y-12668150D02*
X7071968Y-12677674D01*
X7071968Y-12677674D02*
X7081491Y-12696722D01*
X7081491Y-12696722D02*
X7081491Y-12715769D01*
X7081491Y-12715769D02*
X6986253Y-12734817D01*
X7157682Y-12791960D02*
X7176730Y-12801484D01*
X7176730Y-12801484D02*
X7214825Y-12801484D01*
X7214825Y-12801484D02*
X7233872Y-12791960D01*
X7233872Y-12791960D02*
X7243396Y-12772912D01*
X7243396Y-12772912D02*
X7243396Y-12763388D01*
X7243396Y-12763388D02*
X7233872Y-12744341D01*
X7233872Y-12744341D02*
X7214825Y-12734817D01*
X7214825Y-12734817D02*
X7186253Y-12734817D01*
X7186253Y-12734817D02*
X7167206Y-12725293D01*
X7167206Y-12725293D02*
X7157682Y-12706246D01*
X7157682Y-12706246D02*
X7157682Y-12696722D01*
X7157682Y-12696722D02*
X7167206Y-12677674D01*
X7167206Y-12677674D02*
X7186253Y-12668150D01*
X7186253Y-12668150D02*
X7214825Y-12668150D01*
X7214825Y-12668150D02*
X7233872Y-12677674D01*
X7310063Y-12877674D02*
X7319587Y-12868150D01*
X7319587Y-12868150D02*
X7338634Y-12839579D01*
X7338634Y-12839579D02*
X7348158Y-12820531D01*
X7348158Y-12820531D02*
X7357682Y-12791960D01*
X7357682Y-12791960D02*
X7367206Y-12744341D01*
X7367206Y-12744341D02*
X7367206Y-12706246D01*
X7367206Y-12706246D02*
X7357682Y-12658627D01*
X7357682Y-12658627D02*
X7348158Y-12630055D01*
X7348158Y-12630055D02*
X7338634Y-12611008D01*
X7338634Y-12611008D02*
X7319587Y-12582436D01*
X7319587Y-12582436D02*
X7310063Y-12572912D01*
X7671968Y-12877674D02*
X7662444Y-12868150D01*
X7662444Y-12868150D02*
X7643396Y-12839579D01*
X7643396Y-12839579D02*
X7633872Y-12820531D01*
X7633872Y-12820531D02*
X7624349Y-12791960D01*
X7624349Y-12791960D02*
X7614825Y-12744341D01*
X7614825Y-12744341D02*
X7614825Y-12706246D01*
X7614825Y-12706246D02*
X7624349Y-12658627D01*
X7624349Y-12658627D02*
X7633872Y-12630055D01*
X7633872Y-12630055D02*
X7643396Y-12611008D01*
X7643396Y-12611008D02*
X7662444Y-12582436D01*
X7662444Y-12582436D02*
X7671968Y-12572912D01*
X7748158Y-12668150D02*
X7748158Y-12801484D01*
X7748158Y-12687198D02*
X7757682Y-12677674D01*
X7757682Y-12677674D02*
X7776730Y-12668150D01*
X7776730Y-12668150D02*
X7805301Y-12668150D01*
X7805301Y-12668150D02*
X7824349Y-12677674D01*
X7824349Y-12677674D02*
X7833872Y-12696722D01*
X7833872Y-12696722D02*
X7833872Y-12801484D01*
X7957682Y-12801484D02*
X7938634Y-12791960D01*
X7938634Y-12791960D02*
X7929111Y-12782436D01*
X7929111Y-12782436D02*
X7919587Y-12763388D01*
X7919587Y-12763388D02*
X7919587Y-12706246D01*
X7919587Y-12706246D02*
X7929111Y-12687198D01*
X7929111Y-12687198D02*
X7938634Y-12677674D01*
X7938634Y-12677674D02*
X7957682Y-12668150D01*
X7957682Y-12668150D02*
X7986253Y-12668150D01*
X7986253Y-12668150D02*
X8005301Y-12677674D01*
X8005301Y-12677674D02*
X8014825Y-12687198D01*
X8014825Y-12687198D02*
X8024349Y-12706246D01*
X8024349Y-12706246D02*
X8024349Y-12763388D01*
X8024349Y-12763388D02*
X8014825Y-12782436D01*
X8014825Y-12782436D02*
X8005301Y-12791960D01*
X8005301Y-12791960D02*
X7986253Y-12801484D01*
X7986253Y-12801484D02*
X7957682Y-12801484D01*
X8081492Y-12668150D02*
X8157682Y-12668150D01*
X8110063Y-12601484D02*
X8110063Y-12772912D01*
X8110063Y-12772912D02*
X8119587Y-12791960D01*
X8119587Y-12791960D02*
X8138634Y-12801484D01*
X8138634Y-12801484D02*
X8157682Y-12801484D01*
X8376730Y-12668150D02*
X8376730Y-12868150D01*
X8376730Y-12677674D02*
X8395777Y-12668150D01*
X8395777Y-12668150D02*
X8433873Y-12668150D01*
X8433873Y-12668150D02*
X8452920Y-12677674D01*
X8452920Y-12677674D02*
X8462444Y-12687198D01*
X8462444Y-12687198D02*
X8471968Y-12706246D01*
X8471968Y-12706246D02*
X8471968Y-12763388D01*
X8471968Y-12763388D02*
X8462444Y-12782436D01*
X8462444Y-12782436D02*
X8452920Y-12791960D01*
X8452920Y-12791960D02*
X8433873Y-12801484D01*
X8433873Y-12801484D02*
X8395777Y-12801484D01*
X8395777Y-12801484D02*
X8376730Y-12791960D01*
X8586254Y-12801484D02*
X8567206Y-12791960D01*
X8567206Y-12791960D02*
X8557682Y-12772912D01*
X8557682Y-12772912D02*
X8557682Y-12601484D01*
X8748158Y-12801484D02*
X8748158Y-12696722D01*
X8748158Y-12696722D02*
X8738635Y-12677674D01*
X8738635Y-12677674D02*
X8719587Y-12668150D01*
X8719587Y-12668150D02*
X8681492Y-12668150D01*
X8681492Y-12668150D02*
X8662444Y-12677674D01*
X8748158Y-12791960D02*
X8729111Y-12801484D01*
X8729111Y-12801484D02*
X8681492Y-12801484D01*
X8681492Y-12801484D02*
X8662444Y-12791960D01*
X8662444Y-12791960D02*
X8652920Y-12772912D01*
X8652920Y-12772912D02*
X8652920Y-12753865D01*
X8652920Y-12753865D02*
X8662444Y-12734817D01*
X8662444Y-12734817D02*
X8681492Y-12725293D01*
X8681492Y-12725293D02*
X8729111Y-12725293D01*
X8729111Y-12725293D02*
X8748158Y-12715769D01*
X8814825Y-12668150D02*
X8891015Y-12668150D01*
X8843396Y-12601484D02*
X8843396Y-12772912D01*
X8843396Y-12772912D02*
X8852920Y-12791960D01*
X8852920Y-12791960D02*
X8871968Y-12801484D01*
X8871968Y-12801484D02*
X8891015Y-12801484D01*
X9033873Y-12791960D02*
X9014825Y-12801484D01*
X9014825Y-12801484D02*
X8976730Y-12801484D01*
X8976730Y-12801484D02*
X8957682Y-12791960D01*
X8957682Y-12791960D02*
X8948158Y-12772912D01*
X8948158Y-12772912D02*
X8948158Y-12696722D01*
X8948158Y-12696722D02*
X8957682Y-12677674D01*
X8957682Y-12677674D02*
X8976730Y-12668150D01*
X8976730Y-12668150D02*
X9014825Y-12668150D01*
X9014825Y-12668150D02*
X9033873Y-12677674D01*
X9033873Y-12677674D02*
X9043396Y-12696722D01*
X9043396Y-12696722D02*
X9043396Y-12715769D01*
X9043396Y-12715769D02*
X8948158Y-12734817D01*
X9214825Y-12801484D02*
X9214825Y-12601484D01*
X9214825Y-12791960D02*
X9195777Y-12801484D01*
X9195777Y-12801484D02*
X9157682Y-12801484D01*
X9157682Y-12801484D02*
X9138635Y-12791960D01*
X9138635Y-12791960D02*
X9129111Y-12782436D01*
X9129111Y-12782436D02*
X9119587Y-12763388D01*
X9119587Y-12763388D02*
X9119587Y-12706246D01*
X9119587Y-12706246D02*
X9129111Y-12687198D01*
X9129111Y-12687198D02*
X9138635Y-12677674D01*
X9138635Y-12677674D02*
X9157682Y-12668150D01*
X9157682Y-12668150D02*
X9195777Y-12668150D01*
X9195777Y-12668150D02*
X9214825Y-12677674D01*
X9291016Y-12877674D02*
X9300539Y-12868150D01*
X9300539Y-12868150D02*
X9319587Y-12839579D01*
X9319587Y-12839579D02*
X9329111Y-12820531D01*
X9329111Y-12820531D02*
X9338635Y-12791960D01*
X9338635Y-12791960D02*
X9348158Y-12744341D01*
X9348158Y-12744341D02*
X9348158Y-12706246D01*
X9348158Y-12706246D02*
X9338635Y-12658627D01*
X9338635Y-12658627D02*
X9329111Y-12630055D01*
X9329111Y-12630055D02*
X9319587Y-12611008D01*
X9319587Y-12611008D02*
X9300539Y-12582436D01*
X9300539Y-12582436D02*
X9291016Y-12572912D01*
M02*
