%TF.GenerationSoftware,KiCad,Pcbnew,8.0.2*%
%TF.CreationDate,2024-06-21T19:26:29+02:00*%
%TF.ProjectId,power_board_v2,706f7765-725f-4626-9f61-72645f76322e,2.0*%
%TF.SameCoordinates,Original*%
%TF.FileFunction,Other,User*%
%FSLAX46Y46*%
G04 Gerber Fmt 4.6, Leading zero omitted, Abs format (unit mm)*
G04 Created by KiCad (PCBNEW 8.0.2) date 2024-06-21 19:26:29*
%MOMM*%
%LPD*%
G01*
G04 APERTURE LIST*
%ADD10C,0.050000*%
G04 APERTURE END LIST*
D10*
%TO.C,J5*%
X100125000Y-119814000D02*
X100125000Y-112614000D01*
X100125000Y-112614000D02*
X93775000Y-112614000D01*
X95125000Y-126414000D02*
X95125000Y-119814000D01*
X95125000Y-119814000D02*
X100125000Y-119814000D01*
X93775000Y-112614000D02*
X93775000Y-104164000D01*
X93775000Y-104164000D02*
X73025000Y-104164000D01*
X73025000Y-126414000D02*
X95125000Y-126414000D01*
X73025000Y-126414000D02*
X50925000Y-126414000D01*
X52275000Y-112614000D02*
X52275000Y-104164000D01*
X52275000Y-104164000D02*
X73025000Y-104164000D01*
X50925000Y-126414000D02*
X50925000Y-119814000D01*
X50925000Y-119814000D02*
X45925000Y-119814000D01*
X45925000Y-119814000D02*
X45925000Y-112614000D01*
X45925000Y-112614000D02*
X52275000Y-112614000D01*
%TO.C,SW1*%
X26892000Y-65230000D02*
X26892000Y-71930000D01*
X26892000Y-65230000D02*
X35592000Y-65230000D01*
X26892000Y-71930000D02*
X35592000Y-71930000D01*
X35592000Y-71930000D02*
X35592000Y-65230000D01*
%TO.C,H1*%
X32025000Y-28925000D02*
G75*
G02*
X25825000Y-28925000I-3100000J0D01*
G01*
X25825000Y-28925000D02*
G75*
G02*
X32025000Y-28925000I3100000J0D01*
G01*
%TO.C,CP1*%
X62440000Y-79985000D02*
G75*
G02*
X56940000Y-79985000I-2750000J0D01*
G01*
X56940000Y-79985000D02*
G75*
G02*
X62440000Y-79985000I2750000J0D01*
G01*
%TO.C,R2*%
X47718000Y-58486000D02*
X47718000Y-68006000D01*
X47718000Y-68006000D02*
X49818000Y-68006000D01*
X49818000Y-58486000D02*
X47718000Y-58486000D01*
X49818000Y-68006000D02*
X49818000Y-58486000D01*
%TO.C,CP2*%
X69806000Y-79985000D02*
G75*
G02*
X64306000Y-79985000I-2750000J0D01*
G01*
X64306000Y-79985000D02*
G75*
G02*
X69806000Y-79985000I2750000J0D01*
G01*
%TO.C,H2*%
X120225000Y-28925000D02*
G75*
G02*
X114025000Y-28925000I-3100000J0D01*
G01*
X114025000Y-28925000D02*
G75*
G02*
X120225000Y-28925000I3100000J0D01*
G01*
%TO.C,J1*%
X114220000Y-36945000D02*
X114220000Y-96405000D01*
X114220000Y-96405000D02*
X129350000Y-96405000D01*
X129350000Y-36945000D02*
X114220000Y-36945000D01*
X129350000Y-96405000D02*
X129350000Y-36945000D01*
%TO.C,C1*%
X77290000Y-71144000D02*
X77290000Y-74144000D01*
X77290000Y-74144000D02*
X82790000Y-74144000D01*
X82790000Y-71144000D02*
X77290000Y-71144000D01*
X82790000Y-74144000D02*
X82790000Y-71144000D01*
%TO.C,D2*%
X34326000Y-58276000D02*
X34326000Y-63126000D01*
X34326000Y-63126000D02*
X38826000Y-63126000D01*
X38826000Y-58276000D02*
X34326000Y-58276000D01*
X38826000Y-63126000D02*
X38826000Y-58276000D01*
%TO.C,D3*%
X58090000Y-68206000D02*
X61290000Y-68206000D01*
X61290000Y-68206000D02*
X61290000Y-58286000D01*
X58090000Y-58286000D02*
X58090000Y-68206000D01*
X61290000Y-58286000D02*
X58090000Y-58286000D01*
%TO.C,D1*%
X26960000Y-58276000D02*
X26960000Y-63126000D01*
X26960000Y-63126000D02*
X31460000Y-63126000D01*
X31460000Y-58276000D02*
X26960000Y-58276000D01*
X31460000Y-63126000D02*
X31460000Y-58276000D01*
%TO.C,R3*%
X44162000Y-58486000D02*
X44162000Y-68006000D01*
X44162000Y-68006000D02*
X46262000Y-68006000D01*
X46262000Y-58486000D02*
X44162000Y-58486000D01*
X46262000Y-68006000D02*
X46262000Y-58486000D01*
%TO.C,R5*%
X56930000Y-58486000D02*
X54830000Y-58486000D01*
X54830000Y-58486000D02*
X54830000Y-68006000D01*
X56930000Y-68006000D02*
X56930000Y-58486000D01*
X54830000Y-68006000D02*
X56930000Y-68006000D01*
%TO.C,D4*%
X68656000Y-58286000D02*
X65456000Y-58286000D01*
X65456000Y-58286000D02*
X65456000Y-68206000D01*
X68656000Y-68206000D02*
X68656000Y-58286000D01*
X65456000Y-68206000D02*
X68656000Y-68206000D01*
%TO.C,C2*%
X97004000Y-74144000D02*
X97004000Y-71144000D01*
X97004000Y-71144000D02*
X91504000Y-71144000D01*
X91504000Y-74144000D02*
X97004000Y-74144000D01*
X91504000Y-71144000D02*
X91504000Y-74144000D01*
%TO.C,J3*%
X16827000Y-75045000D02*
X16827000Y-109105000D01*
X16827000Y-109105000D02*
X31957000Y-109105000D01*
X31957000Y-75045000D02*
X16827000Y-75045000D01*
X31957000Y-109105000D02*
X31957000Y-75045000D01*
%TO.C,R1*%
X40606000Y-58486000D02*
X40606000Y-68006000D01*
X40606000Y-68006000D02*
X42706000Y-68006000D01*
X42706000Y-58486000D02*
X40606000Y-58486000D01*
X42706000Y-68006000D02*
X42706000Y-58486000D01*
%TO.C,H4*%
X32025000Y-117125000D02*
G75*
G02*
X25825000Y-117125000I-3100000J0D01*
G01*
X25825000Y-117125000D02*
G75*
G02*
X32025000Y-117125000I3100000J0D01*
G01*
%TO.C,J2*%
X57265000Y-16700000D02*
X57265000Y-31830000D01*
X57265000Y-31830000D02*
X109105000Y-31830000D01*
X109105000Y-16700000D02*
X57265000Y-16700000D01*
X109105000Y-31830000D02*
X109105000Y-16700000D01*
%TO.C,R6*%
X64296000Y-58486000D02*
X62196000Y-58486000D01*
X62196000Y-58486000D02*
X62196000Y-68006000D01*
X64296000Y-68006000D02*
X64296000Y-58486000D01*
X62196000Y-68006000D02*
X64296000Y-68006000D01*
%TO.C,U2*%
X86334000Y-77140000D02*
X86334000Y-95590000D01*
X86334000Y-95590000D02*
X97034000Y-95590000D01*
X97034000Y-77140000D02*
X86334000Y-77140000D01*
X97034000Y-95590000D02*
X97034000Y-77140000D01*
%TO.C,H3*%
X120225000Y-117125000D02*
G75*
G02*
X114025000Y-117125000I-3100000J0D01*
G01*
X114025000Y-117125000D02*
G75*
G02*
X120225000Y-117125000I3100000J0D01*
G01*
%TO.C,J6*%
X35548000Y-16700000D02*
X35548000Y-31830000D01*
X35548000Y-31830000D02*
X54368000Y-31830000D01*
X54368000Y-16700000D02*
X35548000Y-16700000D01*
X54368000Y-31830000D02*
X54368000Y-16700000D01*
%TO.C,J4*%
X17507000Y-36300000D02*
X17507000Y-52600000D01*
X17507000Y-52600000D02*
X32407000Y-52600000D01*
X32407000Y-36300000D02*
X17507000Y-36300000D01*
X32407000Y-52600000D02*
X32407000Y-36300000D01*
%TO.C,R4*%
X51274000Y-68006000D02*
X53374000Y-68006000D01*
X53374000Y-68006000D02*
X53374000Y-58486000D01*
X51274000Y-58486000D02*
X51274000Y-68006000D01*
X53374000Y-58486000D02*
X51274000Y-58486000D01*
%TO.C,U1*%
X72120000Y-77135000D02*
X72120000Y-95585000D01*
X72120000Y-95585000D02*
X82820000Y-95585000D01*
X82820000Y-77135000D02*
X72120000Y-77135000D01*
X82820000Y-95585000D02*
X82820000Y-77135000D01*
%TD*%
M02*
