M48
; DRILL file {KiCad 8.0.2} date 2024-06-19T15:00:46+0200
; FORMAT={-:-/ absolute / inch / decimal}
; #@! TF.CreationDate,2024-06-19T15:00:46+02:00
; #@! TF.GenerationSoftware,Kicad,Pcbnew,8.0.2
; #@! TF.FileFunction,Plated,1,2,PTH
FMAT,2
INCH
; #@! TA.AperFunction,Plated,PTH,ViaDrill
T1C0.0118
; #@! TA.AperFunction,Plated,PTH,ComponentDrill
T2C0.0276
; #@! TA.AperFunction,Plated,PTH,ComponentDrill
T3C0.0315
; #@! TA.AperFunction,Plated,PTH,ComponentDrill
T4C0.0354
; #@! TA.AperFunction,Plated,PTH,ComponentDrill
T5C0.0394
; #@! TA.AperFunction,Plated,PTH,ComponentDrill
T6C0.1260
%
G90
G05
T1
X1.42Y-3.19
X1.51Y-3.13
X1.68Y-1.73
X1.68Y-1.83
X1.68Y-1.93
X1.68Y-2.03
X1.68Y-2.13
X1.685Y-2.235
X1.72Y-1.39
X1.78Y-1.73
X1.78Y-1.83
X1.78Y-1.93
X1.78Y-2.03
X1.78Y-2.13
X1.78Y-2.23
X1.88Y-3.22
X2.03Y-2.42
X2.05Y-1.63
X2.05Y-2.03
X2.05Y-2.32
X2.06Y-3.085
X2.11Y-2.53
X2.1148Y-1.815
X2.13Y-2.82
X2.13Y-2.9
X2.14Y-2.44
X2.2Y-1.44
X2.25Y-2.58
X2.28Y-2.26
X2.31Y-3.25
X2.325Y-1.625
X2.33Y-1.93
X2.34Y-2.43
X2.35Y-2.53
X2.37Y-1.89
X2.38Y-2.92
X2.38Y-3.02
X2.385Y-3.075
X2.39Y-2.21
X2.39Y-3.31
X2.4Y-2.03
X2.41Y-2.33
X2.42Y-2.1046
X2.425Y-1.515
X2.45Y-2.755
X2.5Y-1.44
X2.52Y-2.93
X2.53Y-1.84
X2.53Y-1.93
X2.53Y-2.03
X2.53Y-2.13
X2.53Y-2.23
X2.53Y-2.33
X2.53Y-2.43
X2.53Y-2.53
X2.53Y-2.63
X2.53Y-3.21
X2.55Y-2.96
X2.5508Y-2.7609
X2.57Y-2.92
X2.58Y-2.83
X2.58Y-2.99
X2.61Y-3.02
X2.62Y-2.03
X2.64Y-3.04
X2.66Y-2.22
X2.66Y-2.33
X2.66Y-2.53
X2.665Y-3.065
X2.67Y-2.65
X2.67Y-2.73
X2.68Y-3.29
X2.71Y-3.54
X2.74Y-3.26
X2.76Y-3.54
X2.81Y-3.54
X2.8398Y-2.375
X2.84Y-2.08
X2.84Y-3.09
X2.8449Y-2.1851
X2.845Y-2.275
X2.855Y-1.875
X2.87Y-2.43
X2.87Y-3.54
X2.8789Y-1.9811
X2.88Y-2.13
X2.89Y-2.68
X2.8975Y-2.3738
X2.9Y-2.18
X2.9Y-2.51
X2.9Y-3.24
X2.91Y-2.05
X2.9171Y-2.2491
X2.9178Y-2.315
X2.93Y-1.84
X2.94Y-3.28
X2.94Y-3.54
X2.9425Y-3.4575
X2.95Y-2.68
X2.96Y-1.51
X2.96Y-3.11
X2.97Y-1.93
X2.97Y-3.33
X2.98Y-1.71
X2.98Y-1.84
X2.98Y-2.975
X2.98Y-3.38
X2.99Y-3.5
X3.0Y-1.66
X3.08Y-2.015
X3.09Y-1.46
X3.1Y-1.37
X3.1Y-2.78
X3.1Y-3.2
X3.1081Y-1.6371
X3.11Y-1.52
X3.11Y-1.6
X3.11Y-2.145
X3.12Y-1.72
X3.13Y-2.33
X3.14Y-2.48
X3.15Y-3.17
X3.17Y-2.38
X3.2Y-2.43
X3.2Y-2.88
X3.2Y-2.99
X3.2Y-3.12
X3.21Y-1.51
X3.2123Y-1.5523
X3.24Y-1.43
X3.24Y-3.255
X3.27Y-3.19
X3.275Y-3.29
X3.33Y-3.39
X3.37Y-3.28
X3.39Y-2.93
X3.39Y-3.48
X3.43Y-3.09
X3.44Y-1.49
X3.46Y-3.01
X3.46Y-3.16
X3.47Y-2.76
X3.47Y-3.57
X3.5Y-2.945
X3.51Y-3.28
X3.52Y-1.05
X3.52Y-1.48
X3.53Y-2.68
X3.54Y-3.13
X3.54Y-3.19
X3.56Y-2.86
X3.56Y-3.38
X3.57Y-2.75
X3.58Y-3.08
X3.62Y-1.5
X3.66Y-1.27
X3.71Y-1.5
X3.72Y-2.77
X3.73Y-2.66
X3.74Y-3.08
X3.75Y-1.27
X3.77Y-2.82
X3.79Y-1.34
X3.79Y-3.03
X3.84Y-1.52
X3.88Y-1.35
X3.88Y-1.62
X3.88Y-2.88
X3.9Y-3.42
X3.91Y-2.91
X3.925Y-2.79
X3.94Y-2.83
X3.95Y-2.72
X3.96Y-2.62
X3.96Y-2.67
X4.0Y-1.35
X4.02Y-1.51
X4.09Y-2.62
X4.09Y-2.67
X4.1Y-1.35
X4.11Y-2.31
X4.12Y-2.79
X4.14Y-2.275
X4.15Y-1.96
X4.15Y-2.83
X4.17Y-2.24
X4.3413Y-3.1263
X4.35Y-3.41
X4.36Y-2.88
X4.36Y-3.0648
X4.36Y-3.17
X4.36Y-3.47
X4.43Y-3.395
X4.43Y-3.45
X4.44Y-3.11
X4.44Y-3.15
X4.44Y-3.31
X4.46Y-1.88
X4.46Y-1.97
X4.47Y-2.97
X4.48Y-2.06
X4.48Y-2.16
T2
X1.14Y-2.18
X1.14Y-2.48
T3
X1.18Y-3.3902
X1.18Y-3.4886
X1.36Y-1.53
X1.36Y-1.63
X1.36Y-1.73
X1.36Y-1.83
X1.36Y-1.93
X1.36Y-2.03
X1.36Y-2.13
X1.36Y-2.23
X1.36Y-2.33
X1.36Y-2.43
X1.36Y-2.53
X1.36Y-2.63
X1.36Y-2.73
X1.36Y-2.83
X1.36Y-2.93
X1.36Y-3.03
X1.36Y-3.3902
X1.36Y-3.9902
X1.46Y-3.3902
X1.46Y-3.9902
X1.56Y-3.3902
X1.56Y-3.9902
X1.66Y-3.3902
X1.66Y-3.9902
X1.76Y-3.3902
X1.76Y-3.9902
X1.86Y-3.3902
X1.86Y-3.9902
X1.8616Y-1.39
X1.96Y-1.39
X1.96Y-1.53
X1.96Y-1.63
X1.96Y-1.73
X1.96Y-1.83
X1.96Y-1.93
X1.96Y-2.03
X1.96Y-2.13
X1.96Y-2.23
X1.96Y-2.33
X1.96Y-2.43
X1.96Y-2.53
X1.96Y-2.63
X1.96Y-2.73
X1.96Y-2.83
X1.96Y-2.93
X1.96Y-3.03
X1.96Y-3.3902
X1.96Y-3.9902
X2.06Y-3.3902
X2.06Y-3.9902
X2.16Y-3.3902
X2.16Y-3.9902
X2.2Y-1.53
X2.2Y-1.63
X2.2Y-1.73
X2.2Y-1.83
X2.2Y-1.93
X2.2Y-2.03
X2.2Y-2.13
X2.2Y-2.23
X2.2Y-2.33
X2.2Y-2.43
X2.2Y-2.53
X2.2Y-2.63
X2.2Y-2.73
X2.2Y-2.83
X2.2Y-2.93
X2.2Y-3.03
X2.26Y-3.3902
X2.26Y-3.9902
X2.36Y-3.3902
X2.36Y-3.9902
X2.46Y-3.3902
X2.46Y-3.9902
X2.56Y-3.3902
X2.56Y-3.9902
X2.66Y-3.3902
X2.66Y-3.9902
X2.7016Y-1.39
X2.76Y-3.3902
X2.76Y-3.9902
X2.8Y-1.39
X2.8Y-1.53
X2.8Y-1.63
X2.8Y-1.73
X2.8Y-1.83
X2.8Y-1.93
X2.8Y-2.03
X2.8Y-2.13
X2.8Y-2.23
X2.8Y-2.33
X2.8Y-2.43
X2.8Y-2.53
X2.8Y-2.63
X2.8Y-2.73
X2.8Y-2.83
X2.8Y-2.93
X2.8Y-3.03
X2.86Y-3.3902
X2.86Y-3.9902
X3.04Y-2.13
X3.04Y-2.23
X3.04Y-2.33
X3.04Y-2.43
X3.04Y-2.53
X3.04Y-2.63
X3.04Y-2.73
X3.04Y-2.83
X3.04Y-2.93
X3.04Y-3.03
X3.04Y-3.13
X3.04Y-3.23
X3.04Y-3.33
X3.04Y-3.43
X3.04Y-3.53
X3.04Y-3.63
X3.375Y-1.4304
X3.375Y-1.7304
X3.475Y-1.4304
X3.475Y-1.7304
X3.5416Y-1.96
X3.575Y-1.4304
X3.575Y-1.7304
X3.64Y-1.96
X3.64Y-2.13
X3.64Y-2.23
X3.64Y-2.33
X3.64Y-2.43
X3.64Y-2.53
X3.64Y-2.63
X3.64Y-2.73
X3.64Y-2.83
X3.64Y-2.93
X3.64Y-3.03
X3.64Y-3.13
X3.64Y-3.23
X3.64Y-3.33
X3.64Y-3.43
X3.64Y-3.53
X3.64Y-3.63
X3.675Y-1.4304
X3.675Y-1.7304
X3.775Y-1.4304
X3.775Y-1.7304
X3.875Y-1.4304
X3.875Y-1.7304
X3.975Y-1.4304
X3.975Y-1.7304
X4.075Y-1.4304
X4.075Y-1.7304
X4.12Y-3.9916
X4.12Y-4.09
X4.12Y-4.34
X4.12Y-4.4384
X4.28Y-1.632
X4.28Y-1.7304
T4
X1.14Y-2.71
X1.14Y-2.81
X4.55Y-3.9924
X4.55Y-4.0908
X4.55Y-4.1892
X4.55Y-4.2876
T5
X1.62Y-1.1
X1.62Y-1.2
X1.72Y-1.1
X1.72Y-1.2
X1.82Y-1.1
X1.82Y-1.2
X1.92Y-1.1
X1.92Y-1.2
X2.475Y-1.1
X2.475Y-1.2
X2.575Y-1.1
X2.575Y-1.2
X2.675Y-1.1
X2.675Y-1.2
X2.775Y-1.1
X2.775Y-1.2
X2.875Y-1.1
X2.875Y-1.2
X2.975Y-1.1
X2.975Y-1.2
X3.075Y-1.1
X3.075Y-1.2
X3.175Y-1.1
X3.175Y-1.2
X3.22Y-1.6906
X3.22Y-1.7906
X3.22Y-1.8906
X3.275Y-1.1
X3.275Y-1.2
X3.375Y-1.1
X3.375Y-1.2
X3.475Y-1.1
X3.475Y-1.2
X3.575Y-1.1
X3.575Y-1.2
X3.675Y-1.1
X3.675Y-1.2
X3.775Y-1.1
X3.775Y-1.2
X3.875Y-1.1
X3.875Y-1.2
X3.975Y-1.1
X3.975Y-1.2
X4.075Y-1.1
X4.075Y-1.2
X4.55Y-1.675
X4.55Y-1.775
X4.55Y-1.875
X4.55Y-1.975
X4.55Y-2.075
X4.55Y-2.175
X4.55Y-2.275
X4.55Y-2.375
X4.55Y-2.475
X4.55Y-2.575
X4.55Y-2.675
X4.55Y-2.775
X4.55Y-2.875
X4.55Y-2.975
X4.55Y-3.075
X4.55Y-3.175
X4.55Y-3.275
X4.55Y-3.375
X4.55Y-3.475
X4.55Y-3.575
X4.65Y-1.675
X4.65Y-1.775
X4.65Y-1.875
X4.65Y-1.975
X4.65Y-2.075
X4.65Y-2.175
X4.65Y-2.275
X4.65Y-2.375
X4.65Y-2.475
X4.65Y-2.575
X4.65Y-2.675
X4.65Y-2.775
X4.65Y-2.875
X4.65Y-2.975
X4.65Y-3.075
X4.65Y-3.175
X4.65Y-3.275
X4.65Y-3.375
X4.65Y-3.475
X4.65Y-3.575
T6
X1.1388Y-1.1388
X1.1388Y-4.6112
X4.6112Y-1.1388
X4.6112Y-4.6112
M30
